<svg width="1350" height="1350" viewBox="0 0 1350 1350" fill="none" xmlns="http://www.w3.org/2000/svg">
<path d="M405.144 609.37C382.584 589.981 372.406 561.67 370.201 532.655C367.944 505.178 376.798 477.943 394.779 457.048C405.764 444.32 418.695 435.356 434.978 430.772C440.951 429.09 446.131 427.22 452.475 427.039C532.511 424.782 557.239 520.023 509.176 573.296C488.479 596.237 457.557 610.835 426.954 614.233C422.646 614.711 416.213 612.626 413.238 614.825C411.483 618.929 416.997 626.398 413.107 628.877C409.841 628.846 406.599 626.169 403.99 624.274C394.882 632.922 385.76 654.808 381.866 666.893C380.697 670.523 379.721 679.751 379.651 683.904C379.21 711.39 392.442 731.211 385.854 759.825C381.106 780.441 371.96 792.083 358.236 807.788C354.21 812.393 348.246 819.018 345.623 824.31C339.133 837.401 338.012 849.522 339.335 863.682C341.592 859.726 349.47 849.051 354.477 849.526C359.296 853.577 349.419 864.667 346.847 869.547C349.818 867.145 352.83 864.573 355.871 862.284C358.752 860.118 364.974 854.074 367.794 858.656C367.925 862.745 357.593 871.875 354.646 875.587C357.916 873.517 369.272 865.221 372.42 868.947C372.65 874.155 361.511 881.8 357.372 884.7C361.347 883.517 369.661 879.876 372.153 884.39C371.064 889.646 357.752 893.207 352.746 896.375C359.413 910.265 363.913 920.354 358.677 936.097C354.393 948.992 344.694 955.022 340.222 966.603C338.664 970.662 337.801 974.956 337.665 979.301C337.627 980.737 337.899 983.952 337.289 984.731C335.534 981.638 337.059 972.582 337.956 969.104C339.903 961.559 344.525 956.209 349.025 950.151C363.58 930.56 362.003 917.782 351.451 897.468C346.388 901.518 342.662 903.475 336.829 906.159L336.539 906.604C333.306 911.611 328.388 924.108 325.136 930.536C318.886 942.892 305.082 966.627 291.178 970.606C285.06 972.356 261.425 966.247 255.468 962.563C253.808 964.468 252.902 965.576 250.929 967.166C257.523 991.61 263.34 1016.33 270.501 1040.67C272.673 1048.05 274.505 1055.71 275.958 1063.26C281.205 1091.96 286.918 1120.62 288.616 1149.81C288.809 1152.85 289.039 1163.74 289.804 1165.67C278.669 1177.79 259.722 1174.29 245.311 1171.48C244.349 1176.61 243.497 1182.86 242.023 1187.8C237.48 1203.04 235.974 1220.23 235.056 1236.04C234.359 1248.04 228.503 1281.16 233.879 1290.73C238.82 1293.03 241.832 1297.19 246.374 1300.07C251.094 1303.07 256.375 1305.11 261.495 1307.3C269.825 1310.61 277.272 1316.89 272.713 1326.85C271.379 1329.76 266.95 1331.34 264.038 1331.92C248.423 1334.96 232.672 1329.2 217.585 1325.88C212.741 1324.81 203.152 1326 198.404 1323.12C197.058 1322.43 196.347 1319.67 196.221 1318.32C195.757 1313.41 195.856 1303.28 197.801 1298.84C203.802 1285.14 199.334 1272.79 197.406 1258.69C196.261 1250.32 195.319 1240.34 194.841 1231.77C193.965 1219.05 195.985 1208.42 197.451 1195.94C197.923 1191.92 197.673 1183.99 197.624 1179.65C193.681 1180.97 189.727 1182.25 185.761 1183.51C182.405 1196.16 175.201 1210.58 173.585 1222.72C170.738 1244.1 161.224 1279.85 165.66 1300.26C168.872 1303.49 172.144 1306.79 175.166 1310.2C181.755 1317.62 191.138 1321.57 198.191 1328.29C201.119 1331.07 201.42 1337.41 199.048 1340.62C196.731 1343.26 194.755 1344.85 191.125 1345.55C188.56 1346.32 186.616 1346.65 183.972 1347.12C185.604 1348.49 188.832 1348.22 191.315 1348.42C188.727 1348.52 184.184 1348.5 181.875 1349.2L181.998 1349.53C179.529 1350.36 176.754 1349.95 174.272 1349.38C172.408 1348.35 166.802 1348.05 164.407 1347.82C166.336 1347.61 166.633 1347.65 168.344 1346.84C160.164 1344.97 153.257 1342.22 145.604 1338.82C138.246 1335.55 130.25 1335.93 126.906 1327.48L127.132 1326.53C127.424 1321.48 127.305 1313.66 128.356 1309.03C129.743 1303.7 132.775 1299.97 132.465 1294.17C131.357 1273.44 126.408 1252.68 127.952 1231.8C128.497 1224.43 130.23 1215.9 132.115 1208.73C134.461 1199.82 137.278 1192.32 138.113 1183.03C119.666 1178.86 110.214 1174.51 94.3478 1164.05C90.3354 1161.41 74.3958 1160.48 67.2776 1157.61C59.6363 1154.54 43.7497 1147.04 38.8744 1138.64C37.5503 1121.9 62.1654 1098.52 72.1205 1087.62C92.644 1065.16 107.592 1035.89 119.708 1008.47C118.777 1000.08 119.28 989.644 120.35 981.268C117.752 980.784 114.904 980.446 112.618 978.762C110.285 977.645 110.713 972.023 109.888 971.033C104.197 964.177 97.7713 958.401 94.7279 949.771C93.9114 951.249 94.0437 952.329 93.9902 954.023C94.497 960.16 96.6841 965.121 100.723 969.705C101.56 970.658 102.413 971.446 101.942 972.347C99.9841 972.577 100.554 972.802 99.1663 971.939C96.5649 971.033 95.4838 970.465 93.0438 969.17C88.2525 966.434 83.3585 959.25 79.8313 954.722C81.6252 963.844 82.7349 965.177 87.9869 972.647C77.9905 964.257 72.6174 947.885 73.0618 935.121C73.4236 933.516 73.7778 933.197 73.3673 931.855C71.9328 932.376 70.1657 934.985 69.8837 936.444C68.3306 940.339 68.1058 941.536 67.3583 945.642C67.0928 958.063 69.8701 962.845 78.4152 972.431C79.5235 973.675 80.5469 974.736 82.1901 974.862L82.5289 975.378C77.0798 976.58 69.514 961.549 65.8765 960.799C57.8208 956.857 59.0474 949.982 57.7397 943.005L56.8373 942.751L56.0749 942.273C55.4189 942.563 54.921 942.732 54.2439 942.981L53.7433 942.334L52.7124 940.757L52.4304 940.367C51.6271 940.1 42.8797 943.502 39.8917 943.671C29.6049 944.257 23.6283 942.282 15.7711 935.816C18.2336 935.82 24.556 941.456 30.8525 941.461C40.1057 941.465 47.4017 939.959 54.5344 933.493C52.535 930.039 52.7523 917.379 54.0572 913.352C54.2857 908.148 56.9096 901.781 58.87 896.985L58.2272 895.417L60.0051 892.4C58.6157 891.096 60.2435 891.161 58.0691 889.345L58.0522 888.252C55.5831 890.002 49.5916 896.764 47.6677 899.326L45.5196 899.162L42.8896 902.944C41.5396 904.638 39.4727 909.171 39.1724 911.137C38.378 913.263 38.0012 914.568 36.1984 916.112C35.3965 917.177 35.5565 918.491 35.526 919.87C29.4345 909.162 34.4224 894.385 38.5014 883.888C34.7016 888.984 31.7966 894.69 29.9108 900.758C28.2263 906.224 27.1119 914.005 29.519 919.439C30.0933 920.738 31.8966 923.178 32.79 924.872C29.3726 922.662 26.9875 916.853 26.7665 912.906C25.432 889.021 48.9867 870.073 62.8814 853.186C58.4519 855.818 52.8241 859.366 48.3049 861.554C37.006 866.873 25.4147 870.645 18.2918 881.804C15.1743 886.689 10.726 895.094 12.2027 901.109L11.7034 901.269C8.67923 889.228 18.121 875.826 25.9341 867.727C26.1293 866.938 26.0007 867.051 25.7586 866.122C25.9303 866.066 26.5493 865.906 26.6722 865.817C39.056 857.058 50.9889 848.501 61.4151 837.341C68.9598 829.265 68.2968 823.692 72.0131 814.373L72.2421 813.807C73.2387 812.775 75.1545 807.667 75.3089 806.07C75.6261 802.786 76.3759 802.909 74.6187 800.463C76.2694 798.207 76.7973 795.324 77.4735 792.6C86.0626 772.609 93.88 758.994 112.504 747.161C125.598 738.841 141.679 734.597 156.991 737.568C158.386 737.614 161.552 738.113 163.068 738.312C165.78 736.905 168.469 735.974 171.321 734.918C181.44 730.6 191.735 730.215 202.03 734.422C205.39 735.808 208.557 737.622 211.452 739.82C214.732 742.781 217.45 746.091 219.107 750.256L224.849 754.669L223.695 755.718L223.593 756.047C235.253 771.48 232.964 782.944 239.937 799.845C243.595 808.709 252.657 814.526 255.785 825.226C261.364 844.309 254.123 862.721 238.256 874.531C237.297 875.239 236.331 875.939 235.355 876.628C236.329 882.48 234.79 893.287 230.735 897.9C230.232 895.492 235.748 880.476 233.183 878.322C229.144 881.588 232.921 891.138 224.458 898.008C238.862 901.616 252.302 911.377 265.307 918.317C270.707 921.198 271.469 921.705 269.904 927.491C274.057 929.429 277.581 931.095 281.588 933.319C291.352 922.592 309.886 905.023 316.54 891.997C318.802 887.571 318.455 857.05 325.286 854.755C330.945 855.8 330.687 866.568 329.983 871.002C332.527 868.909 335.38 866.422 338.096 864.634C335.722 846.693 339.326 829.114 350.737 814.859C355.95 808.345 361.515 802.217 366.635 795.662C382.091 775.876 388.501 755.993 385.244 730.83C383.855 720.127 380.496 709.864 378.928 699.408C377.53 690.54 377.591 681.502 379.111 672.654C381.645 658.4 391.546 637.796 400.503 626.303C401.254 625.337 402.057 624.41 402.901 623.524C400.489 622.989 397.735 622.658 395.863 621.153L395.201 620.011C396.703 614.849 403.248 616.51 405.144 609.37Z" fill="black"/>
<path d="M77.4766 792.6C86.0658 772.609 93.8831 758.995 112.507 747.161C125.601 738.841 141.682 734.597 156.994 737.568C155.243 738.956 154.781 738.971 152.069 738.653C151.712 738.611 151.357 738.565 151.002 738.513C148.796 738.617 147.158 738.739 144.963 739.018C144.465 740.256 144.814 740.025 143.97 740.684C134.342 739.903 117.482 750.009 110.065 756.607C101.148 764.537 91.62 773.501 84.7317 783.4C83.0219 785.857 80.5838 792.935 79.0785 794.854C78.0213 793.877 78.0762 793.922 77.4766 792.6Z" fill="#181718"/>
<path d="M85.5469 779.942C90.8707 765.644 103.382 753.879 116.267 746.171C125.228 740.838 135.417 737.916 145.842 737.689C147.617 737.641 150.1 737.478 151.759 737.897L151.003 738.512C148.797 738.617 147.159 738.739 144.964 739.018C118.968 742.712 101.122 760.402 85.5469 779.942Z" fill="#FAFAFA"/>
<path d="M171.32 734.918C181.439 730.6 191.734 730.216 202.029 734.422C205.389 735.808 208.556 737.623 211.451 739.821C214.731 742.782 217.45 746.091 219.106 750.256C218.147 749.85 217.672 749.366 216.883 748.705C207.631 739.809 192.629 736.37 180.338 734.934C178.495 735.007 176.768 735.044 174.933 735.279C173.129 736.136 172.833 735.704 171.32 734.918Z" fill="#FAFAFA"/>
<path d="M171.32 734.918C181.439 730.6 191.734 730.216 202.029 734.422C205.389 735.808 208.556 737.623 211.451 739.821L210.979 740.634C202.164 733.382 190.901 732.009 179.948 733.214L180.338 734.934C178.495 735.007 176.768 735.044 174.933 735.279C173.129 736.136 172.833 735.704 171.32 734.918Z" fill="#181718"/>
<path d="M174.938 735.28L175.15 734.804C176.545 733.835 178.256 733.608 179.952 733.215L180.342 734.935C178.499 735.008 176.772 735.045 174.938 735.28Z" fill="#E5E5E6"/>
<path d="M211.456 739.82C214.736 742.781 217.455 746.091 219.111 750.256C218.152 749.849 217.677 749.365 216.888 748.704C216.619 745.785 213.016 742.601 210.984 740.633L211.456 739.82Z" fill="#626265"/>
<path d="M64.0614 935.845C65.0046 934.503 65.5564 933.452 66.9425 932.598C67.7688 933.963 65.4236 939.327 64.8413 940.885C64.7948 943.024 64.4631 942.832 65.3907 944.367L65.8539 944.564L67.3615 945.643C67.0959 958.064 69.8733 962.846 78.4184 972.433C79.5267 973.676 80.55 974.737 82.1933 974.863L82.532 975.38C77.0829 976.581 69.5171 961.551 65.8797 960.8C65.9768 960.467 66.0739 960.138 66.1711 959.805C63.5303 953.719 61.6599 947.022 62.2971 940.345C62.543 937.769 62.9531 936.492 62.9953 934.259L63.77 934.676L64.0614 935.845Z" fill="#181718"/>
<path d="M64.0582 935.845C65.0014 934.503 65.5532 933.452 66.9393 932.598C67.7656 933.963 65.4204 939.327 64.8381 940.885C64.4623 942.494 64.1127 943.799 63.6275 945.38L63.2305 945.291C63.116 941.434 63.3544 939.655 64.0582 935.845Z" fill="#FAFAFA"/>
<path d="M65.8509 944.562C65.9199 947.031 66.5913 952.38 65.7955 954.013C64.3695 950.649 64.8739 947.857 65.8509 944.562Z" fill="#747577"/>
<path d="M67.1663 872.969C61.3047 880.866 50.1498 890.955 45.5204 899.163L42.8904 902.945C41.5404 904.639 39.4735 909.172 39.1732 911.138C38.3788 913.264 38.002 914.568 36.1992 916.112C38.977 901.701 40.2726 898.126 50.8771 888.745L50.4956 887.91L55.0851 883.02L55.6008 883.518C59.5174 879.229 62.2863 876.343 67.1663 872.969Z" fill="#FAFAFA"/>
<path d="M55.0856 883.023L55.6013 883.521C54.0979 885.295 52.5973 887.2 50.8776 888.748L50.4961 887.913L55.0856 883.023Z" fill="#181718"/>
<path d="M79.0791 794.854C80.5844 792.935 83.0225 785.856 84.7323 783.399C91.6206 773.501 101.149 764.536 110.065 756.606C117.482 750.009 134.343 739.902 143.97 740.683C120.853 748.422 107.526 756.512 91.9814 776.107C89.3547 779.418 80.178 795.443 79.149 796.405C78.7051 795.48 78.8131 795.977 79.0791 794.854Z" fill="#C7C8C9"/>
<path d="M88.0966 946.645C88.7362 949.066 89.1345 951.182 91.1517 952.843L90.7914 953.599C93.9629 960.328 92.6218 962.716 98.2657 969.328L96.7379 969.981L93.5406 968.019C88.7338 963.791 86.0039 953.571 86.6481 947.442L88.0966 946.645Z" fill="#FAFAFA"/>
<path d="M88.0969 946.645C88.7365 949.066 89.1349 951.182 91.1521 952.843L90.7917 953.599C88.4113 951.647 87.9717 950.206 86.6484 947.442L88.0969 946.645Z" fill="#181718"/>
<path d="M63.2915 901.324L64.6912 901.488C61.3292 911.31 58.3736 920.399 56.9823 930.685C56.8861 931.399 56.018 932.628 55.5206 933.173C55.1955 931.403 55.8388 923.731 55.9415 921.343C57.0926 914.271 58.4392 906.988 63.2915 901.324Z" fill="#FAFAFA"/>
<path d="M88.0998 946.642C86.8489 939.228 91.1367 927.768 95.2518 921.879C95.6891 921.255 96.149 920.65 96.6304 920.059C92.5556 932.63 90.5525 939.181 91.155 952.841C89.1378 951.18 88.7394 949.063 88.0998 946.642Z" fill="#FAFAFA"/>
<path d="M54.061 913.351C54.6748 912.741 57.8571 904.843 58.9171 903.027L59.7457 903.304C57.7154 910.268 55.106 911.385 55.1074 920.075L55.9431 921.338C55.8403 923.726 55.197 931.398 55.5222 933.168L54.5382 933.491C52.5389 930.038 52.7561 917.377 54.061 913.351Z" fill="#181718"/>
<path d="M62.9927 934.258C62.9505 936.491 62.5404 937.768 62.2945 940.344C61.6573 947.022 63.5276 953.718 66.1684 959.804C66.0713 960.137 65.9742 960.466 65.877 960.799C59.9132 954.365 56.7633 941.414 62.9927 934.258Z" fill="#FAFAFA"/>
<path d="M168.347 1346.84C174.244 1347.29 178.015 1347.59 183.975 1347.12C185.607 1348.49 188.835 1348.22 191.318 1348.42C188.73 1348.52 184.188 1348.5 181.879 1349.2L182.001 1349.53C179.532 1350.36 176.757 1349.95 174.275 1349.38C172.411 1348.35 166.806 1348.05 164.41 1347.82C166.339 1347.6 166.636 1347.65 168.347 1346.84Z" fill="#C7C8C9"/>
<path d="M63.2891 901.321C66.5084 898.153 73.2095 884.728 77.0932 883.648C76.9037 884.329 76.6235 884.976 76.1022 885.455C73.0959 888.228 67.4056 899.838 64.6888 901.485L63.2891 901.321Z" fill="#C7C8C9"/>
<path d="M191.128 1345.56C192.613 1343.8 195.662 1343.7 196.32 1341.35C196.237 1341.34 188.526 1343.56 186.25 1343.69C188.814 1341.97 195.245 1342.34 196.744 1338.85C196.974 1338.32 197.009 1338.46 197.719 1338.23C198.132 1339.25 198.398 1339.75 199.051 1340.63C196.734 1343.27 194.758 1344.86 191.128 1345.56Z" fill="#181718"/>
<path d="M53.7461 942.335C54.2744 940.186 55.1294 937.159 57.8912 937.943C58.482 940.059 57.6252 940.852 56.0777 942.274C55.4217 942.565 54.9239 942.734 54.2468 942.983L53.7461 942.335Z" fill="#FAFAFA"/>
<path d="M50.4971 887.912L49.3555 888.095L49.3747 887.358C50.9461 884.899 53.0361 882.806 55.4986 881.234L55.874 881.46L55.0866 883.022L50.4971 887.912Z" fill="#E5E5E6"/>
<path d="M64.6119 887.309C62.8922 890.861 60.9951 893.69 58.8733 896.985L58.2305 895.417L60.0084 892.4C61.6192 890.476 62.8003 889.059 64.6119 887.309Z" fill="#C7C8C9"/>
<path d="M58.9141 903.032C59.6794 900.995 62.2761 893.595 63.9686 892.656C63.7654 894.35 60.6005 901.342 59.7427 903.308L58.9141 903.032Z" fill="#747577"/>
<path d="M93.5452 968.016L96.7425 969.977C97.6209 970.601 98.4697 971.122 99.1694 971.939C96.568 971.033 95.4869 970.465 93.0469 969.17L93.5452 968.016Z" fill="#181718"/>
<path d="M93.4278 949.582C93.058 947.264 92.8797 943.477 93.2898 941.191L93.7304 942.149L93.2448 941.459C94.1579 942.435 93.9983 944.561 94.11 946.137L93.4278 949.582Z" fill="#A0A1A2"/>
<path d="M98.27 969.328L101.944 972.35C99.9869 972.58 100.557 972.805 99.169 971.942C98.4694 971.125 97.6206 970.605 96.7422 969.98L98.27 969.328Z" fill="#E5E5E6"/>
<path d="M93.4258 949.581L94.1081 946.137L94.7298 949.773C93.9133 951.252 94.0456 952.331 93.9922 954.025C93.7364 952.72 93.5853 950.942 93.4258 949.581Z" fill="#E5E5E6"/>
<path d="M212.796 898.549C228.364 898.136 242.535 907.249 255.59 914.71C259 916.657 266.446 920.519 269.298 922.673C266.393 935.146 259.82 956.506 250.41 965.455C248.183 956.122 243.955 938.356 239.021 930.176C238.077 931.5 242.548 942.002 243.063 944.24C251.981 983.015 264.714 1021.66 273.719 1060.3C281.456 1093.49 285.764 1131.73 287.58 1165.72C284.522 1167.84 281.359 1170.1 277.726 1171.19C261.143 1175.93 243.791 1167.03 226.901 1169.32C217.459 1170.6 208.379 1174.22 199.302 1177.46C170.042 1187.95 135.709 1185.63 108.402 1170.64C99.2301 1165.6 90.5466 1158.28 81.78 1152.78C69.4905 1145.07 57.1306 1140.24 42.9656 1137.55C42.1158 1137.39 40.9104 1136.75 40.375 1136.03C40.4796 1117.41 79.5789 1085.89 89.0901 1070.11C100.526 1051.15 111.52 1030.6 120.035 1010.24C122.482 1028.61 127.927 1035.59 147.402 1032.88C167.596 1030.07 183.442 1018.69 200.31 1008.25C204.28 1006.21 209.001 1005.39 212.909 1003.27C216.212 1001.47 218.682 998.04 222.045 996.318C226.279 994.15 232.512 995.943 236.042 992.494C236.676 990.898 236.695 991.649 236.171 990.166C233.556 987.909 227.686 988.003 224.022 987.646C227.556 986.412 239.61 983.479 238.646 978.819C235.022 974.751 223.473 979.444 218.127 980.223C222.813 977.14 233.862 971.978 235.486 967.543C235.327 965.718 235.683 966.45 234.56 965.192C229.966 963.634 220.354 968.35 215.917 970.485C220.138 967.06 228.144 963.17 228.648 958.82C226.065 953.644 214.168 961.527 210.574 963.663C210.797 961.321 211.476 957.698 208.266 957.52C202.76 960.744 195.893 979.317 191.481 985.614C184.101 989.359 165.531 992.17 156.218 994.333C157.111 990.33 157.546 987.468 157.61 983.334C159.3 983.653 163.379 984.662 164.495 983.606C167.214 981.034 168.429 968.885 168.735 965.314C169.165 960.091 169.249 954.845 168.985 949.608C167.181 961.523 167.072 970.462 164.129 982.775C156.476 982.109 153.094 980.03 146.004 978.022C136.401 975.305 122.098 972.029 112.409 973.676C120.243 953.043 130.973 922.176 151.712 911.181C153.745 910.106 156.413 908.539 158.486 907.652L158.254 906.296C159.391 904.635 159.876 903.645 162.014 903.772L162.919 905.057C165.4 903.678 167.902 902.336 170.422 901.031C179.455 909.351 190.649 915.569 203.324 915.034C210.027 914.752 216.277 913.058 215.514 904.879C215.361 903.241 213.577 900.083 212.796 898.549Z" fill="#FAFAFA"/>
<path d="M158.482 907.649L158.25 906.293C159.388 904.632 159.872 903.642 162.01 903.769L162.916 905.054C161.456 905.969 160.04 906.922 158.482 907.649Z" fill="#181718"/>
<path d="M261.693 1045.79C264.042 1048.56 266.231 1092.25 266.296 1097.93C266.381 1104.87 266.145 1111.82 265.59 1118.74C264.491 1116.97 265.421 1102.29 265.293 1099.31C264.707 1085.7 263.863 1072.17 262.589 1058.6C262.212 1054.6 261.561 1049.74 261.693 1045.79Z" fill="#434141"/>
<path d="M230.549 1081.95L231.338 1083.38C229.648 1089.22 228.542 1095.65 226.891 1101.72C222.743 1116.97 218.478 1129.5 212.389 1144.01L211.637 1143.72C218.793 1127.84 226.962 1098.75 230.549 1081.95Z" fill="#181718"/>
<path d="M184.4 1082.24L185.162 1082.08C185.086 1088.03 164.147 1119.05 158.714 1124.35C157.64 1123.31 161.331 1119.94 162.046 1118.92C169.152 1108.82 180.421 1093.57 184.4 1082.24Z" fill="#C7C8C9"/>
<path d="M155.59 918.287L156.231 918.043C162.844 920.802 168.22 933.857 169.177 940.539C168.861 940.29 168.545 940.037 168.228 939.784C166.191 933.824 165.146 929.178 161.47 923.96C159.172 920.694 156.101 919.915 155.59 918.287Z" fill="#181718"/>
<path d="M124.094 1047.61C124.111 1047.66 124.136 1047.72 124.145 1047.77C124.565 1050.54 112.666 1065.02 110.455 1068.06C109.935 1065.34 121.41 1051.98 124.094 1047.61Z" fill="#626265"/>
<path d="M123.912 1031.25L124.231 1031.58C124.282 1034.34 112.962 1048.9 110.533 1052.13L110.223 1051.73C112.573 1047.4 120.406 1036.99 123.912 1031.25Z" fill="#626265"/>
<path d="M230.551 1081.94C232.08 1073.93 232.296 1067.74 232.895 1059.78C234.096 1065.26 232.525 1077.75 231.339 1083.38L230.551 1081.94Z" fill="#8B8B8D"/>
<path d="M231.996 911.188C235.07 913.276 238.932 923.778 239.896 927.602C239.568 927.424 239.24 927.241 238.913 927.062C237.28 923.088 233.31 914.796 231.996 911.188Z" fill="#181718"/>
<path d="M101.183 1061.28L101.38 1062.13C99.0551 1065.98 92.225 1073.19 88.543 1075.89C88.8161 1074.77 99.3915 1063.29 101.183 1061.28Z" fill="#8B8B8D"/>
<path d="M118.957 1026.84L119.731 1027.65C118.968 1031.1 111.502 1041.97 109.157 1045.05L108.863 1044.79C111.147 1039.63 117.724 1032.52 118.957 1026.84Z" fill="#8B8B8D"/>
<path d="M172.574 947.07L173.316 947.432C174.513 950.055 173.549 956.216 173.228 959.285L172.731 959.346C172.183 957.835 172.532 949.257 172.574 947.07Z" fill="#747577"/>
<path d="M211.636 1143.71L212.389 1144.01C211.85 1145.31 210.87 1147.89 209.805 1148.61C210.01 1146.71 210.795 1145.45 211.636 1143.71Z" fill="#747577"/>
<path d="M455.251 428.106C465.143 426.919 483.344 432.095 492.175 436.747C509.466 445.942 522.398 461.628 528.127 480.355C535.592 505.2 532.922 531.99 520.694 554.87C504.619 584.61 476.639 600.747 445.149 610.196C429.641 614.774 412.083 615.854 400.103 603.015C362.589 562.802 360.332 492.224 400.422 452.785C414.33 439.107 435.427 428.237 455.251 428.106Z" fill="#ED3439"/>
<path d="M498.586 470.051C507.365 470.133 512.165 478.899 504.292 485.005C495.414 487.581 491.557 476.012 498.586 470.051Z" fill="#FAFAFA"/>
<path d="M180.771 748.539C191.566 755.798 192.774 764.904 192.434 777.307L193.361 778.822C194.196 766.637 193.643 759.695 186.02 749.903C201.739 754.211 223.448 766.158 230.985 780.327C237.801 793.141 234.232 797.264 245.482 811.256C247.775 814.16 251.498 819.755 252.923 823.143C256.912 833.076 256.773 844.19 252.537 854.021C246.957 866.995 237.156 874.522 224.403 879.524C222.086 880.435 216.56 882.734 215.005 884.029C209.62 888.52 210.083 895.995 212.637 901.838C213.365 903.973 214.707 905.864 213.645 908.116C212.656 910.214 210.643 912.147 208.402 912.696C196.338 915.634 180.622 909.116 172.356 900.439C179.889 893.429 177.324 881.186 169.051 876.188C167.355 875.165 165.93 874.583 164.975 872.748C163.102 872.537 160.803 874.081 158.921 874.48C148.962 876.573 143.041 871.402 139.449 862.907L143.635 858.592C144.127 858.582 144.548 858.292 145.066 858.05L145.962 857.376C148.241 857.531 147.199 858.799 148.72 859.37C147.527 856.414 148.922 859.341 148.523 856.236L148.411 855.348C147.83 855.117 147.863 855.044 147.363 854.613C148.159 851.482 153.712 847.279 156.31 843.168C156.029 846.251 155.805 848.025 156.09 851.086L156.534 850.861C157.601 846.903 157.644 844.001 157.882 839.953C157.841 836.487 157.692 832.48 157.965 829.069L158.127 829.563L159.377 828.804C159.25 827.025 159.118 826.69 159.717 825.076C162.165 821.404 165.502 817.07 167.655 813.43C179.084 797.214 188.907 775.959 183.938 755.858L180.771 748.539Z" fill="#FAFAFA"/>
<path d="M159.134 835.246C160.698 844.504 161.024 853.99 158.094 863.018C156.147 858.189 154.164 855.255 148.407 855.347C147.826 855.116 147.86 855.043 147.359 854.612C148.156 851.481 153.709 847.278 156.307 843.167C156.026 846.25 155.802 848.024 156.087 851.085L156.531 850.861C157.597 846.902 157.641 844 157.879 839.952C158.542 838.128 158.058 837.427 159.134 835.246Z" fill="#FAFAFA"/>
<path d="M245.478 811.258C247.772 814.162 251.494 819.756 252.919 823.145C251.357 823.608 249.206 824.037 247.574 824.416C244.243 823.426 234.726 820.003 239.225 815.231C241.163 813.174 241.958 812.266 244.816 812.107L245.478 811.258Z" fill="#FBA4A2"/>
<path d="M242.789 813.375C245.538 814.103 246.773 818.277 247.564 820.757C244.867 819.937 243.482 815.884 242.789 813.375Z" fill="#EB776E"/>
<path d="M157.882 839.95C157.841 836.484 157.691 832.477 157.965 829.066L158.126 829.56L159.376 828.801C161.119 840.185 163.331 851.741 159.26 862.915C158.635 864.632 157.607 868.259 156.17 869.339L155.702 869.175C156.102 867.011 156.667 865.688 157.439 863.665C156.722 861.688 156.006 859.56 155.149 857.653C154.465 860.974 152.849 865.453 153.609 868.306L153.397 868.705C150.263 862.152 157.416 859.238 150.758 856.941C150.017 856.693 149.272 856.457 148.523 856.233L148.41 855.345C154.167 855.253 156.15 858.187 158.097 863.016C161.027 853.988 160.701 844.503 159.137 835.244C158.061 837.425 158.544 838.126 157.882 839.95Z" fill="#181718"/>
<path d="M157.878 839.954C157.838 836.488 157.688 832.481 157.961 829.07L158.123 829.564C158.815 832.003 158.897 832.767 159.133 835.248C158.058 837.429 158.541 838.13 157.878 839.954Z" fill="#E5E5E6"/>
<path d="M180.77 748.539C191.565 755.798 192.773 764.904 192.433 777.307L191.913 777.239C191.233 770.634 190.022 761.66 185.805 756.461C184.694 755.592 185.302 755.77 183.937 755.858L180.77 748.539Z" fill="#E5E5E6"/>
<path d="M185.801 756.461C190.018 761.661 191.229 770.635 191.909 777.239L192.429 777.307L193.355 778.822C192.882 782.585 191.487 788.206 188.155 790.399C188.648 788.871 190.691 783.479 190.781 782.605C191.72 773.537 188.809 764.591 185.801 756.461Z" fill="#181718"/>
<path d="M143.633 858.592C144.125 858.583 144.545 858.292 145.064 858.051C145.157 860.498 146.795 864.608 146.545 865.706C145.345 864.885 144.261 862.164 143.964 860.71C143.825 860.008 143.714 859.302 143.633 858.592Z" fill="#181718"/>
<path d="M195.484 834.807C197.438 834.73 200.787 835.434 202.728 835.818C207.156 836.762 209.97 840.003 208.594 844.603C206.929 850.167 202.273 852.33 197.55 854.839C189.734 855.66 186.363 853.36 183.918 846.095C184.339 844.562 184.699 842.961 185.07 841.411C188.569 837.192 190.443 837.103 195.484 834.807Z" fill="#FBA4A2"/>
<path d="M195.977 836.523C196.33 836.848 196.673 837.185 197.005 837.533C199.636 840.315 199.944 841.836 199.866 845.373C198.101 845.556 198.846 845.778 197.502 844.9C196.071 842.269 196.115 839.484 195.977 836.523Z" fill="#EB776E"/>
<path d="M195.237 815.766C200.475 817.675 203.657 823.263 199.25 827.929C193.131 826.102 190.457 820.695 195.237 815.766Z" fill="black"/>
<path d="M232.034 798.543C236.912 800.219 239.284 806.1 234.632 809.959C229.823 807.428 226.759 802.536 232.034 798.543Z" fill="black"/>
<path d="M236.521 841.168C242.121 843.803 237.854 849.52 234.176 851.874C232.779 851.604 232.84 851.562 231.838 850.646C230.047 846.586 233.223 843.145 236.521 841.168Z" fill="black"/>
<path d="M234.926 844.828C235.687 845.504 235.682 845.796 236.138 846.766C235.735 848.819 235.839 848.201 234.297 849.996L233.325 849.537L233.004 848.367C233.429 846.666 233.86 846.288 234.926 844.828Z" fill="#FAFAFA"/>
<path d="M226.116 816.4C237.196 816.246 234.17 824.9 231.83 824.917L232.089 824.25C232.537 821.616 232.774 820.402 230.674 818.558C228.248 817.872 227.073 818.296 224.645 818.547L224.649 817.792L226.116 816.4Z" fill="black"/>
<path d="M186.134 799.371L186.545 799.558L186.74 800.108C183.331 803.944 181.948 805.717 179.418 810.2L178.615 809.876C178.273 806.185 183.178 801.219 186.134 799.371Z" fill="black"/>
<path d="M222.117 782.259C224.416 781.964 227.86 781.78 229.429 783.788L228.864 784.216C226.307 783.602 222.313 784.135 221.422 783.404L222.117 782.259Z" fill="black"/>
<path d="M139.755 1183.33C153.956 1186.86 169.456 1185.75 183.76 1183.7C179.297 1200.46 171.762 1213.9 170.095 1231.83C169.261 1240.79 166.352 1250.75 165.601 1260.03C164.537 1273.19 159.972 1286.96 163.937 1300.03C163.718 1301.7 156.929 1302.43 154.907 1303.2C150.242 1304.97 146.753 1308.35 143.091 1311.56C138.113 1309.05 136.32 1307.68 133.393 1303.03C135.822 1288.55 133.121 1281.4 131.618 1267.13C130.698 1258.4 129.608 1246.29 129.719 1237.56C129.824 1229.26 131.713 1217.89 133.728 1209.81C135.956 1200.87 139.311 1192.69 139.755 1183.33Z" fill="#FAFAFA"/>
<path d="M161.466 1195.15C165.462 1194.73 170.205 1196.1 172.499 1199.6C173.003 1203.19 170.714 1203.7 167.854 1204.71C164.386 1205.27 160.087 1205.49 157.813 1202.13C157.259 1201.31 157.079 1200.3 157.318 1199.34C157.835 1197.29 159.766 1196.07 161.466 1195.15Z" fill="#FCDBDB"/>
<path d="M228.588 1170.89C232.476 1170.32 239.389 1171 243.451 1171.31C241.46 1183.34 238.233 1193.18 236.001 1204.76C234.503 1215.17 234.103 1225.76 233.164 1236.23C232.243 1246.49 230.703 1256.73 230.502 1267.04C230.333 1275.74 228.424 1283.63 232.202 1291.75C224.577 1294.58 220.578 1299.76 215.297 1301.95C209.565 1300.47 206.933 1299.34 202.671 1295.29C203.798 1273.66 197.241 1252.93 196.75 1230.88C196.454 1217.54 197.722 1209.04 199.41 1196.02C199.939 1191.94 199.523 1183.32 199.33 1179.15C210.354 1175.88 215.985 1172.31 228.588 1170.89Z" fill="#FAFAFA"/>
<path d="M219.947 1189.09C224.779 1188.65 233.551 1189.45 228.971 1196.39C221.634 1198.23 217.668 1197.46 219.947 1189.09Z" fill="#FCDBDB"/>
<path d="M154.56 994.89C148.923 996.227 148.04 996.344 143.12 999.122L143.012 999.596C147.821 998.836 153.204 996.865 158.117 995.744C168.112 993.458 178.153 991.994 187.923 988.874C195.627 986.41 195.411 980.836 199.075 975.242C201.776 971.122 222.645 956.458 226.552 958.996C226.057 962.84 213.629 969.264 212.712 972.107L213.35 972.807C217.104 972.492 226.452 966.157 232.963 966.772L233.514 967.41C230.802 972.957 217.663 975.843 217.588 980.432C220.839 982.544 230.78 977.598 236.428 979.395L236.536 980.103C233.216 983.262 221.172 986.964 216.284 988.925C220.481 989.198 231.258 989.291 234.411 990.812L234.54 991.45C231.052 994.139 225.418 992.792 221.166 994.96C218.978 996.072 214.176 1000.87 212.761 1001.34C202.668 1004.68 196.211 1009.08 187.424 1014.52C171.782 1024.2 153.504 1033.6 134.506 1031.03C125.939 1029.2 124.02 1022.52 122.489 1014.93C120.375 1003.5 121.164 986.476 122.632 974.881C134.85 976.974 144.048 978.949 155.787 982.989C155.498 987.391 155.244 990.512 154.56 994.89Z" fill="#FAFAFA"/>
<path d="M122.488 1014.93C130.955 1011.88 134.515 1024.71 134.505 1031.02C125.938 1029.19 124.018 1022.52 122.488 1014.93Z" fill="#FCDBDB"/>
<path d="M323.911 856.383C330.086 858.673 328.786 865.471 328.617 870.895C334.562 878.877 332.169 879.98 334.299 887.831C337.213 884.269 333.07 875.363 331.465 871.848C333.933 870.093 336.167 868.141 338.475 866.184C340.498 875.527 346.396 887.596 350.797 896.043C345.856 900.313 338.597 902.598 335.092 906.282C332.995 908.483 328.091 920.285 326.576 923.56C318.693 940.58 311.664 952.278 298.173 965.216C297.395 965.774 295.776 966.891 294.983 967.299C285.411 972.203 265.866 964.709 255.949 961.471C262.504 951.302 266.429 940.946 269.452 929.346C273.609 931.134 278.603 933.067 281.991 935.986C292.932 921.143 311.457 908.093 318.763 891.163C319.49 889.473 319.758 871.768 322.076 867.648C322.221 867.39 323.62 857.719 323.911 856.383Z" fill="#FAFAFA"/>
<path d="M352.998 850.957L354.035 851.411C356.372 857.039 341.319 868.742 345.186 872.238C349.972 872.398 360.262 857.94 365.757 858.433C367.193 862.16 353.008 872.59 351.52 877.7C354.749 879.925 364.57 869.099 370.341 869.291L370.815 869.84C370.252 873.106 367.052 875.035 364.448 877.067C362.364 878.672 355.223 883.838 354.373 885.556C356.926 887.879 366.17 882.646 370.139 884.528C368.774 888.714 357.738 890.839 352.595 894.716L352.098 895.096C348.47 888.629 346.157 883.843 343.501 876.935C344.627 877.766 345.768 878.897 346.978 879.047C345.819 877.442 345.078 877.123 343.393 876.128C341.554 872.59 340.808 869.014 339.973 865.148C344.318 859.564 347.401 855.419 352.998 850.957Z" fill="#FAFAFA"/>
<path d="M40.418 1138.65C57.4762 1140.14 77.8097 1151.39 91.3595 1161.44C86.1614 1161.34 71.9655 1157.88 66.7205 1156.15C58.6573 1153.49 45.9394 1145.32 40.418 1138.65Z" fill="#FAFAFA"/>
<path d="M166.241 1310.68C173.487 1310.48 176.567 1314.72 181.908 1319.66C176.323 1323.01 173.722 1323.89 167.235 1324.21C160.781 1323.75 157.158 1322.02 151.543 1319.11C155.842 1313.89 159.774 1312.1 166.241 1310.68Z" fill="#FAFAFA"/>
<path d="M123.869 777.727L124.614 778.565C119.846 785.059 114.112 798.324 109.722 805.786C104.185 815.199 102.133 823.516 94.7578 832.575C96.5259 828.242 99.26 824.177 100.757 820.558C100.237 820.159 99.7227 819.754 99.2131 819.343C99.4196 818.452 99.6345 818.021 99.9864 817.182C103.773 808.944 107.371 800.344 111.723 792.419C111.724 791.907 112.182 791.059 112.414 790.527L113.442 790.236L114.715 791.267C117.874 785.797 119.923 782.543 123.869 777.727Z" fill="#E5E5E6"/>
<path d="M111.725 792.418C111.725 791.906 112.183 791.057 112.416 790.526L113.444 790.234L114.717 791.266C110.792 799.223 104.69 813.792 100.759 820.557C100.239 820.158 99.7244 819.753 99.2148 819.342C99.4213 818.451 99.6362 818.02 99.9881 817.181C103.774 808.943 107.372 800.343 111.725 792.418Z" fill="#181718"/>
<path d="M111.725 792.422C112.056 795.868 103.042 812.722 100.748 817.274C100.063 817.294 100.282 817.425 99.9883 817.185C103.774 808.947 107.372 800.347 111.725 792.422Z" fill="#A0A1A2"/>
<path d="M239.021 1299.36C242.542 1299.61 249.364 1303.09 251.082 1306.36C251.03 1310.62 243.699 1310.56 240.492 1310.58C234.452 1309.42 231.635 1308.45 226.121 1306.09C230.493 1302.49 233.633 1300.74 239.021 1299.36Z" fill="#FAFAFA"/>
<path d="M182.589 762.539C185.428 776.451 180.077 789.678 173.321 801.451C171.271 805.023 169.397 809.093 167.216 812.576L167.655 813.431C165.501 817.072 162.165 821.405 159.717 825.078L159.41 824.324L159.09 823.97C158.703 822.599 160.455 817.38 161.258 816.114C166.618 807.654 172.73 799.644 176.557 790.299C179.598 782.873 180.556 774.983 181.595 767.048C182.253 765.894 181.562 764.468 182.589 762.539Z" fill="#FAFAFA"/>
<path d="M167.212 812.574L167.651 813.429C165.498 817.07 162.162 821.403 159.714 825.076L159.406 824.322C160.533 822.045 165.563 814.962 167.212 812.574Z" fill="#8B8B8D"/>
<path d="M405.34 613.621C412.702 614.444 414.982 623.682 411.468 627.148C409.394 627.071 407.353 625.229 405.907 623.765L405.987 622.918C406.405 622.213 406.836 621.318 407.221 620.578L407.015 620.366L404.443 622.867C401.126 621.957 398.752 621.37 395.594 619.925C395.692 619.847 395.786 619.769 395.885 619.691L396.373 619.309C399.376 616.923 402.027 615.519 405.34 613.621Z" fill="#ED3439"/>
<path d="M82.9133 881.16L83.024 881.733C82.0283 883.718 80.4006 886.05 79.2247 888.138C73.6831 897.992 69.9303 910.104 62.7764 918.827C62.6376 917.537 63.5164 914.965 63.9322 913.604C67.3204 902.507 74.9726 889.687 82.9133 881.16Z" fill="#FAFAFA"/>
<path d="M118.003 762.715L119.089 762.551C114.689 769.213 106.035 776.504 101.07 783.618C93.899 793.895 89.6173 804.448 84.0842 815.517L83.1758 815.421L83.2949 814.801C90.3831 795.118 102.208 776.537 118.003 762.715Z" fill="#E5E5E6"/>
<path d="M61.0399 842.133L62.1529 843.762C54.2962 854.802 41.4633 861.437 29.5938 867.302C38.9196 858.593 52.2503 851.61 61.0399 842.133Z" fill="#FAFAFA"/>
<path d="M176.365 768.898C178.39 779.398 167.006 804.183 161.359 813.251C161.056 810.935 169.732 790.951 170.95 786.815C172.44 781.757 174.594 773.858 176.365 768.898Z" fill="#FAFAFA"/>
<path d="M110.277 788.081C117.096 775.496 126.238 760.508 139.807 754.344C129.306 764.47 118.189 775.902 111.077 788.788L110.277 788.081Z" fill="#E5E5E6"/>
<path d="M147.078 893.85C147.652 892.316 149.38 886.948 150.516 886.234C150.972 892.264 135.947 917.848 131.21 923.395C130.468 924.258 129.689 925.089 128.875 925.886C131.997 919.636 139.138 910.392 141.31 905.216C140.541 904.244 140.711 904.779 140.747 903.569C141.162 901.687 142.921 897.511 143.699 895.53L144.231 897.173L146.205 893.001L147.078 893.85Z" fill="#C7C8C9"/>
<path d="M146.202 893.004L147.075 893.853C145.578 897.349 143.47 902.117 141.307 905.219C140.538 904.247 140.708 904.782 140.744 903.571C141.159 901.69 142.918 897.513 143.696 895.533L144.228 897.176L146.202 893.004Z" fill="#181718"/>
<path d="M140.746 903.57C141.161 901.688 142.92 897.512 143.698 895.531L144.23 897.174C143.291 899.29 142.319 901.946 140.746 903.57Z" fill="#747577"/>
<path d="M152.258 769.688L152.938 770.732C148.376 780.74 142.866 791.164 137.924 801.039C135.917 805.049 132.682 808.675 130.429 812.456L129.586 812.07L131.941 807.541C135.929 802.247 138.788 795.462 141.86 789.666C145.433 782.926 149.017 776.622 152.258 769.688Z" fill="#E5E5E6"/>
<path d="M115.399 923.789C109.382 937.496 105.902 949.392 112.495 963.849L112.889 965.248L112.135 965.839C104.357 950.194 105.573 937.993 115.399 923.789Z" fill="#E5E5E6"/>
<path d="M159.982 762.543L160.847 763.6C158.143 773.427 151.381 790.365 147.336 799.946C148.876 790.665 155.846 771.207 159.982 762.543Z" fill="#E5E5E6"/>
<path d="M118.676 808.666C120.67 803.406 127.67 789.939 131.06 785.273C129.358 790.917 127.342 794.881 124.729 800.088C126.355 801.489 125.583 799.742 128.262 801.53L127.716 802.497L126.12 801.716C125.269 803.008 123.398 806.546 122.477 807.067C121.491 808.159 120.604 809.082 119.768 810.308C119.368 809.549 119.627 809.889 118.833 809.416L118.676 808.666Z" fill="#E5E5E6"/>
<path d="M124.729 800.086C126.355 801.487 125.583 799.74 128.262 801.528L127.716 802.495L126.12 801.714C125.269 803.006 123.398 806.544 122.477 807.065C121.491 808.158 120.604 809.08 119.768 810.306C119.368 809.547 119.627 809.887 118.833 809.414L118.676 808.664C121.236 806.296 122.903 803.096 124.729 800.086Z" fill="#181718"/>
<path d="M138.043 884.934L138.322 885.351C137.772 890.874 127.345 905.698 123.18 910.241C120.472 913.197 116.447 916.913 113.397 919.626L113.145 919.447C113.619 918.241 122.646 908.983 124.726 906.003C129.431 899.269 134.378 892.376 138.043 884.934Z" fill="#E5E5E6"/>
<path d="M90.2393 917.816C90.854 918.68 88.6632 922.021 88.0954 923.222C83.7119 932.499 81.614 942.391 82.5994 952.616C77.5195 941.378 83.2474 927.033 90.2393 917.816Z" fill="#E5E5E6"/>
<path d="M131.413 781.141C131.57 784.196 126.8 788.928 124.944 792.035C119.404 801.31 115.747 811.101 109.859 820.185C109.747 818.899 112.06 814.329 112.737 812.934C118.171 801.738 122.945 790.479 131.413 781.141Z" fill="#C7C8C9"/>
<path d="M109.595 763.094L110.02 764.418C102.606 771.948 94.4245 783.516 87.793 789.963C92.8691 779.216 101.347 771.158 109.595 763.094Z" fill="#E5E5E6"/>
<path d="M126.78 829.215L127.095 830.67C117.144 840.715 108.91 845.856 95.6133 850.934C102.539 845.202 105.714 845.391 112.643 841.101C115.441 839.368 123.929 831.672 126.78 829.215Z" fill="#E5E5E6"/>
<path d="M125.238 781.574C132.068 770.377 138.103 763.059 149.368 755.922C146.734 758.673 143.966 761.285 141.268 763.973C135.653 769.565 131.029 776.065 126.084 782.224L125.238 781.574Z" fill="#E5E5E6"/>
<path d="M118.715 761.669C124.079 755.809 142.661 744.676 150.13 743.668C140.767 748.582 127.716 755.977 119.432 762.37L118.715 761.669Z" fill="#E5E5E6"/>
<path d="M94.8951 824.438C93.3739 832.138 75.3908 847.36 68.693 851.274L68.6367 850.692C70.2494 848.562 78.4806 842.487 81.5189 839.403C86.099 834.752 90.5224 828.667 94.8951 824.438Z" fill="#E5E5E6"/>
<path d="M99.6463 790.895L100.135 791.146C100.168 792.85 95.4913 799.933 94.3637 801.974C89.1173 811.468 86.1129 821.811 80.6407 831.108L80.439 831.173L80.0781 830.771C83.4045 822.179 88.0953 812.25 92.0218 803.938C93.8959 799.97 97.4986 795.53 99.6463 790.895Z" fill="#A0A1A2"/>
<path d="M145.969 814.418L146.396 814.86C145.278 820.541 129.785 837.671 125.102 842.176L124.891 841.788C127.411 837.991 132.148 832.855 135.09 828.943C138.463 824.457 142.359 818.41 145.969 814.418Z" fill="#E5E5E6"/>
<path d="M166.867 753.395C167.212 753.713 167.604 754.025 167.591 754.654C167.408 763.613 167.447 773.121 162.824 780.709C163.54 777.243 167.267 766.773 165.604 764.215C164.191 769.864 163.086 773.727 160.967 779.079C160.838 778.322 160.633 777.429 160.899 776.701C163.888 768.539 165.587 761.973 166.867 753.395Z" fill="#C7C8C9"/>
<path d="M120.698 858.234L120.984 858.492C119.162 862.483 104.303 874.144 100.31 876.959L100.016 876.448C105.183 870.526 114.161 862.648 120.698 858.234Z" fill="#E5E5E6"/>
<path d="M111.045 779.75C109.315 784.762 98.7621 803.452 95.5766 809.466L94.793 809.123C99.2394 799.362 104.245 788.13 111.045 779.75Z" fill="#C7C8C9"/>
<path d="M200.246 752.57C200.552 752.598 200.857 752.624 201.163 752.651C214.674 756.029 218.728 762.484 226.42 772.398C223.851 771.212 219.051 764.591 216.107 762.317C210.676 758.123 206.22 755.788 200.246 752.57Z" fill="#E5E5E6"/>
<path d="M136.777 776.81C140.193 770.905 142.706 766.824 147.836 762.035C145.859 765.056 136.193 779.105 136.059 781.636C137.745 780.091 138.696 777.95 141.12 776.059C139.043 779.786 137.743 782.454 134.559 785.271L133.746 785.366C133.194 783.53 134.875 780.26 135.662 778.399C135.797 778.275 136.613 777.049 136.777 776.81Z" fill="#C7C8C9"/>
<path d="M94.6004 874.215C92.2402 877.927 89.2503 880.953 86.7723 884.604C82.9579 890.221 79.3886 896.12 75.8107 901.901L74.9844 901.366C79.8512 891.892 86.3214 881.028 94.6004 874.215Z" fill="#C7C8C9"/>
<path d="M128.827 878.32C121.642 890.009 113.694 894.364 105.019 903.468L104.105 902.97C111.573 895.472 121.322 885.401 128.827 878.32Z" fill="#C7C8C9"/>
<path d="M115.328 877.859C115.95 880.238 108.886 884.246 107.022 885.227C100.956 888.432 96.2907 892.073 91.1695 896.545L91.0391 895.907C91.8743 892.317 110.413 881.388 115.328 877.859Z" fill="#C7C8C9"/>
<path d="M177.397 738.627C183.322 737.988 192.92 739.869 198.471 741.904L198.326 742.192L198.107 741.714L197.636 742.24C196.343 742.257 191.003 741.174 189.416 740.88C188.672 740.809 187.053 740.602 186.48 740.199C183.258 737.934 170.931 743.454 168.711 741.362C168.494 741.53 176.643 738.88 177.397 738.627Z" fill="#C7C8C9"/>
<path d="M122.25 763.867L122.399 764.483C118.881 770.506 112.038 776.343 107.535 781.773C105.581 784.129 103.74 787.151 100.95 788.286L100.895 788.115C102.924 786.429 103.692 784.557 105.481 782.557C111.247 776.114 115.807 769.681 122.25 763.867Z" fill="#C7C8C9"/>
<path d="M143.363 777.57L143.993 778.621C142.77 782.193 132.889 804.477 130.738 805.058C130.958 802.893 141.498 781.704 143.363 777.57Z" fill="#C7C8C9"/>
<path d="M184.719 746.656C192.095 745.53 212.588 753.361 217.996 758.761C208.38 753.93 201.072 750.289 190.319 748.097C187.773 747.578 186.124 748.814 184.719 746.656Z" fill="#A0A1A2"/>
<path d="M144.606 832.316C145.024 832.952 144.858 832.604 144.821 833.542C142.813 837.247 131.002 853.072 127.941 855.81L127.837 855.743L127.82 855.159C131.521 850.27 141.28 835.411 144.606 832.316Z" fill="#C7C8C9"/>
<path d="M146.585 847.934L146.839 848.286C145.875 852.352 140.776 857.179 137.736 859.824L137.532 859.695C136.02 855.346 143.677 849.99 146.585 847.934Z" fill="#FAFAFA"/>
<path d="M128.262 801.527C130.991 795.869 134.675 788.284 138.724 783.5C136.919 788.926 128.042 805.215 124.699 810.232C125.545 808.013 126.75 804.551 127.716 802.494L128.262 801.527Z" fill="#C7C8C9"/>
<path d="M156.398 786.305L157.152 787.141C153.075 797.868 153.535 803.617 145.34 813.989C146.426 810.008 149.889 804.012 151.606 799.899C153.556 795.23 154.849 791.135 156.398 786.305Z" fill="#E5E5E6"/>
<path d="M207.834 958.828L208.762 959.518C209.598 961.179 209.218 962.793 209.053 964.722L202.646 970.001L202.181 970.273L201.754 969.931C202.578 967.462 206.329 961.062 207.834 958.828Z" fill="#FAFAFA"/>
<path d="M111.078 788.788C110.18 791.5 105.341 799.049 103.577 801.56L103.285 801.456C103.89 799.24 108.697 786.635 109.855 785.324L110.329 785.677L110.278 788.081L111.078 788.788Z" fill="#434141"/>
<path d="M90.0699 860.473L90.4326 861.213C84.8047 868.635 81.6656 871.976 74.2518 877.715L73.8164 877.241C74.8539 876.007 76.1621 874.726 77.3455 873.619C81.7904 869.466 85.5898 864.562 90.0699 860.473Z" fill="#E5E5E6"/>
<path d="M116.553 974.786C117.952 974.673 118.28 974.65 119.664 974.809C121.295 976.283 121.205 976.78 120.595 978.723C119.289 979.924 119.974 979.638 117.914 979.586C116.029 978.817 113.499 978.089 113.223 975.884C114.639 974.729 114.432 975.086 116.553 974.786Z" fill="#FAFAFA"/>
<path d="M93.3906 869.768C97.0553 866.437 110.543 855.518 114.555 853.086C113.42 854.93 113.136 855.289 111.6 856.815C106.427 861.217 99.3887 866.756 93.3906 869.768Z" fill="#E5E5E6"/>
<path d="M64.6788 859.18L64.5291 860.036C58.6136 865.316 55.8151 870.388 48.8917 875.25L48.7852 874.598C50.6621 870.951 61.0789 861.86 64.6788 859.18Z" fill="#E5E5E6"/>
<path d="M51.68 874.574L52.0737 874.842C51.4412 876.034 46.0103 881.641 44.7486 883.185C42.691 885.7 41.8483 887.038 40.1051 889.877L39.7574 889.736L39.6875 888.844C42.5747 882.021 45.7049 878.549 51.68 874.574Z" fill="#E5E5E6"/>
<path d="M131.212 910.219C125.568 917.882 121.718 922.555 116.643 930.922L115.922 930.589C119.665 922.199 124.148 916.221 131.212 910.219Z" fill="#E5E5E6"/>
<path d="M96.2624 905.074L96.6246 905.604C95.1099 908.307 83.8016 918.598 80.9736 920.611L80.7188 920.452C85.9173 913.812 89.7551 910.461 96.2624 905.074Z" fill="#C7C8C9"/>
<path d="M164.72 791.277L165.586 791.624C163.692 796.273 154.68 812.949 151.586 816.267C152.551 812.404 162.45 797.263 164.492 791.889L164.72 791.277Z" fill="#747577"/>
<path d="M135.348 839.883C134.701 844.172 125.652 853.178 122.138 855.624C121.767 853.554 133.124 842.603 135.348 839.883Z" fill="#E5E5E6"/>
<path d="M143.695 895.533C145.165 893.003 147.68 882.037 149.777 877.504C149.143 884.181 148.826 886.927 146.201 893.003L144.227 897.175L143.695 895.533Z" fill="#E5E5E6"/>
<path d="M119.768 810.308C120.604 809.081 121.491 808.159 122.478 807.066C118.48 815.169 115.926 821.094 109.734 827.785C112.753 822.307 116.339 815.388 119.768 810.308Z" fill="#E5E5E6"/>
<path d="M157.691 890.434C158.766 895.609 149.825 908.584 146.242 912.109C146.405 911.287 149.884 905.816 150.648 904.586C153.556 899.908 155.501 895.478 157.691 890.434Z" fill="#A0A1A2"/>
<path d="M76.6008 935.881C77.1394 931.658 77.4106 930.039 79.4569 926.285L80.1538 926.247L80.0684 925.773C80.3602 926.543 77.368 938.945 77.055 941.282C77.1357 941.911 77.0831 942.718 77.0709 943.37L76.7429 943.554C75.9945 940.428 76.1409 938.927 76.6008 935.881Z" fill="#E5E5E6"/>
<path d="M77.055 941.284C77.1357 941.913 77.0831 942.72 77.0709 943.372L76.7429 943.555C75.9945 940.43 76.1409 938.928 76.6008 935.883L77.055 941.284Z" fill="#626265"/>
<path d="M163.655 781.074C164.432 783.623 156.486 801.196 154.781 804.332C154.508 802.169 162.053 784.239 163.655 781.074Z" fill="#8B8B8D"/>
<path d="M122.554 891.535C122.237 893.628 112.283 908.818 110.361 910.868C110.235 907.462 119.936 894.642 122.554 891.535Z" fill="#A0A1A2"/>
<path d="M82.2419 857.336L82.4244 857.736C76.6891 862.563 73.1018 866.945 67.8404 871.713L67.5781 871.286C69.4719 867.02 77.9124 859.696 82.2419 857.336Z" fill="#C7C8C9"/>
<path d="M84.125 803.113C85.909 799.008 91.5369 786.491 94.7164 783.922L95.0359 784.237C94.1388 787.615 86.877 797.78 84.5956 803.73L84.125 803.113Z" fill="#C7C8C9"/>
<path d="M96.768 933.945L97.3968 933.785C96.4034 939.135 96.0872 941.223 96.8206 946.638C97.1955 949.411 99.4998 953.921 99.3328 955.103L98.6656 955.024C94.9948 952.321 94.7522 938.314 96.768 933.945Z" fill="#C7C8C9"/>
<path d="M130.556 887.219L130.823 887.941C128.467 892.855 122.512 902.807 118.925 906.608L118.492 905.858C124.411 898.64 125.344 893.601 130.556 887.219Z" fill="#434141"/>
<path d="M123.01 846.285C120.137 851.678 117.521 853.845 113.229 858.154L112.688 858.229L112.63 858.074L111.602 856.814C113.138 855.288 113.421 854.929 114.556 853.085L114.98 852.515C115.49 853.1 115.6 853.179 116.005 853.839C118.327 851.234 120.518 848.741 123.01 846.285Z" fill="#A0A1A2"/>
<path d="M114.556 853.086L114.98 852.516C115.49 853.101 115.6 853.18 116.005 853.84C115.132 854.868 113.207 856.997 112.63 858.074L111.602 856.814C113.138 855.288 113.421 854.929 114.556 853.086Z" fill="#181718"/>
<path d="M116.639 930.923C113.449 936.38 112.124 943.288 110.981 949.444C110.555 951.744 111.702 952.781 111.049 954.353C108.097 949.177 113.295 935.381 115.918 930.59L116.639 930.923Z" fill="#626265"/>
<path d="M123.06 862.004L123.29 862.139C122.25 865.002 114.641 872.993 112.112 875.198L111.645 874.579C113.609 870.323 119.871 865.837 123.06 862.004Z" fill="#C7C8C9"/>
<path d="M170.405 773.49L171.119 773.285C169.364 781.794 167.354 785.017 165.589 791.623L164.723 791.276C166.587 786.296 168.666 778.835 170.405 773.49Z" fill="#E5E5E6"/>
<path d="M61.0391 842.133C62.3018 840.157 67.9541 830.849 69.3162 830.234C68.3825 832.622 63.6681 841.439 62.1521 843.762L61.0391 842.133Z" fill="#E5E5E6"/>
<path d="M105.051 938.258C106.149 939.755 104.843 944.795 105.002 947.784C105.299 953.34 105.49 954.738 107.276 960.078L106.817 960.022C103.395 956.376 103.868 943.082 105.051 938.258Z" fill="#626265"/>
<path d="M117.639 882.055L117.89 882.186L118.019 882.641C113.088 887.245 108.309 891.895 103.284 896.409L102.934 896.531L102.551 896.268C104.505 893.246 114.52 884.739 117.639 882.055Z" fill="#626265"/>
<path d="M123.968 813.273C124.18 813.646 124.191 814.115 124.268 814.59C122.552 819.314 116.633 827.741 113.363 831.67L113.256 831.606C113.201 831.375 113.145 831.144 113.09 830.912C116.479 825.785 121.689 818.819 123.968 813.273Z" fill="#747577"/>
<path d="M81.0067 810.594L81.5365 811.527C80.8861 812.621 76.6912 823.829 74.8477 827.427C76.176 820.753 77.6302 816.508 81.0067 810.594Z" fill="#E5E5E6"/>
<path d="M130.479 807.655L131.019 806.945L131.941 807.54L129.586 812.069L128.467 813.699L127.609 812.664C126.786 813.872 126.655 814.114 125.578 815.073L125.207 814.465C126.766 810.75 127.508 810.3 130.479 807.655Z" fill="#C7C8C9"/>
<path d="M130.479 807.655L131.019 806.945L131.941 807.54L129.586 812.069L128.467 813.699L127.609 812.664C129.064 810.627 129.583 810.013 130.479 807.655Z" fill="#181718"/>
<path d="M141.685 889.488C142.694 892.125 134.801 904.734 132.949 907.339C132.884 906.916 132.819 906.499 132.754 906.076C135.019 903.087 140.104 891.933 141.685 889.488Z" fill="#434141"/>
<path d="M113.001 945.293L113.636 949.009C113 955.584 115.495 958.667 112.89 965.246L112.496 963.847C113.45 957.653 112.326 952.214 113.001 945.293Z" fill="#747577"/>
<path d="M102.23 922.023C103.572 917.94 108.458 913.088 111.798 910.441C108.826 915.453 106.355 918.039 103.028 922.548L102.23 922.023Z" fill="#E5E5E6"/>
<path d="M68.8271 839.824C65.3403 846.453 61.7939 849.179 56.1833 854.059L55.2148 853.601C59.8766 849.266 64.7059 844.689 68.8271 839.824Z" fill="#C7C8C9"/>
<path d="M105.213 822.898C105.298 826.8 99.6373 834.921 96.4461 837.565C96.356 836.785 104.106 824.746 105.213 822.898Z" fill="#A0A1A2"/>
<path d="M113.615 803.93L113.974 804.106C113.9 806.318 107.257 819.698 105.824 822.066C105.45 820.578 112.195 806.165 113.615 803.93Z" fill="#434141"/>
<path d="M115.794 845.852C112.473 850.881 106.004 856.009 100.859 859.018C101.406 858.353 102.608 857.175 103.251 856.51C107.134 853.166 111.805 848.928 115.794 845.852Z" fill="#C7C8C9"/>
<path d="M100.862 859.018L100.361 859.801C98.8872 860.159 98.4949 860.332 97.2402 861.185L97.0586 860.69C98.0674 858.65 99.949 854.809 102.554 855.155L103.253 856.51C102.611 857.175 101.409 858.354 100.862 859.018Z" fill="#181718"/>
<path d="M104.164 890.566L104.475 890.745C103.431 892.861 95.7538 899.154 93.6404 900.923L93.3594 900.632C93.7906 898.609 102.131 891.96 104.164 890.566Z" fill="#A0A1A2"/>
<path d="M126.082 782.224C122.962 785.265 121.349 791.787 118.286 795.363L117.758 795.337C117.724 793.5 123.7 783.437 125.236 781.574L126.082 782.224Z" fill="#626265"/>
<path d="M209.746 1321.91C214.413 1321.21 223.671 1323.71 228.189 1325.49C226.132 1325.58 212.057 1322.71 209.746 1321.91Z" fill="#181718"/>
<path d="M113.004 945.296C114.286 939.73 115.169 937.117 118.546 932.457C116.06 939.031 114.939 941.997 113.638 949.012L113.004 945.296Z" fill="#C7C8C9"/>
<path d="M143.855 753.508L144.2 753.876C144.051 754.777 136.995 761.762 135.9 762.971L135.609 762.604C136.321 759.74 141.196 755.115 143.855 753.508Z" fill="#A0A1A2"/>
<path d="M203.293 743.316C207.063 743.887 215.487 748.93 218 751.797C216.59 751.257 204.014 744.345 203.293 743.316Z" fill="#A0A1A2"/>
<path d="M119.126 935.5C119.414 937.663 115.899 948.071 114.989 950.755C114.584 947.02 117.055 938.818 119.126 935.5Z" fill="#C7C8C9"/>
<path d="M85.852 792.406C86.1546 793.983 80.0584 805.047 78.8699 807.196C78.2716 805.1 84.2777 794.325 85.852 792.406Z" fill="#434141"/>
<path d="M125.943 863.801C127.391 865.495 118.964 873.022 117.638 874.185L117.352 873.932C117.628 872.876 124.623 865.349 125.943 863.801Z" fill="#8B8B8D"/>
<path d="M103.363 956.594C105.182 958.823 108.798 966.134 111.058 969.419C106.781 967.161 104.198 961.127 103.363 956.594Z" fill="#C7C8C9"/>
<path d="M98.1026 842.168C96.5781 844.718 89.6879 849.258 86.9951 850.796L86.9336 850.504C87.4882 848.426 95.9043 843.592 98.1026 842.168Z" fill="#A0A1A2"/>
<path d="M88.0012 899.328C88.1964 899.46 88.393 899.788 88.5512 900.004C87.3818 903.054 83.6979 907.198 81.4884 909.764L81.2383 909.539C82.7056 906.663 86.0225 901.857 88.0012 899.328Z" fill="#A0A1A2"/>
<path d="M162.732 886.664C163.513 889.597 160.189 896.983 158.83 899.789C158.173 897.621 161.76 889.273 162.732 886.664Z" fill="#8B8B8D"/>
<path d="M405.707 610.427C408.241 610.258 411.53 611.787 413.337 613.521C410.512 614.369 407.072 613.053 405.707 610.427Z" fill="#ED3439"/>
<path d="M39.9546 892.938C39.8242 893.989 35.8292 904.828 35.2394 906.227C34.1339 903.716 37.8694 894.749 39.9546 892.938Z" fill="#747577"/>
<path d="M106.068 920.574C106.016 922.151 100.776 930.903 99.5296 933.404C98.9511 930.799 104.077 922.461 106.068 920.574Z" fill="#747577"/>
<path d="M127.198 770.375C127.394 773.51 122.254 778.063 119.916 779.852L119.828 779.618C120.091 778.404 125.828 771.999 127.198 770.375Z" fill="#8B8B8D"/>
<path d="M72.1036 907.293C73.0326 910.09 69.7936 915.547 68.2569 917.95C67.7764 916.5 71.205 908.691 72.1036 907.293Z" fill="#434141"/>
<path d="M106.177 876.988C106.127 879.147 99.622 883.943 97.7667 885.444L97.6367 884.811C99.722 882.183 103.433 878.954 106.177 876.988Z" fill="#A0A1A2"/>
<path d="M96.7656 933.943C97.111 931.272 100.531 924.135 102.23 922.023L103.027 922.549C101.213 925.801 98.2076 930.371 97.3944 933.783L96.7656 933.943Z" fill="#747577"/>
<path d="M146.215 772.331C147.104 769.889 149.86 764.949 151.259 762.621C150.249 766.324 148.72 769.672 146.704 772.949L146.215 772.331Z" fill="#181718"/>
<path d="M123.867 777.725C126.286 774.835 127.348 772.458 129.801 770.074C128.767 772.568 126.511 776.658 124.612 778.564L123.867 777.725Z" fill="#626265"/>
<path d="M21.5625 874.626C24.7495 871.275 26.1436 869.952 30.0733 867.582C28.9411 869.656 24.1531 873.124 22.4118 875.273L21.5625 874.626Z" fill="#C7C8C9"/>
<path d="M68.4619 920.973C68.9808 923.788 65.2777 927.223 63.505 929.189L63.375 927.983C64.7353 925.37 66.6033 923.253 68.4619 920.973Z" fill="#C7C8C9"/>
<path d="M228.551 885.273C229.483 888.286 225.248 894.71 223.117 896.85L222.992 896.315C225.004 893.251 227.054 888.661 228.551 885.273Z" fill="#A0A1A2"/>
<path d="M132.395 875.957C132.537 876.112 132.679 876.576 132.768 876.811C131.435 880.382 129.847 883.32 127.412 886.267L127.078 885.98C127.204 884.544 131.298 878.566 132.395 875.957Z" fill="#434141"/>
<path d="M83.1287 848.367L83.3943 848.796C81.9412 850.683 76.9228 853.809 74.7559 855.239L74.5039 854.868C75.6408 852.727 80.7972 849.858 83.1287 848.367Z" fill="#626265"/>
<path d="M166.891 742.484C168.252 742.564 168.169 742.553 169.416 743.115C170.231 744.611 169.781 746.546 170.15 748.984L170.234 749.51L169.481 749.477L166.891 742.484Z" fill="#C7C8C9"/>
<path d="M147.289 902.629C147.663 905.984 143.581 910.958 141.562 913.563C142.014 911.423 146.078 904.675 147.289 902.629Z" fill="#747577"/>
<path d="M101.332 777.934C101.126 779.88 97.1344 784.859 95.7709 786.481C95.3331 783.805 99.4177 779.599 101.332 777.934Z" fill="#A0A1A2"/>
<path d="M84.0879 815.518C82.8937 818.592 81.0506 824.144 78.9817 826.342L78.7969 825.946C79.4651 824.365 82.0533 818.64 82.0946 817.481L83.1795 815.422L84.0879 815.518Z" fill="#747577"/>
<path d="M162.385 879.664L162.89 880.288C162.679 882.442 160.409 888.355 159.585 890.692L159.121 890.171C159.453 887.796 161.484 881.992 162.385 879.664Z" fill="#626265"/>
<path d="M151.192 812.176C152.578 813.828 147.795 820.632 146.596 822.07L146.431 822.063C146.353 820.949 150.306 813.884 151.192 812.176Z" fill="#626265"/>
<path d="M74.1522 816.422L74.4863 816.657C74.1653 819.807 72.4085 824.081 71.1351 826.984L70.8085 826.847C70.3477 825.448 73.4263 818.272 74.1522 816.422Z" fill="#A0A1A2"/>
<path d="M105.025 903.466C103.937 904.677 99.3382 908.947 97.8789 908.834C98.6057 907.206 102.505 904.32 104.111 902.969L105.025 903.466Z" fill="#434141"/>
<path d="M70.1211 876.977L70.3224 877.53C68.994 879.942 66.3002 881.955 64.1089 883.579C63.9517 883.415 64.0577 883.565 63.8203 882.847C65.5461 880.571 67.9068 878.797 70.1211 876.977Z" fill="#C7C8C9"/>
<path d="M93.3521 850.664L93.7622 851.024C92.568 853.255 89.222 854.988 87.0433 856.213L86.8359 856.051C87.7401 854.1 91.5357 851.813 93.3521 850.664Z" fill="#C7C8C9"/>
<path d="M108.899 923.961L109.19 924.12C109.119 925.228 106.412 930.263 105.714 932.694L105.004 932.257C105.612 930.164 107.336 925.251 108.899 923.961Z" fill="#181718"/>
<path d="M180.48 754.941C181.706 757.95 181.95 759.31 182.587 762.538C181.56 764.467 182.251 765.893 181.593 767.047C181.205 764.886 180.73 757.512 180.48 754.941Z" fill="#E5E5E6"/>
<path d="M178.672 743.227C181.467 743.307 183.539 744.476 183.899 747.246L183.23 746.922C180.889 745.785 179.466 745.517 178.672 743.227Z" fill="#E5E5E6"/>
<path d="M172.894 748.68L173.619 749.392C174.35 752.781 174.315 753.998 174.294 757.512L173.523 756.764C172.81 753.528 172.883 752.038 172.894 748.68Z" fill="#A0A1A2"/>
<path d="M95.5759 809.468C95.0377 811.332 93.2429 815.97 91.9282 817.343L91.8789 816.354L92.5785 816.732L91.9615 816.031C92.8962 813.459 93.6502 811.61 94.7923 809.125L95.5759 809.468Z" fill="#626265"/>
<path d="M153.506 826.668C153.717 829.449 152.159 832.027 150.321 833.967C149.744 831.608 152.183 828.564 153.506 826.668Z" fill="#E5E5E6"/>
<path d="M98.7543 923.723C99.0959 925.914 96.3416 931.076 95.2201 933.403C94.6242 931.479 97.715 925.628 98.7543 923.723Z" fill="#434141"/>
<path d="M179.696 761.621C180.41 766.326 180.159 768.056 179.109 772.721C178.231 770.819 179.381 764.03 179.696 761.621Z" fill="#C7C8C9"/>
<path d="M79.8398 951.445C82.5172 953.074 83.4749 955.988 84.3444 958.766C82.1953 957.522 80.8027 953.721 79.8398 951.445Z" fill="#E5E5E6"/>
<path d="M61.3994 866.977L61.8799 867.741C60.6942 869.67 58.8009 871.158 57.0962 872.701L56.9437 872.603L56.8906 871.81C58.1125 869.806 59.6717 868.577 61.3994 866.977Z" fill="#C7C8C9"/>
<path d="M81.0078 810.593C81.2551 808.886 83.2695 804.722 84.1249 803.113L84.5955 803.73L81.5376 811.526L81.0078 810.593Z" fill="#181718"/>
<path d="M78.4131 919.625L78.7613 920.047C78.301 922.408 75.7812 924.106 73.9155 925.594L73.6758 925.073C75.3275 922.811 76.4545 921.647 78.4131 919.625Z" fill="#A0A1A2"/>
<path d="M114.563 759.594L115.55 759.859L114.972 760.537L110.018 764.418L109.594 763.094C110.822 762.081 113.173 760.552 114.563 759.594Z" fill="#8B8B8D"/>
<path d="M115.551 759.859L116.695 759.473C118.066 760.229 117.976 760.233 118.712 761.669L119.429 762.37L119.089 762.552L118.003 762.717C116.456 762.016 116.176 762.184 115.774 760.539L114.973 760.537L115.551 759.859Z" fill="#181718"/>
<path d="M128.467 813.701L129.586 812.07L130.43 812.456C128.564 815.61 127.363 817.788 124.969 820.61C126.145 818.073 127.086 816.123 128.467 813.701Z" fill="#434141"/>
<path d="M166.457 886.137C167.609 888.281 165.427 892.415 164.428 894.461C163.895 893.232 165.918 887.826 166.457 886.137Z" fill="#626265"/>
<path d="M145.957 840.998C147.146 839.401 148.387 837.344 150.057 836.453C150.282 837.905 147.76 840.241 146.716 841.324L145.957 840.998Z" fill="#8B8B8D"/>
<path d="M135.664 778.398C134.967 778.518 133.728 778.901 132.997 779.1L132.629 778.668C134.1 774.724 133.71 777.643 136.779 776.809C136.615 777.048 135.799 778.274 135.664 778.398Z" fill="#181718"/>
<path d="M147.423 740.266C148.764 740.319 148.204 740.107 149.228 740.722C148.347 741.589 145.266 742.32 143.907 742.732C143.09 742.996 143.524 742.951 142.602 742.816C144.641 741.466 145.198 741.206 147.423 740.266Z" fill="#C7C8C9"/>
<path d="M159.98 762.544C160.914 760.914 161.279 759.29 162.272 757.494L162.286 757.492C162.674 758.483 161.176 762.059 160.846 763.601L159.98 762.544Z" fill="#181718"/>
<path d="M146.21 772.332L146.699 772.95C145.906 774.619 144.842 777.057 143.993 778.621L143.363 777.571C143.803 776.196 145.414 773.679 146.21 772.332Z" fill="#747577"/>
<path d="M65.1999 917.207C65.5992 919.084 63.7124 921.646 62.6839 923.415C61.9383 920.839 63.7101 919.173 65.1999 917.207Z" fill="#C7C8C9"/>
<path d="M134.773 861.887C134.64 864.191 132.533 866.481 131.006 868.09C130.629 866.34 133.574 863.134 134.773 861.887Z" fill="#747577"/>
<path d="M82.0917 817.483L80.9618 816.722C80.6746 815.064 80.6211 815.869 81.2175 814.225L82.2292 813.828L83.2957 814.803L83.1766 815.423L82.0917 817.483Z" fill="#181718"/>
<path d="M126.777 829.215C128.227 827.701 129.672 826.114 131.252 824.746C129.68 827.519 129.207 828.334 127.092 830.671L126.777 829.215Z" fill="#A0A1A2"/>
<path d="M56.1845 854.06C54.9565 855.137 52.9168 857.008 51.3242 857.182C51.8371 855.837 53.9566 854.543 55.216 853.602L56.1845 854.06Z" fill="#626265"/>
<path d="M156.398 786.306C156.884 784.28 157.126 782.673 158.181 780.879C158.624 782.311 157.581 785.539 157.152 787.143L156.398 786.306Z" fill="#626265"/>
<path d="M150.567 779.211C151.092 781.333 149.369 784.317 148.229 786.052C147.919 784.069 149.594 780.965 150.567 779.211Z" fill="#626265"/>
<path d="M114.562 759.594C116.235 758.401 117.746 757.109 119.736 756.844C119.263 757.992 117.801 758.737 116.694 759.473L115.55 759.86L114.562 759.594Z" fill="#434141"/>
<path d="M83.0857 894.34C83.1477 896.067 80.4393 899.089 79.3333 900.45C79.0185 898.521 81.7893 895.691 83.0857 894.34Z" fill="#434141"/>
<path d="M151.893 879.547C152.964 881.616 151.771 883.686 150.922 885.661C149.979 883.85 151.2 881.293 151.893 879.547Z" fill="#C7C8C9"/>
<path d="M154.733 746.247L155.217 746.125C156.163 747.603 156.131 748.923 154.926 750.176L154.526 750.047C154.84 748.689 154.587 747.878 153.918 746.682L154.733 746.247Z" fill="#434141"/>
<path d="M74.6441 911.094C75.0293 913.238 74.1312 915.294 72.9863 917.058L72.6484 916.073C73.0487 913.853 73.601 913.032 74.6441 911.094Z" fill="#434141"/>
<path d="M92.2471 868.828C92.6037 868.95 92.3522 868.838 92.7802 869.462C92.326 870.541 90.3111 871.569 89.2079 872.263L88.918 871.991L89.0883 871.245C90.3984 870.424 90.8836 870.123 92.0078 869.058L92.2471 868.828Z" fill="#181718"/>
<path d="M215.275 889.512C215.559 891.168 214.127 894.2 213.482 895.903C212.746 893.299 213.948 891.933 215.275 889.512Z" fill="#626265"/>
<path d="M101.921 900.727L102.441 901.294C102.267 902.716 100.342 904.645 99.3244 905.865L99.2128 905.785C99.0115 904.659 101.106 901.989 101.921 900.727Z" fill="#434141"/>
<path d="M146.718 841.326C145.879 842.434 144.658 844.074 143.422 844.482C143.682 843.016 144.88 842.102 145.959 841L146.718 841.326Z" fill="#181718"/>
<path d="M154.381 755.766L154.806 756.202C154.96 757.583 153.995 758.986 153.325 760.286L152.795 759.719C152.745 758.238 153.627 757.088 154.381 755.766Z" fill="#434141"/>
<path d="M152.258 769.687C152.965 767.519 153.935 765.912 155.029 763.922C154.435 766.165 153.891 768.643 152.938 770.731L152.258 769.687Z" fill="#626265"/>
<path d="M105.292 836.031L105.639 836.368C105.381 837.681 103.911 838.839 102.837 839.996L102.289 839.254C103.34 837.896 104.07 837.216 105.292 836.031Z" fill="#181718"/>
<path d="M155.751 837.863C156.307 839.434 156.139 840.594 155.333 841.989L154.75 841.808C154.554 840.675 155.333 839.023 155.751 837.863Z" fill="#8B8B8D"/>
<path d="M173.881 758.461L174.714 759.255C174.751 760.783 174.712 762.02 174.644 763.548L174.235 763.199C173.55 761.777 173.82 760.109 173.881 758.461Z" fill="#434141"/>
<path d="M157.801 885.339C158.061 883.363 157.984 882.927 159.046 881.336L159.465 881.636C159.266 883.096 159.189 883.584 158.76 884.982L157.801 885.339Z" fill="#A0A1A2"/>
<path d="M92.3152 887.168L92.4654 887.778C92.2875 889.172 91.206 890.134 90.2558 891.241L90.0859 890.636C90.3389 889.068 91.2257 888.379 92.3152 887.168Z" fill="#626265"/>
<path d="M21.5616 874.625L22.4109 875.273C21.4996 876.45 19.0864 878.365 17.8594 879.411C19.1807 877.534 20.0202 876.338 21.5616 874.625Z" fill="#434141"/>
<path d="M158.76 884.98C158.546 886.862 158.469 887.233 157.799 889.002C157.22 888.232 157.659 886.52 157.801 885.337L158.76 884.98Z" fill="#626265"/>
<path d="M198.335 1313.69C198.714 1314.79 199.115 1316.71 198.666 1317.81L198.056 1317.36C197.859 1315.61 197.865 1315.38 198.335 1313.69Z" fill="#434141"/>
<path d="M142.453 1320L143.066 1319.74C144.669 1320.43 144.613 1320.13 145.543 1321.32L145.172 1321.46C143.668 1321.02 143.565 1321.04 142.453 1320Z" fill="#181718"/>
<path d="M74.9825 901.367L75.8088 901.902C75.0477 903.183 73.0488 905.759 72.0859 907.069C72.9967 905.046 73.7446 903.216 74.9825 901.367Z" fill="#8B8B8D"/>
<path d="M220.739 890.336L221.4 890.65C221.336 891.992 220.413 892.818 219.51 894.085L219.139 894.193L218.938 893.705L220.739 890.336Z" fill="#747577"/>
<path d="M170.406 773.492C170.456 772.063 170.289 771.11 171.188 770.059C171.714 771.589 171.453 771.444 171.12 773.287L170.406 773.492Z" fill="#434141"/>
<path d="M73.6199 804.899C71.9991 807.243 70.1598 809.429 68.1276 811.426C58.4756 821.045 47.9372 824.643 34.5661 824.149C31.8859 824.05 20.8671 824.148 19.4561 822.705C25.6128 821.959 38.2805 824.164 45.9228 822.317C60.2309 818.86 66.985 812.251 74.6184 800.465C76.3756 802.911 75.6258 802.788 75.3086 806.072C75.1542 807.669 73.2384 812.777 72.2417 813.809C71.2484 814.044 68.1712 817.714 66.9737 818.878C63.5948 822.161 59.1433 826.38 54.8808 828.42C41.2991 834.919 25.9624 834.769 12.6195 841.92C12.001 842.251 12.2868 842.244 11.75 842.099C18.0273 834.706 48.8372 832.787 58.4484 824.843C67.5438 817.326 70.3705 816.674 73.6199 804.899Z" fill="#181718"/>
<path d="M45.5209 899.16L47.669 899.324C41.0501 912.098 40.7118 921.215 44.994 934.842C42.5094 931.252 40.1675 920.117 38.6374 919.835C36.921 923.876 42.0721 933.129 44.9391 936.264L44.9682 936.869C40.5997 935.663 36.7525 923.885 35.5273 919.868C35.5578 918.489 35.3978 917.175 36.1998 916.11C38.0025 914.566 38.3793 913.261 39.1737 911.135C39.474 909.169 41.5409 904.636 42.8909 902.942L45.5209 899.16Z" fill="#181718"/>
<path d="M42.891 902.943L44.4915 902.305C44.66 903.609 42.6268 906.519 41.9892 908.25C40.8991 911.221 40.6627 915.899 39.4525 918.358L38.8008 918.25C38.042 916.382 38.8238 913.299 39.1738 911.136C39.4741 909.17 41.541 904.637 42.891 902.943Z" fill="#E5E5E6"/>
<path d="M58.072 889.344C60.2464 891.16 58.6187 891.094 60.008 892.399L58.2301 895.416C53.6303 903.224 49.4312 912.347 48.8691 921.544C48.6903 924.467 50.4339 932.905 48.5242 934.472C46.5121 932.9 46.5886 926.687 46.3779 924.125C45.2907 910.906 51.775 900.385 58.072 889.344Z" fill="#181718"/>
<path d="M53.4141 899.875C53.6515 900.982 53.0443 902.066 52.5831 903.179C50.2116 908.894 49.214 913.873 47.8533 919.795C46.7942 914.764 50.5982 904.319 53.4141 899.875Z" fill="#8B8B8D"/>
<path d="M203.562 1337.07C207.233 1336.65 216.464 1337.16 220.556 1337.22L255.272 1337.64C260.313 1337.7 285.817 1337.11 288.726 1337.89C283.803 1339.87 207.743 1338.82 203.562 1337.07Z" fill="#434141"/>
<path d="M206.785 1344.14C220.46 1342.93 239.197 1344.34 253.381 1343.97C257.376 1343.87 278.003 1344.02 280.868 1344.69C279.246 1345.42 278.031 1345.26 276.238 1345.27L229.774 1345.13C221.06 1345.13 212.115 1345.41 203.434 1345.14L202.837 1344.69L202.558 1344.75L203.055 1345.1C202.209 1344.98 202.505 1345.17 202.066 1344.72L202.106 1344.67L202.828 1344.8L203.233 1344.33L206.785 1344.14Z" fill="#434141"/>
<path d="M126.909 1327.48C113.027 1327.87 100.667 1328.52 86.8448 1329.83C83.4472 1330.16 68.1119 1331.51 65.3242 1331.21C67.6098 1329.99 76.9634 1329.53 79.9115 1329.24C95.8765 1327.68 111.077 1326.39 127.135 1326.53L126.909 1327.48Z" fill="#434141"/>
<path d="M270.013 1331.44C283.039 1330.31 299.397 1332.07 312.582 1332.75C318.528 1333.06 327.532 1332.72 332.736 1333.2C331.929 1333.93 331.478 1333.77 330.183 1333.98C314.685 1334.16 300.481 1333.4 285.015 1332.3C280.132 1331.95 271.804 1332.82 267.574 1332.24L267.812 1331.8L270.013 1331.44Z" fill="#434141"/>
<path d="M110.24 1339.89C119.788 1339.59 139.612 1339.24 148.487 1341.54C144.629 1341.73 140.392 1341.51 136.504 1341.41C127.611 1340.65 116.433 1341.27 107.391 1341.05C104.768 1340.98 102.2 1341.42 99.4375 1341.32C101.024 1339.68 107.664 1339.97 110.24 1339.89Z" fill="#434141"/>
<path d="M113.407 1333.81C118.682 1333.62 126.426 1333.06 131.398 1334.37C123.614 1335.15 112.21 1335.07 103.796 1335.58C101.875 1335.71 87.6732 1336.29 86.9727 1335.8C88.6966 1334.39 109.731 1334.05 113.407 1333.81Z" fill="#434141"/>
<path d="M37.9028 947.679C41.0203 947.876 46.6309 947.318 49.3787 945.647C52.0542 944.024 51.9411 943.7 52.7139 940.758L53.7448 942.335L54.2455 942.982C54.9226 942.733 55.4204 942.564 56.0764 942.274L56.8389 942.752L53.1864 945.511C53.315 950.72 52.7707 954.23 56.2599 957.806L56.3791 958.575C52.3789 957.196 52.0762 949.899 51.7914 946.347C47.5717 947.797 42.2216 949.908 37.7695 948.773L37.9028 947.679Z" fill="#181718"/>
<path d="M224.849 754.672C233.569 761.635 240.412 773.144 238.817 784.653C236.675 773.598 234.237 762.137 223.695 755.722L224.849 754.672Z" fill="#181718"/>
<path d="M203.357 1331.42C214.255 1330.48 230.074 1331.71 240.92 1332.84L240.69 1332.84C237.939 1332.98 204.286 1332.54 203.215 1332.1L203.357 1331.42Z" fill="#434141"/>
<path d="M69.8892 936.445C70.1712 934.985 71.9383 932.376 73.3727 931.855C73.7833 933.198 73.429 933.517 73.0672 935.121C66.2738 942.512 73.3966 960.419 78.3235 967.533C71.0359 959.87 69.7794 953.211 69.8892 942.728C69.9103 940.706 70.6976 937.824 69.8892 936.445Z" fill="#A0A1A2"/>
<path d="M274.704 1325.8C279.713 1325.28 304.168 1326.24 309.133 1327.15L309.189 1327.88L287.558 1327.08C284.507 1326.97 277.104 1326.85 274.527 1326.36L274.704 1325.8Z" fill="#434141"/>
<path d="M174.272 1349.38C169.812 1349.49 161.672 1348.74 156.959 1348.48C151.81 1348.2 142.861 1348.03 138.02 1347.31C141.207 1345.88 160.138 1347.47 164.408 1347.82C166.803 1348.05 172.409 1348.35 174.272 1349.38Z" fill="#434141"/>
<path d="M25.9356 867.73C16.7809 867.045 10.9738 869.992 0 864.117C1.81684 864.028 6.54384 865.487 8.77642 865.896C14.9453 867.022 19.6104 866.858 25.7601 866.126C26.0022 867.055 26.1308 866.942 25.9356 867.73Z" fill="#181718"/>
<path d="M191.315 1348.42C195.565 1348.35 199.913 1348.2 204.152 1348.4C198.133 1350.01 188.514 1349.56 181.997 1349.53L181.875 1349.2C184.184 1348.5 188.727 1348.52 191.315 1348.42Z" fill="#626265"/>
<path d="M201.641 1328.16C205.496 1327.57 214.333 1327.41 217.861 1328.7C214.456 1328.97 204.476 1329.29 201.641 1328.16Z" fill="#747577"/>
<path d="M37.7726 948.77C36.212 948.264 34.7419 947.991 33.6289 946.86C34.7968 946.513 36.6427 947.292 37.9059 947.677L37.7726 948.77Z" fill="#626265"/>
</svg>
