<svg width="1350" height="1350" viewBox="0 0 1350 1350" fill="none" xmlns="http://www.w3.org/2000/svg">
<g clip-path="url(#clip0_1835_6654)">
<path d="M282.771 801.703C295.848 799.191 308.112 802.432 316.223 813.674C317.566 815.832 318.482 817.404 319.667 819.668C321.953 821.834 323.982 825.448 324.728 828.491L324.672 829.159C326.833 832.839 332.418 843.339 330.13 847.494C329.063 846.877 328.606 844.104 328.208 842.662C326.24 835.51 324.576 832.452 319.648 827.099L318.977 828.078C321.315 832.548 323.501 837.218 323.219 842.417L322.154 843.186C325.039 852.005 328.964 861.078 331.806 870.095C333.562 875.661 344.026 869.662 345.776 875.738C346.487 882.573 348.542 888.293 350.268 894.924C352.674 904.16 352.096 916.634 348.185 925.406C334.149 954.109 302.728 938.904 296.545 975.334C305.669 980.87 301.32 988.664 305.601 996.687C309.182 1003.39 317.861 1008.58 319.911 1016.05C320.065 1016.62 318.083 1019.41 317.691 1019.92C323.005 1024.63 328.508 1029.85 334.591 1033.47C344.22 1029.68 370.914 1020.15 376.527 1011.03C379.036 1006.94 374.963 993.883 385.082 988.664C387.867 987.226 391.092 989.78 392.408 989.178C395.899 987.593 399.735 981.782 404.634 983.959C407.389 986.691 406.19 991.335 409.717 992.629C411.055 993.124 412.15 993.751 412.624 995.219C412.867 995.973 412.759 996.605 412.721 997.365C412.477 1002.28 423.895 1010.32 411.704 1021.81C406.125 1027.08 399.438 1027.67 393.765 1031.77C387.59 1036.24 382.333 1042.27 376.656 1047.35C366.155 1056.77 344.683 1073.4 330.046 1072.95C320.588 1072.67 312.239 1066.56 304.662 1061.5C303.878 1074.42 302.344 1087.28 300.067 1100.01C296.876 1117.18 292.643 1118.6 298.347 1135.86C301.906 1146.63 336.171 1192.84 334.896 1200.18C333.957 1200.92 334.347 1200.74 333.231 1201.09L332.798 1200.28C310.264 1199.17 293.735 1212.42 274.245 1221.84C269.632 1224.07 263.824 1226.67 259.547 1229.24C257.481 1229.95 255.555 1231.05 253.699 1230.23L251.569 1232.02C236.817 1238.13 212.824 1240.39 197.265 1236.65L197.854 1235.9L197.143 1234.55C174.789 1230.11 143.357 1219.43 126.814 1203.77C106.337 1184.38 97.4191 1155.52 67.1051 1146.3C67.155 1146.63 67.2829 1147.64 67.3803 1147.92C75.4871 1148.69 94.5128 1165.35 99.3251 1172.07C100.672 1173.96 105.644 1179.8 106.154 1181.87L105.023 1182.79C89.4998 1176.33 71.5524 1163.24 64.7181 1147.52C61.6844 1140.54 74.0821 1135.66 78.8949 1132.44C95.3333 1121.44 114.82 1115.88 131.753 1105.92C137.868 1102.32 146.331 1089.36 151.903 1084.3C166.871 1067.54 189.175 1050.53 198.9 1030.37C197.315 1028.71 195.336 1026.03 193.871 1024.16C190.156 1024.66 184.943 1025.29 181.673 1026.79C173.578 1030.48 145.336 1060.67 142.575 1067.17C144.479 1077.37 146.369 1089.98 134.711 1095.17C132.499 1096.15 129.53 1100.64 126.365 1097.34C124.746 1094.52 120.739 1097.03 119.914 1096.02C116.8 1092.18 110.112 1091.02 106.7 1087.62C100.766 1083.14 107.017 1067.55 111.804 1063.84C121.755 1056.12 123.813 1047.96 129.871 1037.05C137.868 1022.65 147.98 1010.72 159.341 998.552C158.028 997.41 157.312 996.778 156.154 995.499C152.366 989.596 152.211 981.028 154.246 974.508L152.916 973.937C151.139 977.108 150.422 979.57 149.525 983.077L149.372 984.178C148.854 984.086 147.588 983.821 147.132 983.811L146.903 982.139C146.237 982.618 146.392 982.486 145.583 982.746L145.256 980.946L145.111 979.468C142.823 978.489 147.103 967.79 147.824 965.93C147.362 965.807 146.499 965.42 146.023 965.226C139.64 967.199 141.283 972.469 138.845 975.278L138.038 975.665C137.011 976.16 136.798 976.323 135.885 977.067L133.694 976.19C133.464 973.642 133.57 971.231 133.631 968.682C131.717 969.37 130.173 969.977 128.309 970.792L127.006 971.669L125.206 971.414C124.602 970.237 124.373 969.671 123.912 968.463L122.323 967.907C122.856 967.8 124.53 967.341 124.665 966.745C127.246 955.449 130.99 946.32 137.828 936.977C138.141 936.406 138.27 935.82 138.471 935.178L136.78 935.065L135.143 934.54L137.495 932.032C136.799 931.564 136.19 931.054 135.532 930.529C136.521 928.266 136.729 927.827 135.982 925.809L136.001 925.335C130.887 925.426 126.563 934.194 122.558 935.249C122.68 933.786 122.826 933.016 123.112 931.615C120.432 934.887 117.883 941.243 114.554 942.65L113.303 942.156C112.92 941.024 112.884 940.779 112.705 939.592C119.316 921.547 137.541 912.714 151.661 900.501C155.165 897.473 159.669 894.985 162.595 891.269L151.03 897.835C149.105 897.177 148.818 896.856 147.117 898.375C132.015 903.447 106.968 903.702 97.781 922.536C96.3928 925.324 95.5922 928.368 95.4296 931.477C94.6443 930.544 94.7687 930.442 94.9144 929.122C96.7974 912.112 115.046 903.457 129.929 899.823C131.709 899.568 132.159 898.798 133.43 897.488C141.03 896.372 150.27 891.774 155.9 886.544C157.534 884.48 161.812 878.317 162.323 875.83C164.116 874.642 164.818 873.877 166.337 872.374L166.901 872.593L167.201 871.94L166.163 869.942L168.02 867.643C167.449 865.528 167.311 866.446 167.917 864.738C169.399 864.412 172.688 858.545 173.618 856.924C179.271 847.096 185.346 840.47 193.69 832.798L192.536 831.993C195.771 829.026 198.689 826.299 201.792 823.175C206.373 820.019 209.649 818.149 214.822 815.911C217.329 814.826 221.065 813.535 223.164 812.181C224.359 809.944 230.836 807.12 233.356 806.916C247.032 803.768 250.899 805.674 264.55 809.225C260.732 806.511 257.904 804.135 253.243 803.294L254.272 801.502C259.567 803.668 262.507 805.143 267.58 807.672C271.304 805.85 273.509 804.664 277.469 803.587C279.402 802.138 280.389 801.519 282.771 801.703Z" fill="#070707"/>
<path d="M263.534 962.762C266.175 963.353 268.758 963.99 271.268 965.02C275.214 966.636 296.823 977.386 298.561 979.929C301.302 983.941 301.345 989.681 302.783 994.263C296.597 986.123 290.578 977.758 279.348 977.335C279.152 978.196 279.114 977.86 279.207 978.329C286.589 979.466 293.252 983.671 297.507 989.726C303.6 998.397 313.14 1007.33 318.443 1016.13C309.559 1027.86 286.01 1048.47 272.478 1054.04C267.552 1048.3 263.557 1042.57 259.502 1036.21C256.445 1031.41 253.507 1026.09 249.729 1021.88C252.444 1028.1 255.187 1032.82 258.717 1038.63L259.033 1039.99C272.631 1053.28 266.282 1062.01 287.715 1047.58C293.312 1052.78 297.622 1056.48 303.765 1061.14C300.868 1094.55 295.009 1126.57 277.633 1154.9C276.625 1156.54 274.541 1158.77 274.125 1160.34C279.498 1155.82 291.391 1130.54 294.271 1123.25C294.964 1139.26 300.184 1144.41 308.507 1157.56C314.384 1166.69 320.098 1175.94 325.649 1185.27C327.261 1187.93 333.967 1197.54 332.795 1200.29C310.261 1199.17 293.732 1212.42 274.242 1221.84C269.629 1224.07 263.821 1226.67 259.544 1229.24C257.479 1229.96 255.552 1231.05 253.696 1230.23L251.566 1232.03C236.814 1238.13 212.821 1240.39 197.262 1236.66L197.852 1235.91L197.14 1234.55C174.787 1230.12 143.354 1219.43 126.812 1203.77C106.334 1184.39 97.4164 1155.52 67.1024 1146.3C65.7382 1145.57 66.2636 1146.08 65.5312 1144.64C67.2996 1138.47 112.884 1116.45 121.056 1113.59C123.082 1112.88 128.748 1109.22 130.487 1109.24L130.049 1110.05L130.757 1111.46C137.712 1104.01 143.792 1096.17 150.496 1088.6C157.44 1080.76 166.032 1072.88 173.555 1065.5C175.341 1062.96 186.969 1051.63 190.314 1047.88C197.005 1038.47 202.459 1026.82 208.047 1016.61C214.455 1004.89 221.855 994.018 228.632 982.789C228.914 982.498 231.023 979.353 231.397 978.808C233.403 978.125 236.334 977.595 238.474 977.141C248.987 976.122 256.06 969.796 263.534 962.762Z" fill="#FCFBFC"/>
<path d="M197.141 1234.55C214.997 1237.35 225.029 1237.01 242.692 1232.75C246.347 1231.88 251.451 1230.08 254.685 1229.44L253.697 1230.23L251.567 1232.03C236.815 1238.13 212.822 1240.39 197.263 1236.65L197.852 1235.9L197.141 1234.55Z" fill="#262527"/>
<path d="M190.317 1047.88C190.083 1053.22 179.855 1065.54 175.195 1067.82C173.924 1066.66 174.719 1066.62 173.559 1065.5C175.344 1062.96 186.972 1051.63 190.317 1047.88Z" fill="#E6E3E3"/>
<path d="M130.052 1110.05L130.76 1111.46C126.89 1116.07 120.879 1121.9 116.554 1126.33L115.973 1126.45L115.459 1127.23L115.453 1127.23C117.65 1123.66 126.628 1114.31 130.052 1110.05Z" fill="#262527"/>
<path d="M259.034 1039.99C252.847 1039.1 249.784 1036.71 244.758 1032.98C246.775 1032.23 253.838 1038.28 258.718 1038.63L259.034 1039.99Z" fill="#5B5B5C"/>
<path d="M265.594 978.431C269.362 977.666 275.708 976.28 279.35 977.335C279.154 978.196 279.116 977.86 279.209 978.329C274.738 978.466 270.081 978.415 265.594 978.431Z" fill="#868688"/>
<path d="M263.285 1132.32C263.288 1133.84 260.779 1137.12 259.754 1138.56C247.816 1155.34 231.633 1168.06 215.328 1180.31L215.355 1179.14C230.249 1167.69 244.425 1156.36 256.4 1141.74C258.281 1139.44 261.361 1133.75 263.285 1132.32Z" fill="#A5A4A6"/>
<path d="M203.528 1043.12L203.662 1043.75C202.702 1046.43 176.483 1078.25 173.318 1081.34L173.238 1081.17C174.648 1077.94 200.473 1046.36 203.528 1043.12Z" fill="#A5A4A6"/>
<path d="M229.206 1175.19L229.993 1175.47C224.866 1182.37 210.198 1193.84 201.875 1195.88C210.895 1190.6 222.904 1183.54 229.206 1175.19Z" fill="#A5A4A6"/>
<path d="M254.007 988.074C254.117 988.971 249.212 1000.67 248.548 1002.61C247.431 998.789 252.005 991.235 254.007 988.074Z" fill="#6C6B6D"/>
<path d="M229.207 1175.19C230.393 1173.57 230.06 1173.52 231.642 1172.79C231.65 1174 230.909 1174.62 229.994 1175.47L229.207 1175.19Z" fill="#E6E3E3"/>
<path d="M282.767 801.703C295.844 799.191 308.108 802.432 316.219 813.674C317.562 815.832 318.478 817.404 319.664 819.668C321.949 821.834 323.978 825.448 324.725 828.491L324.668 829.159C326.83 832.839 332.414 843.339 330.126 847.494C329.059 846.877 328.602 844.104 328.204 842.662C326.236 835.51 324.573 832.452 319.644 827.099L318.974 828.078C310.744 820.029 302.952 815.372 292.085 811.328C290.572 811.43 289.248 811.284 288.168 812.223C289.152 813.14 295.405 814.153 298.275 815.174C303.252 816.941 312.854 827.895 314.423 832.141C313.386 832.248 310.24 829.179 309.028 828.221C301.956 822.634 294.781 819.051 286.594 815.378C285.194 814.751 285.194 813.02 284.879 811.588C284.041 810.923 284.518 811.134 283.343 811.167L283.789 812.219C283.111 813.501 279.009 810.935 275.654 812.91C274.661 814.955 274.834 816.874 274.757 819.188L274.133 819.448C273.034 814.903 273.724 818.77 271.85 816.395C273.027 814.924 274.258 813.825 273.381 812.006L271.841 811.54C269.6 813.291 271.084 816.859 269.145 818.719L268.051 818.648C267.272 816.558 270.006 814.721 269.201 812.041C265.896 809.442 256.015 811.623 251.678 811.668C248.935 811.696 246.45 811.531 243.719 811.219C238.796 811.521 231.34 813.049 226.272 813.917L225.445 813.721C225.479 813.057 225.409 812.763 225.251 812.132L223.16 812.181C224.356 809.944 230.832 807.12 233.352 806.916C247.028 803.768 250.895 805.674 264.546 809.225C260.728 806.511 257.901 804.135 253.239 803.294L254.268 801.502C259.563 803.668 262.503 805.143 267.577 807.672C271.3 805.85 273.505 804.664 277.465 803.587C279.398 802.138 280.386 801.519 282.767 801.703Z" fill="#3A393A"/>
<path d="M283.458 805.477C295.727 802.665 307.05 804.386 315.488 814.309L316.223 813.675C317.566 815.834 318.483 817.406 319.668 819.669L318.977 819.903C317.024 818.624 313.673 816.121 311.54 816.478C310.232 815.958 309.641 815.101 308.679 814.056C301.551 809.264 290.191 807.519 281.672 807.751L281.562 807.078L283.458 805.477Z" fill="#FCFBFC"/>
<path d="M316.221 813.676C317.563 815.834 318.48 817.406 319.665 819.669L318.974 819.904C317.021 818.624 313.67 816.121 311.537 816.478C310.229 815.958 309.638 815.101 308.676 814.056C310.691 814.663 315.519 816.784 316.507 816.703C316.347 815.39 316.243 815.43 315.485 814.309L316.221 813.676Z" fill="#5B5B5C"/>
<path d="M233.352 806.92C246.911 806.341 248.224 805.275 262.158 809.599C252.756 808.649 233.53 806.934 225.251 812.136L223.16 812.185C224.356 809.948 230.832 807.124 233.352 806.92Z" fill="#E6E3E3"/>
<path d="M292.09 811.328L292.167 811C300.74 812.557 307.316 816.39 313.948 821.997C315.693 823.47 317.985 825.876 319.649 827.099L318.978 828.078C310.749 820.029 302.956 815.372 292.09 811.328Z" fill="#A5A4A6"/>
<path d="M311.539 816.476C313.672 816.119 317.023 818.622 318.976 819.901L319.667 819.667C321.952 821.833 323.981 825.447 324.728 828.49L324.672 829.158C323.484 828.46 315.361 819.407 311.539 816.476Z" fill="#FCFBFC"/>
<path d="M319.668 819.668C321.953 821.834 323.982 825.448 324.729 828.491C323.129 826.988 320.794 822.41 318.977 819.902L319.668 819.668Z" fill="#A5A4A6"/>
<path d="M277.465 803.588C279.398 802.139 280.385 801.519 282.767 801.704C286.945 801.91 294.141 801.219 297.596 802.77C294.783 803.662 280.972 803.621 277.465 803.588Z" fill="#E6E3E3"/>
<path d="M226.273 813.918C229.945 811.604 240.331 809.014 244.479 810.611L243.721 811.22C238.798 811.522 231.342 813.05 226.273 813.918Z" fill="#BCBDBF"/>
<path d="M281.671 807.753L281.082 807.925L280.56 806.742C277.668 807.667 276.741 808.296 273.68 808.331L273.969 808.201L274.394 807.535C277.541 805.909 279.897 805.22 283.457 805.479L281.561 807.08L281.671 807.753Z" fill="#E6E3E3"/>
<path d="M195.872 980.498C198.825 979.81 204.134 979.433 207.005 980.32L210.447 980.447L211.344 980.554H213.676L214.943 980.957C209.613 993.675 204.467 1014.7 196.199 1023.33C190.28 1014.87 186.285 1004.5 186.496 994.078L186.528 991.881C188.397 989.531 190.677 985.713 191.125 982.726L193.041 981.844L195.872 980.498Z" fill="#FCFBFC"/>
<path d="M195.876 980.498C198.828 979.81 204.138 979.433 207.009 980.32C206.806 983.572 199.582 1004.11 197.196 1005.44C197.194 1005.37 205.67 984.418 206.021 980.774L205.148 980.611C201.206 983.129 197.729 1002.04 194.024 1005.88L193.594 1005.57C195.3 998.889 201.66 986.646 202.769 980.616C200.998 980.019 197.869 980.391 195.876 980.498Z" fill="#A5A4A6"/>
<path d="M210.448 980.449L211.345 980.556C209.251 989.757 200.568 1008.74 195.457 1016.95C195.277 1015.65 197.199 1012.04 197.905 1010.75C202.934 1001.61 207.376 990.496 210.448 980.449Z" fill="#A5A4A6"/>
<path d="M193.045 981.844C191.153 986.075 189.232 990.305 186.5 994.077L186.532 991.88C188.4 989.531 190.68 985.713 191.128 982.726L193.045 981.844Z" fill="#E6E3E3"/>
<path d="M196.07 988.59C196.094 990.328 190.951 1000.58 189.784 1003.06C189.262 999.503 194.226 991.607 196.07 988.59Z" fill="#BCBDBF"/>
<path d="M196.363 981.969C196.509 984.879 192.532 991.511 190.977 994.386L190.77 993.535C191.886 990.058 194.373 985.048 196.363 981.969Z" fill="#A5A4A6"/>
<path d="M199.764 981.797C200.646 983.673 199.299 985.467 198.449 987.312C197.876 985.212 198.846 983.821 199.764 981.797Z" fill="#BCBDBF"/>
<path d="M170.36 981.131C170.446 982.059 170.47 982.737 170.309 983.655C170.604 982.13 175.762 974.189 176.986 973.154L177.709 973.256L178.194 974.026C181.614 972.338 180.623 972.369 183.688 972.823C189.125 973.623 196.483 968.76 202.827 968.449C200.567 969.581 198.297 970.697 196.019 971.793C196.215 972.374 196.355 972.818 196.528 973.419C192.025 977.737 184.463 981.769 183.259 987.488C182.026 988.41 182.375 988.334 180.998 988.798C179.836 989.277 178.975 989.562 177.934 990.291C176.832 991.622 168.753 993.319 166.594 993.798C167.237 989.17 167.757 985.117 170.36 981.131Z" fill="#3A393A"/>
<path d="M177.932 990.289L177.293 990.116L177.004 989.56C178.257 988.072 180.229 986.089 182.213 985.859L182.412 986.619L180.997 988.795C179.835 989.275 178.974 989.56 177.932 990.289Z" fill="#E6E3E3"/>
<path d="M175.695 986.562C175.907 989.208 173.881 990.905 171.624 991.757L171.586 990.824C172.69 988.821 173.936 988.025 175.695 986.562Z" fill="#A5A4A6"/>
<path d="M67.3789 1147.92C75.4858 1148.69 94.5115 1165.35 99.3237 1172.07C100.671 1173.96 105.643 1179.8 106.153 1181.87C103.227 1180.68 99.3186 1178.34 96.4938 1176.68C83.0942 1168.81 74.2963 1161.85 67.3789 1147.92Z" fill="#FCFBFC"/>
<path d="M214.944 980.957L215.554 981.201L218.43 981.099L221.803 980.875L222.81 981.4C222.726 983.546 221.512 984.647 220.054 986.079L220.343 985.254L219.269 985.697C219.202 986.844 219.104 986.339 219.434 987.216C220.671 990.937 212.357 1000.47 212.617 1005.45C211.687 1007.86 210.777 1008.9 208.655 1010.29C205.943 1015.88 202.87 1022.67 199.963 1028.06L196.671 1024.04L196.199 1023.33C204.467 1014.7 209.614 993.674 214.944 980.957Z" fill="#FCFBFC"/>
<path d="M214.944 980.957L215.554 981.202L218.43 981.1C218.361 984.724 215.861 988.654 214.156 991.957C210.785 1000.59 202.868 1017.66 196.671 1024.04L196.199 1023.33C204.467 1014.7 209.614 993.675 214.944 980.957Z" fill="#868688"/>
<path d="M215.554 981.203L218.43 981.102C218.36 984.726 215.861 988.656 214.156 991.959C212.385 992.683 208.704 1002.34 207.59 1004.82C209.143 995.624 212.164 989.782 215.554 981.203Z" fill="#E6E3E3"/>
<path d="M219.436 987.215C220.673 990.936 212.359 1000.47 212.618 1005.45C211.689 1007.86 210.779 1008.9 208.656 1010.29C210.627 1004.48 216.531 993.163 219.436 987.215Z" fill="#6C6B6D"/>
<path d="M160.556 883.571C162.445 883.892 162.384 883.815 163.877 884.962C166.751 884.167 170.117 875.711 172.453 873.009C172.52 873.809 172.63 874.584 172.797 875.369C174.476 873.702 175.822 870.262 177.566 868.172C180.982 864.084 185.026 860.694 188.295 856.504L188.843 856.672C187.54 860.587 180.685 866.693 178.001 870.313C175.925 873.111 174.456 875.435 172.613 878.443L172.921 878.998L174.584 879.243C174.544 880.818 173.772 881.471 172.513 882.648C170.941 884.091 169.354 885.518 167.752 886.93C167.346 886.333 167.019 885.839 166.634 885.222C164.29 886.767 164.557 887.99 161.823 889.203L160.928 888.821C160.603 886.812 160.878 886.267 160.211 884.243L160.556 883.571Z" fill="#3A393A"/>
<path d="M245.267 970.289C247.923 968.572 251.878 964.03 254.63 962.414C254.63 962.414 258.354 962.603 258.74 962.623L259.331 963.24C257.718 968.23 244.051 974.709 238.861 975.907C237.694 976.09 235.952 976.314 234.845 976.554L234.363 975.142L240.921 970.972C241.735 971.436 241.373 971.212 241.949 972.17L243.079 972.354C244.412 971.513 244.33 971.569 245.267 970.289Z" fill="#E6E3E3"/>
<path d="M162.874 958.172C161.45 960.751 158.064 964.294 155.986 966.638C157.448 966.985 157.212 966.74 158.342 967.531L157.534 968.056C156.99 969.146 154.782 973.734 154.245 974.509L152.916 973.938C151.139 977.108 150.422 979.57 149.524 983.077L149.371 984.178C148.854 984.087 147.587 983.821 147.132 983.811L146.902 982.139C150.077 971.389 153.633 965.247 162.874 958.172Z" fill="#A5A4A6"/>
<path d="M155.986 966.641C157.447 966.987 157.212 966.743 158.341 967.533L157.533 968.058C156.989 969.149 154.782 973.736 154.245 974.511L152.915 973.94C151.138 977.11 150.421 979.572 149.523 983.079L149.231 983.309L148.414 983.115L149.246 982.932L148.418 981.938C149.856 975.464 151.891 971.835 155.986 966.641Z" fill="#262527"/>
<path d="M152.914 973.941C153.53 972.004 155.809 969.211 157.532 968.059C156.988 969.149 154.78 973.737 154.244 974.512L152.914 973.941Z" fill="#BCBDBF"/>
<path d="M205.179 824.137L205.863 825.09C198.689 829.795 185.504 841.457 180.988 848.415C179.203 850.423 178.192 851.591 176.64 853.859C174.245 857.697 170.543 864.405 168.021 867.647C167.45 865.532 167.312 866.449 167.918 864.742C169.4 864.416 172.689 858.549 173.619 856.928C179.272 847.1 185.347 840.474 193.691 832.802C196.946 829.356 201.198 826.634 205.179 824.137Z" fill="#BCBDBF"/>
<path d="M221.805 980.877L222.495 980.781C224.524 980.49 226.822 979.455 228.442 980.205C228.443 981.433 227.891 981.826 227.099 982.83C221.086 991.082 217.685 996.562 212.619 1005.46C212.359 1000.48 220.674 990.94 219.437 987.219C219.106 986.342 219.204 986.846 219.271 985.7L220.345 985.256L220.056 986.082C221.514 984.649 222.728 983.548 222.812 981.402L221.805 980.877Z" fill="#E6E3E3"/>
<path d="M219.555 978.601C223.775 976.74 228.978 977.392 234.363 975.145L234.845 976.556C235.952 976.317 237.693 976.093 238.86 975.909L238.477 977.143C236.337 977.596 233.406 978.126 231.4 978.81C231.026 979.355 228.916 982.5 228.635 982.79L227.1 982.831C227.892 981.827 228.444 981.435 228.443 980.206C226.823 979.457 224.525 980.492 222.496 980.782L221.806 980.879L218.433 981.103L215.558 981.205L214.947 980.961L213.68 980.558C215.476 980.629 216.192 980.803 217.856 980.084C218.666 979.08 218.339 979.171 219.555 978.601Z" fill="#3A393A"/>
<path d="M219.555 978.601C223.775 976.74 228.978 977.392 234.363 975.145L234.844 976.556C230.264 977.841 224.287 979.564 219.555 978.601Z" fill="#E6E3E3"/>
<path d="M136 925.337C140.608 922.977 147.584 921.254 152.688 919.781C147.164 923.599 142.212 927.213 137.494 932.035C136.798 931.566 136.189 931.057 135.531 930.532C136.52 928.268 136.728 927.83 135.981 925.811L136 925.337Z" fill="#E6E3E3"/>
<path d="M163.295 982.9C163.22 983.435 163.27 984.092 163.28 984.648C164.681 983.899 167.236 980.361 168.411 978.898L169.345 978.832C167.375 982.232 163.735 989.756 164.886 993.752C165.518 993.889 165.554 993.976 166.162 993.905C165.457 995.709 165.026 995.383 162.758 996.408C162.981 995.118 162.579 986.147 162.212 985.53C161.017 987.156 161.018 989.159 159.678 991.122L158.879 990.622C159.859 988.95 160.507 984.444 161.808 981.381L162.674 981.845L163.295 982.9Z" fill="#3A393A"/>
<path d="M174.571 972.012L175.144 972.032C173.685 974.55 171.253 978.516 170.358 981.131C167.754 985.117 167.235 989.169 166.591 993.798L166.16 993.905C165.552 993.976 165.516 993.889 164.884 993.752C163.734 989.755 167.373 982.232 169.343 978.832C170.992 977.078 172.814 974.117 174.571 972.012Z" fill="#E6E3E3"/>
<path d="M158.876 990.626C156.762 980.395 164.714 969.778 173.441 965.312C167.681 970.486 163.704 973.55 161.805 981.384C160.503 984.448 159.856 988.954 158.876 990.626Z" fill="#BCBDBF"/>
<path d="M159.679 991.123C161.018 989.161 161.017 987.157 162.212 985.531C162.579 986.148 162.981 995.119 162.758 996.409L161.522 996.292C161.218 995.231 161.159 995.079 161.075 993.988C159.86 995.15 160.124 996.985 159.34 998.555C158.028 997.413 157.312 996.781 156.153 995.502C156.544 994.11 156.136 992.866 155.863 991.408C157.031 993.167 157.002 994.013 158.557 994.926C159.812 993.595 159.417 993.437 159.679 991.123Z" fill="#A5A4A6"/>
<path d="M162.322 875.831C164.114 874.643 164.817 873.879 166.335 872.375L166.899 872.594C165.275 876.621 162.81 879.843 160.556 883.569L160.21 884.242C158.711 885.929 158.798 886.413 157.004 886.923L155.898 886.546C157.532 884.481 161.81 878.318 162.322 875.831Z" fill="#BCBDBF"/>
<path d="M240.918 970.972C244.005 968.336 248.784 963.667 251.963 961.715L251.994 962.087C249.742 965.793 248.045 967.026 245.264 970.289C244.327 971.568 244.409 971.512 243.076 972.353L241.946 972.169C241.371 971.211 241.732 971.435 240.918 970.972Z" fill="#E6E3E3"/>
<path d="M180.984 848.414C183.397 847.96 184.096 847.17 185.843 845.539L186.154 846.645C183.964 848.924 179.671 855.219 177.877 855.377L176.637 853.858C178.189 851.59 179.2 850.422 180.984 848.414Z" fill="#262527"/>
<path d="M186.532 991.881C185.867 985.918 185.072 985.291 191.129 982.727C190.681 985.714 188.401 989.532 186.532 991.881Z" fill="#FCFBFC"/>
<path d="M174.57 972.012C176.047 968.327 182.268 962.327 186.327 961.98L187.269 962.546C181.413 966.323 180.451 965.946 175.143 972.032L174.57 972.012Z" fill="#5B5B5C"/>
<path d="M162.672 981.846C164.301 977.426 168.513 973.649 172.099 970.637C169.7 974.19 165.984 979.552 163.293 982.901L162.672 981.846Z" fill="#868688"/>
<path d="M147.821 965.932L148.964 965.57C148.979 967.467 145.715 975.235 145.108 979.471C142.82 978.492 147.1 967.793 147.821 965.932Z" fill="#6C6B6D"/>
<path d="M205.176 824.134C209.094 820.933 214.847 818.721 219.657 817.273C214.702 819.868 210.544 821.999 205.859 825.088L205.176 824.134Z" fill="#5B5B5C"/>
<path d="M136.777 935.066C139.966 932.007 141.705 929.979 145.619 927.98C143.019 931.105 141.69 932.68 138.468 935.178L136.777 935.066Z" fill="#E6E3E3"/>
<path d="M127.441 969.777C130.144 968.849 131.55 967.926 133.728 966.152L133.631 968.681C131.716 969.369 130.172 969.975 128.308 970.791L127.441 969.777Z" fill="#262527"/>
<path d="M127.442 969.777C127.281 969.552 127.388 969.746 127.148 968.885C128.78 967.366 131.55 966.463 133.729 966.152C131.55 967.926 130.144 968.849 127.442 969.777Z" fill="#A5A4A6"/>
<path d="M191.838 839.383C189.646 843.089 189.082 843.517 186.154 846.646L185.844 845.54C188.073 842.91 189.28 841.707 191.838 839.383Z" fill="#6C6B6D"/>
<path d="M285.056 870.913C289.6 857.992 291.908 845.463 290.826 831.578C290.604 828.738 288.739 824.146 288.359 820.593L288.958 820.43L290.791 822.061L291.342 820.914L292.262 820.771C301.296 824.528 311.403 832.22 317.512 840.105C319.796 842.72 321.499 847.277 322.922 850.02C325.423 854.836 328.227 872.723 333.919 874.181C340.879 875.96 345.542 870.684 344.303 884.584C349.669 894.162 351.283 909.76 347.977 919.888C336.932 953.739 300.133 934.645 295.144 975.418C285.226 970.081 275.77 963.898 264.866 960.84C270.116 952.292 272.466 945.9 272.11 935.613C275.642 934.548 277.572 934.084 280.044 931.179L280.184 930.353C278.21 930.399 276.538 932.015 274.595 932.83C268.468 935.404 261.723 932.504 257.004 928.538C258.138 927.172 260.55 924.094 261.744 923.008C262.448 922.518 262.219 922.35 262.566 921.091C264.753 919.817 264.958 920.872 267.177 920.255L265.548 919.17C264.704 915.729 266.335 915.076 269.169 913.685L269.734 913.41C268.634 911.126 269.025 911.508 270.234 909.245C270.144 908.414 270.187 907.996 270.21 907.16C271.628 904.968 271.853 905.091 271.759 902.659C271.835 899.468 273.335 893.729 274.298 890.65C274.473 886.338 276.928 877.555 280.923 875.379C281.766 873.676 282.837 870.847 283.602 869.017C284.651 871.464 283.411 872.565 283.393 875.414C284.394 873.457 284.489 873.07 285.056 870.913Z" fill="#FCFBFC"/>
<path d="M285.053 870.913C289.598 857.992 291.906 845.463 290.823 831.578C290.602 828.738 288.736 824.146 288.357 820.593L288.956 820.43L290.789 822.061C299.49 834.147 298.429 846.676 294.172 860.495C292.054 867.366 288.651 871.647 284.081 877.056L283.391 875.414C284.391 873.457 284.487 873.07 285.053 870.913Z" fill="#FCFBFC"/>
<path d="M283.602 869.016C284.651 871.462 283.412 872.563 283.393 875.413L284.084 877.054C282.894 879.282 278.197 889.344 276.942 890.363C276.336 891.479 276.318 891.388 276.412 892.647C275.356 900.237 275.864 906.868 274.585 914.203C274.168 910.814 273.462 906.567 273.822 903.259C272.665 905.365 271.68 907.317 270.235 909.244C270.144 908.413 270.187 907.995 270.21 907.159C271.628 904.967 271.853 905.089 271.759 902.658C271.835 899.467 273.336 893.727 274.299 890.649C274.474 886.336 276.928 877.554 280.923 875.377C281.766 873.675 282.837 870.846 283.602 869.016Z" fill="#121112"/>
<path d="M283.598 869.016C284.646 871.462 283.407 872.563 283.389 875.413L284.079 877.054C282.89 879.282 278.192 889.344 276.938 890.363C277.631 886.005 279.638 879.751 280.919 875.377C281.761 873.675 282.833 870.846 283.598 869.016Z" fill="#E6E3E3"/>
<path d="M274.297 890.648C274.979 893.946 273.262 899.768 271.758 902.658C271.834 899.467 273.334 893.727 274.297 890.648Z" fill="#868688"/>
<path d="M290.789 822.059L291.34 820.912L292.26 820.77L292.584 821.498C293.884 824.399 295.93 827.35 297.012 830.149C304.893 850.517 296.319 864.596 283.363 879.949C281.22 882.493 279.549 889.614 276.409 892.647C276.316 891.388 276.334 891.479 276.94 890.363C278.194 889.344 282.892 879.281 284.081 877.054C288.651 871.646 292.055 867.364 294.172 860.493C298.429 846.674 299.49 834.145 290.789 822.059Z" fill="#3A393A"/>
<path d="M267.175 920.253C268.724 920.213 269.333 920.039 270.631 920.88C271.672 923.648 271.771 922.822 271.292 925.386C269.524 927.242 267.835 926.538 265.454 926.095L264.759 926.722C263.19 925.631 262.787 924.668 261.742 923.006C262.446 922.517 262.218 922.348 262.565 921.089C264.751 919.815 264.957 920.87 267.175 920.253Z" fill="#E6E3E3"/>
<path d="M262.565 921.09C263.553 923.618 263.698 924.051 265.454 926.095L264.759 926.722C263.19 925.632 262.787 924.668 261.742 923.006C262.446 922.517 262.218 922.349 262.565 921.09Z" fill="#121112"/>
<path d="M270.63 920.879C272.585 921.628 271.798 921.042 273.082 922.694C273.687 927.49 268.128 928.326 264.758 926.72L265.453 926.093C267.834 926.537 269.524 927.24 271.291 925.385C271.77 922.821 271.672 923.647 270.63 920.879Z" fill="#5B5B5C"/>
<path d="M311.1 884.945C315.276 884.303 327.435 885.96 331.62 887.942C332.201 888.218 332.351 889.207 332.25 889.701C330.665 897.403 330.3 903.877 324.905 909.84C321.678 913.454 317.09 915.56 312.246 915.646C310.604 915.702 309.995 916.151 307.893 916.141C304.764 915.228 304.018 914.724 301.325 913.092C303.18 913.714 304.543 914.178 306.442 914.617C305.356 913.057 298.261 910.799 297.09 905.915C296.277 902.526 296.845 900.64 298.354 897.536L298.619 897.005C297.432 898.203 297.933 897.964 296.493 898.575L296.141 897.505C297.186 892.504 305.94 885.934 311.1 884.945Z" fill="#E6E3E3"/>
<path d="M315.223 889.402C334.735 890.106 329.323 913.105 312.332 912.819C303.294 911.188 296.462 906.84 302.684 896.299C305.371 891.747 310.278 890.35 315.223 889.402Z" fill="#FDD0D4"/>
<path d="M317.655 892.715C318.338 893.189 318.1 893.031 318.538 893.857C318.139 895.967 317.234 896.869 315.962 898.597C315.405 897.542 315.276 896.986 314.918 895.86C315.686 893.811 315.671 894.31 317.655 892.715Z" fill="#EB8F8D"/>
<path d="M313.772 869.582C318.178 870.693 322.703 879.058 319.997 883.64C317.882 882.198 313.676 877.845 312.811 875.347C312.028 873.084 312.888 871.733 313.772 869.582Z" fill="#070707"/>
<path d="M306.876 853.336L307.603 853.509L307.79 854.157C305.57 857.016 303.797 859.223 302.015 862.379L301.672 862.995C301.442 863.107 301.161 863.011 300.906 863C301.092 859.111 304.004 855.716 306.876 853.336Z" fill="#070707"/>
<path d="M402.285 985.539C404.091 986.095 404.054 986.003 405.307 987.364C405.953 989.857 405.364 990.122 404.786 992.91L405.377 993.593C407.131 993.69 407.549 993.736 409.261 994.097C412.858 997.288 409.379 997.864 410.658 1001.15L412.915 1001.61C415.292 1003.84 413.055 1004.94 413.228 1008.52C414.391 1008.61 414.136 1008.56 415.199 1008.85C416.424 1011.79 413.904 1016.26 412.255 1018.6C407.412 1025.48 398.472 1026.12 392.323 1030.47C387.086 1034.17 382.138 1040.55 377.04 1044.66C366.221 1054.38 347.268 1068.52 332.875 1070.98C322.69 1072.72 307.738 1061.3 299.94 1055.38C295.995 1052.5 292.991 1049.8 289.469 1046.45C301.583 1037.43 306.177 1032.34 316.343 1021.62C322.259 1027.05 327.571 1031.65 334.639 1035.52C344.19 1030.84 355.911 1027.62 365.242 1022.03C371.736 1018.14 380.12 1014.27 379.454 1005.88C379.286 1003.76 379.725 999.042 380.337 997.186C381.327 994.271 383.459 991.885 386.244 990.57C387.719 989.856 388.721 989.811 390.127 990.325C390.183 991.742 389.114 992.966 388.27 994.393C391.779 993.99 396.522 987.828 402.285 985.539Z" fill="#FCFBFC"/>
<path d="M183.46 990.367C183.893 991.06 184.244 1001.3 184.791 1003.76C186.286 1010.28 188.891 1016.5 192.492 1022.14C182.66 1023.07 177.262 1025.64 170.494 1032.71C161.708 1041.87 152.711 1050.77 144.298 1060.33C139.556 1065 141.111 1070.9 141.956 1076.96C142.564 1081.3 140.783 1092.22 135.034 1092.48L134.235 1091.73C133.27 1088.23 133.981 1084.56 134.516 1080.99C126.757 1077.82 125.045 1074.43 126.543 1066.62L126.105 1066.35C117.434 1075.35 130.976 1079.85 131.96 1083.36C131.63 1087.85 133.735 1094.02 129.452 1096.15C127.261 1095.94 128.088 1096.19 126.239 1094.87C125.82 1093.16 127.587 1090.66 128.444 1088.95C131 1083.84 128.415 1082.81 125.085 1079.14C124.023 1079.09 123.556 1079.33 122.577 1079.72L121.62 1078.99C120.793 1076.5 120.806 1075.58 118.363 1074.49C117.206 1074.91 117.118 1075.01 115.909 1075.07C115.281 1072.77 115.497 1072.16 113.124 1071.82C110.817 1072.91 108.532 1075.35 106.598 1077.15C107.274 1075.23 108.003 1073.33 108.784 1071.45C112.55 1062.37 117.909 1062.79 122.441 1055.32C125.213 1050.74 127.765 1045.4 130.607 1040.39C138.964 1025.65 151.269 1006.56 165.519 997.106C168.416 995.184 179.237 992.11 183.46 990.367Z" fill="#FCFBFC"/>
<path d="M274.638 844.214C274.994 839.998 277.077 834.57 277.741 829.284L277.848 828.402L278.182 828.152C278.934 831.72 278.029 836.512 279.599 839.045C279.845 837.796 280.363 834.101 280.981 833.362C281.915 841.023 277.959 856.106 274.943 863.497C272.976 871.632 269.305 877.657 262.299 882.005C261.536 882.479 261.729 883.84 261.763 884.58L261.33 884.182C261.422 883.565 261.537 882.479 261.741 881.949L261.419 881.302L259.649 881.531C256.829 884.758 254.738 887.388 251.258 889.947C259.598 878.432 262.857 876.76 268.925 862.172C271.617 855.408 273.251 851.447 274.638 844.214Z" fill="#121112"/>
<path d="M279.598 839.047C279.844 837.798 280.362 834.102 280.98 833.363C281.914 841.025 277.958 856.107 274.943 863.499C274.769 862.163 279.037 843.42 279.598 839.047Z" fill="#868688"/>
<path d="M268.925 862.172L269.52 862.778C266.248 870.139 264.05 874.579 259.649 881.531C256.829 884.758 254.738 887.388 251.258 889.947C259.598 878.432 262.857 876.76 268.925 862.172Z" fill="#6C6B6D"/>
<path d="M261.418 881.301C263.412 875.76 269.874 867.242 273.305 858.766C273.74 863.272 264.823 877.947 261.74 881.948L261.418 881.301Z" fill="#6C6B6D"/>
<path d="M274.639 844.21L275.717 843.945C276.799 846.993 271.543 858.544 270.035 861.709L269.521 862.775L268.926 862.168C271.618 855.404 273.252 851.443 274.639 844.21Z" fill="#A5A4A6"/>
<path d="M249.927 818.977C248.039 820.975 241.603 828.651 240.08 829.742C239.691 830.119 238.245 831.567 237.898 831.781C235.237 834.574 232.453 837.612 229.648 840.232L229.502 842.613C222.998 847.221 218.853 857.543 214.503 861.886C210.749 862.599 208.849 868.823 205.301 870.536L205.141 870.138C211.532 856.126 220.155 842.562 232.162 832.729C234.171 830.965 236.204 829.227 238.261 827.515C239.97 825.297 247.24 820.623 249.927 818.977Z" fill="#5B5B5C"/>
<path d="M249.925 818.977C248.038 820.975 241.601 828.651 240.079 829.742C239.69 830.119 238.244 831.567 237.896 831.781C235.236 834.574 232.451 837.612 229.646 840.232C227.555 842.251 221.786 849 220.527 849.678C220.845 848.23 220.854 848.301 221.642 847.027L221.14 846.589C221.979 844.239 230.114 836.272 232.348 833.794L232.161 832.729C234.17 830.965 236.203 829.227 238.26 827.515C239.968 825.297 247.238 820.623 249.925 818.977Z" fill="#6C6B6D"/>
<path d="M221.642 847.023C225.702 843.45 232.285 832.537 237.896 831.777C235.236 834.571 232.451 837.609 229.646 840.229C227.555 842.247 221.786 848.996 220.527 849.674C220.845 848.226 220.854 848.298 221.642 847.023Z" fill="#E6E3E3"/>
<path d="M249.926 818.977C248.039 820.975 241.602 828.651 240.08 829.742C238.741 829.905 237.671 829.87 236.574 830.741C237.733 829.696 238.122 829.069 238.261 827.515C239.969 825.297 247.239 820.623 249.926 818.977Z" fill="#262527"/>
<path d="M259.919 955.579C260.799 952.623 262.521 953 262.655 950.145C262.07 948.468 262.363 948.463 261.204 947.505C257.884 948.285 255.442 957.491 251.271 959.83L250.844 959.448C254.42 953.245 260.788 946.001 262.659 938.845C263.128 937.05 262.855 937.244 263.877 935.638L264.312 935.914C264.628 938.187 264.137 940.491 263.239 942.581L263.555 943.131C264.163 942.79 264.667 942.504 265.261 942.132L265.773 941.811C265.705 938.947 265.705 937.779 267.476 935.598L269.439 936.194C272.249 940.195 266.247 958.546 260.677 961.084L259.274 960.574C258.085 958.021 258.556 958.092 259.919 955.579Z" fill="#3A393A"/>
<path d="M269.442 936.191C272.252 940.193 266.25 958.543 260.68 961.082L259.277 960.572C258.088 958.018 258.559 958.089 259.922 955.576L260.084 957.508L260.876 957.656C267.054 953.425 266.996 940.162 269.442 936.191Z" fill="#E6E3E3"/>
<path d="M265.771 941.811C265.704 938.947 265.704 937.779 267.475 935.598C267.165 940.221 266.756 941.842 265.178 945.976L264.84 945.772C265.136 944.232 265.346 943.315 265.771 941.811Z" fill="#868688"/>
<path d="M261.752 917.742L260.329 918.818L258.49 918.415C258.042 918.573 257.164 918.797 256.902 919.078L257.244 919.659L259.587 920.184C259.315 922.039 256.621 924.97 254.45 924.899C248.933 920.23 252.051 903.771 261.834 908.062C263.816 908.929 263.843 908.791 264.802 910.718C264.733 912.885 263.463 914.536 262.339 916.483L261.752 917.742Z" fill="#FCFBFC"/>
<path d="M261.755 917.74C260.672 916.644 258.39 914.773 259.035 913.137C260.878 913.947 261.018 914.717 262.342 916.481L261.755 917.74Z" fill="#121112"/>
<path d="M127.02 966.034C127.155 965.432 127.297 964.836 127.445 964.24C130.209 953.117 135.305 939.864 145.593 933.691C143.934 937.647 138.94 943.198 138.301 946.287C135.295 950.829 133.906 957.557 132.992 962.812C130.961 964.183 129.205 964.979 127.02 966.034Z" fill="#FCFBFC"/>
<path d="M258.7 831.656C259.653 829.638 260.272 827.257 262.648 826.992L263.451 827.869C261.826 829.434 260.706 829.714 260.38 831.422L261.123 831.809L262.378 830.907L263.14 831.503L264.72 829.719L265.683 829.092C265.951 830.938 264.054 834.72 263.205 836.412C262.354 838.614 262.698 838.787 261.124 839.98C260.357 839.939 259.769 839.914 258.995 839.909C258.495 840.689 258.063 841.04 258.034 841.739C255.242 843.818 253.743 846.178 251.732 848.992L251.267 848.615C249.971 850.45 248.317 852.356 246.875 854.105C249.584 847.371 255.029 837.941 258.7 831.656Z" fill="#121112"/>
<path d="M258.7 831.652C258.685 834.864 253.156 845.553 251.267 848.611C249.971 850.446 248.317 852.353 246.875 854.101C249.584 847.367 255.029 837.937 258.7 831.652Z" fill="#E6E3E3"/>
<path d="M264.72 829.717L265.683 829.09C265.952 830.935 264.054 834.717 263.206 836.41C262.768 833.708 263.687 832.357 264.72 829.717Z" fill="#5B5B5C"/>
<path d="M192.176 865.506C202.486 847.875 216.393 829.076 235.342 820.477L235.844 821.46C217.402 831.038 204.363 849.409 193.071 866.347L192.176 865.506Z" fill="#E6E3E3"/>
<path d="M251.732 848.988C253.744 846.174 255.243 843.814 258.035 841.734C255.294 850.69 251.452 859.264 246.598 867.272C245.096 869.77 242.321 873.654 241.088 875.912L239.999 875.453C245.514 866.436 250.51 857.113 254.962 847.53C251.645 851.776 248.575 855.844 245.759 860.304C243.845 863.342 234.196 878.486 232.27 879.791C233.649 874.459 245.614 861.379 247.696 854.376C248.034 853.234 250.572 850.66 251.496 849.334L251.732 848.988Z" fill="#BCBDBF"/>
<path d="M214.504 861.886C218.853 857.543 222.999 847.221 229.502 842.613C227.338 846.61 223.945 850.636 221.431 854.592C210.813 871.301 204.812 882.989 189.138 895.686C186.441 897.078 184.928 898.036 181.926 898.617C183.364 897.358 186.175 895.493 187.818 894.432C199.883 886.644 207.659 874.37 214.504 861.886Z" fill="#E6E3E3"/>
<path d="M221.655 960.534C223.843 960.106 227.894 957.853 229.826 956.727C229.003 958.103 224.689 964.994 223.587 964.887C218.011 969.113 207.324 971.713 200.494 972.554L199.699 972.177C200.393 971.708 200.992 971.285 201.714 970.856L202.062 970.143C204.551 968.598 209.188 968.456 211.211 967.482C211.915 967.14 215.542 962.125 217.269 961.686L217.728 962.252L216.752 963.496C219.754 963.623 220.901 963.914 223.873 963.236C225.55 961.814 224.992 962.68 225.561 960.514L224.973 960.137L223.88 960.81L224.307 962.675L223.867 962.899C222.1 962.12 222.705 962.563 221.655 960.534Z" fill="#121112"/>
<path d="M201.714 970.856C206.504 970.912 219.141 965.213 223.587 964.887C218.011 969.112 207.324 971.712 200.494 972.553L199.699 972.176C200.393 971.707 200.992 971.284 201.714 970.856Z" fill="#868688"/>
<path d="M181.92 898.618C184.923 898.037 186.436 897.079 189.133 895.688L189.511 896.34C187.23 897.844 186.65 897.706 185.777 899.934C182.37 904.032 154.708 914.915 148.656 915.399C155.064 912.218 161.895 909.98 168.509 907.167C172.011 901.927 176.197 900.346 181.92 898.618Z" fill="#262527"/>
<path d="M185.777 899.934C182.37 904.032 154.708 914.915 148.656 915.399C155.064 912.218 161.895 909.98 168.509 907.167C173.809 905.831 180.244 901.947 185.777 899.934Z" fill="#A5A4A6"/>
<path d="M201.167 953.327C199.005 953.316 187.675 956.915 185.262 957.69C189.418 954.117 199.494 953.036 205.838 949.667C214.089 945.288 217.443 940.614 224.761 935.746C220.849 940.002 216.655 943.723 212.397 947.623L212.621 948.112C212.978 948.872 212.832 948.571 213.341 949.488C212.254 952.674 202.328 956.497 201.182 956.303C201.038 954.937 201.049 954.978 201.312 953.627L201.167 953.327Z" fill="#A5A4A6"/>
<path d="M201.167 953.325C203.153 951.867 208.779 950.149 212.397 947.621L212.621 948.11C212.978 948.87 212.832 948.569 213.341 949.487C212.254 952.673 202.328 956.496 201.183 956.302C201.038 954.936 201.049 954.977 201.312 953.626L201.167 953.325Z" fill="#262527"/>
<path d="M249.455 843.301C249.727 846.252 240.126 863.134 237.618 865.77C227.481 876.428 220.232 892.388 209.341 901.644L209.191 900.992C210.44 898.51 214.704 894.936 216.475 892.48C220.131 887.408 223.288 881.938 226.901 876.831C228.737 874.236 233.024 870.724 234.615 868.303C239.862 860.321 244.389 851.339 249.455 843.301Z" fill="#868688"/>
<path d="M255.944 826.191L255.983 826.355C254.215 831.712 236.765 848.869 232.539 854.349C228.955 858.993 224.229 867.892 220.207 871.389C221.098 869.085 223.359 865.685 224.644 863.422C233.091 848.548 245.045 838.848 255.944 826.191Z" fill="#E6E3E3"/>
<path d="M236.898 886.452C242.947 880.387 247.92 877.084 251.988 868.969C256.086 860.798 259.9 851.725 264.463 843.859C262.05 852.479 253.286 869.433 248.303 877.048L249.356 877.955L249.383 878.781C247.877 880.749 247.133 881.87 245.155 883.44L244.77 883.251L245.104 882.517L244.694 881.406C242.594 883.154 240.035 885.423 237.804 886.86L236.898 886.452Z" fill="#868688"/>
<path d="M248.305 877.047L249.358 877.954L249.385 878.78C247.879 880.748 247.135 881.869 245.156 883.439L244.771 883.25L245.105 882.516L244.695 881.405L248.305 877.047Z" fill="#121112"/>
<path d="M245.103 882.521C246.404 880.936 247.515 879.529 249.383 878.785C247.877 880.753 247.133 881.874 245.155 883.444L244.77 883.256L245.103 882.521Z" fill="#5B5B5C"/>
<path d="M117.43 1076.56C118.413 1076.97 118.051 1076.75 118.773 1077.63L118.173 1080.63C118.706 1081.05 119.05 1081.32 119.625 1081.71L120.119 1082.04C120.62 1084.96 117.316 1088.49 115.614 1090.81C114.348 1090.95 114.186 1090.72 112.963 1090.23C110.352 1086.8 115.122 1079.47 117.43 1076.56Z" fill="#FCFBFC"/>
<path d="M247.381 933.359L248.15 934.18C242.808 943.432 238.358 949.946 229.826 956.725C227.894 957.852 223.844 960.105 221.655 960.533L220.477 960.813C233.484 952.974 238.582 945.889 247.381 933.359Z" fill="#E6E3E3"/>
<path d="M283.6 869.016C286.54 857.736 289.906 844.814 288.548 833.116C288.075 829.043 285.586 822.116 285.408 819.262C291.993 825.649 289.881 851.37 287.102 859.434C286.2 862.048 284.911 868.44 285.053 870.913C284.487 873.069 284.391 873.456 283.391 875.414C283.409 872.564 284.648 871.463 283.6 869.016Z" fill="#868688"/>
<path d="M224.371 817.113L225.577 817.215C222.276 818.933 217.008 821.232 214.177 823.22C204.346 830.122 196.308 841.361 187.058 848.594C186.909 848.757 186.314 849.129 186.102 849.272L186.329 848.436C196.718 837.92 209.428 821.364 224.371 817.113Z" fill="#868688"/>
<path d="M123.739 1081.68C124.366 1082.03 124.623 1082.31 125.176 1082.78C126.822 1087.45 126.507 1092.02 121.529 1094.53C119.981 1093.71 120.019 1093.65 118.882 1092.42C118.451 1089.12 121.736 1086.1 123.739 1081.68Z" fill="#FCFBFC"/>
<path d="M207.957 920.562C212.724 916.867 220.795 911.143 224.988 907.284C229.985 902.686 233.954 894.852 240.292 890.371C234.123 900.734 219.659 914.828 209.102 921.082L207.957 920.562Z" fill="#BCBDBF"/>
<path d="M190.121 850.646C198.644 839.447 210.884 827.698 223.857 821.852C211.342 831.582 203.035 836.914 192.428 849.515L190.121 850.646Z" fill="#E6E3E3"/>
<path d="M112.393 1074.13L113.301 1075.05C113.926 1078.52 111.364 1085.15 108.186 1086.89C103.166 1080.84 107.487 1077.93 112.393 1074.13Z" fill="#FCFBFC"/>
<path d="M206.172 854.769L205.084 855.967L204.532 855.859L204.724 855.518C206.695 852.052 214.541 840.073 218.003 839.125L213.997 844.003L215.402 844.65C214.422 847.653 207.272 857.185 204.554 859.137L204.352 858.597C205.504 856.808 206.015 856.211 207.44 854.6L206.172 854.769Z" fill="#5B5B5C"/>
<path d="M215.402 844.652C214.422 847.655 207.272 857.187 204.554 859.139L204.352 858.599C205.504 856.809 206.015 856.213 207.44 854.602C209.563 851.595 212.694 847.053 215.402 844.652Z" fill="#868688"/>
<path d="M206.172 854.769C208.322 851.043 211.327 847.414 213.997 844.004L215.402 844.651C212.694 847.052 209.563 851.594 207.44 854.601L206.172 854.769Z" fill="#121112"/>
<path d="M209.278 924.398C209.557 924.439 209.338 924.383 210.132 924.791C201.729 930.862 192.352 934.909 183.566 940.343C180.592 942.183 177.512 943.936 174.497 945.715L173.863 945.634C175.92 942.219 204.182 926.896 209.278 924.398Z" fill="#BCBDBF"/>
<path d="M213.43 932.283C214.864 931.33 216.664 929.816 218.266 929.836C215.042 933.934 185.143 952.784 179.266 953.579C185.257 950.129 190.264 946.968 196.11 943.37C197.978 942.544 198.742 941.805 200.365 940.52C204.092 938.721 210.06 934.653 213.43 932.283Z" fill="#BCBDBF"/>
<path d="M200.741 907.941C190.891 914.038 181.279 914.792 170.418 918.605L169.359 917.565C179.598 913.875 190.014 909.945 200.741 907.941Z" fill="#E6E3E3"/>
<path d="M220.578 947.74C220.83 944.616 221.675 943.372 224.438 942.332L226.198 943.678L228.192 942.281L228.434 942.694C227.676 943.775 227.06 944.733 226.141 945.686C227.277 945.564 228.312 945.442 229.446 945.268L229.673 945.798C227.91 948.107 226.596 949.112 223.9 950.152L223.302 949.79L223.202 949.066C223.075 948.194 223.171 948.525 222.947 947.939C221.54 948.704 219.311 949.82 218.492 951.283C217.286 951.89 215.648 952.782 214.441 953.307C216.242 950.539 217.882 949.698 220.578 947.74Z" fill="#6C6B6D"/>
<path d="M226.14 945.684C227.275 945.561 228.31 945.439 229.444 945.266L229.671 945.796C227.908 948.105 226.594 949.109 223.898 950.149L223.301 949.787L223.2 949.063C223.073 948.192 223.17 948.523 222.945 947.937C224.306 946.622 224.435 946.377 226.14 945.684Z" fill="#262527"/>
<path d="M220.578 947.74C220.831 944.616 221.675 943.372 224.438 942.332L226.199 943.678C224.226 945.197 222.65 946.349 220.578 947.74Z" fill="#121112"/>
<path d="M276.301 814.809C278.676 814.672 279.632 814.223 280.869 816.382C279.375 821.668 288.042 832.169 283.183 848.485L283.067 848.49C282.732 847.695 282.698 847.914 282.796 847.124C283.793 839.076 282.575 826.348 279.265 818.982C276.464 817.672 276.863 817.708 276.301 814.809Z" fill="#A5A4A6"/>
<path d="M154.929 949.048L153.185 948.528C153.155 945.306 159.796 940.576 162.641 939.699C161.759 941.687 161.774 940.749 162.225 942.584L161.181 943.578C157.866 947.931 153.72 953.105 149.48 956.51L149.098 955.429C151.151 953.319 152.983 951.25 154.929 949.048Z" fill="#3A393A"/>
<path d="M154.929 949.048C157.237 947.488 157.737 944.99 161.181 943.578C157.866 947.931 153.72 953.105 149.48 956.51L149.098 955.429C151.151 953.319 152.983 951.25 154.929 949.048Z" fill="#6C6B6D"/>
<path d="M150.894 924.609L151.153 925.496L147.793 928.871C149.936 930.66 150.512 929.187 152.268 930.329C149.543 932.255 147.824 933.066 145.918 935.696C144.363 937.842 140.103 945.651 138.301 946.283C138.94 943.194 143.935 937.643 145.593 933.688C145.315 931.72 145.695 932.633 144.036 931.032L144.726 930.4C146.378 927.398 148.092 926.327 150.894 924.609Z" fill="#121112"/>
<path d="M150.89 924.609L151.15 925.496L147.789 928.871C146.704 929.671 146.019 930.41 144.723 930.4C146.375 927.398 148.089 926.327 150.89 924.609Z" fill="#E6E3E3"/>
<path d="M251.694 950.956C253.429 949.697 254.593 948.168 256.003 946.547C250.37 957.542 241.868 968.129 230.696 973.792C229.101 974.327 227.26 975.153 225.682 974.893L225.465 974.684C228.052 973.114 230.835 972.232 233.529 970.723C238.324 968.047 250.786 956.145 251.694 950.956Z" fill="#6C6B6D"/>
<path d="M162.62 925.375L163.3 925.732C150.365 937.185 151.086 939.505 142.238 952.044L141.812 951.84C143.843 943.45 154.758 930.284 162.62 925.375Z" fill="#E6E3E3"/>
<path d="M253.124 890.211L253.536 890.741C251.008 898.887 233.11 913.745 225.718 918.027L225.488 917.91C225.587 916.773 235.544 909.56 237.272 908.123C243.588 902.857 247.932 896.476 253.124 890.211Z" fill="#A5A4A6"/>
<path d="M150.891 924.613C153.425 920.984 155.699 921.632 157.243 919.542L156.636 918.4C158.098 916.708 168.59 912.095 170.657 911.891C170.59 913.751 161.316 916.366 158.135 919.348C157.823 920.576 157.502 921.275 157.944 922.529C157.856 922.88 157.58 923.859 157.558 924.175C155.467 925.23 153.445 926.647 151.15 925.5L150.891 924.613Z" fill="#262527"/>
<path d="M285.974 839.492L286.677 839.818L287.103 841.49C285.815 852.934 283.171 863.817 277.594 873.975C281.159 861.278 284.549 853.229 285.974 839.492Z" fill="#E6E3E3"/>
<path d="M230.793 863.141C236.375 852.325 237.129 849.363 246.101 841.004C241.161 850.852 236.028 855.684 231.093 863.962L230.793 863.141Z" fill="#E6E3E3"/>
<path d="M249.529 838.812C249.019 842.263 232.923 867.831 229.95 871.512C229.781 869.947 247.373 840.8 249.529 838.812Z" fill="#BCBDBF"/>
<path d="M236.731 963.68L237.229 964.358C232.753 968.277 224.508 971.693 221.19 975.923C218.022 976.566 217.215 976.464 214.024 976.29H215.073C214.434 975.144 214.094 975.607 213.695 974.522L214.931 973.584L215.548 975.332C217.613 975.454 234.124 965.219 236.731 963.68Z" fill="#3A393A"/>
<path d="M224.579 897.922C224.688 898.141 224.797 898.36 224.905 898.579C218.804 904.533 205.971 912.913 198.351 917.292L198.137 917.164C198.607 914.901 210.016 908.534 212.566 906.71C216.481 903.911 220.632 900.572 224.579 897.922Z" fill="#BCBDBF"/>
<path d="M177.353 933.812L178.914 935.107C178.599 937.997 171.947 940.862 169.695 942.855C168.401 944.002 166.855 945.45 165.285 946.102C166.596 942.672 173.238 937.462 175.238 934.587L177.353 933.812Z" fill="#262527"/>
<path d="M193.955 917.336L194.34 917.876C193.221 919.879 182.71 925.17 179.903 927.179C176.77 929.417 172.435 932.648 169.15 934.6L168.918 934.33L169.08 933.622C172.207 931.537 175.065 928.866 178.304 926.674C183.424 923.208 188.577 920.338 193.955 917.336Z" fill="#5B5B5C"/>
<path d="M211.305 931.193C213.176 928.073 215.768 925.229 219.282 924.082L219.448 924.877L218.144 926.152L218.135 926.937L219.613 926.86L220.018 927.711C219.387 928.955 219.453 929.24 218.264 929.837C216.663 929.816 214.862 931.33 213.428 932.284C212.559 931.381 212.547 931.488 211.305 931.193Z" fill="#A5A4A6"/>
<path d="M218.135 926.936L219.613 926.859L220.018 927.711C219.387 928.954 219.453 929.24 218.264 929.836C216.663 929.816 214.862 931.33 213.428 932.283C212.559 931.381 212.547 931.488 211.305 931.192C214.001 930.463 216.32 929.051 218.135 926.936Z" fill="#121112"/>
<path d="M175.826 922.203L175.753 923.432C169.366 928.019 164.67 934.921 158.164 940.186C162.756 933.254 168.409 926.159 175.826 922.203Z" fill="#E6E3E3"/>
<path d="M261.61 871.312C262.629 875.671 251.299 888.276 247.71 890.677L247.656 890.264C249.549 887.976 251.748 885.442 253.463 883.067C256.219 879.249 258.501 874.855 261.61 871.312Z" fill="#BCBDBF"/>
<path d="M243.947 945.781C243.856 950.96 232.232 961.675 227.602 964.59C227.624 963.102 229.678 961.726 231.072 960.487C236.096 956.022 239.855 951.052 243.947 945.781Z" fill="#A5A4A6"/>
<path d="M218.404 871.207L219.585 872.007C217.119 877.308 211.016 882.773 206.709 886.856C206.524 887.044 205.866 887.437 205.613 887.6C205.549 885.918 206.461 885.668 207.723 884.404C211.805 880.326 215.124 875.942 218.404 871.207Z" fill="#3A393A"/>
<path d="M175.691 890.383L175.886 890.49C174.207 893.365 162.572 903.366 159.259 905.221L158.793 904.594C164.202 899.757 169.574 894.287 175.691 890.383Z" fill="#5B5B5C"/>
<path d="M260.008 871.227C261.686 866.899 265.627 851.373 267.712 850.078C267.747 852.132 267.759 852.107 267.228 854.085C265.227 860.206 263.772 866.002 260.008 871.227Z" fill="#E6E3E3"/>
<path d="M229.625 848.148C227.092 853.913 222.803 862.732 218.788 867.416L218.105 867.126C221.798 860.117 224.691 854.423 229.625 848.148Z" fill="#E6E3E3"/>
<path d="M175.519 954.438L176.046 954.861C176.017 954.968 165.722 964.688 164.454 965.794C164.033 965.249 164.062 965.147 163.793 964.495C165.721 960.529 171.819 956.691 175.519 954.438Z" fill="#3A393A"/>
<path d="M215.756 935.527L216.654 935.874C214.986 939.519 205.036 946.884 201.586 949.265L201.166 949.234L201.164 948.755C202.755 947.256 204.031 946.308 205.688 944.957C209.31 942.006 212.036 938.443 215.756 935.527Z" fill="#A5A4A6"/>
<path d="M239.156 918.395L239.208 919.027C235.087 923.971 226.941 927.738 221.16 930.516C221.178 930.404 221.174 930.287 221.213 930.179C221.717 928.788 236.697 920.051 239.156 918.395Z" fill="#A5A4A6"/>
<path d="M258.609 934.998C259.755 933.918 259.163 934.045 260.334 934.02C261.253 937.975 254.471 946.6 251.923 949.424L251.693 950.958L249.869 951.998L249.645 951.508C252.992 946.034 257.734 941.772 258.609 934.998Z" fill="#3A393A"/>
<path d="M182.156 949.169C185.503 945.999 195.729 940.167 200.366 940.519C198.742 941.804 197.978 942.543 196.11 943.368C193.422 943.338 184.999 947.783 182.156 949.169Z" fill="#A5A4A6"/>
<path d="M253.273 822.55C258.51 816.836 258.006 817.978 264.939 814.996L265.42 816.179C264.182 817.397 263.52 817.264 262.879 818.926C261.807 818.243 262.311 817.973 261.25 817.565L259.492 820.313C257.5 820.863 255.234 821.801 253.273 822.55Z" fill="#A5A4A6"/>
<path d="M238.944 925.918C239.152 926.147 239.174 926.494 239.268 926.79C237.506 931.138 230.797 937.316 227.058 940.119L226.715 939.696C231.256 935.175 234.837 930.822 238.944 925.918Z" fill="#3A393A"/>
<path d="M184.2 945.367L184.648 945.678C184.003 946.82 170.661 954.461 168.647 955.684L168.27 955.348C171.326 951.938 179.908 947.268 184.2 945.367Z" fill="#868688"/>
<path d="M228.208 950.879C228.729 951.292 228.52 951.001 228.636 951.868C226.701 954.422 218.019 959.228 214.801 960.854L214.418 960.518C215.251 959.249 225.869 952.561 228.208 950.879Z" fill="#3A393A"/>
<path d="M267.44 885.137C267.53 888.374 259.142 898.359 256.395 900.449C256.908 898.099 265.453 887.629 267.44 885.137Z" fill="#5B5B5C"/>
<path d="M150.761 947.859L150.881 948.609C149.76 951.937 142.415 957.85 139.482 960.531C139.07 958.513 148.748 949.858 150.761 947.859Z" fill="#262527"/>
<path d="M268.785 895.571C265.635 898.359 259.912 904.007 256.628 905.878L256.586 905.832C258.331 903.63 265.575 896.142 267.988 895.016L268.785 895.571Z" fill="#5B5B5C"/>
<path d="M246.568 925.672L247.236 926.278C246.943 929.296 241.259 936.59 239.166 938.945L238.473 938.313C239.879 934.439 244.12 931.707 246.568 925.672Z" fill="#3A393A"/>
<path d="M193.994 855.574L194.216 855.819C194.46 858.51 188.255 866.819 186.477 869.123L186.043 868.695C187.405 865.55 192.003 858.424 193.994 855.574Z" fill="#6C6B6D"/>
<path d="M155.598 905.066L155.779 905.806C154.589 908.349 145.779 911.785 142.917 913.141L142.816 912.61C143.557 911.53 153.542 906.31 155.598 905.066Z" fill="#3A393A"/>
<path d="M201.852 867.91C202.895 866.315 204.966 862.838 206.297 861.758C205.297 865.571 201.921 871.958 198.082 873.252C198.543 871.631 199.193 871.208 200.382 870.015L201.852 867.91Z" fill="#5B5B5C"/>
<path d="M218.49 951.281L218.609 952.015L217.655 952.759C217.967 955.385 216.08 956.593 213.658 956.781L212.562 956.292C212.771 954.707 213.155 954.778 214.439 953.305C215.646 952.78 217.283 951.888 218.49 951.281Z" fill="#262527"/>
<path d="M123.469 927.008C123.541 927.594 115.831 939.231 114.559 941.326C113.973 937.738 120.773 929.286 123.469 927.008Z" fill="#868688"/>
<path d="M265.174 902.582C265.213 903.025 264.993 903.872 264.897 904.361C266.225 904.631 265.538 904.601 267.13 903.734L266.885 904.086C267.347 905.533 266.706 906.752 266.215 908.276C264.562 907.17 263.338 906.752 261.66 905.564C262.131 904.183 263.697 903.556 265.174 902.582Z" fill="#E6E3E3"/>
<path d="M203.147 975.526C204.297 975.266 204.625 975.343 205.817 975.379L205.601 976.016C202.199 977.524 200.329 977.703 196.626 978.309C195.447 978.493 195.39 978.422 194.191 978.233C195.193 977.05 201.445 975.858 203.147 975.526Z" fill="#6C6B6D"/>
<path d="M157.949 922.527C161.802 921.069 164.912 919.097 169.361 917.562L170.42 918.602C165.933 920.3 161.721 921.742 157.562 924.174C157.585 923.858 157.861 922.879 157.949 922.527Z" fill="#868688"/>
<path d="M188.867 924.254C186.238 927.078 180.575 931.319 177.353 933.811L175.238 934.586C177.703 931.018 185.105 926.369 188.867 924.254Z" fill="#A5A4A6"/>
<path d="M248.741 952.426C249.177 952.859 248.991 952.558 249.002 953.461C246.708 956.132 241.631 961.586 238.65 963.186L238.293 962.804C241.724 959.292 245.208 955.836 248.741 952.426Z" fill="#3A393A"/>
<path d="M237.57 902.794C240.934 899.267 243.655 896.213 247.592 893.277L247.984 893.313C245.513 896.254 241.356 900.974 238.13 903.105L237.57 902.794Z" fill="#6C6B6D"/>
<path d="M202.167 871.457L202.348 871.595C201.88 873.812 196.41 881.397 194.605 883.237C194.175 882.788 194.364 883.099 194.349 882.172C196.055 879.123 199.664 873.797 202.167 871.457Z" fill="#3A393A"/>
<path d="M175.122 884.727C174.51 888.463 168.034 893.937 165.047 896.119C165.28 894.411 173.314 886.531 175.122 884.727Z" fill="#6C6B6D"/>
<path d="M312.148 824.922C315.813 826.099 319.42 834.061 320.869 837.502C319.208 836.401 313.72 827.292 312.148 824.922Z" fill="#6C6B6D"/>
<path d="M264.938 814.996C265.602 815.592 266.096 815.752 266.051 816.469C265.869 819.39 261.968 825.18 260.039 827.128C261.004 824.982 263.393 820.756 262.878 818.926C263.519 817.264 264.181 817.397 265.419 816.179L264.938 814.996Z" fill="#3A393A"/>
<path d="M265.23 849.387C265.751 852.782 260.36 862.686 258.71 865.953C258.218 863.674 263.902 852.766 265.23 849.387Z" fill="#5B5B5C"/>
<path d="M227.139 909.73L227.242 909.787L227.238 910.536C224.993 913.676 221.794 916.693 218.65 918.931L218.281 918.579C218.68 917.025 225.701 910.923 227.139 909.73Z" fill="#A5A4A6"/>
<path d="M266.628 832.59C267.048 835.093 263.686 843.891 261.697 846.001C261.528 844.084 265.317 834.501 266.628 832.59Z" fill="#5B5B5C"/>
<path d="M237.567 902.797L238.126 903.108C236.893 904.668 231.124 910.152 229.078 910.57L229.311 909.561C231.517 906.961 234.646 904.54 237.567 902.797Z" fill="#262527"/>
<path d="M221.531 875.439C224.765 871.621 227.337 867.192 230.793 863.145L231.093 863.965C229.163 867.819 225.141 872.896 221.531 875.439Z" fill="#3A393A"/>
<path d="M246.628 830.66L246.939 831.042C243.375 835.294 242.679 835.987 238.452 839.438C237.942 838.979 238.173 839.3 238 838.347C239.062 836.736 244.829 832.164 246.628 830.66Z" fill="#3A393A"/>
<path d="M267.714 850.08L269.251 850.253C270.303 849.03 270.122 848.128 270.172 846.476L271.025 846.211C272.365 847.781 270.449 852.21 269.037 853.464C268.862 853.622 267.411 854.03 267.23 854.086C267.761 852.108 267.749 852.134 267.714 850.08Z" fill="#262527"/>
<path d="M195.252 895.797L195.882 896.067C195.006 898.075 189.571 900.981 187.548 902.153C187.283 902.077 187.481 902.163 186.828 901.654C188.55 899.854 192.956 897.26 195.252 895.797Z" fill="#A5A4A6"/>
<path d="M239.873 933.77C238.96 936.996 234.866 940.794 232.288 942.853L232.188 942.496C232.758 940.299 238.068 935.498 239.873 933.77Z" fill="#868688"/>
<path d="M199.672 925.531C200.674 923.044 205.462 921.351 207.957 920.566L209.102 921.086C206.461 922.228 202.48 924.068 200.127 925.638L199.672 925.531Z" fill="#3A393A"/>
<path d="M192.486 914.414L193.02 914.465L193.34 915.051C191.716 916.458 187.812 917.783 185.619 918.655L185.292 918.64L185.012 918.257C186.815 916.626 190.148 915.428 192.486 914.414Z" fill="#3A393A"/>
<path d="M234.601 882.308L236.593 881.793C235.225 883.368 232.524 887.14 230.387 887.002C230.71 885.045 233 883.521 234.601 882.308Z" fill="#262527"/>
<path d="M194.254 951.074L194.382 951.497C193.263 953.302 188.058 954.546 185.895 955.178L186.163 954.265C189.262 952.853 191.024 952.099 194.254 951.074Z" fill="#5B5B5C"/>
<path d="M196.211 900.457L196.746 901.043C195.617 902.623 191.889 903.765 189.833 904.571L189.441 904.188C190.183 902.46 194.114 901.308 196.211 900.457Z" fill="#3A393A"/>
<path d="M208.744 904.539L209.031 904.702C208.608 906.191 203.539 908.943 202.005 909.84L201.637 909.519C202.464 907.511 206.716 905.594 208.744 904.539Z" fill="#3A393A"/>
<path d="M239.998 875.453L241.086 875.912C239.498 878.715 238.757 879.429 236.594 881.789L234.602 882.304C236.398 880.581 238.455 877.558 239.998 875.453Z" fill="#5B5B5C"/>
<path d="M156.172 975.301L156.614 975.76C156.74 977.646 155.58 981.331 155.058 983.329L154.388 982.814C153.993 980.011 154.939 977.778 156.172 975.301Z" fill="#868688"/>
<path d="M175.037 863.75L175.377 864.346C173.986 867.084 172.538 868.766 170.649 871.172L170.281 870.937C170.864 868.22 173.197 865.804 175.037 863.75Z" fill="#262527"/>
<path d="M238.448 814.414L239.819 814.508L239.836 814.94C237.591 815.82 235.324 816.645 233.039 817.414L232.086 817.185C233.167 815.574 236.637 814.821 238.448 814.414Z" fill="#3A393A"/>
<path d="M187.996 872.202C189.435 869.556 190.486 867.971 192.173 865.504L193.069 866.345C191.556 868.532 189.98 870.902 188.392 873.012L187.996 872.202Z" fill="#6C6B6D"/>
<path d="M267.988 895.018C269.774 891.97 271.593 888.656 273.777 885.914C272.381 889.63 271.349 892.444 268.785 895.573L267.988 895.018Z" fill="#BCBDBF"/>
<path d="M233.747 925.996L234.101 926.409C232.876 928.142 230.501 929.661 228.73 930.971L228.324 930.512C229.126 928.147 231.605 927.138 233.747 925.996Z" fill="#3A393A"/>
<path d="M225.454 930.496C225.82 930.797 225.608 930.567 225.852 931.347C224.388 933.305 222.698 934.243 220.673 935.629L220.363 934.834C221.462 933.152 223.758 931.735 225.454 930.496Z" fill="#3A393A"/>
<path d="M286.009 830.668C286.828 834.205 287.759 837.855 287.101 841.49L286.676 839.818L285.973 839.491C285.858 836.3 285.881 833.864 286.009 830.668Z" fill="#5B5B5C"/>
<path d="M175.826 922.202C177.776 921.289 180.03 919.959 182.08 919.934L181.675 920.484L182.123 920.025L180.55 920.275L181.513 920.632C179.17 922.013 178.26 922.416 175.754 923.43L175.826 922.202Z" fill="#5B5B5C"/>
<path d="M234.386 826.152L234.377 826.688C233.405 828.834 230.717 829.878 228.668 830.776L228.625 830.118C230.203 828.436 232.372 827.35 234.386 826.152Z" fill="#3A393A"/>
<path d="M200.381 870.015C199.048 869.765 199.47 870.117 198.805 869.286L199.298 867.446C200.437 866.294 199.785 866.63 201.243 866.258L201.851 867.909L200.381 870.015Z" fill="#121112"/>
<path d="M232.598 890.846C233.528 889.21 235.44 887.747 236.9 886.457L237.805 886.865C236.555 888.226 234.588 890.504 233.089 891.442L232.598 890.846Z" fill="#262527"/>
<path d="M247.379 933.362C248.353 931.608 248.738 930.252 250.261 929.289C250.499 931.094 249.219 932.658 248.147 934.182L247.379 933.362Z" fill="#6C6B6D"/>
<path d="M233.086 891.44L231.972 892.541C230.045 892.847 230.941 892.98 229.187 892.139L228.953 891.257C231.1 889.559 229.047 891.568 232.594 890.844L233.086 891.44Z" fill="#121112"/>
<path d="M218.79 867.416C217.808 869.2 217.111 870.877 215.56 872.131L215.383 871.305C216.162 869.133 216.248 868.17 218.107 867.125L218.79 867.416Z" fill="#3A393A"/>
<path d="M149.484 956.514C149.117 957.009 146.941 958.354 146.375 958.701L145.719 958.487C146.559 956.779 147.379 956.616 149.102 955.434L149.484 956.514Z" fill="#262527"/>
<path d="M223.044 836.68L223.203 837.48C222.484 839.3 221.055 840.289 219.566 841.639L219.457 840.956C220.222 839.08 221.552 838.102 223.044 836.68Z" fill="#6C6B6D"/>
<path d="M194.625 929.661C195.487 928.137 198.118 926.598 199.675 925.527C198.177 927.617 197.309 929.447 194.625 929.661Z" fill="#5B5B5C"/>
<path d="M238.055 819.44C239.506 818.773 241.022 817.809 242.475 818.161C241.55 819.537 240 819.945 238.38 820.332L238.055 819.44Z" fill="#3A393A"/>
<path d="M276.68 874.844L276.9 875.527C276.661 877.127 275.151 878.855 274.155 880.242L273.98 879.666C274.526 877.454 275.337 876.653 276.68 874.844Z" fill="#262527"/>
<path d="M184.299 888.164L184.427 888.811C183.737 890.743 183.597 890.371 181.749 891.916L181.559 891.161C182.388 889.173 182.326 889.678 184.299 888.164Z" fill="#262527"/>
<path d="M190.122 850.647L192.428 849.516C191.044 851.218 190.434 852.329 188.395 853.099C188.646 852.024 189.201 851.351 190.122 850.647Z" fill="#5B5B5C"/>
<path d="M141.408 918.22C141.621 918.205 142.407 918.352 142.653 918.393C142.275 919.387 140.939 919.882 139.778 920.595C139.008 920.825 139.437 920.789 138.484 920.585C139.052 919.484 140.302 918.913 141.408 918.22Z" fill="#3A393A"/>
<path d="M188.395 873.014C187.821 874.268 187.74 874.242 186.758 875.246L186.168 875.032C186.399 873.528 186.898 873.268 188 872.203L188.395 873.014Z" fill="#262527"/>
<path d="M235.34 820.472C236.093 820.121 237.246 819.738 238.055 819.438L238.38 820.33L235.842 821.456L235.34 820.472Z" fill="#868688"/>
<path d="M259.543 1229.24C263.82 1226.67 269.628 1224.07 274.241 1221.84C293.731 1212.42 310.26 1199.17 332.794 1200.28L333.227 1201.09L331.457 1201.66C331.484 1203.23 335.451 1209.63 336.37 1211.86C339.056 1218.37 340.387 1226.69 343.122 1232.95C352.3 1253.96 361.787 1274.94 373.41 1294.73C375.352 1298.02 379.001 1305.33 383.107 1304.25C387.604 1303.07 394.262 1303.85 398.211 1302.93C408.674 1300.52 421.485 1288.8 432.162 1296.41C433.895 1297.65 436.239 1302.18 435.979 1304.34C434.277 1318.6 415.463 1329.72 403.869 1335.71C401.819 1336.77 398.737 1337.02 396.563 1337.92C394.606 1338.69 396.378 1340.86 394.001 1343.14C391.026 1345.99 387.26 1348.08 383.7 1350.07H378.536H370.24H368.839C356.917 1337.91 360.12 1332.21 352.709 1320.84C342.846 1306.72 328.235 1296.77 318.001 1282.91C310.097 1272.07 305.519 1258.82 300.515 1246.47C296.967 1237.71 293.563 1234.91 286.278 1229.26C283.674 1227.24 280.731 1224.48 278.26 1222.2L260.535 1229.97L259.543 1229.24Z" fill="#121112"/>
<path d="M370.242 1350.08C371.979 1348.06 371.473 1348.77 373.943 1349.15C379.441 1350.01 387.167 1341.91 392.266 1339.32L392.296 1339.78C387.866 1343.97 383.738 1346.93 378.539 1350.08H370.242Z" fill="#3A393A"/>
<path d="M323.729 1202.26C325.422 1202.12 327.117 1202.01 328.813 1201.9C331.119 1205.92 333.095 1210.11 334.72 1214.45C336.054 1218.08 337.359 1221.58 338.501 1225.28C345.09 1245.75 364.58 1285.87 377.268 1304.04C379.213 1306.83 381.995 1305.79 383.817 1306.77C382.191 1312.26 380.49 1317.72 378.717 1323.16C375.614 1324.92 362.823 1330.59 359.593 1327.67C356.833 1325.18 354.093 1318.64 351.4 1315.35C340.739 1302.49 327.813 1292.93 318.139 1279.1C309.245 1266.37 306.075 1250.46 298.274 1237.53C296.503 1234.59 286.956 1226.67 283.81 1223.88L280.598 1221.02C293.798 1214.76 309.507 1203.91 323.729 1202.26Z" fill="#FCFBFC"/>
<path d="M334.716 1214.45C336.05 1218.08 337.356 1221.58 338.498 1225.28C336.204 1226.37 334.474 1227.15 331.898 1228.02C325.391 1230.23 316.173 1225.4 322.015 1218.25C325.102 1214.46 330.041 1214.72 334.716 1214.45Z" fill="#FDD0D4"/>
<path d="M280.598 1221.02C293.798 1214.76 309.507 1203.91 323.729 1202.25C322.638 1204.94 309.578 1210.57 305.826 1212.7C301.125 1215.98 290.888 1220.84 285.451 1222.95L283.81 1223.88L280.598 1221.02Z" fill="#E8E7E8"/>
<path d="M285.45 1222.96L285.293 1222.1C290.907 1219.62 298.545 1214.93 304.455 1212.34C304.912 1212.46 305.369 1212.58 305.826 1212.7C301.124 1215.98 290.887 1220.85 285.45 1222.96Z" fill="#A5A4A6"/>
<path d="M406.278 1303.24C407.376 1303.02 407.305 1302.99 408.338 1303.39C409.476 1311.91 399.498 1315.82 392.986 1318.21C391.791 1318.48 392.175 1318.52 391.083 1318.16C390.081 1315.52 392.497 1309.28 393.427 1306.28C397.729 1305.34 402.013 1304.33 406.278 1303.24Z" fill="#FCFBFC"/>
<path d="M432.72 1301.4L433.499 1302.23C434.829 1313.57 411.876 1328.99 402.589 1333.75L402.246 1333.38C403.289 1330.51 429.422 1320.75 432.72 1301.4Z" fill="#5B5B5C"/>
<path d="M389.726 1305.02C390.636 1305.47 390.373 1305.42 391.062 1306.37C390.862 1308.27 388.727 1313.43 387.928 1315.75C382.937 1311.91 385.893 1308.36 389.726 1305.02Z" fill="#262527"/>
<path d="M359.301 1330.38C362.724 1330.75 365.263 1330.28 368.584 1330.46L368.592 1330.99C365.707 1331.76 360.761 1333.52 359.301 1330.38Z" fill="#5B5B5C"/>
<path d="M67.1039 1146.3C97.4179 1155.52 106.336 1184.38 126.813 1203.77C143.356 1219.43 174.788 1230.11 197.142 1234.55L197.853 1235.9L197.264 1236.65C191.208 1235.88 187.71 1234.58 182.02 1232.48C175.694 1237.94 170.703 1244.78 164.058 1249.98C159.739 1253.35 153.667 1257.38 148.141 1258.17C136.079 1259.87 96.7371 1246.94 84.0397 1242.35C74.2348 1238.8 63.6085 1233.72 53.2624 1232.5L52.5087 1232.42C41.5287 1238.34 35.5561 1246.17 28.9633 1256.65C23.8672 1264.75 22.3542 1268.04 12.6844 1270.37C8.86384 1269.19 5.02497 1267.43 2.23945 1264.57C-4.05727 1258.1 4.60097 1233.89 7.7213 1226.9C9.73629 1221.35 17.2627 1215.52 17.5725 1209.77C17.5832 1204.63 25.0704 1192.78 29.397 1190.34C39.7053 1184.53 53.3995 1199.65 60.2023 1202.19C78.2822 1208.96 100.897 1201.31 119.191 1208.97C122.082 1210.18 129.871 1214.52 132.666 1212.95C132.485 1210.4 126.536 1206.02 124.588 1204.21C121.801 1201.61 119.174 1198.85 116.722 1195.93C113.07 1191.53 109.818 1185.58 105.022 1182.79L106.153 1181.87C105.643 1179.8 100.671 1173.95 99.3239 1172.07C94.5116 1165.35 75.4859 1148.69 67.3791 1147.92C67.2818 1147.64 67.1538 1146.63 67.1039 1146.3Z" fill="#121112"/>
<path d="M40.1133 1221.62L40.2794 1221.07C41.93 1215.75 46.4513 1206.32 51.7884 1203.88C54.6922 1202.56 63.9166 1205.16 67.5134 1205.8C81.2641 1208.23 96.0728 1206.1 109.547 1208.52C115.7 1209.62 124.905 1213.78 131.434 1215.96C132.743 1215.2 134.141 1214.24 135.421 1213.41C137.517 1214.68 139.696 1216.26 141.729 1217.66C144.38 1218.77 145.792 1219.29 148.237 1220.9C160.345 1226.34 165.791 1228.72 179.041 1231.89C170.895 1241.5 160.822 1252.69 148.176 1256C138.996 1258.19 129.289 1253.16 120.718 1251.12C99.502 1246.05 79.5702 1238.17 58.9005 1231.54C53.7601 1229.9 52.6282 1230.55 47.685 1231.52C45.2975 1229.72 41.8128 1224.27 40.1133 1221.62Z" fill="#FCFBFC"/>
<path d="M141.73 1217.66C144.381 1218.77 145.794 1219.29 148.239 1220.9L148.052 1221.61C152.633 1227.56 173.684 1233.99 174.289 1234.92C166.993 1234.81 145.511 1223.73 141.73 1217.66Z" fill="#A5A4A6"/>
<path d="M31.6052 1227.44C33.5855 1228.17 39.0317 1233.98 39.3069 1236.26C39.872 1240.92 33.5371 1246.55 30.6288 1249.8C29.5443 1250.95 26.8378 1252.48 25.7753 1251.04C20.2791 1243.6 26.8149 1233.09 31.6052 1227.44Z" fill="#FCFBFC"/>
<path d="M27.5415 1196.56L28.3747 1197.97C27.6124 1199.82 19.3959 1214.73 18.2539 1216.6C19.5605 1209.55 23.0881 1202.16 27.5415 1196.56Z" fill="#5B5B5C"/>
<path d="M4.27966 1244.14C4.37394 1244.9 4.30361 1250.01 4.15531 1250.86C3.61258 1253.96 5.52922 1261.35 4.669 1263.63C1.19908 1258.38 2.46851 1249.83 4.27966 1244.14Z" fill="#E6E3E3"/>
<path d="M36.1719 1226.36L36.892 1226.34C38.9493 1228.87 42.3733 1231.89 43.4634 1234.57C41.719 1233.39 36.1576 1228.28 36.1719 1226.36Z" fill="#5B5B5C"/>
<path d="M27.5391 1196.56C28.4691 1195.41 29.8929 1193.45 31.0487 1192.68L31.5782 1193.04L31.8371 1192.37C31.7525 1194.11 29.5163 1196.51 28.3723 1197.96L27.5391 1196.56Z" fill="#A5A4A6"/>
<path d="M7.5 1265.44C10.4817 1265.64 11.7379 1265.21 13.8854 1266.71C11.0239 1268.43 9.58226 1267.6 7.5 1265.44Z" fill="#3A393A"/>
<path d="M231.15 803.944C238.078 803.719 245.695 801.176 253.24 803.294C257.902 804.135 260.729 806.511 264.548 809.225C250.897 805.675 247.03 803.768 233.354 806.916C230.833 807.12 224.357 809.944 223.162 812.181C221.063 813.535 217.327 814.827 214.819 815.911C209.646 818.149 206.371 820.02 201.79 823.175C199.406 823.496 198.633 823.527 196.677 824.949L196.125 825.153L195.578 824.516C196.638 819.984 216.997 808.995 221.914 806.81C224.206 805.712 228.645 804.403 231.15 803.944Z" fill="#FCFBFC"/>
<path d="M196.677 824.95C198.633 823.527 199.406 823.497 201.79 823.176C198.687 826.3 195.769 829.027 192.534 831.994L193.688 832.799C185.344 840.471 179.269 847.097 173.616 856.925C172.686 858.546 169.397 864.413 167.915 864.739C171.001 857.18 177.599 848.56 181.33 840.267C176.874 844.024 169.622 857.047 167.246 862.394L166.641 861.808C173.359 848.183 182.02 835.409 193.594 825.464C194.839 825.541 195.059 825.704 196.126 825.154L196.677 824.95Z" fill="#6C6B6D"/>
<path d="M196.677 824.95C198.633 823.527 199.406 823.497 201.79 823.176C198.687 826.3 195.769 829.027 192.534 831.994C188.66 834.849 184.468 841.2 180.203 844.381C183.949 837.973 191.664 830.832 197.142 825.566L196.677 824.95Z" fill="#E6E3E3"/>
<path d="M167.247 862.393C169.623 857.046 176.876 844.022 181.332 840.266C177.601 848.559 171.003 857.178 167.917 864.738C167.31 866.445 167.448 865.528 168.02 867.643L166.162 869.942C158.41 879.107 152.271 882.451 140.527 884.332C152.301 878.475 159.088 872.868 167.247 862.393Z" fill="#E6E3E3"/>
<path d="M146.023 965.227C146.499 965.42 147.361 965.808 147.824 965.93C147.102 967.791 142.822 978.49 145.11 979.468L145.256 980.947L144.667 981.828L143.806 981.844C142.928 980.325 143.048 978.969 142.948 977.19C141.873 983.052 143.054 989.311 143.997 995.132C139.029 988.817 135.825 983.455 138.844 975.278C141.282 972.47 139.639 967.199 146.023 965.227Z" fill="#E6E3E3"/>
<path d="M146.021 965.227C146.497 965.42 147.36 965.808 147.822 965.93C147.101 967.791 142.821 978.49 145.109 979.468L145.254 980.947L144.665 981.828L143.804 981.844C142.926 980.325 143.046 978.969 142.947 977.19C143.311 975.263 143.467 974.29 143.599 972.342L143.209 971.945L143.054 971.991C140.61 977.623 140.879 982.71 141.216 988.587C136.189 972.878 143.256 975.885 146.021 965.227Z" fill="#3A393A"/>
<path d="M166.639 861.809L167.244 862.395C159.085 872.87 152.298 878.477 140.524 884.334C152.268 882.453 158.407 879.109 166.159 869.944L167.197 871.942L166.898 872.595L166.334 872.375C164.815 873.879 164.112 874.644 162.32 875.831C147.083 888.626 127.102 888.85 110.164 879.252L110.423 878.793C113.189 878.89 115.843 880.969 118.502 881.872C140.003 889.161 153.588 876.565 166.639 861.809Z" fill="#3A393A"/>
<path d="M133.693 976.194L135.883 977.07C136.796 976.326 137.009 976.163 138.037 975.669L138.843 975.281C135.824 983.457 139.028 988.82 143.996 995.135C143.053 989.314 141.872 983.055 142.947 977.193C143.047 978.972 142.927 980.328 143.805 981.847L144.666 981.831L145.255 980.949L145.581 982.749C146.391 982.489 146.236 982.621 146.902 982.142L147.131 983.814L147.072 984.497C146.756 988.519 147.308 989.202 147.863 993.193L147.501 993.463C147.011 993.83 146.655 994.136 146.196 994.534C146.413 997.307 149.386 1000.06 149.072 1001.58C145.875 999.866 143.426 995.166 139.771 993.734C139.646 993.601 139.521 993.474 139.396 993.341C136.645 987.734 135.488 982.688 133.5 976.78L133.693 976.194Z" fill="#262527"/>
<path d="M112.702 939.597C112.88 940.785 112.917 941.029 113.299 942.161L114.55 942.655C117.88 941.249 120.428 934.892 123.108 931.62C122.822 933.022 122.676 933.791 122.554 935.254C126.559 934.199 130.883 925.432 135.997 925.34L135.978 925.814C122.393 933.628 111.829 949.027 111.906 964.987C109.096 955.684 109.293 948.716 112.702 939.597Z" fill="#262527"/>
<path d="M147.115 898.378C148.816 896.859 149.103 897.18 151.029 897.837C131.189 911.105 110.727 920.454 105.439 947.092C105.332 947.633 105.364 947.51 105.39 948.102L104.355 951.099C105.273 932.545 116.462 919.7 130.846 909.036C136.013 905.203 141.699 902.221 146.793 898.607L147.115 898.378Z" fill="#262527"/>
<path d="M127.004 971.672C126.282 975.827 126.671 979.701 128.844 983.32L129.163 983.84L128.757 983.885C124.73 981.087 125.914 979.155 124.356 974.675C124.444 974.318 123.36 971.912 122.801 971.973C116.92 972.605 110.568 972.197 105.396 969.149C102.902 967.681 97.0317 963.481 96.3672 961.172C98.2797 961.626 101.451 964.918 103.644 966.213C109.219 969.511 115.564 969.399 121.641 968.058L122.321 967.91L123.909 968.466C124.371 969.674 124.599 970.24 125.204 971.417L127.004 971.672Z" fill="#262527"/>
<path d="M227.678 803.355C226.9 802.893 227.299 803.188 226.523 802.414C234.371 797.244 245.837 798.84 254.269 801.501L253.239 803.293C245.693 801.175 238.077 803.718 231.149 803.944C230.951 803.723 230.753 803.502 230.554 803.281L227.678 803.355Z" fill="#BCBDBF"/>
<path d="M97.4727 904.132C106.964 895.487 121.586 897.164 133.429 897.49C132.158 898.8 131.708 899.57 129.928 899.825C119.05 898.229 106.792 897.623 97.7998 904.998L97.4727 904.132Z" fill="#121112"/>
<path d="M217.759 805.726C219.813 805.389 219.916 805.009 221.457 805.715L221.918 806.81C217 808.995 196.642 819.984 195.582 824.516L196.129 825.153C195.062 825.703 194.842 825.54 193.598 825.464C197.162 820.372 205.594 814.363 210.833 810.092L209.721 810.629C210.59 808.833 215.859 806.215 217.759 805.726Z" fill="#A5A4A6"/>
<path d="M134.831 931.648L134.863 931.041L135.528 930.531C136.186 931.056 136.795 931.566 137.491 932.035L135.14 934.543L136.776 935.068L138.467 935.18C138.266 935.822 138.137 936.408 137.824 936.979C134.152 937.601 130.47 940.777 127.945 943.443L125.445 942.056L129.148 937.479L129.988 937.932C131.819 936.184 133.799 933.967 134.831 931.648Z" fill="#262527"/>
<path d="M134.833 931.648L134.865 931.041L135.531 930.531C136.188 931.056 136.797 931.566 137.493 932.035L135.142 934.543C133.877 935.751 130.27 939.441 128.941 939.88C129.315 939.141 129.56 938.646 129.99 937.932C131.822 936.184 133.801 933.967 134.833 931.648Z" fill="#E6E3E3"/>
<path d="M125.447 942.055L127.947 943.441C125.196 946.846 121.608 951.811 121.668 956.332C121.708 959.335 122.276 960.568 121.725 963.82L120.741 963.326L121.418 963.902C116.235 958.82 122.046 946.948 125.447 942.055Z" fill="#3A393A"/>
<path d="M133.5 976.781C135.488 982.689 136.645 987.735 139.396 993.342C136.432 992.262 135.924 991.237 134.032 988.831C133.512 984.662 133.541 980.961 133.5 976.781Z" fill="#E6E3E3"/>
<path d="M227.681 803.359L230.558 803.285C230.756 803.506 230.955 803.727 231.153 803.948C228.648 804.406 224.208 805.716 221.917 806.814L221.456 805.719C219.915 805.012 219.812 805.392 217.758 805.729C220.798 804.328 224.402 803.823 227.681 803.359Z" fill="#6C6B6D"/>
<path d="M97.7999 904.999C95.681 907.059 93.0962 911.667 91.5898 912.727C93.3847 908.598 93.9402 907.15 97.4728 904.133L97.7999 904.999Z" fill="#A5A4A6"/>
<path d="M253.697 1230.23C255.553 1231.05 257.479 1229.96 259.544 1229.24L260.536 1229.97C256.727 1231.16 255.472 1231.58 251.566 1232.03L253.697 1230.23Z" fill="#5B5B5C"/>
<path d="M129.148 937.48C130.977 935.308 132.793 933.611 134.832 931.648C133.8 933.968 131.82 936.185 129.989 937.933L129.148 937.48Z" fill="#868688"/>
<path d="M104.355 951.095L105.39 948.098C105.433 950.738 105.709 953.011 104.782 955.443C104.31 954.189 104.2 952.415 104.355 951.095Z" fill="#A5A4A6"/>
<path d="M126.035 935.547C126.344 937.718 122.511 944.019 121.239 947.118C120.101 944.605 124.552 938.111 126.035 935.547Z" fill="#BCBDBF"/>
<path d="M1140.14 393.147C1156.37 396.393 1172.25 388.676 1185.64 379.755C1208.71 364.663 1224.79 340.971 1230.27 313.959C1240.81 260.729 1212.53 215.01 1158.23 205.475C1143.96 202.971 1098.22 203.039 1090.86 217.716C1067.32 229.665 1048.47 249.164 1037.32 273.096C1025.37 296.065 1021.52 324.1 1026.12 349.578L1025.81 350.471L1022.04 351.857C1017.83 352.162 1010.29 351.985 1006.98 352.789L1006.31 353.616L1006.8 355.315C1008.61 357.395 1012.33 362.499 1013.24 365.039L1014.73 365.751C1016.34 368.061 1018.83 372.158 1021.24 373.199L1022.36 371.997C1024.54 369.103 1028.03 360.868 1029.61 357.357C1037.92 366.125 1043.47 371.211 1053.95 377.192C1077.25 392.719 1112.9 396.85 1140.14 393.147Z" fill="#ED3137"/>
<path d="M1140.14 393.145C1156.37 396.391 1172.25 388.674 1185.64 379.753C1208.71 364.661 1224.79 340.969 1230.27 313.957C1240.81 260.727 1212.53 215.008 1158.23 205.473C1143.96 202.969 1098.22 203.038 1090.86 217.714C1112.78 208.637 1134.17 205.019 1157.87 208.975C1207.34 217.223 1235.82 260.26 1226.39 309.815C1223.99 331.562 1208.1 359.153 1191.01 372.438C1175.71 384.327 1159.02 390.158 1140.14 393.145Z" fill="#FDD0D4"/>
<path d="M1226.39 309.816C1235.82 260.262 1207.34 217.225 1157.87 208.977C1134.17 205.02 1112.78 208.638 1090.86 217.715C1067.32 229.664 1048.46 249.164 1037.32 273.095C1039.66 272.034 1039.81 270.695 1041.17 268.367C1053.09 247.915 1069.97 229.181 1091.9 219.336C1118.76 207.016 1149.44 205.947 1177.1 216.376C1196.8 223.947 1211.17 237.467 1220.01 257.352C1222.16 263.628 1222.43 271.159 1225.42 277.09C1230.4 286.975 1225.77 299.653 1226.39 309.816Z" fill="#911216"/>
<path d="M1022.36 371.996C1019.77 366.629 1025.77 362.384 1024.26 357.563L1021.87 354.091L1022.04 351.856C1017.83 352.161 1010.28 351.984 1006.98 352.789L1006.3 353.615L1006.8 355.315C1008.61 357.395 1012.32 362.498 1013.24 365.038L1014.73 365.75C1016.33 368.06 1018.83 372.157 1021.24 373.198L1022.36 371.996Z" fill="#ED3137"/>
<path d="M1021.87 354.091L1022.04 351.857C1017.83 352.162 1010.28 351.985 1006.98 352.789L1006.3 353.616L1006.8 355.315C1012.71 355.777 1016.12 353.57 1021.87 354.091Z" fill="#51040B"/>
<path d="M1053.95 377.191C1051.42 371.269 1033.23 365.639 1026.86 347.414C1026.53 348.257 1026.31 348.693 1026.12 349.577L1025.8 350.47L1022.04 351.856L1021.87 354.091L1024.26 357.563C1025.77 362.384 1019.77 366.629 1022.36 371.996C1024.54 369.103 1028.03 360.868 1029.6 357.357C1037.91 366.124 1043.46 371.211 1053.95 377.191Z" fill="#911216"/>
<path d="M1024.25 357.558C1025.94 356.526 1025.98 356.099 1026.99 354.394C1027.09 351.564 1027.45 352.839 1025.8 350.465L1022.04 351.851L1021.87 354.086L1024.25 357.558Z" fill="#51040B"/>
<path d="M1190.02 254.14C1189.07 245.686 1181.41 243.393 1175.51 249.862C1177.01 258.265 1183.88 261.116 1190.02 254.14Z" fill="#FCFBFC"/>
<path d="M873.815 483.644L871.933 483.193C856.823 522.495 846.495 562.615 803.854 580.661C762.597 598.12 740.683 605.839 723.571 650.044C721.871 654.445 720.202 658.853 718.562 663.268L720.156 664.654C735.446 615.967 755.665 600.998 801.956 583.43C846.377 566.569 858.171 523.835 873.815 483.644Z" fill="#121112"/>
<path d="M1014.73 365.753L1013.24 365.041C999.064 371.968 984.392 377.708 969.95 384.013C919.084 406.212 894.064 433.52 871.935 483.194L873.817 483.645C880.196 474.974 887.723 455.341 895.368 444.008C926.281 398.17 969.503 389.094 1014.73 365.753Z" fill="#3A393A"/>
<path d="M718.56 663.264C713.906 675.943 708.652 692.951 700.78 703.604C699.913 704.774 692.545 711.568 690.691 713.419L690.805 714.235C691.418 714.063 691.959 713.943 692.507 713.58C709.725 702.163 715.022 682.545 720.154 664.65L718.56 663.264Z" fill="#5B5B5C"/>
</g>
<defs>
<clipPath id="clip0_1835_6654">
<rect width="1350" height="1350" fill="white"/>
</clipPath>
</defs>
</svg>
