<svg width="1350" height="1350" viewBox="0 0 1350 1350" fill="none" xmlns="http://www.w3.org/2000/svg">
<path d="M75.0531 1343.67C88.874 1343.29 101.566 1340.66 114.947 1339.45C161.664 1335.22 206.333 1331.26 253.308 1330.32C247.055 1331.92 243.695 1335.49 236.641 1335.05C227.398 1336.76 208.491 1337.06 198.488 1337.47C197.705 1337.64 196.475 1337.45 195.614 1337.39C164.683 1341.53 133.746 1342.66 103.1 1346.13C98.6204 1348.59 92.3218 1346.63 87.267 1349.58H33.4961C36.9022 1347.24 61.7024 1345.87 67.4606 1344.71C69.5251 1344.29 72.5982 1344.62 75.0531 1343.67Z" fill="#F0EDF0"/>
<path d="M103.102 1346.12L102.789 1345.41C105.177 1343.85 136.111 1341.97 141.131 1341.58C158.624 1340.24 178.304 1336.12 195.616 1337.39C164.685 1341.53 133.748 1342.66 103.102 1346.12Z" fill="#8E8E91"/>
<path d="M198.486 1337.46L198.324 1336.73C204.626 1335.06 230.045 1333.93 236.639 1335.05C227.396 1336.76 208.489 1337.06 198.486 1337.46Z" fill="#8E8E91"/>
<path d="M69.6992 1342.48C74.198 1341.53 84.032 1340.72 88.9629 1340.1C111.135 1337.45 133.368 1335.33 155.642 1333.76C203.608 1329.5 251.703 1326.85 299.846 1325.83C305.802 1325.66 311.778 1325.01 317.732 1324.82C333.094 1324.51 348.46 1324.44 363.824 1324.62C371.101 1324.7 383.914 1324.01 390.42 1325.88C389.579 1326.55 384.246 1326.53 382.756 1326.58L295.791 1328.52C281.646 1328.95 267.389 1328.93 253.307 1330.31C206.332 1331.25 161.663 1335.21 114.946 1339.44C101.565 1340.65 88.8729 1343.28 75.052 1343.66C71.4071 1342.61 73.309 1344.92 69.6992 1342.48Z" fill="#040303"/>
<path d="M6.24219 1349.58C11.1362 1348.51 28.2944 1346.81 33.8719 1346.25C43.8183 1345.26 60.4138 1342.44 69.6948 1342.49C73.3046 1344.94 71.4027 1342.62 75.0476 1343.67C72.5927 1344.62 69.5196 1344.29 67.4551 1344.71C61.6969 1345.87 36.8967 1347.24 33.4906 1349.58H6.24219Z" fill="#252225"/>
<path d="M258.628 807.164C265.217 808.717 270.951 807.098 277.766 809.666C285.831 813.619 286.902 818.919 295.987 815.196C301.748 812.44 310.262 811.679 316.071 814.567L315.701 815.069C309.941 815.335 306.982 812.972 303.309 815.262C305.661 817.867 313.428 815.994 316.315 819.898C319.01 821.85 321.929 823.572 324.768 825.319C336.202 828.081 342.516 841.292 344.887 851.777C342.174 848.272 341.204 846.386 339.105 842.44C336.623 844.193 336.732 843.661 336.589 846.979C336.363 848.387 336.71 847.873 335.718 848.629L335.11 851.239C339.275 860.244 340.615 862.075 342.076 871.957C343.851 873.739 345.595 875.625 347.586 877.148C352.772 877.498 360.257 877.075 359.306 884.467C358.963 887.138 361.537 891.942 362.073 894.813C365.088 910.961 365.664 920.703 357.293 934.356C367.013 930.736 378.62 925.575 387.548 920.256C397.068 914.587 405.294 908.695 415.314 903.564C429.897 896.1 445.383 889.948 458.9 880.726C464.609 875.909 466.809 867.883 471.889 862.468C475.394 858.733 479.578 856.727 483.805 853.983C487.105 851.844 491.094 845.855 494.956 846.828C496.412 848.55 496.321 848.472 496.726 850.72C495.548 854.727 491.481 855.095 489.468 859.048C490.592 860.287 489.891 859.918 491.704 860.033C497.385 857.597 501.144 850.46 506.184 851.644C507.75 852.871 507.768 852.726 508.433 854.569C507.176 859.132 502.057 858.661 504.087 862.402C507.2 862.529 507.2 861.495 510.777 862.124L511.636 862.855C511.636 871.787 497.995 870.965 496.66 874.827C500.358 878.284 506.783 871.564 509.188 878.151C507.623 884.195 500.371 882.829 495.759 885.077C491.505 887.15 488.12 891.634 484.053 894.088C480.055 896.33 473.705 897.218 469.864 899.89C464.121 903.897 458.763 909.118 453.506 913.79C446.455 919.984 439.242 925.998 431.875 931.818C424.59 937.48 417.072 942.502 409.001 946.999C394.175 955.248 380.369 965.988 365.765 974.479C365.761 995.951 349.631 989.074 339.273 1006.35C339.446 1013.56 340.412 1021.88 341.201 1029.13C345.733 1027.32 350.236 1024.92 355.049 1027.12C357.993 1028.47 358.963 1030.56 358.479 1033.66L357.481 1034.76L354.914 1034.84C354.469 1033.16 355.805 1031.96 355.295 1029.09C351.07 1024.97 345.233 1031.89 341.193 1030.43C341.024 1030.37 340.027 1029.32 339.923 1029.23C337.123 1029.4 335 1031.23 333.498 1033.28C324.127 1046.03 322.67 1044.72 307.178 1046.32C298.758 1047.19 289.453 1046.37 280.9 1047.24C277.744 1047.57 271.33 1049.97 269.788 1049.55C271.563 1046.93 273.31 1046.43 276.287 1045.29L276.381 1034.89C262.292 1033.35 255.727 1032.88 241.217 1034.22C242.786 1046.58 245.35 1060.81 248.54 1072.76C251.3 1083.09 274.083 1078.29 280.983 1077.29C300.658 1074.43 319.049 1061.63 338.299 1058.98L340.867 1058.6L341.049 1060.31C341.469 1068.86 341.699 1089.45 338.58 1096.78C339.849 1103.73 347.067 1100.13 345.809 1117.91C362.346 1130.06 396.699 1160.53 406.879 1177.64C406.655 1179.2 406.481 1179.21 405.61 1180.57C405.654 1184.26 411.793 1189.22 413.358 1192.87C416.601 1200.41 418.471 1208.96 421.203 1216.74C426.383 1231.5 446.479 1285.02 455.42 1293.62C460.665 1298.68 471.411 1298.36 478.222 1297.96C485.624 1297.53 491.885 1294.28 498.962 1292.87C506.843 1291.36 510.143 1294.96 513.993 1301.42C512.053 1311.63 504.444 1319.33 496.122 1325.03C491.293 1328.39 485.824 1330.74 480.059 1331.92C478.582 1332.07 472.352 1333.61 470.584 1334.01C468.664 1336.35 467.469 1337.74 464.977 1339.19C460.862 1341.59 449.084 1347.56 444.403 1345.44C438.012 1341.46 432.406 1333.32 430.791 1326.05C429.516 1320.42 429.997 1312.93 426.89 1307.88C416.027 1290.21 399.994 1275.72 388.911 1258.14C383.958 1250.29 380.722 1240.54 377.818 1231.75C373.896 1219.87 366.493 1217.66 356.124 1212.8C345.905 1218.88 338.821 1215.76 329.685 1218.43C322.816 1221.01 315.266 1225.4 308.615 1228.2C279.599 1240.43 248.667 1242.21 218.909 1231.79C212.794 1229.65 205.368 1229.57 198.456 1226.8C195.457 1229.98 190.609 1234.21 187.199 1237.11C178.239 1244.71 169.156 1254.65 158.652 1259.97C150.035 1264.14 141.173 1263.96 132.038 1266.73C107.08 1274.3 78.5039 1279.12 55.0188 1290.22C51.1745 1292.03 37.9749 1307.19 35.3502 1311.11C30.0089 1319.1 25.8202 1337.84 12.4199 1336.19C-7.1901 1333.89 1.1143 1305.71 5.90438 1294.14C7.78392 1289.61 12.8786 1281.88 13.7295 1277.55C9.81997 1269.73 18.9934 1258.7 24.991 1254.06C33.6912 1257.08 36.0561 1255 48.137 1260.08C73.443 1252.58 87.965 1231.04 113.618 1225.56C119.706 1224.26 126.227 1223.85 132.118 1221.82L132.859 1221.56C137.464 1216.94 143.489 1206 146.961 1200.09C144.413 1198.04 139.042 1193.76 136.254 1192.49C134.482 1192.78 134.581 1192.87 132.993 1192.08C123.406 1188.52 110.247 1181.23 100.571 1176.27C94.1699 1172.94 88.2454 1168.75 82.9555 1163.85C67.2575 1149.47 66.8345 1141 60.5365 1121.77C66.7311 1107.98 96.0488 1093.88 110.007 1089.33C123.812 1084.83 142.024 1082.14 154.838 1074.99C158.718 1072.82 165.584 1064.85 168.845 1061.37C190.858 1037.48 210.653 1011.65 227.986 984.179C221.29 987.279 210.95 996.598 202.963 1000.69C188.602 1008.04 189.931 995.039 183.509 993.044C181.559 994.241 182.34 993.443 181.28 995.691C180.182 996.489 180.623 996.417 179.427 996.586C179.166 993.455 179.277 993.353 177.19 991.032L175.439 992.803C175.575 993.691 175.673 994.604 175.781 995.492L175.052 995.782C171.806 994.368 167.796 990.663 164.882 988.3C163.728 985.834 162.921 986.052 160.593 985.333L159.912 982.553C159.046 982.148 158.392 981.87 157.498 981.531C155.909 979.585 156.856 980.081 154.864 979.453C152.577 980.849 153.035 983.115 153.139 985.629L155.437 982.915L156.694 983.725L156.924 984.88C155.08 987.152 154.092 986.251 151.577 987.95C152.217 990.077 154.167 993.836 155.198 995.975C152.541 993.328 149.872 990.125 147.378 987.267C144.292 972.43 148.714 966.646 156.918 955.061C150.514 957.786 147.205 962.416 141.124 963.963L140.751 964.338C137.965 965.117 137.244 966.072 135.053 968.024C133.972 967.48 133.81 966.489 133.121 965.129C132.854 965.274 129.549 967.057 129.462 967.057C126.136 966.991 125.627 965.528 122.882 967.069C122.518 969.547 123.749 969.463 124.032 972.369L123.289 972.938C120.151 971.294 121.333 967.19 115.978 965.818C114.983 965.558 115.18 965.401 114.619 964.404L115.441 961.975L115.835 960.633C115.776 957.938 115.76 957.684 115.015 955.121C115.466 951.29 115.872 946.509 116.876 942.877C123.955 931.673 127.597 924.39 140.004 919.193C137.603 916.787 136.969 917.023 133.542 916.721C123.524 917.658 118.807 917.361 110.415 923.568L109.613 922.208C110.455 918.032 114.174 916.274 117.633 912.321L119.496 911.257L120.973 911.572L120.151 909.589C109.578 909.475 96.7208 905.166 90.8266 895.804L92.1157 894.632C106.507 906.193 117.939 905.371 135.335 901.703C137.801 901.177 141.305 901.159 143.008 899.328L143.038 898.04C142.987 896.421 142.842 896.983 143.627 895.563C155.344 891.979 169.995 881.741 175.456 870.518L175.693 869.092C178.039 864.892 199.94 839.34 204.145 836.191C209.637 834.843 216.514 827.567 220.172 823.929L222.703 822.726C222.624 815.123 227.878 815.915 233.287 813.915L233.979 813.649C243.94 808.778 249.472 812.005 258.628 807.164Z" fill="white"/>
<path d="M258.63 807.164C265.22 808.717 270.954 807.098 277.769 809.666C285.834 813.619 286.904 818.919 295.99 815.196C301.751 812.44 310.265 811.679 316.073 814.567L315.704 815.069C309.943 815.335 306.984 812.972 303.312 815.262C305.664 817.867 313.43 815.994 316.318 819.898C319.012 821.85 321.932 823.572 324.77 825.319C336.204 828.081 342.518 841.292 344.89 851.777C342.177 848.272 341.207 846.386 339.107 842.44C336.625 844.193 336.735 843.661 336.592 846.979C336.366 848.387 336.713 847.873 335.721 848.629L335.112 851.239L333.502 852.829C337.487 861.247 339.182 865.744 341.829 874.882L342.408 875.389C346.221 878.665 354.908 881.07 354.948 881.143C361.908 894.426 365.758 923.882 354.595 933.812C337.421 949.09 316.712 944.932 313.329 969.239C314.35 971.397 319.598 971.747 316.999 977.108C309.714 992.15 282.109 965.981 274.938 961.854L274.208 962.639C273.56 962.386 272.912 962.132 272.263 961.878C267.086 963.201 254.499 965.583 250.155 967.541C245.046 969.837 240.466 973.161 236.701 977.307C226.296 988.826 214.774 1008.32 205.354 1021.21C194.709 1035.78 185.147 1047.24 172.774 1060.3C166.361 1067.08 160.899 1074.31 153.971 1081.27L152.965 1078.64C121.883 1089.02 85.4661 1095.03 62.7794 1120.64C65.4458 1124.74 72.4617 1133.06 73.3719 1136.37L72.7735 1136.72C70.0117 1134.79 66.4115 1128.91 64.3241 1125.87C68.4216 1142.29 72.168 1149.44 83.9692 1161.11C89.0354 1166.24 90.9059 1167.78 96.8019 1171.46C101.957 1174.68 131.834 1188.18 132.996 1192.08C123.408 1188.52 110.249 1181.23 100.574 1176.27C94.1724 1172.94 88.248 1168.75 82.9581 1163.85C67.2601 1149.47 66.837 1141 60.5391 1121.77C66.7337 1107.98 96.0513 1093.88 110.009 1089.33C123.815 1084.83 142.026 1082.14 154.84 1074.99C158.721 1072.82 165.586 1064.85 168.848 1061.37C190.861 1037.48 210.656 1011.65 227.989 984.179C221.293 987.279 210.953 996.598 202.966 1000.69C188.605 1008.04 189.934 995.039 183.512 993.044C181.562 994.241 182.342 993.443 181.283 995.691C180.184 996.489 180.625 996.417 179.43 996.586C179.169 993.455 179.28 993.353 177.193 991.032L175.442 992.803C175.577 993.691 175.676 994.604 175.784 995.492L175.055 995.782C171.809 994.368 167.798 990.663 164.885 988.3C163.731 985.834 162.924 986.052 160.595 985.333L159.915 982.553C159.048 982.148 158.394 981.87 157.501 981.531C155.911 979.585 156.859 980.081 154.866 979.453C152.579 980.849 153.038 983.115 153.141 985.629L155.44 982.915L156.696 983.725L156.927 984.88C155.083 987.152 154.094 986.251 151.58 987.95C152.219 990.077 154.17 993.836 155.201 995.975C152.544 993.328 149.874 990.125 147.381 987.267C144.295 972.43 148.716 966.646 156.921 955.061C150.516 957.786 147.207 962.416 141.127 963.963L140.754 964.338C137.967 965.117 137.246 966.072 135.056 968.024C133.974 967.48 133.813 966.489 133.124 965.129C132.856 965.274 129.551 967.057 129.465 967.057C126.139 966.991 125.629 965.528 122.885 967.069C122.521 969.547 123.752 969.463 124.035 972.369L123.292 972.938C120.153 971.294 121.336 967.19 115.98 965.818C114.985 965.558 115.183 965.401 114.621 964.404L115.444 961.975L115.838 960.633C115.779 957.938 115.762 957.684 115.017 955.121C115.469 951.29 115.875 946.509 116.878 942.877C123.957 931.673 127.6 924.39 140.007 919.193C137.606 916.787 136.971 917.023 133.544 916.721C123.527 917.658 118.81 917.361 110.418 923.568L109.615 922.208C110.457 918.032 114.177 916.274 117.636 912.321L119.498 911.257L120.976 911.572L120.153 909.589C109.58 909.475 96.7234 905.166 90.8291 895.804L92.1182 894.632C106.51 906.193 117.942 905.371 135.338 901.703C137.804 901.177 141.308 901.159 143.011 899.328L143.04 898.04C142.989 896.421 142.845 896.983 143.629 895.563C155.347 891.979 169.997 881.741 175.458 870.518L175.695 869.092C178.041 864.892 199.943 839.34 204.147 836.191C209.639 834.843 216.517 827.567 220.175 823.929L222.706 822.726C222.627 815.123 227.881 815.915 233.29 813.915L233.981 813.649C243.943 808.778 249.475 812.005 258.63 807.164Z" fill="#040303"/>
<path d="M300.203 827.988C313.279 831.022 321.472 838.709 330.609 848.101C331.536 849.703 332.418 851.34 333.499 852.827C337.484 861.246 339.179 865.742 341.826 874.88L342.405 875.388C346.218 878.663 354.905 881.068 354.945 881.141C361.905 894.425 365.755 923.881 354.592 933.81C337.418 949.088 316.709 944.93 313.327 969.237C314.347 971.395 319.595 971.745 316.996 977.106C309.711 992.148 282.106 965.98 274.935 961.852L274.97 960.734C283.516 953.065 287.86 946.635 284.574 934.856C286.873 934.034 290.82 932.94 291.636 930.498C289.34 930.637 287.481 932.094 285.467 933.321C278.234 933.442 269.854 933.212 267.473 924.932L268.889 924.122C272.416 923.01 273.098 921.941 275.726 919.191C279.235 918.296 277.014 920.303 280.393 920.236L281.332 918.979C281.295 917.239 280.362 916.483 279.23 915.039L278.719 914.398C279.053 911.969 284.02 908.742 285.408 906.131C286.391 904.282 287.061 901.931 287.68 899.936C288.7 897.67 289.509 895.742 290.387 893.415C290.612 891.33 291.283 883.153 291.865 881.86C297.418 869.513 304.128 858.429 300.399 843.871L301.677 841.296C302.873 844.952 303.615 847.297 304.403 851.05L305.104 851.25L305.909 850.797L306.382 847.43C304.881 838.601 304.415 835.633 300.203 827.988Z" fill="white"/>
<path d="M290.378 893.414C291.29 900.648 290.139 921.553 282.885 924.448L281.727 924.061C281.771 921.371 291.599 906.383 287.672 899.935C288.692 897.669 289.501 895.741 290.378 893.414Z" fill="#5E5C60"/>
<path d="M306.388 847.426C307.133 854.158 308.267 861.151 306.724 867.835C306.208 870.071 301.894 877.015 299.836 877.492C299.979 875.311 304.174 869.769 304.803 867.569C306.117 862.97 305.098 855.705 304.409 851.046L305.111 851.245L305.915 850.792L306.388 847.426Z" fill="#5E5C60"/>
<path d="M331.915 891.115L332.999 890.988C349.818 900.06 338.021 916.359 320.859 915.525C305.602 910.249 307.388 898.343 320.172 891.049C324.909 891.828 327.223 892.481 331.915 891.115Z" fill="#F8B8B9"/>
<path d="M329.487 872.98C332.104 874.383 334.683 881.816 333.501 884.542L332.136 884.385C330.109 882.414 326.712 879.943 326.113 877.604C326.887 874.902 327.204 875.283 329.487 872.98Z" fill="#040303"/>
<path d="M359.116 902.934L359.355 903.254C359.363 904.843 354.06 910.331 352.62 911.969C351.441 910.337 351.772 911.256 351.86 909.032C353.699 905.599 355.61 904.656 359.116 902.934Z" fill="#040303"/>
<path d="M323.004 857.398C323.94 857.912 323.508 857.574 324.052 858.807C322.964 861.23 320.548 863.496 318.687 865.515C318.118 865.394 318.492 865.515 317.691 864.886C318.273 862.197 321.089 859.278 323.004 857.398Z" fill="#252225"/>
<path d="M258.626 807.164C265.215 808.717 270.949 807.098 277.764 809.666L277.616 810.712L278.105 811.11C279.608 812.361 280.091 812.585 280.825 814.416L280.217 814.912C276.451 814.35 271.727 812.482 268.037 811.177C260.24 812.924 256.222 813.933 248.211 814.453L248.309 813.389C244.842 810.337 239.201 816.38 233.977 813.649C243.938 808.778 249.47 812.005 258.626 807.164Z" fill="#AEAFB0"/>
<path d="M324.766 825.316C336.199 828.078 342.514 841.289 344.885 851.775C342.172 848.27 341.202 846.384 339.103 842.438C336.621 844.19 336.73 843.658 336.587 846.976C335.403 840.461 334.325 838.431 330.215 833.596C326.261 829.764 322.533 826.169 316.76 827.413L316.324 828.169C317.755 830.659 319.819 831.04 321.786 834.086L321.407 834.877L320.339 834.92C317.997 833.511 313.791 830.61 314.587 827.619C320.069 823.969 321.43 826.694 324.766 825.316Z" fill="#8E8E91"/>
<path d="M330.211 833.591L331.284 832.074C335.252 832.123 338.802 838.976 339.099 842.433C336.617 844.185 336.726 843.654 336.583 846.971C335.399 840.457 334.321 838.426 330.211 833.591Z" fill="#EDECEE"/>
<path d="M267.476 924.925C262.135 918.12 266.043 903.839 275.545 907.308L275.991 908.614C274.853 914.675 272.12 910.282 268.43 914.011L268.807 914.567C271.016 914.331 272.082 914.222 274.285 914.295L274.578 915.171C271.741 919.637 268.714 918.507 268.892 924.115L267.476 924.925Z" fill="#EDECEE"/>
<path d="M233.979 813.641C239.204 816.373 244.844 810.329 248.312 813.381L248.214 814.445C239.976 817.11 230.382 819.298 222.704 822.718C222.625 815.116 227.879 815.907 233.288 813.907L233.979 813.641Z" fill="#EDECEE"/>
<path d="M151.57 987.942C151.455 986.77 151.293 985.047 151.314 983.905C151.377 980.527 156.89 972.809 160.34 972.96C159.731 975.722 158.025 976.907 158.218 979.397C160.91 977.934 160.567 973.571 165.968 970.676C166.801 973.178 161.129 979.947 160.586 985.325L159.905 982.545C159.039 982.14 158.385 981.862 157.491 981.524C155.901 979.578 156.849 980.073 154.856 979.445C152.57 980.841 153.028 983.107 153.132 985.621L155.43 982.908L156.686 983.718L156.917 984.872C155.073 987.144 154.085 986.244 151.57 987.942Z" fill="#EDECEE"/>
<path d="M174.254 986.342C179.912 975.972 185.149 972.859 195.606 968.441C192.523 972.793 173.582 984.916 177.19 991.026L175.44 992.797C174.576 990.917 174.485 988.445 174.254 986.342Z" fill="#EDECEE"/>
<path d="M115.835 960.63L117.21 960.092C118.988 955.746 117.687 947.231 121.64 945.031C122.321 946.536 121.101 961.439 120.991 964.31L120.038 964.872C118.038 964.304 117.061 963.277 115.441 961.971L115.835 960.63Z" fill="#EDECEE"/>
<path d="M295.988 815.189C301.749 812.433 310.263 811.672 316.071 814.561L315.702 815.062C309.942 815.328 306.983 812.965 303.31 815.256C305.662 817.861 313.429 815.987 316.316 819.891C313.516 819.74 300.185 815.963 295.988 815.189Z" fill="#AEAFB0"/>
<path d="M300.402 843.865C299.149 838.661 294.774 830.176 292.25 825.088L292.546 824.453C297.309 826.363 297.979 835.585 301.338 840.771L301.68 841.29L300.402 843.865Z" fill="#767578"/>
<path d="M120.156 909.586C121.941 910.088 121.767 910.106 123.301 910.68C126.293 911.804 130.114 911.683 133.485 912.596L133.372 913.333C130.625 914.584 124.493 914.953 122.927 911.605L120.979 911.568L120.156 909.586Z" fill="#8E8E91"/>
<path d="M133.539 916.718C137.76 915.992 139.745 915.473 144.001 916.023L144.85 916.657C143.832 918.126 141.782 918.591 140.002 919.189C137.601 916.784 136.966 917.02 133.539 916.718Z" fill="#EDECEE"/>
<path d="M330.605 848.103C331.785 847.686 332.884 847.293 334.05 846.828C334.617 847.414 335.172 848.019 335.714 848.629L335.105 851.24L333.496 852.829C332.414 851.343 331.533 849.705 330.605 848.103Z" fill="#151818"/>
<path d="M148.71 935.102C150.886 935.15 151.244 934.739 152.423 935.851C152.01 936.281 150.918 937.368 150.433 937.525C143.312 939.774 136.988 958.907 132.685 960.225C131.558 958.95 131.942 958.291 131.818 956.115L131.342 955.837C130.285 957.759 130.319 959.832 130.13 962.038C128.529 963.374 128.182 963.851 126.125 964.347C125.215 963.923 124.716 963.984 124.442 963.035C120.918 950.797 139.945 937.785 148.71 935.102Z" fill="#EDECEE"/>
<path d="M272.41 838.086L273.005 838.793C273.226 840.769 271.911 842.812 270.987 844.704C263.775 848.432 249.281 867.753 243.09 874.232C237.9 878.469 232.35 882.24 227.004 886.325C221.638 890.423 216.527 896.454 211.031 900.11C210.816 899.82 210.58 899.15 210.426 898.781C215.183 894.206 221.285 888.906 226.445 884.826C229.675 882.276 233.126 881.436 236.405 878.354C242.743 872.389 246.654 865.384 252.179 858.839C258.394 851.478 265.645 844.939 272.41 838.086Z" fill="#AEAFB0"/>
<path d="M269.262 829.184L270.32 829.401L270.585 830.108C267.394 833.444 262.828 835.559 259.508 838.466C249.712 847.042 239.219 853.297 228.34 860.193C224.13 862.864 218.854 869.167 215.484 873.041L214.35 872.781C214.16 865.505 227.528 858.966 232.132 855.636C242.857 847.888 257.03 835.614 269.262 829.184Z" fill="#AEAFB0"/>
<path d="M131.191 939.785C131.821 938.468 132.486 937.162 133.187 935.881C136.542 929.862 145.632 928.194 151.725 926.272C161.242 923.25 170.814 920.403 180.438 917.738L182.694 918.911C177.543 919.908 172.484 922.815 167.595 924.132C153.477 927.94 143.886 932.926 131.191 939.785Z" fill="#5A5A5C"/>
<path d="M245.704 831.523L247.257 831.795L247.325 832.406C238.059 838.226 229.296 847.738 219.21 853.818C212.961 857.589 200.811 876.771 195.714 883.274L194.746 883.25C194.904 881.576 211.097 859.39 213.927 855.818C217.335 851.521 241.042 833.832 245.704 831.523Z" fill="#AEAFB0"/>
<path d="M249.125 824.5C249.575 824.542 250.241 824.844 250.705 825.014C251.131 823.98 234.897 834.677 233.583 835.68C221.826 844.631 211.774 854.053 201.376 864.49L200.493 865.124L200.449 864.369C211.568 850.197 231.407 829.534 249.125 824.5Z" fill="#AEAFB0"/>
<path d="M237.706 823.039C238.648 823.547 238.304 823.353 238.954 824.393C237.676 826.931 225.57 832.443 221.304 836.256C210.281 846.107 202.15 852.048 194.062 864.558L193.585 864.624L193.297 863.796C200.69 848.633 222.085 830.527 237.706 823.039Z" fill="#AEAFB0"/>
<path d="M288.429 837.266C289.157 837.719 289.571 838.118 290.23 838.668C290.886 843.78 289.664 848.567 290.098 853.698C290.46 857.977 295.346 866.093 290.699 868.964L289.738 868.547C288.775 866.22 290.388 864.667 290.265 861.851C290.13 858.744 289.745 855.704 289.347 852.634C288.517 854.852 288.185 857.602 287.484 860.025C286.154 864.619 284.211 868.269 282.015 872.499C278.695 878.071 276.369 882.205 271.695 886.708C275.442 876.27 283.847 867.042 287.106 856.019C288.995 849.631 286.639 843.037 288.429 837.266Z" fill="#AEAFB0"/>
<path d="M161.551 900.141C163.137 899.851 163.027 899.826 164.567 900.28C161.575 904.28 145.548 907.967 139.804 910.505L138.904 910.91C137.583 911.376 137.581 911.285 136.157 911.182L135.824 910.517C138.06 904.16 155.685 901.235 161.551 900.141Z" fill="#EDECEE"/>
<path d="M174.383 927.191L176.025 927.391L176.477 928.17C174.811 930.195 168.425 932.25 165.285 934.25C159.186 938.136 153.619 942.33 147.831 946.615L146.594 946.954C147.497 940.106 167.525 928.974 174.383 927.191Z" fill="#EDECEE"/>
<path d="M269.995 845.852C270.938 846.383 270.611 846.184 271.314 847.115C270.452 853.811 255.231 874.075 249.968 879.435L249.586 879.447C252.115 874.365 254.747 871.295 257.275 866.786C261.556 859.159 265.115 853.098 269.995 845.852Z" fill="#AEAFB0"/>
<path d="M209.203 994.446C205.969 996.483 201.103 1000.75 197.884 1001.92C194.66 1003.09 188.8 997.643 192.214 993.322C201.115 998.235 199.91 996.954 209.284 991.926L209.203 994.446Z" fill="#EFF0F3"/>
<path d="M223.92 930.02L225.277 930.491C221.4 938.638 203.273 943.11 195.058 944.004L194.289 943.509L194.313 942.608C195.096 942.161 195.431 941.877 196.345 941.907C204.267 942.185 216.845 934.335 223.92 930.02Z" fill="#AEAFB0"/>
<path d="M144.243 921.941C144.663 922.37 144.44 922.05 144.467 923.09C133.836 927.393 128.445 933.557 122.439 943.263L121.784 942.556C121.122 932.741 135.594 923.452 144.243 921.941Z" fill="#EDECEE"/>
<path d="M234.835 918.891C234.926 919.187 235.018 919.483 235.109 919.779C228.487 925.176 214.418 931.056 206.028 933.135L205.559 932.271C215.669 927.654 224.693 921.193 234.835 918.891Z" fill="#AEAFB0"/>
<path d="M253.351 884.078C254.211 892.805 234.712 906.904 228.066 910.609C228.208 910.101 228.349 909.594 228.491 909.092C238.227 901.211 245.397 893.905 253.351 884.078Z" fill="#AEAFB0"/>
<path d="M241.023 855.738L241.644 856.234C239.773 860.035 226.325 873.005 224.453 878.184C223.821 879.93 223.264 880.601 222.154 882.076L221.664 881.864C225.837 869.143 229.961 863.692 241.023 855.738Z" fill="#5E5C60"/>
<path d="M232.159 945.863L232.817 946.77C231.193 950.759 213.107 955.636 207.144 958.198L206.594 957.364C209.538 953.605 226.648 948.16 232.159 945.863Z" fill="#AEAFB0"/>
<path d="M203.04 913.98L204.129 914.289C203.835 914.935 184.914 925.397 183.541 928.443C183.166 929.277 181.032 930.564 180.118 931.072L178.631 930.818L178.395 929.996C184.134 924.321 195.035 915.352 203.04 913.98Z" fill="#AEAFB0"/>
<path d="M182.562 952.534C185.762 952.274 187.19 953.567 190.584 954.752L190.701 955.568C185.891 961.073 176.194 962.759 170.181 966.017L169.465 966.41L168.218 967.044L167.574 966.796C169.917 962.953 182.012 959.58 187.036 956.16L186.774 955.392C185.424 954.951 184.43 954.582 183.115 954.045L182.562 952.534Z" fill="#5E5C60"/>
<path d="M208.672 976.384C210.688 976.1 209.927 975.798 211.218 976.771C207.972 983.165 194.777 978.674 189.938 979.932C188.369 980.524 187.292 981.201 185.768 980.705L185.566 979.756C186.018 979.122 186.625 978.082 187.526 977.998C194.308 977.357 202.055 978.687 208.672 976.384Z" fill="#8E8E91"/>
<path d="M271.509 871.766C272.753 872.334 272.256 871.899 272.816 873.325C271.378 879.949 264.05 888.313 258.972 892.646L258.266 892.199C258.296 891.933 270.128 873.694 271.509 871.766Z" fill="#AEAFB0"/>
<path d="M249.681 871.555C249.489 876.045 231.372 891.214 226.805 894.121C225.992 890.441 246.217 876.172 249.681 871.555Z" fill="#8E8E91"/>
<path d="M180.488 896.863L181.027 897.292L181.022 898.054C174.151 903.342 167.89 908.666 159.152 909.252C158.374 908.902 158.798 909.162 157.98 908.328C165.532 906.92 172.047 900.508 180.488 896.863Z" fill="#8E8E91"/>
<path d="M192.134 856.172L192.884 857.115C190.028 867.727 193.007 864.869 185.742 874.949L185.386 875.36L184.579 875.384C184.216 872.792 189.997 858.517 192.134 856.172Z" fill="#8E8E91"/>
<path d="M168.421 955.945L169.392 956.55L169.318 957.831C166.381 962.593 158.808 967.839 154.181 971.423L153.609 971.495L153.687 970.371C156.153 966.842 164.947 958.731 168.421 955.945Z" fill="#EDECEE"/>
<path d="M196.312 936.986L197.09 936.883L197.401 937.336C194.376 939.657 182.163 947.054 178.747 947.834L177.137 946.347L177.149 945.386C183.251 943.222 189.071 939.548 196.312 936.986Z" fill="#AEAFB0"/>
<path d="M200.23 892.045C203.594 887.283 208.403 879.831 213.032 876.664L213.473 876.743L213.5 877.208L212.604 877.069L213.286 878.048C210.749 883.602 205.8 888.842 201.24 892.849L200.23 892.045Z" fill="#EDECEE"/>
<path d="M248.867 905.504C249.355 905.613 249.032 905.498 249.647 906.181C248.196 907.583 245.449 908.707 243.491 909.493C238.843 911.366 234.73 914.744 230.377 917.579L229.72 917.379L229.426 916.66C235.261 909.475 240.459 908.798 248.867 905.504Z" fill="#8E8E91"/>
<path d="M208.745 982.945L209.109 983.417C206.215 985.961 197.286 990.675 193.722 992.343C193.042 991.509 193.337 991.944 193.365 990.427C196.425 985.58 203.423 984.251 208.745 982.945Z" fill="#EDECEE"/>
<path d="M220.254 908.82C220.612 908.851 221.329 909.135 221.71 909.261C221.158 912.217 209.549 919.995 206.596 921.397C205.951 921.487 206.345 921.5 205.449 921.101C206.71 918.907 217.638 910.706 220.254 908.82Z" fill="#AEAFB0"/>
<path d="M238.933 933.699L239.495 934.654C236.141 942.027 230.592 940.553 224.518 945.919L224.082 945.442C224.656 943.774 226.835 941.52 228.055 940.087C233.521 939.205 234.742 937.404 238.933 933.699Z" fill="#AEAFB0"/>
<path d="M162.54 916.336C163.213 916.312 164.528 916.414 165.259 916.444L165.833 917.139C163.622 918.868 155.686 921.056 152.64 922.023C151.174 922.494 151.076 922.681 149.594 922.458L149.914 921.648C154.354 918.838 157.421 917.339 162.54 916.336Z" fill="#AEAFB0"/>
<path d="M189.858 879.262C190.273 879.667 190.27 879.951 190.506 880.579C188.205 885.728 180.897 890.678 176.286 893.911L175.988 893.555C176.075 892.225 187.678 881.558 189.858 879.262Z" fill="#767578"/>
<path d="M256.267 922.113C259.397 925.111 249.233 934.249 246.491 935.711L246.074 935.083C246.369 933.457 254.274 924.682 256.267 922.113Z" fill="#AEAFB0"/>
<path d="M255.272 951.879L255.706 953.1C253.531 956.708 244.568 960.352 240.45 961.204C239.979 960.563 240.184 960.974 240.066 959.875C245.365 957.578 250.262 954.725 255.272 951.879Z" fill="#8E8E91"/>
<path d="M261.314 843.68C260.988 846.798 250.678 854.498 247.48 857.187V855.857C250.719 850.763 256.387 847.239 261.314 843.68Z" fill="#8E8E91"/>
<path d="M146.707 952.264C150.155 949.654 153.42 947.248 157.961 947.176L158.198 948.336L158.667 947.424C155.391 952.246 152.723 950.59 148.61 953.117L146.707 952.264Z" fill="#AEAFB0"/>
<path d="M222.532 956.676L223.32 957.443L222.923 958.712C219.595 961.77 215.128 962.864 210.847 964.17L210.344 963.197C211.542 961.728 218.659 959.075 221.817 957.123L222.532 956.676Z" fill="#AEAFB0"/>
<path d="M201.244 892.851C197.855 897.045 191.243 902.031 186.488 904.617C186.971 902.913 197.036 895.431 199.692 892.627L200.235 892.047L201.244 892.851Z" fill="#767578"/>
<path d="M258.883 815.473C260.722 816.15 262.082 816.379 263.182 817.938L262.6 819.105C260.416 820.362 259.846 820.773 258.354 822.803C256.197 823.746 257.104 823.855 255.414 823.299C256.137 819.461 258.177 821.601 258.883 815.473Z" fill="#767578"/>
<path d="M203.534 895.664C204.478 899.048 195.367 905.267 192.523 906.621L192.469 906.047C194.997 903.043 200.235 897.532 203.534 895.664Z" fill="#AEAFB0"/>
<path d="M238.13 925.133C239.552 925.332 239.031 925 239.808 925.949C239.069 927.568 233.264 932.736 231.332 935.286L230.513 935.443L230.258 934.392C232.126 930.735 234.822 927.568 238.13 925.133Z" fill="#767578"/>
<path d="M275.622 891.664C276.977 892.202 276.501 891.724 277.223 892.951C274.518 896.861 271.928 900.216 268.43 903.431C268.043 903.521 267.634 903.401 267.238 903.364C267.613 901.745 273.837 894.245 275.622 891.664Z" fill="#8E8E91"/>
<path d="M215.355 833.398L215.787 833.797C215.061 835.937 206.696 841.086 204.542 842.518L204.082 841.859L204.416 840.626C207.091 837.671 211.804 835.296 215.355 833.398Z" fill="#8E8E91"/>
<path d="M222.248 972.328C223.169 972.401 222.746 972.225 223.476 972.945C221.499 975.555 216.813 978.311 213.924 979.822C212.68 979.937 213.323 980.009 212.012 979.478C212.459 977.791 220.165 973.603 222.248 972.328Z" fill="#AEAFB0"/>
<path d="M252.312 916.09C253.083 916.622 252.723 916.247 253.204 917.377C251.767 920.719 248.395 923.251 245.605 925.554L244.856 925.342L244.766 924.388C246.834 921.245 249.622 918.761 252.312 916.09Z" fill="#AEAFB0"/>
<path d="M263.044 931.836C263.625 932.422 263.671 932.736 264.068 933.51C263.304 936.556 260.289 940.055 258.279 942.599L257.579 942.587L257.207 941.711C258.423 938.828 261.285 934.61 263.044 931.836Z" fill="#AEAFB0"/>
<path d="M180.445 917.744C185.657 915.774 189.665 914.172 194.73 911.785C190.872 915.726 188.36 917.72 182.701 918.917L180.445 917.744Z" fill="#8E8E91"/>
<path d="M165.775 936.535L166.823 936.934L166.902 938.197C165.558 940.832 163.81 942.27 161.713 944.368C161.411 944.216 160.855 943.697 160.566 943.449C160.614 940.542 163.716 938.306 165.775 936.535Z" fill="#AEAFB0"/>
<path d="M181.477 871.441L181.832 872.294C179.928 877.062 178.374 878.627 174.59 881.873C174.129 881.419 174.429 881.77 173.988 880.628C175.611 877.557 179.049 874.113 181.477 871.441Z" fill="#8E8E91"/>
<path d="M273.199 855.785L273.37 855.882L273.575 856.698C272.069 860.1 270.037 865.298 267.848 868.054L267.219 867.171C268.618 862.234 269.717 859.75 273.199 855.785Z" fill="#5E5C60"/>
<path d="M209.292 991.933C212.067 989.793 216.145 985.678 218.189 984.59L218.689 984.965C217.443 987.019 211.26 992.773 209.211 994.453L209.292 991.933Z" fill="#AEAFB0"/>
<path d="M269.191 818.414C271.462 818.402 274.252 818.13 275.984 819.453C274.321 820.644 272.894 820.444 270.808 820.535C268.682 820.813 267.438 820.94 265.301 820.994L265.391 820.396L269.191 818.414Z" fill="#252225"/>
<path d="M162.833 890.262C163.489 891.47 163.302 890.806 163.004 892.383C160.368 895.314 157.576 896.245 153.835 897.308L153.582 896.946C155.645 895.127 160.401 891.966 162.833 890.262Z" fill="#8E8E91"/>
<path d="M294.685 850.277C297.245 852.749 297.207 858.255 296.454 861.482C294.692 859.881 293.803 852.634 294.685 850.277Z" fill="#5E5C60"/>
<path d="M265.336 869.699C265.298 872.908 261.099 877.562 258.864 879.75L258.684 878.202C260.279 875.06 262.622 871.947 265.336 869.699Z" fill="#424545"/>
<path d="M148.598 953.11C146.13 955.026 143.661 957.57 140.914 958.271L141.289 958.096C142.039 955.255 144.246 954.174 146.696 952.258L148.598 953.11Z" fill="#767578"/>
<path d="M259.822 899.754C260.266 900.201 260.347 900.546 260.649 901.15C260.019 902.842 258.084 904.051 256.583 905.241L256.008 904.486C256.625 902.703 258.438 901.162 259.822 899.754Z" fill="#8E8E91"/>
<path d="M338.299 1058.98L340.867 1058.6L341.049 1060.31C341.469 1068.86 341.699 1089.45 338.58 1096.78C339.849 1103.73 347.067 1100.13 345.809 1117.91C362.346 1130.06 396.699 1160.53 406.879 1177.64C406.655 1179.19 406.481 1179.21 405.61 1180.57C405.654 1184.26 411.793 1189.22 413.358 1192.86C416.601 1200.41 418.471 1208.96 421.203 1216.74C426.383 1231.5 446.479 1285.02 455.42 1293.62C460.665 1298.67 471.411 1298.35 478.222 1297.96C485.624 1297.53 491.885 1294.28 498.962 1292.87C506.843 1291.36 510.143 1294.96 513.993 1301.42C512.053 1311.63 504.444 1319.33 496.122 1325.03C491.293 1328.39 485.824 1330.73 480.059 1331.91C478.582 1332.06 472.352 1333.61 470.584 1334.01C468.664 1336.35 467.469 1337.73 464.977 1339.19C460.862 1341.58 449.084 1347.55 444.403 1345.44C438.012 1341.46 432.406 1333.32 430.791 1326.05C429.516 1320.42 429.997 1312.92 426.89 1307.87C416.027 1290.21 399.994 1275.72 388.911 1258.14C383.958 1250.28 380.722 1240.54 377.818 1231.75C373.896 1219.87 366.493 1217.66 356.124 1212.8C345.905 1218.88 338.821 1215.76 329.685 1218.43C322.816 1221 315.266 1225.4 308.615 1228.2C279.599 1240.43 248.667 1242.21 218.909 1231.79C212.794 1229.64 205.368 1229.57 198.456 1226.79C195.457 1229.98 190.609 1234.21 187.199 1237.1C178.239 1244.71 169.156 1254.65 158.652 1259.97C150.035 1264.14 141.173 1263.95 132.038 1266.73C107.08 1274.3 78.5039 1279.12 55.0188 1290.21C51.1745 1292.03 37.9749 1307.19 35.3502 1311.11C30.0089 1319.09 25.8202 1337.84 12.4199 1336.19C-7.1901 1333.89 1.1143 1305.71 5.90438 1294.14C7.78392 1289.6 12.8786 1281.87 13.7295 1277.55C9.81997 1269.73 18.9934 1258.7 24.991 1254.05C33.6912 1257.08 36.0561 1255 48.137 1260.08C73.443 1252.57 87.965 1231.04 113.618 1225.55C119.706 1224.25 126.227 1223.85 132.118 1221.82L132.859 1221.56C137.464 1216.94 143.489 1206 146.961 1200.09C144.413 1198.04 139.042 1193.75 136.254 1192.49C134.482 1192.77 134.581 1192.86 132.993 1192.07C131.831 1188.17 101.955 1174.67 96.7994 1171.46C90.9033 1167.78 89.0329 1166.24 83.9666 1161.11C83.4378 1158.71 83.1199 1158.68 84.099 1157.11C86.52 1157.89 86.0806 1158.07 88.0847 1160.23C99.5927 1165.66 109.872 1167.6 120.992 1175.31C130.053 1181.59 136.5 1187.69 144.674 1195.01C154.532 1203.36 169.449 1214.66 181.92 1218.71C200.809 1224.84 225.755 1232.27 245.103 1235.17C275.169 1239.68 308.06 1228.1 333.466 1212.83C347.304 1204.52 361.335 1195.23 376.096 1188.46C386.264 1183.83 393.376 1178.72 404.713 1178.25C397.141 1168.27 356.148 1124.54 346.633 1121.68C345.654 1123.48 345.021 1128.99 344.658 1131.35L343.934 1131.64C343.857 1127.38 344.999 1101.66 337.962 1103C335.224 1107.43 334.751 1126.29 328.468 1130.19C328.508 1126.81 330.897 1122.83 331.701 1119.56C333.073 1113.98 336.782 1103.03 336.464 1097.52C337.541 1085.31 337.848 1073.94 338.344 1061.77C338.788 1060.99 338.442 1060.11 338.299 1058.98Z" fill="#040303"/>
<path d="M83.9662 1161.11C83.4374 1158.7 83.1195 1158.67 84.0986 1157.11C86.5196 1157.89 86.0802 1158.07 88.0843 1160.23C90.2074 1163.5 107.11 1169.72 111.622 1172.31C118.296 1176.14 132.669 1186.06 136.254 1192.49C134.482 1192.77 134.581 1192.86 132.993 1192.07C131.831 1188.17 101.954 1174.67 96.799 1171.46C90.903 1167.78 89.0325 1166.24 83.9662 1161.11Z" fill="#EDECEE"/>
<path d="M498.97 1292.87C506.851 1291.36 510.15 1294.96 514 1301.42C512.06 1311.63 504.451 1319.33 496.129 1325.03C491.301 1328.39 485.831 1330.73 480.066 1331.91C483.045 1328.29 487.119 1323.49 492.274 1322.23C499.532 1316.67 504.663 1310.91 510.289 1303.9C508.053 1293.05 504.137 1301.21 499.713 1295.99L500.801 1293.95L500.463 1293.21L498.97 1292.87Z" fill="#252225"/>
<path d="M148.246 1201.62C149.953 1202.09 155.681 1206.38 157.368 1207.65C170.187 1217.28 180.718 1223.27 196.774 1225.37C184.108 1235.42 173.197 1247.77 160.171 1256.38C155.526 1259.45 137.931 1262.25 131.33 1264.24C111.799 1270.12 89.8804 1274.87 70.589 1281.12C60.5344 1284.34 56.3136 1286.49 47.6937 1292.44C42.9248 1288.16 38.9802 1285.52 34.6367 1280.52C42.0666 1257.88 47.1655 1265.17 64.4016 1255.97C77.6967 1248.87 90.0291 1236.35 104.715 1230.77C112.766 1227.47 121.414 1227.23 129.741 1224.99C139.082 1222.48 144.032 1209.63 148.246 1201.62Z" fill="white"/>
<path d="M151.789 1209.62L152.584 1209.27C155.474 1210.65 157.937 1212.24 159.518 1215.03C157.386 1214.32 152.871 1211.7 151.789 1209.62Z" fill="#EDECEE"/>
<path d="M384.634 1187.64C389.833 1184.93 394.25 1182.4 399.923 1180.72C402.815 1183.28 406.861 1187.11 408.834 1190.45C411.937 1194.35 413.657 1201.1 414.846 1205.94C419.792 1223.1 440.441 1276.47 449.878 1289.89C452.82 1294.07 456.37 1296.99 460.847 1299.47L461.482 1299.82C458.621 1304.65 456.544 1310.46 454.684 1315.79C448.563 1316.63 437.697 1319.04 432.67 1315.75C431.475 1312.92 428.249 1305.06 426.763 1302.86C415.614 1286.28 401.796 1273.48 391.086 1256.25C383.642 1244.27 383.308 1232.7 376.056 1222.3C372.647 1217.41 361.048 1212.42 355.506 1209.85C353.884 1209.22 350.329 1207.3 348.621 1206.44C360.233 1199.66 372.304 1192.9 384.634 1187.64Z" fill="white"/>
<path d="M408.838 1190.46C411.941 1194.35 413.661 1201.1 414.851 1205.95C412.359 1203.57 412.92 1204.45 412.158 1201.32L411.589 1201.99C412.483 1206.35 409.132 1209.75 404.827 1209.77C396.672 1209.78 393.416 1196.94 401.167 1193.58C403.99 1192.36 406.781 1192.48 408.838 1190.46Z" fill="#FAD9D7"/>
<path d="M348.621 1206.44C360.233 1199.66 372.304 1192.9 384.634 1187.64C384.489 1188.14 383.38 1191.99 383.426 1191.95C378.68 1195.67 372.147 1199.66 367.798 1203.61C365.767 1205.46 357.178 1204.69 355.506 1209.85C353.884 1209.22 350.329 1207.29 348.621 1206.44Z" fill="#EDECEE"/>
<path d="M28.881 1288.96C28.9995 1289 39.6385 1299.05 41.1802 1300.33C37.0434 1304.4 34.7299 1308.05 31.8007 1312.98C30.6741 1314.27 31.0253 1313.91 29.5797 1314.88C29.3796 1314.83 29.179 1314.77 28.9789 1314.72C17.2914 1308.44 26.0696 1294.89 28.881 1288.96Z" fill="white"/>
<path d="M470.936 1300C476.085 1300.15 481.233 1300.28 486.388 1300.37C483.614 1305.04 482.811 1306.71 478.112 1309.73C473.733 1312.05 470.813 1312.34 466.008 1313L470.936 1300Z" fill="white"/>
<path d="M347.536 1208.09C349.541 1209.03 350.752 1209.34 351.986 1211.16L351.683 1212.28C349.125 1213.82 343.631 1214.6 340.385 1215.3C338.684 1215.82 338.789 1215.87 337.044 1215.64L336.859 1214.82C339.732 1211.71 343.737 1209.84 347.536 1208.09Z" fill="#EDECEE"/>
<path d="M462.995 1334.53L463.989 1334.93L463.726 1335.95C459.922 1339.09 451.549 1341.76 446.638 1343.51L445.482 1343.56L445.086 1342.57C446.597 1340.01 458.325 1336.59 462.324 1334.83L462.995 1334.53Z" fill="#5E5C60"/>
<path d="M3.76921 1311.77C5.06191 1313.26 5.27102 1325.95 5.7684 1329.61C0.965619 1324.79 2.60039 1317.86 3.76921 1311.77Z" fill="#AEAFB0"/>
<path d="M24.5043 1257.53L25.2646 1258.03C25.0114 1260.35 19.6048 1266.12 17.8353 1270.83L17.4497 1271.22C17.3965 1266.39 21.6046 1261.11 24.5043 1257.53Z" fill="#AEAFB0"/>
<path d="M22.0632 1326.76L22.288 1327.48C20.0458 1330 19.0275 1330.62 16.3418 1332.49C15.8244 1331.93 16.1224 1332.32 15.625 1331.22C16.9479 1329.52 20.0887 1327.92 22.0632 1326.76Z" fill="#5E5C60"/>
<path d="M357.286 934.353C367.005 930.733 378.613 925.572 387.541 920.253C397.061 914.585 405.287 908.692 415.307 903.561C429.889 896.098 445.376 889.945 458.893 880.723C464.601 875.906 466.802 867.88 471.881 862.465C475.387 858.73 479.571 856.724 483.798 853.98C487.098 851.841 491.086 845.852 494.948 846.825C496.405 848.547 496.314 848.469 496.719 850.717C495.541 854.724 491.473 855.092 489.461 859.045C490.585 860.284 489.884 859.915 491.697 860.03C497.378 857.594 501.137 850.457 506.177 851.641C507.742 852.868 507.761 852.723 508.425 854.567C507.168 859.129 502.049 858.658 504.08 862.399C507.192 862.526 507.192 861.492 510.77 862.121L511.628 862.852C511.628 871.784 497.988 870.963 496.653 874.824C500.351 878.281 506.775 871.561 509.181 878.148C507.615 884.192 500.363 882.826 495.752 885.074C491.497 887.147 488.113 891.631 484.046 894.085C480.048 896.327 473.697 897.216 469.856 899.887C464.114 903.894 458.756 909.115 453.499 913.787C446.448 919.981 439.235 925.995 431.868 931.815C424.582 937.477 417.065 942.5 408.994 946.996C394.167 955.245 380.362 965.985 365.758 974.476C365.754 995.948 349.624 989.071 339.266 1006.34C339.439 1013.56 340.405 1021.88 341.194 1029.13C345.726 1027.31 350.229 1024.91 355.042 1027.12C357.985 1028.47 358.955 1030.56 358.471 1033.66L357.474 1034.76L354.906 1034.84C354.461 1033.15 355.798 1031.96 355.288 1029.09C351.063 1024.97 345.226 1031.88 341.186 1030.43C341.017 1030.37 340.019 1029.32 339.916 1029.22C337.115 1029.39 334.993 1031.22 333.49 1033.27C324.12 1046.03 322.662 1044.71 307.171 1046.32C298.751 1047.19 289.446 1046.36 280.893 1047.24C277.737 1047.57 271.323 1049.97 269.781 1049.54C271.555 1046.93 273.303 1046.42 276.28 1045.29L276.373 1034.89C262.285 1033.35 255.72 1032.87 241.21 1034.22C242.779 1046.58 245.343 1060.81 248.533 1072.76C251.293 1083.08 274.076 1078.29 280.975 1077.29C300.651 1074.43 319.042 1061.63 338.292 1058.98C338.435 1060.11 338.78 1060.99 338.337 1061.77C335.788 1058.75 317.363 1067.58 312.692 1069.44C297.991 1075.28 259.935 1089.67 247.631 1075.75C243.886 1071.5 240.633 1042.65 238.282 1036.27C237.972 1035.43 237.407 1035.53 236.599 1035.32C234.925 1036.13 234.72 1036.07 233.611 1037.61C234.315 1039.72 235.445 1039.35 237.834 1041.35L236.97 1041.98C229.913 1041.53 223.984 1035.37 228.603 1028.9L229.282 1029.23C229.989 1032.3 229.309 1034.66 228.781 1037.8L231.067 1036.33C244.137 1027.92 271.097 1031.27 286.028 1034.03C283.386 1025.69 284.266 1013.92 283.458 1004.94C282.981 999.635 282.212 996.093 281.438 990.975L282.044 990.576L283.057 991.458C286.238 999.357 287.709 1023.34 287.671 1032.91C287.664 1034.78 287.096 1034.77 285.869 1035.7C283.093 1036.29 281.714 1035.82 278.951 1035.31L278.812 1045.22C291.886 1043.46 314.369 1046.16 324.692 1040.19C325.999 1039.43 333.509 1030.23 338.296 1026.58C337.486 1023.44 332.566 983.843 332.928 982.562L333.615 982.894C335.752 987.463 336.448 990.274 337.023 995.29C337.668 997.604 337.55 998.444 337.348 1000.86L337.83 1001.51C339.004 1000.86 343.02 997.453 343.657 996.504C349.502 992.902 355.715 990.044 361.266 985.965C365.088 974.645 365.024 952.338 357.625 942.016C356.654 940.662 356.112 940.004 355.298 938.45L355.072 938.003C353.29 938.42 336.655 947.389 333.204 949.093C326.003 952.344 322.842 953.052 319.523 960.358L318.874 961.754C312.994 969.683 323.352 972.868 318.478 980.09C309.703 993.084 280.81 969.393 274.198 962.637L274.928 961.851C282.099 965.979 309.704 992.147 316.989 977.105C319.588 971.744 314.34 971.394 313.32 969.236C316.702 944.929 337.411 949.087 354.585 933.809C365.748 923.88 361.898 894.423 354.938 881.14C354.898 881.067 346.211 878.662 342.398 875.386L341.819 874.879C339.173 865.741 337.477 861.245 333.492 852.826L335.102 851.237C339.268 860.241 340.608 862.073 342.069 871.954C343.844 873.736 345.588 875.622 347.578 877.145C352.764 877.496 360.25 877.073 359.299 884.464C358.955 887.135 361.53 891.94 362.066 894.81C365.08 910.959 365.656 920.701 357.286 934.353Z" fill="#040303"/>
<path d="M356.48 936.328C376.307 931.444 395.707 916.662 412.964 906.962C428.112 898.441 447.419 892.313 461.521 881.314C467.857 876.37 469.086 864.422 477.826 860.427L478.576 860.723L479.169 864.102C486.268 869.97 499.691 853.417 505.402 853.731L506.109 854.849C504.779 860.796 492.299 864.827 490.565 867.492C491.526 869.148 491.937 868.803 494.3 869.686C495.073 870.387 495.732 870.997 496.463 871.747L495.968 872.315C494.62 873.886 493.883 874.4 493.75 876.449C496.01 880.443 502.882 876.122 506.532 877.893C505.456 882.293 497.134 881.616 493.828 883.411C490.359 885.296 487.549 889.466 484.11 891.557C478.788 894.652 472.922 895.057 467.913 898.598C461.254 903.3 455.011 909.253 448.943 914.692C442.655 920.306 436.142 925.661 429.42 930.749C414.504 942.021 398.331 950.083 382.854 960.459C379.553 962.677 376.104 964.799 372.754 966.95C370.485 968.437 368.036 969.875 365.71 971.295C366.359 967.125 366.123 963.554 365.952 959.384C365.326 948.566 362.819 944.861 356.48 936.328Z" fill="white"/>
<path d="M365.949 959.383C366.516 961.341 366.59 962.556 368.231 963.692C370.15 962.537 370.034 955.962 370.214 953.551C371.305 955.98 371.534 962.568 371.52 965.39L372.751 966.949C370.482 968.436 368.033 969.874 365.707 971.295C366.355 967.124 366.12 963.553 365.949 959.383Z" fill="#EDECEE"/>
<path d="M486.144 868.73C490.792 872.792 483.437 881.754 480.407 884.951C479.922 884.28 480.164 884.728 479.93 883.501C485.05 877.016 483.666 876.128 486.144 868.73Z" fill="#151818"/>
<path d="M403.637 925.613C405.379 926.804 405.722 927.009 406.395 928.961C405.846 931.246 406.208 930.43 404.117 932.189C401.61 931.457 400.956 931.578 400.25 928.998C401.048 926.949 401.757 926.768 403.637 925.613Z" fill="#FAD9D7"/>
<path d="M493.056 848.414C494.355 848.71 493.72 848.438 494.911 849.315C494.724 850.958 484.994 861.994 483.489 862.641C482.546 862.054 480.007 860.549 480.656 859.268C482.739 855.147 489.381 851.242 493.056 848.414Z" fill="#EDECEE"/>
<path d="M318.879 961.755L319.528 960.359C322.846 953.052 326.008 952.345 333.209 949.094L335.836 952.303L335.72 953.119C334.061 953.723 333.188 953.493 331.441 953.336C326.637 956.128 329.35 959.954 323.341 960.28C322.2 961.314 321.927 961.29 321.649 962.734L321.084 963.761L318.879 961.755Z" fill="#EDECEE"/>
<path d="M337.031 995.287C343.192 992.102 344.008 981.677 348.246 976.879C347.961 982.427 342.901 991.553 342.803 995.07L343.665 996.502C343.028 997.451 339.012 1000.86 337.838 1001.51L337.356 1000.86C337.558 998.442 337.676 997.602 337.031 995.287Z" fill="#8E8E91"/>
<path d="M152.96 1078.64L153.966 1081.28C150.103 1088.65 135.641 1099.28 130.995 1106.08L129.983 1106.16L129.617 1105.24C133.831 1102.19 151.164 1082.96 152.96 1078.64Z" fill="#252225"/>
<path d="M321.651 962.738C324.742 966.165 327.234 970.081 329.024 974.33C325.292 970.45 323.645 968.607 321.086 963.766L321.651 962.738Z" fill="#5E5C60"/>
<path d="M321.158 1103.06C321.562 1103.68 321.449 1104.38 321.24 1105.11C312.87 1134.46 294.204 1165.82 269.318 1183.98L269.145 1183.98C269.417 1182.7 274.36 1178.02 275.804 1176.7C299.33 1155.33 309.496 1131.89 321.158 1103.06Z" fill="#5E5C60"/>
<path d="M299.098 1162.11C299.817 1166.75 286.802 1181 283.129 1184.2C283.076 1182.42 286.892 1178.78 288.256 1176.96C291.938 1172.06 295.519 1167.09 299.098 1162.11Z" fill="#8E8E91"/>
<path d="M228.559 1017.24C228.902 1011.65 228.894 1004.02 231.233 999.125L231.638 999.584C231.075 1004.29 230.723 1016.65 229.625 1019.13L228.559 1017.24Z" fill="#8E8E91"/>
<path d="M199.351 1058.76C200.203 1058.89 199.702 1058.76 200.811 1059.28C199.272 1061.76 184.29 1066.84 180.633 1068.32L179.84 1068.19C181.58 1065.48 193.715 1062.51 199.351 1058.76Z" fill="#EDECEE"/>
<path d="M337.946 970.363C340.921 972.75 340.086 984.958 339.411 988.5C337.194 986.82 337.813 973.639 337.946 970.363Z" fill="#8E8E91"/>
<path d="M204.305 1035.29L204.7 1035.54C203.593 1038.25 194.82 1043.6 191.903 1045.55L191.492 1044.79C193.89 1042.11 201.117 1037.48 204.305 1035.29Z" fill="#AEAFB0"/>
<path d="M263.469 973.095C269.156 972.847 276.69 977.857 278.366 983.375C277.591 982.891 277.737 983.054 277.111 982.341C273.054 977.706 268.968 975.693 263.469 973.095Z" fill="#8E8E91"/>
<path d="M211.116 1053.97L212.136 1054.19L211.857 1055.09C209.303 1056.98 207.016 1057.86 204.141 1059.15L203.25 1058.78C203.821 1057.68 209.496 1054.88 211.116 1053.97Z" fill="#EDECEE"/>
<path d="M228.561 1017.23L229.628 1019.12C229.494 1021.02 229.622 1022.3 228.559 1023.85L227.638 1023.79C226.55 1020.92 227.056 1019.68 228.561 1017.23Z" fill="#424545"/>
<path d="M204.142 836.184C198.74 826.811 154.44 875.854 150.619 876.337C150.353 872.977 189.042 838.976 195.322 836.317C203.086 833.029 211.036 824.653 220.169 823.922C216.511 827.56 209.633 834.836 204.142 836.184Z" fill="#767578"/>
<path d="M98.6672 921.438C100.483 916.053 107.337 912.687 112.729 912.203C115.49 911.955 116.702 911.133 119.493 911.254L117.63 912.318C114.171 916.27 110.451 918.029 109.61 922.205L110.412 923.565C110.14 924.707 103.621 934.957 102.449 936.836C104.358 930.702 106.565 926.248 109.572 920.616C105.467 922.096 100.521 924.411 96.0734 924.03C93.5073 923.813 88.6471 920.966 88.9468 918.156C93.0268 917.679 92.7972 924.097 98.6672 921.438Z" fill="#484448"/>
<path d="M98.668 921.438C100.483 916.053 107.338 912.687 112.729 912.203C115.491 911.955 116.703 911.133 119.493 911.254L117.631 912.318L117.11 912.632C108.639 917.805 111.047 919.649 98.668 921.438Z" fill="#EDECEE"/>
<path d="M115.016 955.114C111.457 952.515 105.184 945.36 102.226 941.794C101.383 940.779 101.945 939.891 102.299 938.809L103.141 938.676L103.706 941.033C105.615 942.943 111.707 940.99 116.877 942.87C115.873 946.502 115.467 951.283 115.016 955.114Z" fill="#EDECEE"/>
<path d="M131.425 880.127C127.136 880.762 122.765 879.765 119.17 877.347C116.486 875.565 111.174 869.908 110.598 866.844C113.009 868.518 116.664 872.99 119.851 875.722C120.991 874.289 120.997 873.643 122.971 873.588C125.7 873.516 131.859 876.296 133.802 877.891C132.802 879.529 132.977 878.864 132.695 880.659L131.425 880.127Z" fill="#AEAFB0"/>
<path d="M131.425 880.127C127.136 880.762 122.765 879.765 119.17 877.347C116.486 875.565 111.174 869.908 110.598 866.844C113.009 868.518 116.664 872.99 119.851 875.722C123.592 878.472 126.976 879.185 131.425 880.127Z" fill="#5E5C60"/>
<path d="M175.686 869.09L175.449 870.516C152.985 880.917 156.727 878.983 132.691 880.663C132.974 878.868 132.799 879.533 133.799 877.895C152.012 880.385 160.408 875.061 175.686 869.09Z" fill="#484448"/>
<path d="M113.763 892.713C110.886 893.753 109.505 894.539 106.348 895.433L108.096 894.859L107.063 894.684C108.835 893.56 111.364 892.345 113.278 891.348C127.719 894.291 127.944 894.617 143.631 895.56C142.847 896.98 142.991 896.418 143.042 898.038C140.593 897.174 130.232 896.479 126.916 895.989C121.362 895.179 119.181 894.466 113.763 892.713Z" fill="#252225"/>
<path d="M340.867 1058.6C345.869 1057.54 352.585 1056.21 355.743 1051.75C357.967 1048.61 356.222 1047.15 359.294 1044.49L360.538 1044.29C361.751 1046.3 359.238 1052.57 357.761 1053.97C353.192 1058.31 346.285 1058.36 341.049 1060.3L340.867 1058.6Z" fill="#040303"/>
<path d="M140.749 964.336L141.122 963.961C143.193 969.962 138.345 979.263 142.107 984.201C142.722 985.004 142.649 984.908 142.659 985.663L141.675 985.724L141.779 985.826L142.616 985.712L142.625 985.464L141.136 985.198C137.602 979.807 139.57 974.392 139.963 968.228C140.053 966.813 140.841 965.931 140.749 964.336Z" fill="#8E8E91"/>
<path d="M160.594 985.332C162.922 986.051 163.729 985.834 164.883 988.299C163.851 991.182 167.501 995.419 167.761 1000.94C165.72 997.745 161.93 988.994 160.594 985.332Z" fill="#424545"/>
<path d="M280.625 799.477C288.307 800.437 291.007 806.723 290.109 813.733L289.183 813.528C288.337 812.065 288.504 808.638 288.456 806.765C286.3 804.293 283.163 801.634 280.625 799.477Z" fill="#8E8E91"/>
<path d="M316.766 815.344C321.377 815.35 329.623 821.121 332.463 824.578C328.68 823.841 320.276 817.797 316.766 815.344Z" fill="#8E8E91"/>
<path d="M133.113 965.125C133.802 966.485 133.964 967.476 135.045 968.02C133.964 971.773 133.673 973.193 134.271 977.007L133.482 977.055C130.611 973.127 133.55 970.093 133.113 965.125Z" fill="#151818"/>
<path d="M181.279 995.691C183.1 997.668 185.7 1000.14 186.395 1002.67C184.039 1002.36 181.177 998.544 179.426 996.586C180.621 996.417 180.18 996.489 181.279 995.691Z" fill="#252225"/>
<path d="M90.8243 895.808C89.6784 894.092 88.2776 891.976 88.457 889.934L89.398 890.048C90.785 891.753 91.1271 892.641 92.1134 894.635L90.8243 895.808Z" fill="#151818"/>
<path d="M1114.87 231.29C1135.4 215.516 1161.33 208.506 1187 211.793C1204.35 214.175 1226.6 225.554 1237.18 239.157C1239.34 241.108 1239.69 241.691 1241.4 244.113C1278.44 291.547 1262.72 359.387 1216.63 394.789C1216.27 395.068 1215.9 395.343 1215.53 395.612C1199.27 409.587 1166.66 423.894 1145.46 424.184C1141.7 423.922 1134.84 423.091 1131.49 423.912C1130.71 425.253 1130.92 424.527 1130.84 426.09L1130.27 426.256L1129.53 424.02C1128.02 422.276 1126.05 422.333 1123.49 421.347L1122.47 420.042C1117.08 416.867 1110.73 410.466 1106.51 405.905C1106.35 405.781 1106.18 405.658 1106 405.534C1091.11 389.848 1077.88 363.079 1075.19 342.181C1070.74 319.43 1073.11 295.871 1082 274.463C1083.42 270.377 1085.69 265.587 1088.1 261.995C1093.82 250.997 1105.35 239.096 1114.87 231.29Z" fill="#EF3239"/>
<path d="M1241.4 244.117C1278.44 291.552 1262.72 359.392 1216.63 394.794C1216.27 395.072 1215.9 395.347 1215.54 395.617C1216.09 394.293 1226.63 384.377 1228.47 382.42C1259.11 350.03 1268.99 306.389 1251.87 264.592C1250.28 260.721 1241.88 247.128 1241.4 244.117Z" fill="#690309"/>
<path d="M1114.88 231.29C1135.4 215.516 1161.34 208.506 1187.01 211.793C1204.36 214.175 1226.6 225.554 1237.18 239.157C1235.81 238.602 1229.31 233.173 1227.77 231.848C1194.42 203.209 1152.36 208.112 1117.63 231.36L1114.88 231.29Z" fill="#690309"/>
<path d="M1082 274.465C1082.08 276.286 1078.12 293.61 1077.21 295.309C1072.8 303.559 1077.14 337.983 1075.19 342.182C1070.74 319.432 1073.11 295.873 1082 274.465Z" fill="#690309"/>
<path d="M1114.87 231.293L1117.63 231.363C1109.94 237.011 1103.64 243.788 1097.52 251.07C1095.35 253.661 1090.59 261.118 1088.11 261.998C1093.83 251 1105.35 239.099 1114.87 231.293Z" fill="#9D0A13"/>
<path d="M1124.43 419.023C1131.26 422.93 1141.17 422.739 1148.89 423.205C1147.16 424.141 1147.14 423.641 1145.47 424.187C1141.7 423.925 1134.85 423.094 1131.49 423.914C1130.72 425.255 1130.93 424.53 1130.85 426.092L1130.27 426.258L1129.54 424.022C1128.02 422.278 1126.05 422.336 1123.5 421.349L1122.48 420.044L1124.43 419.023Z" fill="#1D0006"/>
<path d="M1106.52 405.906C1111.33 408.443 1118.93 415.43 1124.44 419.023L1122.48 420.044C1117.08 416.869 1110.74 410.467 1106.52 405.906Z" fill="#690309"/>
<path d="M1217.45 255.392C1228.42 254.736 1234.19 267.067 1225.06 275.702C1215.44 277.443 1208.84 263.692 1217.45 255.392Z" fill="white"/>
<path d="M1118.25 437.121L1119.95 438.066C1115.09 448.286 1108.48 461.112 1105.09 471.812C1094.83 504.353 1091.6 530.446 1070.43 559.029C1046.05 591.966 1019.01 605.289 980.372 615.6C965.95 619.449 948.825 625.837 936.374 634.118C928.461 639.369 921.108 645.415 914.427 652.161C899.143 667.616 889.666 682.576 868.994 693.326C836.258 710.349 805.69 702.67 777.235 731.133C762.967 745.408 753.877 760.48 746.396 779.544C744.48 784.413 741.833 794.99 739.363 798.728L739 798.18C741.451 785.807 746.131 773.893 751.716 763.09C769.063 729.526 791.749 711.271 828.998 704.295C843.02 701.67 860.249 696.476 872.362 689.028C884.204 681.743 898.065 667.596 907.382 657.019C934.612 626.094 959.965 619.29 997.473 608.582C1040.23 596.88 1077.24 558.951 1089.77 516.472C1098.62 486.465 1103.36 465.76 1118.25 437.121Z" fill="#252225"/>
<path d="M1123.5 421.352C1126.06 422.338 1128.03 422.28 1129.54 424.025L1130.27 426.261L1130.85 426.094C1131.94 429.725 1132.79 439.115 1133.19 443.181C1126.72 441.319 1125.93 440.718 1119.95 438.067L1118.25 437.122C1113.97 435.861 1112.2 434.989 1108.17 433.015C1112.86 429.515 1119.56 425.541 1123.5 421.352Z" fill="#EF3239"/>
</svg>
