<svg width="1350" height="1350" viewBox="0 0 1350 1350" fill="none" xmlns="http://www.w3.org/2000/svg">
<path d="M689.261 699.038C689.133 694.078 694.552 679.56 699.954 679.531C702.72 683.772 697.697 696.019 696.563 701.263C700.714 697.572 710.418 686.368 714.133 685.117C715.938 685.403 715.239 684.972 716.312 686.418C716.519 691.574 708.636 700.998 705.502 705.709C710.139 703.315 718.407 698.233 723.122 698.932C724.753 700.238 724.273 699.422 724.658 701.439C722.882 706.616 712.843 712.068 708.44 716.933C713.681 716.447 720.586 714.037 724.346 715.625C725.474 717.244 725.223 716.354 724.983 718.418C721.508 723.377 713.038 723.655 710.882 726.109C703.262 734.766 695.435 741.375 686.937 748.694C681.496 755.241 676.289 764.177 672.161 771.581C659.825 793.693 645.931 808.371 628.635 826.071C616.093 838.901 607.668 850.658 593.288 862.889C593.45 867.525 593.836 873.513 593.657 878.048C589.277 885.002 582.456 888.208 576.327 893.463C571.249 897.82 566.679 903.713 563.243 909.432C563.383 917.575 564.399 925.462 564.612 933.493C565.399 963.509 566.17 987.392 560.204 1016.9C568.5 1027.77 567.846 1031.11 567.858 1044.36C583.685 1061.89 599.785 1082.02 610.964 1102.87C615.819 1111.92 614.372 1118.18 621.702 1127.06C639.009 1148.03 658.998 1168.72 680.703 1185.16C688.496 1190.92 704.39 1182.24 710.379 1177.76C716.709 1172.93 733.999 1155.67 741.832 1165.99C749.139 1175.61 735.709 1201.12 727.374 1207.46C712.67 1218.66 713.435 1234.06 695.111 1240.64C690.273 1237.79 683.507 1235.23 679.792 1232.2C673.937 1227.43 673.434 1218.12 666.876 1213.12C660.244 1208.07 654.11 1205.34 646.803 1201.61C634.724 1195.46 622.484 1189.37 611.042 1182.11C595.78 1172.42 590.255 1153.59 571.858 1148.51C563.992 1146.34 556.014 1149.97 548.137 1151.02C543.299 1151.67 538.438 1152.17 533.628 1152.94C526.868 1154.72 518.857 1159.6 512.318 1162.41C499.931 1167.75 487.822 1170.86 474.55 1173.05C462.356 1176.73 444.341 1175.27 432.026 1172.71C419.484 1170.27 400.341 1164.65 388.592 1163.62C375.818 1170.91 361.908 1186.68 348.117 1192.86C337.962 1197.41 323.798 1197.28 312.494 1198.27C298.185 1199.55 283.898 1201.06 269.639 1202.81C258.999 1204.07 247.627 1205.28 237.265 1208.13C230.107 1210.1 230.058 1212.61 225.435 1216.42C213.893 1225.92 209.132 1231.38 202.937 1245.09C199.87 1251.88 195.398 1255.3 188.254 1257.53C183.713 1256.58 177.539 1255.25 175.017 1251.01C168.786 1239.49 176.386 1220.41 182.051 1210.12C188.016 1199.29 190.917 1197.94 191.027 1185.78C191.075 1180.46 198.297 1173.03 203.232 1169.98C215.655 1173.02 215.821 1169.84 230.005 1177.24C248.584 1175.35 266.508 1161.89 283.631 1155.4C295.075 1151.06 308.072 1153.18 319.176 1150.65C321.991 1147.89 322.783 1146.72 325.039 1143.53C320.745 1140.14 313.617 1135.4 308.847 1132.62L308.33 1132.59C279.387 1133.41 247.725 1115.6 236.505 1088.37C259 1060.74 286.157 1053.87 318.382 1042.59C322.312 1041.22 332.172 1038.27 334.777 1035.82C345.603 1025.63 355.279 1014.37 366.132 1004.01C374.905 995.641 386.033 986.816 394.161 978.209C398.441 973.68 408.431 958.465 411.88 952.886C407.139 950.869 403.516 949.082 399.443 945.887C385.843 951.819 368.787 965.229 356.338 974.177C343.081 983.516 326.701 991.262 314.634 1001.94C311.221 1004.96 306.523 1034.91 298.403 1033.28C296.041 1030.68 296.989 1023.48 296.338 1019.09C288.342 1016.76 270.888 1038.16 264.028 1032.54C264.216 1027.56 272.992 1023.28 274.31 1017.5L273.819 1016.82C268.003 1016.01 262.79 1025.82 257.996 1028.27C255.433 1029.58 251.993 1029.52 251.16 1026.35C252.618 1023.37 258.415 1015.37 261.094 1012.88C261.892 1012.15 268.436 1009.44 269.886 1008.9C267.687 1012.51 253.83 1022.19 254.258 1026.98C260.373 1026.71 265.12 1017.59 270.108 1015.58C273.046 1014.4 277.443 1014.29 280.652 1014.1C274.532 1023.98 271.57 1024.45 265.438 1032.48C274.156 1029.45 278.325 1025.08 285.995 1020.54C305.511 1009.01 296.367 1025.61 299.114 1030.41L299.875 1030.5C307.311 1023.67 307.55 1003.38 316.731 996.982C332.779 986.096 348.959 976.902 364.416 965.095C375.536 956.594 397.145 942.849 410.245 938.811C406.301 931.734 402.03 924.892 398.579 917.547C396.477 913.073 394.298 909.672 391.298 905.773C371.192 919.871 351.263 932.494 333.642 949.724C320.94 962.14 310.506 975.277 296.644 986.498C288.781 992.86 258.342 999.512 254.436 1004.76C254.185 1006.78 253.931 1005.95 254.862 1007.43C257.866 1006.77 261.614 1003.14 266.632 1002.79L267.17 1003.42C265.951 1006.84 254.141 1012.79 251.271 1005.68C252.029 1001.91 256.704 1000.17 260.064 998.97C278.327 992.463 291.875 990.799 305.467 976.009C319.876 960.331 334.625 944.67 351.065 931.198C355.786 927.327 361.519 924.183 366.471 920.139C365.219 919.016 363.198 918.731 361.311 917.642L358.059 915.313C345.986 911.281 349.734 905.416 352.536 895.094C354.607 889.61 356.977 888.61 358.764 884.27C352.332 885.538 349.538 888.37 345.806 893.765C342.014 899.244 340.652 904.936 341.987 911.487C342.809 915.531 344.036 915.944 345.193 918.938C342.091 919.044 338.822 909.125 337.717 906.36C335.305 906.142 335.131 905.88 333.023 904.506L332.44 903.936C325.349 897.066 330.446 890.084 328.046 881.997C322.11 884.616 318.26 886.024 311.952 887.655C311.925 892.436 311.85 896.301 313.516 900.87L312.692 901.987C310.194 896.183 310.079 892.877 309.518 886.56C306.211 886.057 292.836 884.371 293.784 879.919C294.827 879.953 303.974 882.31 307.891 882.762C308.713 880.182 310.461 878.221 310.425 876.585C303.44 877.679 292.16 872.887 286.633 868.519C283.844 866.319 276.134 860.169 275.578 856.477C277.286 857.204 282.068 861.605 284.368 863.297C285.447 862.621 285.533 862.035 286.217 860.8L286.548 860.778C287.596 859.762 287.264 859.253 287.441 857.332C287.183 854.713 288.083 854.232 289.753 852.333L288.826 852.115C287.827 852.691 288.366 852.54 287.207 852.562L286.809 850.797L286.138 850.607C285.719 843.413 290.536 839.621 295.512 835.304C296.045 833.907 296.501 833.594 297.513 832.494C299.004 832.053 298.705 832.394 299.631 831.433C298.43 830.355 298.229 830.294 296.65 829.958L296.223 829.014C301.735 829.439 302.494 827.618 307.228 827.333C307.928 826.97 308.608 826.132 309.187 825.54C316.018 823.865 332.935 817.118 340.158 814.437C326.797 814.247 308.969 813.923 295.728 812.097C313.603 809.583 327.641 815.409 345.121 807.986C359.181 802.021 374.279 787.203 380.046 773.126C380.528 771.901 380.344 771.462 380.304 770.073C398.538 740.73 418.395 716.161 453.308 707.816C455.768 707.228 458.271 706.527 460.736 705.91C459.001 703.802 456.331 704.332 453.678 704.263C452.273 704.358 450.825 704.493 449.417 704.608L449.633 703.986C455.723 701.132 471.593 702.115 478.292 702.717C482.432 703.855 485.073 705.015 488.671 707.471C489.831 706.965 495.704 704.485 496.468 703.998C503.188 699.281 513.523 700.329 521.198 702.303C526.321 703.901 529.231 705.451 532.248 710.192C533.354 711.922 533.293 711.906 533.751 713.796C537.757 717.046 547.975 727.985 546.388 733.165L545.489 733.624C544.516 732.458 544.639 732.14 544.187 730.741C541.589 722.708 536.835 715.003 527.801 714.057L526.505 714.565C530.628 717.296 540.924 724.692 538.98 730.302L536.801 730.914C536.706 732.578 539.824 737.425 540.902 739.486C545.656 746.309 549.31 756.045 553.869 761.136C558.019 762.234 564.522 760.891 567.332 764.005C568.796 766.24 568.684 769.455 569.517 772.024C570.841 776.121 573.193 780.037 574.444 784.058C579.025 798.843 578.578 809.215 572.277 822.904C581.768 817.162 597.512 804.059 605.014 795.765C611.573 788.515 617.333 780.567 624.361 773.733C635.926 762.477 668.568 737.431 672.032 723.224C673.887 715.633 677.356 698.471 681.96 692.727C685.686 695.692 685.842 696.17 688.77 699.815L687.658 706.441C689.926 712.415 693.027 721.831 690.608 728.181L689.63 729.046L688.602 728.966C688.932 724.281 690.58 721.901 689.613 716.476C688.781 711.79 685.088 709.997 683.837 706.749C683.569 706.046 688.418 696.058 681.379 696.852C678.909 699.146 674.999 724.686 671.742 729.957C669.546 733.512 666.356 736.552 663.518 739.604C652.01 751.987 638.942 762.438 626.836 774.178C620.138 780.679 614.417 788.337 608.176 795.29C601.556 802.663 584.685 818.285 576.159 823.111C586.785 833.589 589.819 846.307 592.601 860.633C611.624 842.726 630.188 821.385 648.021 802.121C662.138 785.7 671.92 766.078 684.356 748.547C688.524 742.673 700.781 736.6 703.429 730.531C707.295 721.683 722.295 721.991 722.513 716.703C718.468 715.787 710.686 720.434 707.016 717.411C706.468 711.916 718.631 706.649 722.128 701.698L722.022 700.833C717.72 699.568 706.72 707.142 703.468 710.417L702.653 710.267C702.1 709.076 701.127 707.707 701.809 706.678C707.831 697.585 712.072 696.523 715.217 685.323C707.737 691.817 701.15 700.021 693.658 706.186L693.77 705.299C694.546 699.352 699.982 685.818 698.368 682.517L697.977 682.588L698.753 683.389L698.552 682.678C694.233 684.883 690.904 694.607 689.261 699.038Z" fill="white"/>
<path d="M689.261 699.038C689.133 694.078 694.552 679.56 699.954 679.531C702.72 683.772 697.697 696.019 696.563 701.263C700.714 697.572 710.418 686.368 714.133 685.117C715.938 685.403 715.239 684.972 716.312 686.418C716.519 691.574 708.636 700.998 705.502 705.709C710.139 703.315 718.407 698.233 723.122 698.932C724.753 700.238 724.273 699.422 724.658 701.439C722.882 706.616 712.843 712.068 708.44 716.933C713.681 716.447 720.586 714.037 724.346 715.625C725.474 717.244 725.223 716.354 724.983 718.418C721.508 723.377 713.038 723.655 710.882 726.109C703.262 734.766 695.435 741.375 686.937 748.694C681.496 755.241 676.289 764.177 672.161 771.581C659.825 793.693 645.931 808.371 628.635 826.071C616.093 838.901 607.668 850.658 593.288 862.889C593.45 867.525 593.836 873.513 593.657 878.048C589.277 885.002 582.456 888.208 576.327 893.463C571.249 897.82 566.679 903.713 563.243 909.432C563.383 917.575 564.399 925.462 564.612 933.493C565.399 963.509 566.17 987.392 560.204 1016.9C568.5 1027.77 567.846 1031.11 567.858 1044.36C583.685 1061.89 599.785 1082.02 610.964 1102.87C615.819 1111.92 614.372 1118.18 621.702 1127.06C639.009 1148.03 658.998 1168.72 680.703 1185.16C688.496 1190.92 704.39 1182.24 710.379 1177.76C716.709 1172.93 733.999 1155.67 741.832 1165.99C749.139 1175.61 735.709 1201.12 727.374 1207.46C712.67 1218.66 713.435 1234.06 695.111 1240.64C690.273 1237.79 683.507 1235.23 679.792 1232.2C673.937 1227.43 673.434 1218.12 666.876 1213.12C660.244 1208.07 654.11 1205.34 646.803 1201.61C634.724 1195.46 622.484 1189.37 611.042 1182.11C595.78 1172.42 590.255 1153.59 571.858 1148.51C563.992 1146.34 556.014 1149.97 548.137 1151.02C543.299 1151.67 538.438 1152.17 533.628 1152.94C526.868 1154.72 518.857 1159.6 512.318 1162.41C499.931 1167.75 487.822 1170.86 474.55 1173.05C475.358 1171.38 475.895 1171.17 477.398 1170.11C498.12 1166.9 513.796 1159.86 532.276 1150.33C553.427 1139.42 590.227 1110.72 613.691 1112.4C605.322 1093.75 581.299 1061.95 567.21 1046.26C566.394 1050.23 565.003 1057.21 563.293 1060.78C563.176 1057.97 563.98 1054.41 564.383 1051.54C566.416 1037.08 567.612 1031.85 559.746 1019.33C557.64 1029.15 555.98 1034.44 552.6 1043.66L551.22 1043.32C565.98 999.964 563.003 939.207 557.433 893.748C556.863 889.101 555.103 884.337 554.735 879.483C556.226 882.22 556.83 885.007 557.679 888.012C559.182 894.016 560.824 900.183 562.109 906.22C564.494 902.808 566.997 899.077 569.589 895.854L570.193 895.256C576.679 888.738 584.673 884.789 591.428 877.869C591.595 875.585 591.551 872.759 591.305 870.485C589.277 851.534 587.042 835.454 572.444 822.374C566.226 830.221 560.405 833.98 551.93 839.035C543.868 842.983 540.656 844.218 536.528 852.724C536.014 853.679 535.544 854.567 535.069 855.545L532.924 861.923C536.779 868.262 538.399 874.362 530.706 878.149C515.212 885.784 492.191 868.564 481.268 859.979C469.126 863.777 464.311 865.319 451.785 863.867C441.425 869.134 431.398 872.066 421.352 875.847C415.019 878.232 386.978 892.57 383.795 896.44L384.655 896.675C393.788 899.194 410.314 932.689 413.89 942.301C414.963 945.189 415.406 949.127 415.667 952.227C425.284 947.596 434.909 942.972 444.526 938.347C450.16 935.638 455.504 932.371 461.358 930.165C456.145 934.27 448.536 940.196 443.026 943.592L441.301 944.145C439.507 945.133 433.871 946.999 431.613 947.803C426.314 949.68 418.505 954.003 413.51 955.393L412.869 956.181C407.079 963.336 403.047 971.865 396.902 978.606C390.908 985.18 383.895 991.402 377.226 997.356C360.248 1012.53 345.54 1029.87 329.238 1045.71C327.197 1047.69 324.964 1049.71 323.107 1051.85L322.454 1051.07C326.126 1047.32 329.124 1043.97 332.555 1040.03C297.418 1053.13 266.52 1058.73 239.405 1087.06C264.645 1091.97 281.593 1100.48 298.777 1119C309.142 1130.16 324.18 1140.63 337.367 1148.2C348.066 1153.88 367.461 1156.04 380.097 1158.89C396.863 1162.68 413.772 1166.69 430.633 1170.07C431.739 1170.7 432.318 1171 433.312 1171.78C432.741 1172.26 432.686 1172.39 432.026 1172.71C419.484 1170.27 400.341 1164.65 388.592 1163.62C375.818 1170.91 361.908 1186.68 348.117 1192.86C337.962 1197.41 323.798 1197.28 312.494 1198.27C298.185 1199.55 283.898 1201.06 269.639 1202.81C258.999 1204.07 247.627 1205.28 237.265 1208.13C230.107 1210.1 230.058 1212.61 225.435 1216.42C213.893 1225.92 209.132 1231.38 202.937 1245.09C199.87 1251.88 195.398 1255.3 188.254 1257.53C183.713 1256.58 177.539 1255.25 175.017 1251.01C168.786 1239.49 176.386 1220.41 182.051 1210.12C188.016 1199.29 190.917 1197.94 191.027 1185.78C191.075 1180.46 198.297 1173.03 203.232 1169.98C215.655 1173.02 215.821 1169.84 230.005 1177.24C248.584 1175.35 266.508 1161.89 283.631 1155.4C295.075 1151.06 308.072 1153.18 319.176 1150.65C321.991 1147.89 322.783 1146.72 325.039 1143.53C320.745 1140.14 313.617 1135.4 308.847 1132.62L308.33 1132.59C279.387 1133.41 247.725 1115.6 236.505 1088.37C259 1060.74 286.157 1053.87 318.382 1042.59C322.312 1041.22 332.172 1038.27 334.777 1035.82C345.603 1025.63 355.279 1014.37 366.132 1004.01C374.905 995.641 386.033 986.816 394.161 978.209C398.441 973.68 408.431 958.465 411.88 952.886C407.139 950.869 403.516 949.082 399.443 945.887C385.843 951.819 368.787 965.229 356.338 974.177C343.081 983.516 326.701 991.262 314.634 1001.94C311.221 1004.96 306.523 1034.91 298.403 1033.28C296.041 1030.68 296.989 1023.48 296.338 1019.09C288.342 1016.76 270.888 1038.16 264.028 1032.54C264.216 1027.56 272.992 1023.28 274.31 1017.5L273.819 1016.82C268.003 1016.01 262.79 1025.82 257.996 1028.27C255.433 1029.58 251.993 1029.52 251.16 1026.35C252.618 1023.37 258.415 1015.37 261.094 1012.88C261.892 1012.15 268.436 1009.44 269.886 1008.9C267.687 1012.51 253.83 1022.19 254.258 1026.98C260.373 1026.71 265.12 1017.59 270.108 1015.58C273.046 1014.4 277.443 1014.29 280.652 1014.1C274.532 1023.98 271.57 1024.45 265.438 1032.48C274.156 1029.45 278.325 1025.08 285.995 1020.54C305.511 1009.01 296.367 1025.61 299.114 1030.41L299.875 1030.5C307.311 1023.67 307.55 1003.38 316.731 996.982C332.779 986.096 348.959 976.902 364.416 965.095C375.536 956.594 397.145 942.849 410.245 938.811C406.301 931.734 402.03 924.892 398.579 917.547C396.477 913.073 394.298 909.672 391.298 905.773C371.192 919.871 351.263 932.494 333.642 949.724C320.94 962.14 310.506 975.277 296.644 986.498C288.781 992.86 258.342 999.512 254.436 1004.76C254.185 1006.78 253.931 1005.95 254.862 1007.43C257.866 1006.77 261.614 1003.14 266.632 1002.79L267.17 1003.42C265.951 1006.84 254.141 1012.79 251.271 1005.68C252.029 1001.91 256.704 1000.17 260.064 998.97C278.327 992.463 291.875 990.799 305.467 976.009C319.876 960.331 334.625 944.67 351.065 931.198C355.786 927.327 361.519 924.183 366.471 920.139C365.219 919.016 363.198 918.731 361.311 917.642L358.059 915.313C345.986 911.281 349.734 905.416 352.536 895.094C354.607 889.61 356.977 888.61 358.764 884.27C352.332 885.538 349.538 888.37 345.806 893.765C342.014 899.244 340.652 904.936 341.987 911.487C342.809 915.531 344.036 915.944 345.193 918.938C342.091 919.044 338.822 909.125 337.717 906.36C335.305 906.142 335.131 905.88 333.023 904.506L332.44 903.936C325.349 897.066 330.446 890.084 328.046 881.997C322.11 884.616 318.26 886.024 311.952 887.655C311.925 892.436 311.85 896.301 313.516 900.87L312.692 901.987C310.194 896.183 310.079 892.877 309.518 886.56C306.211 886.057 292.836 884.371 293.784 879.919C294.827 879.953 303.974 882.31 307.891 882.762C308.713 880.182 310.461 878.221 310.425 876.585C303.44 877.679 292.16 872.887 286.633 868.519C283.844 866.319 276.134 860.169 275.578 856.477C277.286 857.204 282.068 861.605 284.368 863.297C285.447 862.621 285.533 862.035 286.217 860.8L286.548 860.778C287.596 859.762 287.264 859.253 287.441 857.332C287.183 854.713 288.083 854.232 289.753 852.333L288.826 852.115C287.827 852.691 288.366 852.54 287.207 852.562L286.809 850.797L286.138 850.607C285.719 843.413 290.536 839.621 295.512 835.304C296.045 833.907 296.501 833.594 297.513 832.494C299.004 832.053 298.705 832.394 299.631 831.433C298.43 830.355 298.229 830.294 296.65 829.958L296.223 829.014C301.735 829.439 302.494 827.618 307.228 827.333C307.928 826.97 308.608 826.132 309.187 825.54C316.018 823.865 332.935 817.118 340.158 814.437C326.797 814.247 308.969 813.923 295.728 812.097C313.603 809.583 327.641 815.409 345.121 807.986C359.181 802.021 374.279 787.203 380.046 773.126C380.528 771.901 380.344 771.462 380.304 770.073C398.538 740.73 418.395 716.161 453.308 707.816C455.768 707.228 458.271 706.527 460.736 705.91C459.001 703.802 456.331 704.332 453.678 704.263C452.273 704.358 450.825 704.493 449.417 704.608L449.633 703.986C455.723 701.132 471.593 702.115 478.292 702.717C482.432 703.855 485.073 705.015 488.671 707.471C489.831 706.965 495.704 704.485 496.468 703.998C503.188 699.281 513.523 700.329 521.198 702.303C526.321 703.901 529.231 705.451 532.248 710.192C533.354 711.922 533.293 711.906 533.751 713.796C537.757 717.046 547.975 727.985 546.388 733.165L545.489 733.624C544.516 732.458 544.639 732.14 544.187 730.741C541.589 722.708 536.835 715.003 527.801 714.057L526.505 714.565C530.628 717.296 540.924 724.692 538.98 730.302L536.801 730.914C536.706 732.578 539.824 737.425 540.902 739.486C545.656 746.309 549.31 756.045 553.869 761.136C558.019 762.234 564.522 760.891 567.332 764.005C568.796 766.24 568.684 769.455 569.517 772.024C570.841 776.121 573.193 780.037 574.444 784.058C579.025 798.843 578.578 809.215 572.277 822.904C581.768 817.162 597.512 804.059 605.014 795.765C611.573 788.515 617.333 780.567 624.361 773.733C635.926 762.477 668.568 737.431 672.032 723.224C673.887 715.633 677.356 698.471 681.96 692.727C685.686 695.692 685.842 696.17 688.77 699.815L687.658 706.441C689.926 712.415 693.027 721.831 690.608 728.181L689.63 729.046L688.602 728.966C688.932 724.281 690.58 721.901 689.613 716.476C688.781 711.79 685.088 709.997 683.837 706.749C683.569 706.046 688.418 696.058 681.379 696.852C678.909 699.146 674.999 724.686 671.742 729.957C669.546 733.512 666.356 736.552 663.518 739.604C652.01 751.987 638.942 762.438 626.836 774.178C620.138 780.679 614.417 788.337 608.176 795.29C601.556 802.663 584.685 818.285 576.159 823.111C586.785 833.589 589.819 846.307 592.601 860.633C611.624 842.726 630.188 821.385 648.021 802.121C662.138 785.7 671.92 766.078 684.356 748.547C688.524 742.673 700.781 736.6 703.429 730.531C707.295 721.683 722.295 721.991 722.513 716.703C718.468 715.787 710.686 720.434 707.016 717.411C706.468 711.916 718.631 706.649 722.128 701.698L722.022 700.833C717.72 699.568 706.72 707.142 703.468 710.417L702.653 710.267C702.1 709.076 701.127 707.707 701.809 706.678C707.831 697.585 712.072 696.523 715.217 685.323C707.737 691.817 701.15 700.021 693.658 706.186L693.77 705.299C694.546 699.352 699.982 685.818 698.368 682.517L697.977 682.588L698.753 683.389L698.552 682.678C694.233 684.883 690.904 694.607 689.261 699.038Z" fill="black"/>
<path d="M500.147 715.887C505.05 717.191 509.873 718.844 514.695 720.43C524.819 724.975 533.842 731.488 540.054 740.781L540.898 739.482C545.652 746.306 549.306 756.041 553.864 761.132L552.931 762.082L556.032 764.31C557.714 771.471 560.295 771.497 567.099 771.606C568.585 775.766 571.446 779.86 572.736 783.619C575.988 793.12 577.284 806.474 573.256 815.891C569.362 824.537 558.635 832.452 550.434 836.596C541.11 841.31 535.691 844.114 532.21 854.681C530.914 858.608 529.836 861.244 530.154 865.673C530.847 866.941 531.97 867.198 533.35 867.812C534.082 868.963 534.451 869.276 534.082 870.812C531.523 881.396 518.294 878.173 510.92 875.693C500.592 872.219 492 865.327 483.686 858.563C496.385 851.096 496.604 843.081 495.639 829.469C498.227 828.196 498.919 827.928 501.122 826.157L500.124 825.755L500.601 826.503L501.736 825.308C499.573 825.297 496.364 827.637 494.49 828.838C478.849 829.145 469.972 825.258 469.918 808.256C472.5 806.335 480.58 799.649 483.405 802.57C482.79 806.826 472.641 811.451 473.563 814.216C476.759 813.964 477.936 810.423 481.501 810.071L482.127 810.976C481.035 815.316 475.671 817.003 476.974 820.834C480.265 820.678 482.416 815.981 484.372 813.339C486.24 815.093 489.941 819.103 492.255 819.148L493.352 818.142L492.313 817.422C489.071 815.981 486.058 811.92 483.657 809.111L487.918 803.659C487.915 798.175 488.697 783.033 494.455 780.475C495.11 779.302 495.067 779.252 495.362 777.922L496.413 774.108C498.321 764.72 501.856 761.198 503.375 748.6C504.65 746.138 503.828 743.664 506.091 742.192C506.006 740.362 505.28 739.165 505.24 736.415C506.527 734.825 506.411 734.791 506.692 732.842C504.654 724.684 504.597 723.047 500.147 715.887Z" fill="white"/>
<path d="M506.697 732.848C508.237 738.816 508.684 746.758 509.92 753.182C508.239 759.487 506.516 764.574 502.521 769.889C501.016 773.215 499.078 772.455 496.418 774.114C498.326 764.726 501.862 761.204 503.381 748.607C504.656 746.144 503.833 743.67 506.096 742.199C506.011 740.368 505.285 739.171 505.245 736.421C506.532 734.832 506.416 734.797 506.697 732.848Z" fill="#E1E0E1"/>
<path d="M506.699 732.848C508.24 738.816 508.687 746.758 509.922 753.182C508.242 759.487 506.519 764.574 502.523 769.889C502.678 768.851 504.46 764.602 504.891 763.536C508.848 753.762 508.434 751.9 506.098 742.199C506.014 740.368 505.288 739.171 505.248 736.421C506.535 734.832 506.418 734.797 506.699 732.848Z" fill="#3D3D40"/>
<path d="M500.148 715.887C505.052 717.191 509.875 718.844 514.697 720.43C512.707 721.754 512.56 721.945 510.97 723.774C510.77 726.812 511.464 732.726 511.613 736.254C511.774 740.044 511.154 747.23 511.599 750.177C511.228 752.291 511.59 751.261 509.916 753.176C508.68 746.752 508.233 738.81 506.693 732.842C504.655 724.684 504.598 723.047 500.148 715.887Z" fill="#E1E0E1"/>
<path d="M487.922 803.667C487.919 798.182 488.701 783.04 494.458 780.482C495.114 779.309 495.071 779.259 495.366 777.93C495.91 780.795 496.436 783.448 496.768 786.358C496.626 787.732 495.775 794.903 495.871 795.713C493.788 800.265 492.49 801.561 487.922 803.667Z" fill="#212123"/>
<path d="M495.871 795.711C497.927 799.749 495.103 813.344 492.316 817.427C489.075 815.986 486.061 811.925 483.66 809.116L487.922 803.664C492.489 801.559 493.788 800.263 495.871 795.711Z" fill="#E1E0E1"/>
<path d="M496.765 786.355C498.443 794.275 499.624 811.97 493.352 818.147L492.312 817.427C495.1 813.344 497.924 799.749 495.867 795.711C495.771 794.901 496.623 787.729 496.765 786.355Z" fill="#59585A"/>
<path d="M540.906 739.488C545.66 746.312 549.314 756.047 553.873 761.138L552.94 762.088C548.359 757.055 544.297 747.342 540.062 740.787L540.906 739.488Z" fill="#181719"/>
<path d="M510.973 723.781C514.039 731.205 513.474 742.489 511.602 750.184C511.157 747.237 511.777 740.051 511.616 736.261C511.467 732.733 510.773 726.819 510.973 723.781Z" fill="#8A8A8B"/>
<path d="M526.13 779.981C533.387 772.63 532.633 775.016 541.18 776.987C542.923 777.39 543.298 778.339 544.141 779.545C547.091 781.584 549.426 782.562 550.046 786.382C552.03 798.569 530.996 810.455 521.778 802.747C514.424 796.609 520.845 784.902 526.13 779.981Z" fill="#FBC0BE"/>
<path d="M526.133 779.981C533.39 772.63 532.636 775.016 541.183 776.987C542.926 777.39 543.301 778.339 544.144 779.545C542.239 778.585 541.284 777.808 539.222 778.183C537.502 779.428 536.401 780.478 534.334 780.897L531.747 778.881C530.01 779.227 527.854 779.73 526.133 779.981Z" fill="#FAE6E5"/>
<path d="M535.731 758.789C537.564 760.13 542.161 768.632 541.323 771.045L540.089 770.981C536.949 768.823 535.334 768 531.742 766.908C533.144 763.43 533.86 762.023 535.731 758.789Z" fill="black"/>
<path d="M571.073 788.016C571.43 788.395 571.223 788.111 571.374 789.021C569.637 791.83 566.821 796.751 564.676 798.952C564.106 797.952 563.441 797.276 563.592 796.304C564.005 793.517 568.832 789.948 571.073 788.016Z" fill="black"/>
<path d="M527.445 743.32L527.942 743.993C527.641 746.922 523.132 751.315 521.093 753.545C520.814 753.27 520.725 752.855 520.562 752.499C522.222 748.578 524.456 746.209 527.445 743.32Z" fill="black"/>
<path d="M238.738 1088.82C251.002 1091.68 272.718 1097.52 281.712 1106.11C287.485 1111.62 304.894 1126.79 308.844 1132.62L308.327 1132.6C304.262 1130.13 296.849 1130.89 291.996 1129.75C269.106 1124.56 249.64 1109.61 238.738 1088.82Z" fill="#E1E0E1"/>
<path d="M295.204 846.037C297.433 844.038 300.052 841.547 302.672 840.189C310.928 835.894 328.44 834.252 337.651 834.286C332.795 837.436 327.65 840.2 322.506 843.557C309.523 852.203 307.839 857.253 306.689 872.5L306.747 872.785C294.842 871.964 293.095 871.573 284.367 863.301C285.446 862.626 285.531 862.039 286.216 860.805L286.547 860.782C287.595 859.766 287.263 859.258 287.44 857.336C287.182 854.717 288.082 854.236 289.752 852.337C291.593 850.26 293.41 848.16 295.204 846.037Z" fill="white"/>
<path d="M287.44 857.336C288.157 861.067 288.438 862.156 292.108 863.703C295.603 864.904 301.548 866.853 304.677 868.797C305.303 870.249 305.617 871.523 306.689 872.5L306.747 872.785C294.842 871.964 293.095 871.573 284.367 863.301C285.446 862.625 285.531 862.039 286.216 860.804L286.547 860.782C287.595 859.766 287.263 859.257 287.44 857.336Z" fill="#BFC0BF"/>
<path d="M292.105 863.703C295.6 864.904 301.546 866.853 304.674 868.797C297.632 869.618 297.15 867.607 291.973 864.647L291.543 864.401L292.105 863.703Z" fill="#E1E0E1"/>
<path d="M365.852 883.551C369.523 882.982 373.321 881.859 376.693 881.691C376.403 883.898 376.114 883.06 376.859 884.752C377.787 884.573 377.773 884.506 378.701 884.786C373.132 891.84 365.779 899.933 361.008 907.551C358.946 910.847 362.997 914.164 365.413 916.214L365.096 917.046C363.296 917.538 363.179 917.549 361.311 917.644L358.059 915.315C345.986 911.282 349.734 905.418 352.536 895.096C354.607 889.611 356.977 888.612 358.765 884.272C358.827 886.551 358.472 886.126 359.583 887.673C362.313 887.858 364.012 885.445 365.852 883.551Z" fill="#1C1C1D"/>
<path d="M358.059 915.309C345.986 911.276 349.734 905.412 352.536 895.09C355.026 897.514 355.165 900.653 354.806 904.01C355.675 906.92 356.58 909.818 357.519 912.7C357.694 913.482 357.974 914.543 358.059 915.309Z" fill="#3D3D40"/>
<path d="M357.517 912.703C353.793 912.552 349.035 910.368 351.049 905.883C352.795 904.526 352.686 904.531 354.805 904.012C355.674 906.922 356.578 909.82 357.517 912.703Z" fill="#E1E0E1"/>
<path d="M378.701 884.78C380.88 882.551 382.155 881.183 384.701 879.301C384.136 880.641 384.064 880.798 383.247 881.993L383.279 882.507C378.984 888.137 365.521 903.267 365.584 909.232L366.265 910.07C368.977 908.97 370.812 904.301 374.725 901.1C373.463 905.25 372.832 906.92 370.972 910.835C374.006 909.445 376.683 907.903 379.957 907.629L380.971 908.127C380.545 911.076 369.429 918.096 366.471 920.135C365.22 919.012 363.198 918.728 361.311 917.638C363.179 917.543 363.296 917.532 365.096 917.041L365.414 916.209C362.997 914.159 358.946 910.841 361.008 907.546C365.779 899.927 373.132 891.834 378.701 884.78Z" fill="#E1E0E1"/>
<path d="M338.551 877.082C339.244 877.317 340.77 877.763 341.302 878.121C336.581 889.219 333.239 894.397 337.717 906.36C335.306 906.142 335.132 905.88 333.023 904.506L332.441 903.936C325.35 897.066 330.447 890.085 328.047 881.997L330.194 881.042C333.848 879.774 335.341 879.244 338.551 877.082Z" fill="#E1E0E1"/>
<path d="M328.047 881.998L330.194 881.043C330.299 886.545 330.29 892.644 330.844 898.129C331.125 900.916 333.738 902.195 333.023 904.507L332.441 903.937C325.35 897.067 330.447 890.086 328.047 881.998Z" fill="#757576"/>
<path d="M496.469 703.999C503.188 699.282 513.524 700.33 521.198 702.305C526.321 703.903 529.232 705.452 532.249 710.193C533.355 711.923 533.293 711.907 533.751 713.797C531.193 712.81 530.779 712.582 528.114 712.289C523.031 710.772 519.193 707.513 513.651 706.021C508.655 704.677 500.058 706.821 496.469 703.999Z" fill="#E1E0E1"/>
<path d="M521.198 702.305C526.321 703.903 529.232 705.453 532.249 710.193C531.132 709.933 522.489 704.579 520.941 703.622L521.198 702.305Z" fill="#BFC0BF"/>
<path d="M286.805 850.793C288.825 841.695 297.242 836.975 305.064 833.289C301.214 837.054 298.073 840.159 294.505 844.236L295.201 846.029C293.408 848.152 291.59 850.252 289.749 852.329L288.822 852.112C287.823 852.687 288.362 852.536 287.203 852.558L286.805 850.793Z" fill="#E1E0E1"/>
<path d="M294.507 844.238L295.203 846.031C293.41 848.154 291.592 850.254 289.752 852.331L288.824 852.114C290.657 849.427 292.58 846.852 294.507 844.238Z" fill="#181719"/>
<path d="M492.457 714.934C500.539 720.943 502.32 727.057 505.245 736.419C505.285 739.169 506.011 740.366 506.096 742.197C503.833 743.668 504.656 746.142 503.381 748.605C503.331 733.948 500.609 726.881 492.457 714.934Z" fill="#8A8A8B"/>
<path d="M556.035 764.311C559.393 764.23 562.717 763.691 565.493 765.305C566.974 766.961 567.007 769.367 567.102 771.607C560.298 771.498 557.717 771.472 556.035 764.311Z" fill="#FBC0BE"/>
<path d="M526.505 714.571C523.891 715.02 518.924 713.228 516.895 711.613L517.25 710.909C522.41 710.259 522.259 715.028 528.114 712.293C530.779 712.587 531.192 712.815 533.751 713.802C537.757 717.052 547.975 727.991 546.388 733.171L545.489 733.63C544.517 732.464 544.64 732.146 544.187 730.747C541.589 722.714 536.835 715.009 527.801 714.063L526.505 714.571Z" fill="#59585A"/>
<path d="M453.68 704.264C458.236 703.299 472.868 703.765 477.448 704.762C479.646 706.052 481.543 707.06 483.518 708.687C473.965 705.394 470.725 704.939 460.737 705.911C459.003 703.803 456.332 704.332 453.68 704.264Z" fill="#BFC0BF"/>
<path d="M383.794 896.441L384.654 896.676C385.105 900.401 386.824 901.535 389.436 904.261L383.427 907.165C383.421 903.702 383.27 899.832 383.794 896.441Z" fill="#E1E0E1"/>
<path d="M296.222 829.013C301.735 829.438 302.493 827.617 307.228 827.332C303.257 830.985 300.061 832.487 295.512 835.302C296.044 833.906 296.501 833.593 297.513 832.493C299.003 832.052 298.705 832.392 299.63 831.432C298.43 830.354 298.229 830.292 296.649 829.957L296.222 829.013Z" fill="#E1E0E1"/>
<path d="M338.551 877.086C341.431 874.74 344.25 872.244 347.491 870.445C345.451 872.987 343.381 875.628 341.302 878.125C340.77 877.768 339.244 877.321 338.551 877.086Z" fill="#BFC0BF"/>
<path d="M384.696 879.306C386.336 877.127 388.692 876.066 391.056 874.586C389.748 876.105 384.927 881.707 383.273 882.511L383.242 881.998C384.059 880.802 384.131 880.646 384.696 879.306Z" fill="#9E9E9F"/>
<path d="M326.586 1144.92C331.552 1148.38 335.261 1149.95 340.903 1152.07C349.157 1154.65 357.659 1156.91 366.121 1158.7C372.602 1160.06 379.533 1160.8 385.866 1162.6C381.75 1165.46 377.702 1168.42 373.728 1171.48C366.543 1177.47 358.154 1185.32 349.919 1189.36C339.38 1194.54 330.127 1193.57 319.059 1194.78C306.299 1196.4 293.444 1197.51 280.691 1199.15C261.436 1201.62 243.145 1202.32 225.613 1211.26C221.064 1208.02 217.21 1204.76 214.191 1200.05C215.5 1193.58 219.599 1183.3 226.141 1180.19C229.339 1178.67 235.732 1178.55 239.32 1177.48C242.39 1176.56 245.323 1175.44 248.278 1174.18C261.689 1168.96 274.979 1159.85 288.719 1156.14C296.545 1154.04 307.426 1154.82 315.54 1153.53C321.34 1152.6 323.484 1149.4 326.586 1144.92Z" fill="white"/>
<path d="M340.896 1152.07C349.151 1154.65 357.653 1156.92 366.115 1158.7C372.596 1160.07 379.526 1160.8 385.86 1162.6C381.744 1165.46 377.696 1168.42 373.721 1171.48C372.775 1166.7 368.1 1167.07 364.286 1165.74L363.382 1165.42C356.334 1163.74 351.897 1161.59 345.37 1158.6C343.725 1158.08 341.067 1156.72 339.971 1155.28C339.555 1153.22 339.463 1154.28 340.896 1152.07Z" fill="#E1E0E1"/>
<path d="M345.375 1158.6C348.851 1157.76 358.899 1162.77 363.175 1163.62L363.852 1164.46L363.387 1165.42C356.339 1163.74 351.902 1161.59 345.375 1158.6Z" fill="#BFC0BF"/>
<path d="M608.809 1113.82C616.261 1119.73 618.485 1126.91 624.457 1133.75C638.39 1149.71 654.664 1164.84 669.815 1179.28C692.726 1201.12 699.883 1179.85 714.386 1179.2C722.944 1187.78 697.503 1203.99 692.363 1207.73C686.251 1212.18 682.519 1215.76 675.195 1218.22C658.592 1201.55 632.351 1193.63 612.77 1180.55C600.926 1172.64 596.189 1162.68 586.289 1153.75C583.099 1150.87 571.49 1146.18 566.993 1144.33C562.696 1142.19 559.708 1140.72 555.238 1139.08C566.417 1133.09 577.568 1125.94 588.954 1120.71C596.697 1117.32 600.446 1115.62 608.809 1113.82Z" fill="white"/>
<path d="M588.954 1120.7C589.367 1122.01 589.853 1122.73 590.596 1123.87C589.205 1130.71 570.803 1139.44 566.993 1144.32C562.696 1142.18 559.708 1140.72 555.238 1139.07C566.417 1133.08 577.568 1125.93 588.954 1120.7Z" fill="#E1E0E1"/>
<path d="M464.637 739.178C467.264 735.643 468.525 734.391 471.722 731.305C467.928 742.266 458.86 753.023 452.726 762.909C444.829 775.639 437.494 787.709 425.609 797.259C428.887 791.981 433.557 787.653 437.335 782.799C441.49 777.46 445.569 769.717 448.38 763.468C448.614 759.123 449.485 762.477 449.454 759.188C447.154 760.444 442.941 762.498 440.377 762.648C436.67 756.699 450.054 746.177 454.567 743.434C457.589 739.455 459.718 738.852 464.637 739.178Z" fill="#BFC0BF"/>
<path d="M454.566 743.434C452.557 746.807 449.206 751.099 449.971 754.661L450.742 755.456L453.666 755.257C452.114 757.771 450.15 761.198 448.378 763.467C448.612 759.122 449.483 762.477 449.452 759.187C447.153 760.444 442.94 762.497 440.375 762.647C436.669 756.699 450.052 746.176 454.566 743.434Z" fill="#181719"/>
<path d="M454.566 743.433C457.587 739.454 459.716 738.851 464.636 739.177C462.239 742.728 456.129 752.323 453.666 755.257L450.742 755.456L449.971 754.661C449.205 751.099 452.557 746.806 454.566 743.433Z" fill="#59585A"/>
<path d="M205.012 1206.7C209.651 1211.07 213.076 1215.03 218.14 1219.35C214.05 1223.64 211.388 1226.66 207.928 1231.44L205.433 1234.14C204.585 1234.38 204.204 1234.72 203.421 1234.3C193.378 1229.02 201.824 1213.92 205.012 1206.7Z" fill="white"/>
<path d="M468.37 721.078L468.519 721.582C466.465 726.534 452.255 736.974 448.328 741.928C445.549 745.82 440.428 751.493 438.672 755.918C434.759 765.778 432.505 769.195 424.908 776.539C427.584 772.076 437.006 759.94 435.722 755.008L434.772 754.705C432.816 755.197 431.615 756.869 430.189 758.389C424.341 766.394 421.483 771.164 413.18 776.651C415.59 772.522 426.233 757.942 429.909 756.077C440.974 750.461 441.826 744.769 450.018 736.341C454.362 731.873 462.929 724.762 468.37 721.078Z" fill="#BFC0BF"/>
<path d="M400.884 819.188L401.73 819.573L401.839 820.383C395.36 825.789 388.624 830.699 381.058 834.53C371.408 839.418 359.485 842.473 351.853 850.449C349.502 852.906 347.382 854.045 344.507 855.704C343.712 855.514 344.126 855.715 343.402 854.878C344.117 853.37 356.468 843.188 358.632 841.551C362.729 838.44 371.642 837.072 376.446 834.692C385.195 830.353 392.905 824.706 400.884 819.188Z" fill="#BFC0BF"/>
<path d="M448.255 719.43L449.203 719.594C445.172 722.272 441.257 724.381 437.039 727.351C429.102 732.938 422.201 735.983 415.5 743.391C409.267 750.285 404.805 757.617 399.016 764.628L398.972 764.665L398.766 764.375C410.331 743.053 424.451 726.793 448.255 719.43Z" fill="#BFC0BF"/>
<path d="M449.037 724.895L449.579 725.621C438.786 735.66 430.633 747.119 418.585 756.002C415.091 758.578 410.821 766.893 408.733 770.865C405.088 764.742 424.028 748.512 427.459 744.864C434.994 736.851 439.388 730.547 449.037 724.895Z" fill="#9E9E9F"/>
<path d="M476.987 734.484C476.46 736.61 476.173 738.2 474.31 739.583C472.562 741.778 469.385 749.034 468.07 751.974C463.625 761.911 457.195 769.297 449.221 776.655L448.535 776.549C449.559 773.382 456.09 766.735 458.392 763.286C463.631 755.433 469.07 739.203 476.987 734.484Z" fill="#9E9E9F"/>
<path d="M333.469 859.449L335.343 859.544L335.859 860.209C335.222 863.61 320.848 879.154 318.242 880.975C316.896 881.282 317.533 881.321 316.329 880.953C316.313 880.539 316.254 879.964 316.454 879.629C321.592 871.061 324.715 864.063 333.469 859.449Z" fill="#E1E0E1"/>
<path d="M439.405 830.41L440.024 830.65L440.167 831.522C431.607 841.642 408.513 853.377 395.8 858.091L394.82 857.706C396.279 855.432 412.571 848.116 416.417 845.949C424.477 841.38 432.163 836.185 439.405 830.41Z" fill="#BFC0BF"/>
<path d="M489.754 729.105C491.696 729.98 491.059 729.297 491.894 731.058C491.715 733.411 491.423 748.181 491.369 748.301C486.885 758.249 483.181 769.497 477.244 778.624L476.922 778.814L476.703 778.021C479.25 768.798 486.16 757.695 488.993 748.091C490.603 742.628 487.32 733.11 489.754 729.105Z" fill="#8A8A8B"/>
<path d="M553.881 1140.59C557.261 1141.72 560.719 1143.4 563.982 1144.87C558.714 1147.1 552.272 1148.2 546.613 1149.28C543.027 1149.78 539.44 1150.26 535.848 1150.71C541.892 1147.4 547.904 1144.03 553.881 1140.59Z" fill="#E1E0E1"/>
<path d="M436.661 730.516L437.393 731.348C434.931 735.503 414.772 753.279 409.747 757.888L409.375 757.294C412.115 751.406 430.599 733.884 436.661 730.516Z" fill="#9E9E9F"/>
<path d="M309.556 872.945C306.141 864.165 315.005 844.839 324.488 845.716C320.61 849.827 314.816 855.58 312.829 860.881C311.578 864.215 311.576 869.979 309.556 872.945Z" fill="#E1E0E1"/>
<path d="M326.129 828.526C334.21 824.544 341.951 818.752 350.349 815.055L350.897 816.63C343.22 822.93 339.659 825.829 330.013 829.012L326.129 828.526Z" fill="#E1E0E1"/>
<path d="M375.916 806.543L375.849 807.504C369.723 816.356 356.223 820.981 346.328 824.198L346.399 823.215C355.131 816.904 364.7 815.228 375.916 806.543Z" fill="#E1E0E1"/>
<path d="M739.35 1168.83C741.104 1170.75 740.534 1177.87 739.858 1180.33C736.696 1191.77 729.539 1201.2 721.243 1209.26L720.902 1209.35C721.897 1207.39 725.813 1203.62 727.199 1201.29C733.819 1190.12 738.908 1181.76 739.35 1168.83Z" fill="#BFC0BF"/>
<path d="M440.218 824.898L440.966 825.759L440.484 826.719C429.571 831.009 423.088 839.42 408.159 845.112L407.863 844.911L408.052 844.285C413.635 840.236 416.821 839.074 422.044 835.751C429.693 830.886 431.528 828.607 440.218 824.898Z" fill="#BFC0BF"/>
<path d="M476.978 734.484C477.268 736.252 477.417 736.635 478.062 738.297C480.78 745.307 478.802 750.627 474.057 755.656L473.031 755.849C472.269 752.913 478.073 745.891 474.3 739.583C476.163 738.2 476.45 736.61 476.978 734.484Z" fill="#181719"/>
<path d="M437.881 773.008C437.691 774.469 415.647 801.944 413.128 804.39C412.18 800.882 433.544 776.078 437.881 773.008Z" fill="#757576"/>
<path d="M474.213 765.004C475.274 765.885 474.824 765.361 475.289 766.815C474.472 771.932 466.647 785.164 462.592 789.119L461.863 788.901C466.08 781.165 470.036 772.888 474.213 765.004Z" fill="#9E9E9F"/>
<path d="M444.168 736.68C442.697 744.824 427.726 754.171 421.738 758.722L421.73 757.427C424.193 754.284 430.223 750.05 433.471 747.053C437.203 743.612 440.543 740.207 444.168 736.68Z" fill="#8A8A8B"/>
<path d="M357.028 855.77L358.004 856.283L358.063 857.579C357.205 859.031 351.976 860.651 349.799 861.802C346.431 863.583 344.94 864.572 341.861 866.817C340.896 866.303 341.305 866.706 340.852 865.427C343.256 860.517 351.971 856.948 357.028 855.77Z" fill="#E1E0E1"/>
<path d="M423.977 812.008L424.802 812.483L424.558 813.304C418.808 818.626 411.261 826.122 404.138 828.887C403.604 828.719 403.936 828.859 403.23 828.3C409.517 823.569 417.783 815.08 423.977 812.008Z" fill="#E1E0E1"/>
<path d="M430.137 852.164L431.024 853.069C427.427 857.828 412.234 866.133 406.383 867.418L405.418 866.675C406.717 865.033 411.981 864.29 414.228 862.949C420.57 859.168 423.091 855.135 430.137 852.164Z" fill="#BFC0BF"/>
<path d="M439.445 803.436C446.784 795.852 448.154 789.847 457.452 782.715C451.994 791.819 448.443 797.203 440.459 804.364L439.445 803.436Z" fill="#E1E0E1"/>
<path d="M396.045 757.223C396.094 762.399 386.598 777.768 383.323 782.41C382.281 779.265 393.308 760.015 396.045 757.223Z" fill="#BFC0BF"/>
<path d="M332.004 851.629L333.061 852.277C332.605 854.053 325.154 859.906 323.433 862.336C321.895 864.503 320.495 866.547 319.037 868.865L318.126 868.77C318.113 868.374 318.067 867.877 318.222 867.536C321.851 859.571 324.281 855.209 332.004 851.629Z" fill="#E1E0E1"/>
<path d="M401.016 796.357C404.906 789.755 410.163 781.294 415.837 776.133C410.743 789.186 408.245 787.851 402.006 797.055L401.016 796.357Z" fill="#E1E0E1"/>
<path d="M407.898 943.452C414.3 942.67 413.973 948.356 411.323 949.942L409.477 949.267C406.38 948.049 403.832 946.748 400.863 945.256C403.198 944.553 405.529 944.022 407.898 943.452Z" fill="#E1E0E1"/>
<path d="M393.404 843.504L393.684 843.744L393.585 844.554C391.182 846.397 376.997 853.144 373.56 854.842C372.989 854.166 373.193 854.602 373.229 853.44C376.059 849.603 388.616 845.319 393.404 843.504Z" fill="#BFC0BF"/>
<path d="M346.687 836.031L347.485 836.417L347.104 837.383C342.283 841.466 333.825 844.906 327.8 846.655C327.555 846.498 327.309 846.342 327.062 846.185C328.302 844.661 343.828 837.428 346.687 836.031Z" fill="#BFC0BF"/>
<path d="M178.568 1228.59C179.123 1231.39 178.199 1245.24 178.059 1248.83C178.028 1249.61 177.814 1249.45 176.904 1250.18C174.23 1244.15 176.102 1234.57 178.568 1228.59Z" fill="#8A8A8B"/>
<path d="M498.286 744.484L498.699 745.579C498.603 746.537 492.489 762.526 491.938 763.461C488.616 758.594 495.402 748.838 498.286 744.484Z" fill="#59585A"/>
<path d="M363.964 867.887L364.572 868.177C363.863 871.422 355.396 878.231 352.428 880.046L351.727 879.7C352.251 877.03 361.397 869.534 363.964 867.887Z" fill="#E1E0E1"/>
<path d="M466.422 846.684L466.8 847.41C462.803 852.163 455.668 855.57 450.031 857.916C449.812 857.726 449.967 857.905 449.547 857.033C451.153 855.391 462.669 849.314 466.422 846.684Z" fill="#BFC0BF"/>
<path d="M404.793 798.836L404.616 801.293C400.279 806.812 398.251 809.565 392.727 813.827C397.003 807.354 398.894 803.963 404.793 798.836Z" fill="#E1E0E1"/>
<path d="M709.971 1222.62C709.893 1226.54 699.831 1234.81 696.697 1237.14L696.574 1236.16C698.792 1232.95 706.954 1225.34 709.971 1222.62Z" fill="#9E9E9F"/>
<path d="M470.216 757.027L470.857 757.388C472.739 759.881 471.549 764.564 469.396 766.585C465.869 763.868 467.983 759.78 470.216 757.027Z" fill="#3D3D40"/>
<path d="M461.385 808.609C461.094 813.396 454.443 822.355 451.351 826.091C450.624 823.584 459.419 811.441 461.385 808.609Z" fill="#757576"/>
<path d="M417.382 730.535L417.696 730.86C417.238 732.307 409.148 740.509 406.849 744.054L406.398 743.926C406.794 739.297 413.507 733.054 417.382 730.535Z" fill="#BFC0BF"/>
<path d="M450.929 832.766L451.125 833.24C450.096 836.636 441.489 841.998 438.42 844.02L438.023 843.629C438.277 841.819 448.784 834.397 450.929 832.766Z" fill="#8A8A8B"/>
<path d="M349.427 845.105L350.143 845.402L349.727 846.256C345.89 848.54 341.303 849.546 336.946 850.294L336.41 850.093L336.395 849.568C340.04 847.44 345.31 846.055 349.427 845.105Z" fill="#8A8A8B"/>
<path d="M382.327 868.41L382.947 868.689C381.857 871.985 372.929 877.626 369.755 879.38L369.195 879.352C371.798 876.263 379.042 870.739 382.327 868.41Z" fill="#8A8A8B"/>
<path d="M481.446 788.566C481.463 793.359 475.12 798.804 471.484 801.463C471.297 799.033 478.961 791.616 481.446 788.566Z" fill="#BFC0BF"/>
<path d="M403.745 773.496C404 778.001 399.227 784.926 396.1 788.155C395.868 785.563 401.86 775.7 403.745 773.496Z" fill="#757576"/>
<path d="M437.822 815.367C438.372 815.937 438.174 815.568 438.205 816.568C435.384 820.271 431.286 822.282 427.265 824.577L426.832 824.214C427.762 822.03 435.637 816.858 437.822 815.367Z" fill="#E1E0E1"/>
<path d="M366.534 808.125C361.645 811.772 356.416 814.045 350.895 816.631L350.348 815.056C355.6 812.426 361.005 810.108 366.534 808.125Z" fill="#9E9E9F"/>
<path d="M388.309 787.172L389.136 788.25C384.491 792.456 382.058 795.254 378.355 800.264C381.271 793.243 382.028 791.394 388.309 787.172Z" fill="#BFC0BF"/>
<path d="M393.135 818.137L393.517 818.511L393.484 819.349C390.657 823.309 387.69 825.247 383.648 827.76L383.184 826.906C384.931 824.605 390.651 820.181 393.135 818.137Z" fill="#8A8A8B"/>
<path d="M363.192 846.16L364.239 846.367C364.221 849.506 358.276 850.539 355.909 850.762L355.086 850.399L355.153 849.578C357.648 847.942 360.365 847.166 363.192 846.16Z" fill="#BFC0BF"/>
<path d="M402.003 797.058C400.086 800.52 394.375 804.877 391.034 807.027L390.812 806.776C394.309 802.626 397.045 801.397 400.496 797.018L401.013 796.359L402.003 797.058Z" fill="#59585A"/>
<path d="M360.047 826.625L360.763 826.871L360.521 827.736C357.832 829.596 355.18 830.691 352.225 832.071C351.923 831.858 351.409 831.294 351.125 831.009L351.536 830.049C354.268 828.262 356.929 827.625 360.047 826.625Z" fill="#BFC0BF"/>
<path d="M338.086 869.137C338.755 869.818 338.5 869.394 338.739 870.472C336.116 873.449 332.624 875.163 329.146 877.018C328.443 876.895 328.757 877.068 328.266 876.409C329.673 874.594 334.725 871.952 337.526 869.611L338.086 869.137Z" fill="#8A8A8B"/>
<path d="M461.453 768.539C461.857 768.994 461.648 768.666 461.731 769.672C459.995 772.927 457.885 775.179 454.557 776.804C454.033 776.251 454.334 776.631 453.828 775.542C455.265 773.557 459.382 770.296 461.453 768.539Z" fill="#59585A"/>
<path d="M462.614 823.82C462.693 824.217 462.773 824.608 462.852 824.999C461.36 828.093 459.211 830.355 456.991 832.975L456.105 832.109C456.224 829.126 460.302 826.01 462.614 823.82Z" fill="#BFC0BF"/>
<path d="M513.73 715.906C518.215 716.428 523.741 718.962 526.936 722.177C523.422 721.68 516.489 718.277 513.73 715.906Z" fill="#9E9E9F"/>
<path d="M439.439 803.438L440.453 804.365C438.353 805.878 431.093 811.134 429.105 811.793C432.977 807.749 434.917 806.683 439.439 803.438Z" fill="#9E9E9F"/>
<path d="M203.293 1172.92C203.402 1173.19 203.511 1173.45 203.621 1173.72C201.775 1177.08 198.822 1180.48 196.381 1183.5L196.175 1183.37L196.117 1182.41C197.751 1178.58 200.117 1175.58 203.293 1172.92Z" fill="#BFC0BF"/>
<path d="M732.217 1164.33C733.764 1164.41 733.652 1164.39 735.021 1165.13L735.055 1165.99C733.161 1167.39 730.574 1168 728.323 1168.91C726.971 1169.67 727.63 1169.61 726.289 1169.58C727.937 1167.49 730.105 1165.99 732.217 1164.33Z" fill="#E1E0E1"/>
<path d="M380.821 858.016C382.095 858.194 382.005 858.172 383.011 858.982C381.723 860.088 377.139 860.73 375.197 861.121C373.747 861.328 374.459 861.361 373.062 861.037L373.568 860.25C376.65 858.725 377.513 858.63 380.821 858.016Z" fill="#8A8A8B"/>
<path d="M484.423 714.758L485.013 714.948L485.36 715.636C484.175 717.201 479.41 720.821 477.598 722.269L476.883 721.93C477.65 719.26 482.077 716.465 484.423 714.758Z" fill="#757576"/>
<path d="M468.664 828.691C469.31 831.802 465.06 837.321 463.119 839.762C462.48 837.265 467.094 831.032 468.664 828.691Z" fill="#757576"/>
<path d="M385.64 805.789L386.144 806.046L386.163 806.683C384.368 808.85 381.54 810.905 379.294 812.709C378.81 812.469 379.139 812.67 378.527 811.849C379.711 809.42 383.317 807.286 385.64 805.789Z" fill="#9E9E9F"/>
<path d="M450.326 805.961L450.655 806.296C448.879 808.564 445.295 811.351 442.96 813.317L442.191 812.702C443.12 810.005 447.802 807.553 450.326 805.961Z" fill="#8A8A8B"/>
<path d="M398.144 828.348C398.403 829.906 390.808 834.916 389.16 836.083L389.177 835.145C391.89 831.777 394.452 830.364 398.144 828.348Z" fill="#757576"/>
<path d="M330.01 829.013C326.662 829.706 322.505 830.884 319.293 829.745C321.519 828.628 323.602 828.717 326.126 828.527L330.01 829.013Z" fill="#BFC0BF"/>
<path d="M483.837 846.066L483.815 847.273C481.776 850.378 479.78 851.903 476.573 853.713L476.543 852.903L483.837 846.066Z" fill="#59585A"/>
<path d="M431.339 720.949C431.889 721.396 431.654 721.083 431.824 722.018C430.268 723.844 428.419 724.617 426.292 725.79L425.914 725.576L425.936 724.748C427.589 722.904 429.193 722.186 431.339 720.949Z" fill="#BFC0BF"/>
<path d="M411.188 794.273C409.588 797.128 407.071 799.055 404.617 801.289L404.795 798.831C406.964 796.675 408.594 795.854 411.188 794.273Z" fill="#8A8A8B"/>
<path d="M388.312 787.168C390.675 784.487 392.724 781.879 395.59 779.773C393.629 782.661 391.671 785.884 389.139 788.246L388.312 787.168Z" fill="#59585A"/>
<path d="M481.11 836.98L481.933 837.584C481.567 839.673 480.092 841.259 478.807 843.001L478.122 843.158C477.924 841.6 480.101 838.695 481.11 836.98Z" fill="#8A8A8B"/>
<path d="M386.073 800.332L386.576 800.851C385.516 802.304 383.528 803.192 381.893 804.108L381.305 803.259C382.456 801.767 384.247 801.209 386.073 800.332Z" fill="#3D3D40"/>
<path d="M430.633 1170.07C444.748 1172.08 463.202 1171.88 477.397 1170.11C475.894 1171.17 475.357 1171.38 474.549 1173.06C462.356 1176.73 444.34 1175.27 432.026 1172.72C432.685 1172.39 432.741 1172.26 433.312 1171.78C432.317 1171 431.738 1170.71 430.633 1170.07Z" fill="#565458"/>
<path d="M563.246 882.145C563.748 884.435 564.402 890.752 565.408 892.036C566.469 890.623 566.631 889.115 567.033 887.367C567.112 889.082 566.86 891.321 567.804 892.299L567.994 892.327C568.391 893.734 568.514 894.952 569.587 895.857C566.994 899.079 564.491 902.81 562.106 906.223C560.821 900.185 559.179 894.019 557.676 888.015C559.039 887.719 559.324 887.4 560.558 886.691C561.179 887.981 561.039 887.713 561.905 888.841L562.676 888.869C563.424 886.942 563.234 884.284 563.246 882.145Z" fill="#E1E0E1"/>
<path d="M536.527 852.725C540.656 844.218 543.868 842.984 551.93 839.035C553.639 841.593 553.835 841.007 553.818 843.548C551.187 848.251 542.628 846.983 542.829 854.786C539.337 854.937 538.259 855.73 536.527 852.725Z" fill="#BFC0BF"/>
<path d="M560.56 886.688C560.096 881.628 559.158 873.937 560.029 869.145L560.057 869.424L561.007 869.859C562.599 874.216 562.811 877.589 563.247 882.142C563.236 884.281 563.426 886.939 562.677 888.866L561.906 888.838C561.04 887.71 561.18 887.978 560.56 886.688Z" fill="#BFC0BF"/>
<path d="M535.07 855.543C535.545 854.566 536.014 853.678 536.528 852.723C538.26 855.728 539.339 854.934 542.83 854.784C544.355 857.347 547.367 864.139 547.154 866.826C542.724 862.514 541.596 857.034 535.07 855.543Z" fill="#59585A"/>
<path d="M443.026 943.591C450.665 944.451 460.908 936.017 463.892 937.424C461.627 940.53 445.758 947.668 441.301 944.144L443.026 943.591Z" fill="#3D3D40"/>
<path d="M567.035 887.364C567.767 880.528 569.192 872.161 572.577 866.09C570.555 875.652 569.231 882.589 567.996 892.324L567.806 892.296C566.862 891.319 567.113 889.079 567.035 887.364Z" fill="#757576"/>
<path d="M322.452 1051.07L323.105 1051.85C320.349 1055.24 316.93 1058.98 313.41 1061.57C315.528 1058.4 319.775 1054.01 322.452 1051.07Z" fill="#8A8A8B"/>
<path d="M551.218 1043.32L552.598 1043.66C551.252 1046.67 550.246 1048.65 548.648 1051.51L547.648 1051.58L548.352 1051.94L547.71 1052.59L547.671 1051.55L548.459 1051.83L547.827 1051.04C548.47 1049.22 550.369 1045.24 551.218 1043.32Z" fill="#3D3D40"/>
<path d="M481.277 1100.08C500.522 1081.24 515.855 1063.97 528.789 1040.25C530.225 1037.61 533.806 1030.72 535.588 1028.71L535.879 1028.95C525.554 1049.47 515.995 1065.26 500.474 1082.66C494.82 1089 488.46 1094.49 482.958 1100.41L481.277 1100.08Z" fill="#59585A"/>
<path d="M430.781 983.035C430.768 983.203 430.78 983.37 430.744 983.532C429.573 988.827 379.773 1024.06 372.539 1028.24C373.993 1025.43 423.919 990.011 430.781 983.035Z" fill="#9E9E9F"/>
<path d="M445.885 948.926L447.253 948.809C446.535 951.378 437.869 957.946 435.403 959.477C435.113 959.946 424.478 970.675 423.676 971.357L423.834 970.831L424.157 970.993L424.071 970.541C426.368 968.005 427.948 966.157 430.032 963.437C429.507 962.353 429.817 962.811 429.155 962.018C427.379 963.04 425.948 964.325 423.88 964.112C425.15 963.342 425.555 963.057 426.702 962.113L424.509 960.851L424.784 960.203C427.918 957.968 431.014 958.443 434.145 956.689C437.964 954.55 441.775 950.378 445.885 948.926Z" fill="#E1E0E1"/>
<path d="M445.884 948.926L447.252 948.809C446.534 951.378 437.868 957.946 435.402 959.477L434.34 958.605C434.434 957.684 443.438 951.467 445.884 948.926Z" fill="#BFC0BF"/>
<path d="M500.244 1094.61C500.473 1095.42 500.415 1094.93 500.198 1096.09C495.907 1101.45 481.079 1117.28 475.051 1120.19C475.074 1119.46 475.155 1119.13 475.802 1118.58C484.417 1111.29 492.351 1102.69 500.244 1094.61Z" fill="#E1E0E1"/>
<path d="M473.233 888.898C474.248 889.831 474.226 889.463 474.43 890.68C475.955 899.79 474.984 906.308 470.203 913.949L469.82 914.044C469.402 912.681 472.182 907.676 472.579 904.979C473.372 899.6 473.189 894.322 473.233 888.898Z" fill="#757576"/>
<path d="M417.612 976.293L418.606 976.539C416.662 979.946 402.78 990.005 398.867 992.233L398.542 992.139L398.203 991.39C404.133 986.296 411.454 981.404 417.612 976.293Z" fill="#E1E0E1"/>
<path d="M482.961 1100.41C476.996 1106.2 467.49 1112.15 462.638 1117.41L462.434 1116.98L461.852 1117.77C464.026 1114.18 477.325 1103.32 481.28 1100.08L482.961 1100.41Z" fill="#9E9E9F"/>
<path d="M415.205 975.023L416.455 975.565L416.626 976.235C410.921 977.073 399.615 984.429 394.971 988.618C394.667 986.903 394.612 987.495 394.9 985.859C396.295 985.904 395.846 985.971 397.112 985.585C398.003 983.122 397.659 982.43 399.698 980.609C407.092 981.016 408.303 978.978 415.205 975.023Z" fill="#E1E0E1"/>
<path d="M463.785 871.262C466.869 873.434 470.641 879.316 472.39 882.656C469.915 881.678 464.845 873.714 463.785 871.262Z" fill="#9E9E9F"/>
<path d="M17.0039 1153.36C33.8187 1146.33 50.501 1138.24 67.7744 1132.48C83.1243 1127.36 98.1357 1121.44 113.549 1116.6C114.415 1116.33 124.941 1113.41 124.966 1113.41C122.464 1115.46 104.52 1120.38 100.62 1121.96C79.0796 1130.69 56.7391 1136.93 35.5969 1146.71C30.3823 1149.12 23.0241 1151.62 18.1793 1154.09L17.0039 1153.36Z" fill="#757576"/>
<path d="M380.045 773.123C377.356 773.93 372.139 780.437 369.407 782.241C351.057 794.372 316.677 803.387 297.635 788.189C296.478 787.262 296.47 787.396 296.418 786.111C311.119 796.394 318.868 795.964 336.462 793.216C356.348 790.11 366.226 783.76 380.303 770.07C380.344 771.46 380.527 771.899 380.045 773.123Z" fill="#3D3D40"/>
<path d="M207.785 973.777L208.6 973.794L208.601 973.951C197.537 977.553 182.443 980.921 171.048 983.675C159.774 986.4 138.888 993.421 128.178 994.169L127.137 994.454C128.506 993.561 138.729 991.259 141.062 990.55C163.007 983.887 185.272 978.274 207.785 973.777Z" fill="#8A8A8B"/>
<path d="M365.748 935.566C368.524 934.627 371.533 936.119 372.468 938.895C373.402 941.671 371.907 944.675 369.13 945.608C366.356 946.541 363.353 945.05 362.419 942.274C361.486 939.503 362.976 936.499 365.748 935.566Z" fill="#FAE6E5"/>
<path d="M168.804 1020L169.958 1020.05C164.764 1023.41 111.523 1035.53 102.48 1037.38L101.684 1037.38C119.915 1031.31 149.802 1024.3 168.804 1020Z" fill="#757576"/>
<path d="M119.044 1132.51C118.919 1132.76 69.075 1151.51 64.9102 1152.94L65.0001 1152.35C69.1264 1150.28 76.76 1147.41 81.326 1145.57C92.7792 1140.96 106.913 1135.13 119.044 1132.51Z" fill="#8A8A8B"/>
<path d="M249.898 1012.08C252.278 1011.93 253.303 1011.66 255.467 1012.47C257.682 1015.41 253.857 1017.69 251.631 1019.47C250.283 1020.09 248.678 1019.81 247.404 1019.13C246.002 1017.16 246.419 1018.26 246.413 1015.61C247.302 1013.58 247.967 1013.39 249.898 1012.08Z" fill="black"/>
<path d="M296.223 829.012C290.111 827.169 281.461 822.494 277.855 817.283L278.149 816.68C293.334 827.565 290.008 828.118 309.187 825.538C308.608 826.13 307.929 826.968 307.228 827.331C302.494 827.616 301.735 829.437 296.223 829.012Z" fill="#181719"/>
<path d="M624.89 796.434C627.605 796.998 628.907 797.037 629.404 799.952C628.751 802.075 628.214 802.293 626.471 803.845C622.857 803.627 620.834 802.767 621.371 798.668C622.89 796.635 622.147 797.288 624.89 796.434Z" fill="#FBC0BE"/>
<path d="M18.1739 1154.09C12.6814 1156.69 5.16985 1158.86 0.323861 1162.04L0 1161.93C2.80317 1159.27 13.1899 1154.69 16.9984 1153.36L18.1739 1154.09Z" fill="#BFC0BF"/>
<path d="M313.512 900.871C315.642 903.435 321.44 906.725 321.915 907.847C318.483 906.803 314.919 904.853 312.688 901.988L313.512 900.871Z" fill="#59585A"/>
<path d="M286.133 850.605L286.803 850.795L287.202 852.56C288.36 852.538 287.821 852.689 288.821 852.114L289.748 852.331C288.078 854.23 287.178 854.711 287.436 857.33C287.259 859.252 287.591 859.76 286.542 860.776L286.212 860.799C285.955 857.084 286.607 854.8 286.133 850.605Z" fill="#8A8A8B"/>
<path d="M1094.45 176.726C1119.94 166.059 1142.95 164.999 1168.84 174.502C1191.73 182.624 1211.83 202.545 1221.46 224.687C1240.13 264.025 1228.21 316.049 1196.67 345.377C1173.2 372.824 1123.71 394.27 1087.72 388.104C1085.87 386.03 1073.23 381.567 1070.35 381.654L1069.77 382.062C1048.55 367.178 1033.37 335.286 1029.46 310.233C1026.11 295.943 1025.94 277.822 1028.48 263.422C1028.2 258.055 1032.63 243.805 1034.7 238.51C1045.52 210.737 1067.05 188.476 1094.45 176.726Z" fill="#EE3038"/>
<path d="M1221.46 224.684C1240.13 264.022 1228.2 316.045 1196.66 345.374C1197.52 342.15 1203.53 335.171 1206.02 332.047C1225.53 307.62 1231.52 276.868 1227.53 246.306C1226.63 239.396 1222.05 231.935 1221.46 224.684Z" fill="#861113"/>
<path d="M1094.45 176.726C1119.94 166.059 1142.95 164.999 1168.84 174.502C1165.05 174.73 1157.21 172.485 1153.3 171.599C1140.39 168.673 1129.9 169.173 1117.01 171.516C1112.72 172.294 1097.22 177.184 1094.45 176.726Z" fill="#861113"/>
<path d="M1028.48 263.418C1028.87 265.61 1029.66 309.339 1029.46 310.229C1026.11 295.939 1025.94 277.818 1028.48 263.418Z" fill="#861113"/>
<path d="M1183.66 216.539C1191.6 216.833 1196.38 222.906 1196.31 230.699C1196.26 235.692 1194.77 237.081 1191.28 240.445C1180.64 240.135 1173.96 225.657 1183.66 216.539Z" fill="white"/>
<path d="M1061.09 399.562L1062.29 401.187C1038.77 452.844 1011.42 498.527 956.386 521.863C908.653 542.101 854.412 545.914 819.353 588.542C811.878 597.63 806.714 606.322 801.315 616.701C799.495 620.195 791.507 640.031 789.032 640.999C787.602 634.954 810.896 596.318 815.761 589.974C858.9 533.7 931.67 541.867 985.925 502.864C1026.89 473.418 1037.8 440.99 1061.09 399.562Z" fill="#181719"/>
<path d="M1069.77 382.062L1070.35 381.654C1073.23 381.566 1085.87 386.03 1087.72 388.104C1084.36 387.438 1080.35 386.74 1077.06 385.964C1077.22 390.128 1078.27 403.247 1076.31 406.055L1075.33 406.664C1069.6 405.096 1067.24 402.916 1062.29 401.188L1061.09 399.564L1052.06 394.286C1056.13 390.68 1064.73 385.554 1069.77 382.062Z" fill="#CB2E34"/>
</svg>
