<svg width="1350" height="1350" viewBox="0 0 1350 1350" fill="none" xmlns="http://www.w3.org/2000/svg">
<path d="M647.428 648.306C649.926 646.403 653.185 642.508 656.375 645.363C658.416 651.318 645.063 661.049 642.614 667.076L642.849 667.725C646.497 667.316 658.918 658.326 663.395 661.666C667.152 667.989 649.541 674.95 645.124 678.315C649.108 678.295 659.986 677.661 662.869 679.835C663.671 681.404 663.488 680.583 663.355 682.409C659.998 688.376 646.91 685.203 642.497 691.139C641.796 692.081 637.812 695.223 636.667 696.109L631.239 748.244C632.559 731.831 629.92 764.656 631.239 748.244C635.517 733.295 624.823 770.667 631.239 748.244C635.239 730.492 636.378 725.436 631.239 748.244C623.967 770.2 637.893 728.156 631.239 748.244C624.361 772.281 635.651 732.828 631.239 748.244C632.641 725.353 632.812 721.109 635.157 697.343C631.97 699.547 624.055 702.919 622.983 704.506C619.339 709.902 615.416 718.162 612.351 724.026C607.201 733.812 601.805 743.465 596.169 752.977C588.744 765.308 579.546 776.735 570.052 787.502C565.161 793.051 560.603 798.914 555.688 804.433C551.74 808.868 547.445 812.949 543.396 817.294C544.344 822.49 544.914 826.754 544.724 832.062C540.368 838.525 525.963 845.652 519.562 851.734C515.874 855.233 511.882 861.745 509.291 864.012C508.793 863.206 508.988 863.551 508.68 862.955C508.101 872.913 506.765 883.449 505.546 893.451C502.559 917.97 498.785 943.239 490.963 966.729C488.98 972.69 484.769 980.959 481.865 986.64L481.107 986.146C483.923 979.266 486.389 974.788 488.785 967.381C496.036 944.988 499.583 922.51 502.66 899.286C505.012 881.538 506.761 864.952 505.971 847.005C505.797 843.036 504.255 837.23 503.822 832.565C505.64 836.906 506.866 844.037 507.854 848.799L507.996 849.629C508.085 853.634 508.275 857.634 508.571 861.631L513.878 854.152C514.745 853.589 514.741 853.536 515.429 852.747C518.72 849.447 522.291 846.438 526.101 843.757C530.587 840.643 539.388 835.302 542.518 831.564C542.692 813.779 536.21 794.525 527.684 779.127C517.951 789.576 508.575 792.156 495.81 797.521L495.04 797.861C493.551 799.003 492.494 799.688 491.324 801.17L490.595 801.919C488.98 804.028 487.627 806.025 486.142 808.224C487.008 817.432 490.429 830.993 476.146 831.637C465.42 832.119 455.684 824.798 448.182 817.841C443.937 813.958 440.106 809.645 436.753 804.972C427.592 808.746 421.291 806.365 411.772 807.406C408.598 807.75 404.418 810.572 401.217 811.378C390.664 814.047 380.263 817.12 369.858 820.311C365.019 821.797 360.19 822.522 355.7 824.98C367.142 837.274 375.832 860.266 375.296 877.14C375.264 878.363 375.158 879.586 374.98 880.801C387.711 877.169 400.209 872.763 412.403 867.604C404.59 873.662 397.769 876.108 388.456 879.165C387.569 880.724 387.497 880.744 385.926 881.7C384.223 883.911 377.896 888.673 375.396 890.661L374.873 890.604C372.982 892.909 367.727 898.027 367.124 900.355C368.456 899.687 370.591 897.582 371.819 896.529C376.212 892.767 383.705 886.053 389.184 884.575C385.242 887.187 381.782 889.378 378.134 892.415C372.039 897.488 359.79 909.179 352.866 912.694C351.881 913.949 350.9 915.083 349.299 915.314C345.591 915.848 340.681 922.02 338.397 921.744C336.033 923.307 334.236 925.105 332.068 926.875C321.68 935.367 311.921 945.636 301.522 954.002C301.256 953.516 301.098 953.451 300.682 953.046C272.314 960.521 241.564 964.624 217.674 983.789C227.899 984.518 245.723 996.383 251.181 1004.16C268.551 1028.9 280.754 1058.62 309.39 1073.05C320.203 1078.5 334.968 1081.04 346.69 1084.17C363.937 1088.5 371.55 1093.52 389.962 1095.3C430.707 1099.25 456.094 1082.23 490.457 1064.92C500.806 1059.71 517.384 1053.35 529.137 1052.28C530.643 1053.17 531.769 1054.08 533.465 1054.14L534.218 1053.73C535.166 1050.51 515.206 1024.67 511.959 1019.53C506.02 1010.13 498.773 1000.34 493.093 990.799C491.83 995.678 489.911 1004.03 488.215 1008.48C489.381 997.946 492.802 987.887 492.842 977.359C492.85 975.278 491.053 972.172 491.328 969.612C496.712 970.673 494.162 986.138 493.696 989.673C499.461 996.213 508.425 1010.28 513.558 1018.01C519.303 1026.66 533.481 1044.82 536.979 1053.67C536.048 1054.84 535.279 1055.85 534.19 1056.89C541.437 1067.33 546.024 1079.27 552.339 1090.29C557.335 1099 589.882 1150.2 596.938 1151.64C599.469 1152.16 602.104 1150.16 604.574 1149.66C610.448 1148.46 615.477 1148.14 620.975 1145.45C631.274 1140.42 641.124 1126.82 653.298 1135.4C654.707 1136.39 656.209 1137.4 657.383 1138.66C655.306 1154.48 646.849 1166.27 634.869 1176.66C632.282 1178.91 623.764 1183.75 622.392 1185.87C622.339 1186.35 622.1 1188.37 621.853 1188.73C618.707 1193.28 603.197 1207.87 598.112 1206.68C593.699 1205.65 582.521 1197.1 580.343 1192.7C576.627 1186.91 575.161 1181.38 571.169 1176.38C568.801 1173.42 564.465 1169.82 561.675 1167.31C549.348 1156.22 533.886 1147.17 522.753 1134.95C518.668 1130.37 515.044 1125.4 511.935 1120.12C507.105 1111.8 503.158 1102.74 496.526 1095.7C494.247 1093.28 491.405 1090.43 488.611 1088.61C486.085 1086.97 484.004 1086.17 481.678 1084.16C470.854 1086.37 462.112 1086.89 451.206 1087.52C446.607 1087.79 438.55 1092.58 433.505 1093.3C416.071 1097.8 397.637 1098.61 379.861 1095.84C370.914 1094.45 363.99 1091.22 355.673 1088.52C351.301 1087.11 343.662 1085.45 339.126 1084.58C328.476 1092.3 315.235 1101.7 302.109 1104.18C291.949 1106.09 280.075 1101.07 270.23 1099.05C245.191 1093.93 220.389 1084.69 194.632 1084.25C192.702 1084.21 188.634 1086.77 187.019 1087.92C183.943 1089.6 183.226 1092 179.616 1092.31C178.866 1092.38 173.234 1098.23 172.375 1098.95C163.292 1106.58 157.929 1125.64 143.786 1124.41C140.459 1124.13 133.878 1120.17 131.839 1117.46C129.403 1113.93 130.723 1106.59 131.644 1102.62C134.035 1092.46 138.5 1082.9 144.76 1074.54C148.136 1070.13 151.708 1066.11 154.512 1061.25C155.949 1058.77 153.861 1058.5 154.48 1056.78C156.95 1049.89 163.504 1040.54 170.553 1037.97C178.519 1041.87 187.475 1040.25 195.336 1050.01C214.31 1053.37 234 1047.24 253.129 1048.5C259.05 1048.89 266.42 1050.57 272.117 1052.36C275.963 1053.56 279.243 1055.1 283.298 1056.02C279.754 1051.96 276.015 1047.48 272.106 1043.83L270.926 1043.07L270.852 1042.46L271.848 1041.47C269.106 1040.95 267.239 1040.11 264.86 1038.95C246.442 1029.93 232.623 1020.41 223.241 1001.46C220.429 995.784 217.241 991.285 215.2 984.619C225.419 972.139 248.521 964.705 263.917 959.764C273.561 956.67 293.119 954.763 301.677 950.191C309.188 946.178 318.455 934.099 326.047 928.831C331.179 925.271 336.296 919.537 341.824 916.156C346.625 912.726 355.665 906.397 359.464 902.453C363.611 898.149 370.156 888.236 373.515 883.004C367.757 880.457 364.755 875.35 361.486 870.155C348.087 873.326 336.805 879.375 324.698 885.47C312.438 891.637 298.136 895.387 286.57 903.024C285.111 903.988 283.701 912.354 282.84 914.273C281.289 917.039 276.071 931.378 275.05 932.799C274.463 933.617 273.542 934.132 272.537 934.2C267.008 934.561 268.348 921.611 268.518 918.375C258.992 914.759 241.758 936.723 238.229 928.709C238.52 924.526 246.865 917.165 250.203 913.378C245.123 915.678 232.386 924.393 227.716 921.773C225.052 918.12 233.861 912.168 236.475 909.872C233.19 911.548 227.647 915.059 224.235 912.593C221.775 907.936 234.552 901.052 237.867 898.898C234.966 899.06 230.551 899.687 228.439 897.375C228.244 896.496 228.152 896.148 228.486 895.265C230.735 889.349 262.429 888.543 268.932 885.251C273.904 882.736 278.567 877.594 282.908 874.042C294.321 864.717 306.287 854.622 319.08 847.313C321.567 845.891 333.377 840.627 333.953 838.946L333.371 838.007L332.715 837.776L331.099 836.756C330.748 838.355 331.156 837.764 329.996 838.695L327.664 839.064L326.947 841.664L326.532 841.822L325.111 841.085C323.362 840.643 323.75 841.02 322.847 839.841C316.741 833.549 318.639 823.753 323.608 817.42L323.235 816.476C316.557 821.789 309.752 833.99 312.673 842.554L312.273 843.024C312.634 844.417 313.31 845.268 314.266 846.28L314.216 846.835C309.518 844.968 305.948 834.431 305.768 829.596C305.366 818.752 310.941 809.835 317.901 801.992C306.623 808.446 294.621 821.542 304.732 834.448L304.221 834.529L304.715 834.52L303.778 834.197C295.162 824.867 301.505 813.427 308.654 805.575L307.842 804.81L307.928 804.535C304.471 805.782 303.467 806.588 300.412 808.734L299.994 807.616C290.368 811.88 279.554 822.012 284.501 834.063C285.156 835.654 287.173 838.019 288.253 839.566L288.009 839.76C279.505 833.464 281.026 825.174 284.445 816.383C273.451 817.068 259.581 816.173 253.492 805.668C256.179 808.143 259.642 811.905 263.497 811.896C266.492 812.322 268.249 812.411 271.29 812.48C273.999 812.382 276.479 811.739 279.126 811.164C279.143 810.661 277.487 803.611 277.229 802.255L276.811 801.024C276.858 799.319 276.93 797.618 277.028 795.913C277.807 783.331 282.576 772.969 292.479 764.968C296.336 761.852 300.593 759.509 304.371 756.115L304.84 755.688C293.492 755.474 287.787 755.674 277.693 760.689C275.933 760.39 276.754 760.298 275.131 760.904C274.978 761.094 274.497 761.657 274.409 761.846L271.331 763.73C271.054 763.88 270.402 764.26 270.135 764.354C269.937 764.19 269.496 764.004 269.241 763.88L267.823 764.651L267.499 764.221L265.938 765.325L265.329 764.679C261.901 768.335 258.142 772.052 256.267 776.773L255.435 776.028C254.442 776.65 254.392 776.807 253.576 777.638C255.478 770.35 261.45 764.91 266.63 759.847C276.492 750.211 284.569 745.892 297.703 741.809C298.257 741.749 298.962 741.572 299.521 741.453L299.625 740.972L297.817 739.981C296.294 740.292 293.239 741.027 291.843 740.562L291.941 739.859C294.673 738.978 300.98 737.67 304.08 736.919C306.686 736.164 308.911 735.462 311.191 733.981C308.097 734.086 305.724 733.415 302.685 733.274C286.423 732.52 271.509 730.548 257.244 740.502L256.422 740.071C288.122 716.247 319.307 751.716 345.5 707.941L345.826 707.38C347.034 705.871 348.247 704.61 348.88 702.811L347.923 702.041C350.455 699.709 354.567 693.342 356.677 690.274L356.127 690.227C356.022 686.773 366.984 672.949 369.655 670.11C385.222 653.567 408.365 643.913 430.909 642.855C442.561 642.309 450.435 644.746 458.741 652.703L459.808 653.407L460.188 653.016C471.48 647.801 479.405 645.5 492.04 649.743C497.47 651.567 504.121 656.465 506.514 661.811C506.785 662.424 507.04 663.044 507.283 663.67C497.818 650.756 481.67 643.494 466.903 652.443C479.457 650.637 492.202 654.053 502.174 661.895C509.769 667.757 519.603 680.827 516.567 691.118L516.243 691.221C515.785 688.589 516.016 686.219 515.38 683.441C512.571 671.118 499.757 661.868 488.66 657.427C498 664.185 511.133 675.627 511.336 688.187L509.749 688.31C510.312 690.527 510.749 692.147 511.02 694.423L511.012 695.269L510.061 696.043C512.676 701.772 513.607 711.4 515.72 715.367C519.789 722.996 533.202 714.441 530.842 731.103C536.761 742.731 537.396 753.147 534.243 765.899C539.413 761.886 544.518 757.33 549.016 752.577C555.06 746.185 559.538 738.226 565.267 731.591C575.785 719.411 587.566 708.164 597.25 695.276C599.659 692.068 602.42 688.85 604.052 685.174C602.61 674.88 605.578 669.312 605.546 659.391C605.537 656.543 604.076 652.249 605.193 649.574C605.878 648.931 606.497 648.202 607.513 648.396C615.371 649.894 615.716 659.72 616.06 664.987C621.695 657.212 626.294 643.572 632.946 636.145C633.383 635.56 635.327 635.119 635.942 635.368C644.46 638.813 629.359 655.425 632.833 659.778C634.95 659.722 646.169 650.231 647.428 648.306C645.966 651.226 649.029 645.936 647.428 648.306C643.873 653.524 650.982 643.089 647.428 648.306C635.764 661.664 649.997 645.363 647.428 648.306C642.072 654.759 652.728 642.236 647.428 648.306Z" fill="#090809"/>
<path d="M356.676 690.269L356.126 690.222C356.021 686.768 366.983 672.945 369.654 670.105C385.221 653.562 408.364 643.908 430.908 642.851C442.56 642.304 450.434 644.742 458.74 652.698L459.807 653.403C459.733 654.212 459.688 654.732 459.53 655.526C458.041 655.857 456.739 654.728 455.528 653.758C454.777 652.42 454.942 652.823 453.177 652.064C449.127 650.36 439.465 647.232 435.245 646.555L435.14 647.57L434.227 647.713C432.89 648.576 432.93 648.509 431.322 648.733L430.726 649.528C409.394 648.932 387.856 658.128 372.413 672.699C367.018 677.884 361.97 683.419 357.303 689.27C357.14 689.543 356.865 690.044 356.676 690.269Z" fill="#FDFDFE"/>
<path d="M356.676 690.269L356.126 690.222C356.021 686.768 366.983 672.945 369.654 670.105C385.221 653.562 408.364 643.908 430.908 642.851C442.56 642.304 450.434 644.742 458.74 652.698L459.807 653.403C459.733 654.212 459.688 654.732 459.53 655.526C458.041 655.857 456.739 654.728 455.528 653.758C454.777 652.42 454.942 652.823 453.177 652.064C452.918 650.543 451.237 649.599 449.956 648.582C441.711 642.039 426.222 644.219 416.203 646.111C393.686 650.391 373.805 663.477 360.967 682.469C359.704 684.361 357.896 687.103 357.303 689.27C357.14 689.543 356.865 690.044 356.676 690.269Z" fill="#181819"/>
<path d="M423.754 645.89C426.658 645.291 432.34 645.916 435.243 646.552L435.138 647.567L434.224 647.709C430.492 646.919 427.502 646.426 423.754 645.89Z" fill="#353436"/>
<path d="M375.526 882.679C379.374 881.865 384.337 880.173 388.458 879.16C387.57 880.719 387.498 880.739 385.928 881.695C384.224 883.906 377.898 888.668 375.398 890.656L374.875 890.6C372.984 892.904 367.729 898.022 367.126 900.351C368.457 899.683 370.593 897.577 371.82 896.524C376.214 892.762 383.707 886.048 389.186 884.57C385.244 887.182 381.784 889.373 378.135 892.41C372.04 897.484 359.792 909.174 352.868 912.689C351.883 913.945 350.902 915.078 349.301 915.309C345.592 915.844 340.682 922.015 338.398 921.74C341.388 917.771 354.308 910.818 358.365 906.279C364.418 899.508 372.102 891.13 375.526 882.679Z" fill="#F0EEEF"/>
<path d="M374.871 890.6C372.979 892.904 367.725 898.022 367.122 900.351C368.453 899.683 370.589 897.577 371.816 896.524C376.21 892.762 383.703 886.048 389.182 884.57C385.24 887.182 381.78 889.373 378.131 892.41C372.036 897.484 359.788 909.174 352.863 912.689C355.248 909.681 361.716 905.919 363.534 903.752C367.564 898.954 369.029 894.52 374.871 890.6Z" fill="#888789"/>
<path d="M374.871 890.6C375.354 888.729 383.91 882.586 385.924 881.695C384.22 883.906 377.894 888.668 375.394 890.657L374.871 890.6Z" fill="#D0D0D2"/>
<path d="M315.92 744.094L316.921 744.898C304.351 751.617 298.218 749.797 286.21 753.54L285.386 753.089L285.34 752.189C295.396 748.995 305.601 746.293 315.92 744.094Z" fill="#F0EEEF"/>
<path d="M332.713 837.776C332.579 828.734 339.287 825.721 345.381 820.331C350.456 815.84 353.591 814.824 359.977 813.285C355.684 816.76 352.276 815.411 347.031 821.076C345.67 822.093 336.143 830.823 335.434 831.925C333.02 835.164 334.55 835.573 333.369 838.007L332.713 837.776Z" fill="#F0EEEF"/>
<path d="M267.156 762.671C269.393 759.361 281.416 753.137 285.341 752.188L285.387 753.088L286.212 753.539C277.951 757.074 277.47 757.575 269.686 762.62L269.512 763.105C270.332 763.476 270.453 763.516 271.329 763.724C271.053 763.874 270.401 764.254 270.134 764.348C269.936 764.184 269.495 763.998 269.24 763.874L267.822 764.645L267.498 764.215C267.466 763.49 267.368 763.382 267.156 762.671Z" fill="#707071"/>
<path d="M435.246 646.555C439.465 647.231 449.128 650.36 453.177 652.063C454.942 652.823 454.778 652.419 455.529 653.757C454.68 653.414 452.331 653.557 450.786 653.315C449.977 652.483 450.009 652.362 448.935 652.02C448.579 652.872 448.811 652.46 448.223 653.245L447.35 652.816C446.677 651.514 436.694 649.891 435.141 647.57L435.246 646.555Z" fill="#181819"/>
<path d="M311.905 734.867C313.815 733.837 315.139 733.582 317.207 733.047C307.592 738.627 307.884 738.118 297.818 739.974C296.295 740.285 293.24 741.02 291.844 740.555L291.943 739.851C294.674 738.97 300.981 737.663 304.082 736.912C306.687 736.157 308.912 735.455 311.192 733.973L311.905 734.867Z" fill="#888789"/>
<path d="M311.188 733.977L311.902 734.87C309.829 735.864 306.147 738.236 304.078 736.915C306.684 736.16 308.908 735.458 311.188 733.977Z" fill="#181819"/>
<path d="M347.031 821.07C348.307 821.394 352.714 819.649 353.993 818.969L353.952 819.455C346.025 825.059 342.638 826.262 335.866 833.891C335.738 833.344 335.605 832.291 335.434 831.919C336.142 830.817 345.67 822.087 347.031 821.07Z" fill="#353436"/>
<path d="M271.29 812.476C273.998 812.379 276.479 811.735 279.126 811.16L279.626 812.112C279.747 813.667 280.067 813.869 279.344 814.748C275.525 815.367 268.286 814.359 264.533 813.391L263.671 813.076L263.496 811.893C266.491 812.318 268.249 812.407 271.29 812.476Z" fill="#F0EEEF"/>
<path d="M263.496 811.891C266.491 812.316 268.249 812.405 271.29 812.474L271.208 812.992C272.039 813.105 272.868 813.231 273.696 813.361C269.811 813.851 267.807 812.988 264.575 813.105L264.533 813.389L263.671 813.073L263.496 811.891Z" fill="#585859"/>
<path d="M271.289 812.476C273.997 812.379 276.478 811.735 279.125 811.16L279.625 812.112C277.798 812.513 275.505 813.088 273.694 813.363C272.867 813.233 272.037 813.108 271.207 812.995L271.289 812.476Z" fill="#181819"/>
<path d="M486.723 668.062C498.504 675.865 502.747 681.573 510.261 693.633C510.63 694.231 510.403 693.973 511.022 694.418L511.014 695.264L510.063 696.037C505.367 684.744 496.294 675.349 486.266 668.574L486.723 668.062Z" fill="#A6A7A8"/>
<path d="M325.965 825.498C327.219 823.364 332.747 816.059 334.745 815.334C334.148 817.565 329.275 821.113 329.204 822.813L329.842 822.85C334.857 816.889 337.94 813.941 345.248 810.855C339.672 814.791 331.049 820.566 327.941 826.604L326.954 825.3L325.965 825.498Z" fill="#353436"/>
<path d="M434.228 647.717L435.142 647.574C436.695 649.895 446.678 651.519 447.351 652.821C443.204 652.498 430.022 652.23 426.711 650.604C430.089 650.53 439.041 652.303 440.896 651.225C439.069 649.892 433.009 648.496 430.728 649.532L431.323 648.736C432.932 648.512 432.892 648.579 434.228 647.717Z" fill="#585859"/>
<path d="M323.238 816.47C327.147 811.116 332.869 809.488 338.509 806.427C341.137 804.998 341.492 803.556 344.386 804.398L342.785 805.475L342.871 805.925L343.3 806.131C336.453 809.027 328.007 811.039 323.725 817.3C323.687 817.336 323.649 817.377 323.611 817.413L323.238 816.47Z" fill="#353436"/>
<path d="M344.263 732.078C335.924 740.52 326.544 740.569 316.923 744.899L315.922 744.095C322.3 741.958 329.702 739.682 335.934 737.224C337.742 736.511 341.449 733.433 344.263 732.078Z" fill="#A6A7A8"/>
<path d="M312.531 800.859L312.919 801.422C310.727 802.969 310.339 803.613 308.652 805.569L307.839 804.803L307.926 804.528C304.469 805.775 303.465 806.581 300.41 808.727L299.992 807.61C300.733 807.002 310.646 801.945 312.531 800.859Z" fill="#A6A7A8"/>
<path d="M325.965 825.499L326.955 825.301L327.941 826.605C326.953 828.593 326.467 829.715 325.698 831.8C324.407 832.112 324.752 831.845 323.836 832.61C324.045 829.455 324.652 828.253 325.965 825.499Z" fill="#585859"/>
<path d="M327.664 839.058C327.931 837.284 328.037 835.279 329.582 834.227C330.758 834.842 330.479 835.053 331.099 836.749C330.748 838.349 331.157 837.758 329.997 838.689L327.664 839.058Z" fill="#F0EEEF"/>
<path d="M323.836 832.615C324.752 831.849 324.407 832.116 325.698 831.805C324.429 837.478 327.036 839.154 326.529 841.819L325.108 841.082L325.223 840.649L325.54 840.503C324.387 837.377 323.942 835.923 323.836 832.615Z" fill="#707071"/>
<path d="M322.847 839.837C321.881 837.084 320.98 834.816 321.276 831.84C322.219 834.541 323.302 838.776 325.225 840.647L325.11 841.081C323.361 840.639 323.75 841.016 322.847 839.837Z" fill="#A6A7A8"/>
<path d="M344.379 804.402C347.157 803.686 350.013 802.872 352.898 802.852C349.573 804.111 346.691 805.079 343.292 806.136L342.864 805.929L342.777 805.48L344.379 804.402Z" fill="#707071"/>
<path d="M509.747 688.305C508.913 686.017 508.026 683.744 507.398 681.391C509.321 683.918 509.787 685.54 511.334 688.181L509.747 688.305Z" fill="#F0EEEF"/>
<path d="M271.848 1041.47C273.23 1042.44 273.386 1042.59 274.316 1044L274.112 1044.54C273.059 1044.32 273.068 1044.32 272.106 1043.83L270.926 1043.07L270.852 1042.46L271.848 1041.47Z" fill="#F0EEEF"/>
<path d="M312.531 800.861C313.948 800.002 315.942 798.763 317.613 799.018C317.007 800.091 314.224 800.905 312.919 801.424L312.531 800.861Z" fill="#181819"/>
<path d="M486.259 668.573C484.821 667.804 484.174 667.592 483.125 666.396L483.57 666.234C485.076 666.894 485.4 667.08 486.716 668.062L486.259 668.573Z" fill="#353436"/>
<path d="M267.156 762.672C267.367 763.383 267.466 763.491 267.497 764.216L265.937 765.32L265.328 764.674L267.156 762.672Z" fill="#D0D0D2"/>
<path d="M474.993 697.88C477.283 683.148 475.419 676.451 470.208 663.031C485.794 669.383 501.004 679.932 507.782 695.92C510.79 703.018 511.215 710.063 514.17 716.994C515.279 719.409 517.923 720.357 520.279 720.839C523.449 720.768 525.522 720.326 527.66 723.091C528.555 724.969 528.757 725.22 528.761 727.266C528.85 729.399 528.676 729.953 528.178 732.055C534.542 741.835 535.227 750.279 533.198 761.78C531.644 770.574 525.563 780.224 517.664 784.854C498.77 795.925 486.757 791.013 480.507 816.354C480.118 817.933 479.897 819.8 479.672 821.488C481.537 817.415 483.296 813.292 484.944 809.126C485.571 816.455 487.247 829.142 476.616 829.697C462.125 830.458 446.578 815.066 438.382 804.246C441.15 802.768 443.236 801.663 445.485 799.391C449.123 791.382 449.507 792.807 450.937 783.002C450.417 781.832 449.971 781.141 450.04 779.867C452.345 777.077 455.928 780.114 456.931 774.178L456.598 773.981C449.295 781.746 439.405 777.403 432.332 771.798L435.751 767.75C436.019 767.994 436.294 768.232 436.573 768.464C437.715 769.409 438.515 769.861 440.006 769.703C438.433 768.516 436.994 768.01 437.232 766.037C439.242 763.901 441.008 761.019 442.351 758.413L442.698 757.581C445.393 751.882 448.704 749.272 451.263 742.746C451.262 742.741 451.615 740.19 451.644 739.796L451.316 739.443C449.532 740.836 448.948 743.625 447.195 745.234L446.857 744.944C447.115 743.32 448.827 741.86 449.62 740.2C451.099 737.105 452.004 734.104 453.661 731.067L453.937 733.452L454.5 733.698L455.272 733.284C455.29 732.298 455.327 731.627 455.563 730.655L456.088 727.779C455.455 727.858 454.85 728.117 454.233 728.33L453.913 728.062L454.847 726.739C455.745 724.125 456.663 721.512 458.153 719.186C458.136 718.7 458.105 719.014 458.511 718.309L459.752 718.288C467.674 701.015 471.182 693.468 472.22 674.198C475.712 686.025 474.015 695.04 470.562 706.573L471.152 707.064C471.356 706.551 471.464 706.181 471.823 705.752C472.586 706.646 472.284 706.127 472.311 707.634L472.726 707.432C473.669 704.89 474.417 700.647 474.993 697.88Z" fill="#FDFDFE"/>
<path d="M451.259 742.747C451.259 742.742 451.612 740.191 451.641 739.797L451.313 739.444C449.529 740.838 448.944 743.626 447.192 745.235L446.854 744.945C447.112 743.321 448.824 741.861 449.617 740.202C451.096 737.106 452.001 734.105 453.658 731.068L453.934 733.453L454.497 733.699L455.268 733.286C455.287 732.299 455.323 731.629 455.56 730.656C457.487 741.921 455.437 757.561 449.708 767.939C449.328 768.627 448.716 768.985 448.037 769.33C445.338 768.953 444.452 765.571 443.648 763.248L443.337 762.263C444.168 760.042 443.802 760.067 442.348 758.415L442.694 757.582C445.389 751.883 448.7 749.273 451.259 742.747Z" fill="#181819"/>
<path d="M451.257 742.746C451.231 746.066 447.719 756.749 445.464 759.289L444.774 759.426L442.691 757.581C445.387 751.882 448.697 749.272 451.257 742.746Z" fill="#FDFDFE"/>
<path d="M454.363 734.492C455.962 740.455 453.134 764.873 447.797 767.205L446.887 766.689C445.761 765.097 444.993 763.427 444.113 761.686C453.159 753.623 451.256 744.38 454.363 734.492Z" fill="#FDFDFE"/>
<path d="M478.823 678.174C476.721 671.837 475.74 670.669 471.967 665.068L472.317 664.812C475.013 666.142 477.761 671.502 478.727 674.278C482.08 683.916 481.055 694.794 476.327 703.803C473.838 708.546 471.119 713.454 467.602 717.543C465.8 719.636 463.817 721.372 462.066 723.492C463.871 718.12 467.957 712.038 470.561 706.57L471.151 707.062C471.355 706.548 471.463 706.178 471.822 705.75C472.585 706.644 472.283 706.125 472.31 707.632L472.725 707.429C473.668 704.888 474.416 700.645 474.992 697.878L475.898 697.404C477.873 694.382 477.539 683.808 477.713 679.743L478.068 679.564L478.525 680.148L478.823 678.174Z" fill="#181819"/>
<path d="M478.824 678.18C480.7 687.848 479.388 697.371 474.461 706.337C474.171 706.863 473.629 707.271 473.168 707.611L472.727 707.435C473.669 704.894 474.417 700.651 474.993 697.884L475.9 697.409C477.875 694.387 477.54 683.814 477.714 679.749L478.069 679.569L478.526 680.154L478.824 678.18Z" fill="#D0D0D2"/>
<path d="M471.894 708.234C472.046 710.877 467.754 716.461 465.977 718.492C465.559 717.232 470.825 709.858 471.894 708.234Z" fill="#D0D0D2"/>
<path d="M520.28 720.838C523.45 720.767 525.523 720.325 527.66 723.09C525.972 723.719 524.381 724.944 522.863 725.973C521.324 724.938 520.049 724.273 518.992 722.77C519.859 722.047 519.806 721.898 520.28 720.838Z" fill="#FDCCCB"/>
<path d="M518.988 722.77C520.044 724.273 521.319 724.938 522.858 725.972C524.376 724.944 525.967 723.719 527.655 723.09C528.55 724.968 528.753 725.219 528.757 727.264C525.089 726.649 523.392 728.227 520.105 727.846L520.23 727.464C521.02 727.161 521.089 727.136 521.858 726.727C521.356 725.698 518.915 724.13 517.749 723.886L517.676 723.595L518.988 722.77Z" fill="#F0EEEF"/>
<path d="M442.349 758.41C443.804 760.063 444.17 760.038 443.339 762.259L443.65 763.244C441.632 764.152 441.671 765.292 439.808 766.117L437.23 766.034C439.24 763.898 441.006 761.016 442.349 758.41Z" fill="#F0EEEF"/>
<path d="M439.809 766.12C440.203 764.534 442.053 763.294 443.339 762.262L443.65 763.247C441.633 764.155 441.671 765.295 439.809 766.12Z" fill="#A6A7A8"/>
<path d="M450.936 783.004L451.756 784.311C451.422 787.05 451.063 791.052 450.115 793.626C449.65 794.89 447.468 797.186 447.172 798.437L445.484 799.393C449.122 791.384 449.506 792.809 450.936 783.004Z" fill="#F0EEEF"/>
<path d="M458.154 719.187C458.137 718.701 458.106 719.015 458.512 718.31L459.753 718.289C459.198 719.904 456.961 726.929 456.089 727.78C455.456 727.859 454.85 728.119 454.233 728.332L453.914 728.064L454.848 726.74C455.746 724.126 456.663 721.514 458.154 719.187Z" fill="#181819"/>
<path d="M458.15 719.188C458.095 721.637 456.875 724.216 455.622 726.279L454.844 726.74C455.741 724.127 456.659 721.514 458.15 719.188Z" fill="#A6A7A8"/>
<path d="M451.755 784.312C452.876 789.923 451.509 794.656 447.172 798.438C447.468 797.187 449.649 794.891 450.115 793.628C451.063 791.054 451.422 787.052 451.755 784.312Z" fill="#585859"/>
<path d="M491.302 730.392C492.792 730.335 494.318 730.524 495.593 731.31C494.642 732.134 493.006 732.22 491.589 732.515C499.986 732.807 510.787 734.932 506.427 746.994C504.937 751.119 498.014 758.36 493.856 759.927C487.747 760.158 473.217 760.337 472.36 751.561C470.981 737.448 478.82 732.566 491.302 730.392Z" fill="#FDCCCB"/>
<path d="M487.296 736.184C489.891 736.912 491.47 740.518 489.502 741.956C488.255 741.468 488.611 741.455 487.858 739.741C487.761 738.998 487.632 738.23 487.518 737.487L487.089 737.394C486.842 738.499 486.798 739.156 486.101 740.051C485.012 740.003 485.551 740.112 484.514 739.292L484.445 738.383C485.336 737.054 485.818 736.958 487.296 736.184Z" fill="#F59996"/>
<path d="M498.346 714.398L498.9 714.523C498.702 717.325 504.698 723.5 501.763 727.593L500.787 727.513C499.216 726.522 499.099 726.303 497.868 724.852C497.334 723.202 496.929 721.398 496.398 719.678L496.014 719.693C495.601 720.833 495.168 721.964 494.71 723.085L494.176 723.153C491.957 719.031 494.18 715.74 498.346 714.398Z" fill="#090809"/>
<path d="M527.575 746.375L528.04 746.827C527.558 748.748 519.012 751.863 520.988 757.476C523.502 758.75 524.773 756.156 526.874 756.414L526.822 757.264C517.376 765.538 514.36 750.983 527.575 746.375Z" fill="#090809"/>
<path d="M491.043 696.777C491.354 696.866 492.18 697.231 492.512 697.369L492.674 698.077C489.8 700.367 486.5 704.57 484.14 707.508C483.682 707.768 483.986 707.654 483.176 707.615C482.739 704.364 488.423 698.623 491.043 696.777Z" fill="#353436"/>
<path d="M516.96 1057.21C520.814 1056.04 524.591 1055.03 528.624 1054.68C535.045 1059.38 539.053 1069.12 542.336 1076.23C548.587 1089.76 556.98 1102.81 565.546 1114.97C572.858 1125.35 584.186 1144.97 593.805 1152.69C596.247 1153.07 597.623 1153.32 600.101 1153.33C599.736 1159.71 599.287 1166.86 599.315 1173.21C592.603 1176.78 586.125 1180.02 578.886 1182.44C576.478 1179.43 574.433 1176.35 571.729 1173.58C557.514 1159.07 540.219 1149.11 525.859 1134.8C513.575 1122.57 509.195 1106.99 498.401 1094.21C493.693 1088.64 482.96 1082.93 476.85 1077.93L473.426 1075.9C476.36 1074.12 480.652 1072.09 483.818 1070.81C489.948 1066.82 504.106 1061.22 510.988 1058.68C513.316 1057.9 514.51 1057.39 516.96 1057.21Z" fill="#FDFDFE"/>
<path d="M510.984 1058.68C513.312 1057.9 514.507 1057.4 516.956 1057.22C510.001 1061.94 503.612 1065.79 497.571 1071.84C496.491 1072.92 488.693 1080.73 488.203 1080.92C490.029 1076 507.223 1062.3 512.648 1059.15C511.891 1058.68 511.895 1058.74 510.984 1058.68Z" fill="#A6A7A8"/>
<path d="M473.426 1075.9C476.36 1074.12 480.652 1072.09 483.818 1070.82C482.656 1073.88 479.176 1075.53 476.85 1077.94L473.426 1075.9Z" fill="#D0D0D2"/>
<path d="M501.12 1063.79L501.428 1064.21C498.327 1066.95 495.189 1069.19 492.019 1072.2C489.489 1074.59 485.242 1078.93 482.675 1080.86L482.438 1080.74C486.1 1075.91 496.08 1067.19 501.12 1063.79Z" fill="#888789"/>
<path d="M491.449 1067.54L491.972 1067.77C488.397 1071.45 483.684 1075.33 479.759 1079.23C479.603 1078.72 479.729 1078.74 479.888 1078.06C482.022 1075.69 488.862 1068.8 491.449 1067.54Z" fill="#A6A7A8"/>
<path d="M616.567 666.422C621.656 660.617 631.008 636.457 636.559 637.813C638.984 641.862 625.855 658.546 631.591 662.767C635.267 662.868 640.794 656.168 643.948 653.319L645.215 653.56C644.393 655.833 642.559 660.256 642.632 662.45C641.935 662.634 642.016 662.51 641.178 662.297C636.612 676.635 637.041 680.861 635.029 694.66C631.012 697.857 623.276 701.123 621.867 703.009C618.624 707.356 614.239 716.037 611.515 721.122C606.588 730.433 601.478 739.645 596.183 748.751C589.329 760.348 581.487 771.149 572.515 781.202C564.284 790.429 556.398 800.302 547.908 809.272L547.272 809.964L543.098 814.427C540.22 802.307 537.888 794.09 532.232 782.991L529.078 777.779C530.847 775.251 532.653 770.289 533.888 768.994C538.795 763.855 544.131 760.24 549.212 754.817C555.973 747.598 560.637 739.532 566.993 732.233C579.337 718.051 596.244 702.122 605.79 685.916C605.098 677.26 605.794 671.793 607.584 663.254C608.223 660.205 605.855 653.71 607.373 650.861L608.211 650.621C614.859 653.835 612.515 659.477 614.328 664.998C615.308 667.995 618.292 671.103 620.033 673.658C622.685 677.539 621.417 683.42 620.45 687.72C625.413 679.547 622.405 672.827 616.567 666.422Z" fill="#FDFDFE"/>
<path d="M532.23 782.991C535.004 782.905 534.842 783.139 536.218 785.74C538.583 789.679 540.004 792.347 541.911 796.431C542.967 798.703 546.834 807.903 547.906 809.272L547.271 809.964L543.097 814.427C540.218 802.307 537.886 794.091 532.23 782.991Z" fill="#F0EEEF"/>
<path d="M536.218 785.742C538.582 789.681 540.003 792.349 541.91 796.433C542.967 798.705 546.833 807.905 547.906 809.274L547.27 809.967C544.441 805.638 542.412 798.102 539.627 793.336C538.866 792.035 535.939 786.908 536.218 785.742Z" fill="#A6A7A8"/>
<path d="M643.949 653.32L645.216 653.561C644.394 655.834 642.56 660.257 642.633 662.451C641.937 662.634 642.018 662.51 641.18 662.298C642.151 659.341 643.192 656.334 643.949 653.32Z" fill="#181819"/>
<path d="M565.522 752.969C567.053 752.705 570.271 752.042 571.377 753.041C574.976 756.283 571.271 761.69 566.903 761.043C564.648 760.711 564.688 760.633 562.887 759.405C563.008 756.031 563.328 755.38 565.522 752.969Z" fill="#F0EEEF"/>
<path d="M565.522 752.965C567.251 753.213 568.292 753.188 569.696 754.217C570.433 755.458 570.332 754.824 570.105 756.166C568.336 758.342 565.628 759.16 562.887 759.401C563.008 756.027 563.328 755.376 565.522 752.965Z" fill="#FDCCCB"/>
<path d="M193.125 1051.88C202.958 1053.1 211.547 1053.36 221.231 1052.28C238.053 1050.41 254.108 1048.32 270.468 1054.11C273.72 1055.26 277.243 1056.47 280.591 1057.34C281.919 1057.69 282.668 1056.87 283.725 1056.17C291.38 1063.94 300.898 1072.23 310.521 1077.45C312.536 1076.7 318.541 1079.37 320.737 1080.37C325.64 1081.29 330.767 1082.52 335.657 1083.61C328.448 1089.58 312.063 1100.19 302.961 1101.77C293.337 1103.44 281.456 1099.77 272.209 1097.39C266.17 1095.83 260.045 1094.7 253.825 1093.12C235.029 1088.33 215.233 1082.34 195.668 1082.56C192.317 1082.6 189.609 1083.67 186.756 1085.2C183.331 1080.69 179.319 1075.63 176.289 1070.92C179.748 1062.31 184.846 1056.2 193.125 1051.88Z" fill="#FDFDFE"/>
<path d="M310.52 1077.45C312.534 1076.7 318.54 1079.37 320.735 1080.37C321.063 1082.27 329.389 1083.23 331.108 1084.88L330.684 1085.12C325.765 1083.83 314.264 1080.33 310.52 1077.45Z" fill="#A6A7A8"/>
<path d="M284.453 1061.31C285.796 1062.47 290.151 1067.89 292.131 1069.78C300.479 1077.77 309.833 1084.31 320.696 1088.2L320.402 1087.84C321.717 1087.99 321.935 1088.48 323.192 1089.4L323.703 1089.74C322.875 1089.87 322.507 1089.8 321.704 1089.53C309.168 1085.28 290.699 1072.78 284.453 1061.31Z" fill="#888789"/>
<path d="M293.328 1068.54C294.929 1068.92 302.99 1074.99 305.028 1076.42C308.481 1078.85 315.552 1082.22 317.989 1085.11C313.071 1083.51 297.941 1072.49 293.328 1068.54Z" fill="#A6A7A8"/>
<path d="M316.395 1082.95C320.254 1082.92 324.567 1085.31 327.736 1087.4C325.877 1087.23 318.632 1083.98 316.395 1082.95Z" fill="#A6A7A8"/>
<path d="M248.231 895.551C244.983 895.903 232.456 897.713 230.184 896.235L230.367 895.49C235.869 891.137 262.526 890.064 270.063 886.278C273.29 884.654 279.465 878.884 282.793 876.332C292.798 868.667 303.061 859.904 313.476 852.838C323.69 845.909 335.92 841.661 347.08 836.652C350.537 835.101 353.949 834.401 357.467 832.482L357.915 832.23L358.613 832.49C360.14 834.587 360.706 835.596 361.92 837.892C362.887 839.884 365.341 844.767 365.829 846.715C367.396 849.392 372.512 861.868 371.839 864.662C370.755 865.334 370.565 865.253 369.31 865.383L368.839 865.545L367.116 866.035C358.182 868.748 347.457 872.174 338.873 875.762C332.077 879.009 328.807 881.406 321.634 884.686C310.14 889.943 295.439 894.838 284.85 901.763C282.434 904.848 281.991 910.89 280.613 914.134C278.322 919.528 276.255 923.755 274.611 929.283C274.156 930.813 273.827 931.437 272.494 932.073C269.08 930.279 271.23 920.953 269.92 917.09C260.362 912.105 248.004 927.529 241.383 928.169L241.002 927.618C241.876 924.597 251.704 915.344 254.75 911.097L255.108 910.594C250.894 911.089 250.925 911.093 247.222 912.429C242.898 913.988 233.866 920.645 229.998 920.491L229.582 919.989C230.513 915.32 246.904 906.055 247.575 904.115C244.339 902.544 231.937 911.826 225.749 911.546L225.605 910.999C229.955 904.897 241.563 899.6 248.231 895.551Z" fill="#FDFDFE"/>
<path d="M361.92 837.895C362.887 839.887 365.341 844.77 365.829 846.718C367.396 849.395 372.512 861.871 371.839 864.665C370.755 865.337 370.565 865.256 369.31 865.386L368.839 865.548L368.122 865.358C367.205 864.305 366.386 859.478 366.003 857.733C364.632 851.48 362.594 845.568 360.773 839.429C361.219 838.874 361.511 838.47 361.92 837.895Z" fill="#FDFDFE"/>
<path d="M365.829 846.719C367.396 849.395 372.512 861.872 371.839 864.666C370.755 865.338 370.565 865.257 369.31 865.387C369.969 862.192 365.744 851.533 365.829 846.719Z" fill="#D0D0D2"/>
<path d="M358.613 832.488C360.141 834.586 360.707 835.594 361.92 837.89C361.511 838.465 361.219 838.87 360.774 839.425C362.594 845.564 364.632 851.476 366.003 857.728C366.387 859.474 367.206 864.3 368.123 865.353L368.84 865.544L367.117 866.034C363.899 858.267 357.517 840.538 358.613 832.488Z" fill="#C8C6C7"/>
<path d="M335.201 850.883C338.309 850.968 340.655 852.486 340.763 855.843C340.81 857.71 340.091 859.516 338.773 860.84C337.206 862.428 336.266 862.501 334.133 862.537C324.425 860.67 328.336 853.033 335.201 850.883Z" fill="#F0EEEF"/>
<path d="M258.181 1032.92C248.044 1027.9 241.516 1023.71 234.376 1014.57C231.547 1010.95 217.57 989.172 218.035 985.698C219.2 985.491 219.924 985.884 221.055 986.277L222.454 986.366C224.824 987.204 225.415 987.309 227.435 988.893L227.772 988.848C231.458 990.395 234.376 992.764 237.545 994.963C247.738 1002.03 253.342 1010.29 259.34 1020.89C263 1027.35 267.342 1034.35 271.497 1040.64C264.306 1038.19 264.466 1036.72 258.862 1033.53L258.181 1032.92Z" fill="#FDFDFE"/>
<path d="M258.181 1032.92C248.044 1027.9 241.516 1023.71 234.376 1014.57C231.547 1010.95 217.57 989.172 218.035 985.698C219.2 985.491 219.924 985.884 221.055 986.277L222.454 986.366C224.824 987.204 225.415 987.309 227.435 988.893C227.544 991.193 247.451 1017.93 250.318 1022.04C251.734 1023.95 257.483 1031.36 258.181 1032.92Z" fill="#FDFDFE"/>
<path d="M221.062 986.277L222.461 986.366C223.362 989.675 232.805 1001.32 234.731 1005.39C237.4 1011.03 243.678 1017.96 246.656 1023.28L246.438 1023.54C243.485 1021.09 224.649 991.655 221.062 986.277Z" fill="#585859"/>
<path d="M227.434 988.896L227.77 988.852C228.217 990.447 248.32 1018.01 250.708 1021.28L250.317 1022.04C247.45 1017.93 227.542 991.196 227.434 988.896Z" fill="#585859"/>
<path d="M250.716 1021.28C252.535 1023.64 258.435 1031.02 258.868 1033.53L258.187 1032.92C257.489 1031.36 251.74 1023.95 250.324 1022.05L250.716 1021.28Z" fill="#888789"/>
<path d="M238.48 997.809C239.538 998.598 242.217 1002.83 242.821 1004.09C247.989 1014.92 258.223 1023.59 264.177 1033.56C262.687 1032.55 259.485 1028.4 258.167 1026.84C250 1017.17 244.417 1009.03 238.48 997.809Z" fill="#A6A7A8"/>
<path d="M168.011 1077.02C169.887 1077.64 176.271 1087.8 177.924 1090.27C173.693 1094.37 169.525 1098.54 165.42 1102.78C160.608 1107.2 157.477 1101.3 157.577 1096.83C157.752 1088.95 162.697 1082.36 168.011 1077.02Z" fill="#FDFDFE"/>
<path d="M660.081 662.516C661.607 662.601 661.032 662.298 661.988 663.149C662.243 669.812 644.413 671.7 644.709 679.15C646.701 681.715 659.113 678.305 661.466 681.577C660.211 684.091 650.899 685.34 648.057 685.853C642.563 686.857 641.158 690.747 636.66 693.849C637.267 688.52 638.312 676.878 640.17 672.227C641.024 670.085 656.96 663.629 660.081 662.516Z" fill="#FDFDFE"/>
<path d="M316.156 774.85C308.395 780.104 299.417 790.063 293.401 797.319C291.008 800.206 287.464 808.738 284.35 809.504L283.785 809.006C283.86 807.329 284.399 806.228 285.054 804.705C290.238 792.681 300.784 778.069 313.358 773.242C312.406 773.918 310.476 775.109 309.93 775.973C311.897 775.154 313.848 774.298 315.782 773.404L316.156 774.85Z" fill="#FDFDFE"/>
<path d="M624.364 1146.43C625.761 1147.07 625.093 1151.07 624.777 1152.33C622.951 1159.49 615.976 1163.57 610.053 1167.03L609.543 1166.44C608.927 1161.72 609.547 1156.39 610.927 1151.85C615.85 1149.86 619.344 1148.75 624.364 1146.43Z" fill="#FDFDFE"/>
<path d="M303.35 773.882C312.676 768.429 318.737 764.496 329.788 762.651C331.351 762.39 334.156 761.643 335.624 761.842L335.489 762.297C331.436 764.287 324.109 765.047 319.927 766.414C304.446 771.474 291.837 783.951 285.207 798.664C284.805 799.555 284.897 799.405 284.188 799.932C284.214 798.085 284.965 796.753 285.691 795.024C285.162 794.332 285.313 794.562 284.998 793.732L285.675 792.289C287.338 785.973 290.324 779.814 296.087 776.255L296.432 775.841C297.188 774.804 298.161 773.91 299.076 773.001L299.624 773.488C301.446 771.705 301.926 771.326 304.062 769.93C303.931 770.664 303.395 773.251 303.35 773.882Z" fill="#181819"/>
<path d="M303.35 773.882C312.676 768.429 318.737 764.496 329.788 762.651C331.351 762.39 334.156 761.643 335.624 761.842L335.489 762.297C331.436 764.287 324.109 765.047 319.927 766.414C304.446 771.474 291.837 783.951 285.207 798.664C284.805 799.555 284.897 799.405 284.188 799.932C284.214 798.085 284.965 796.753 285.691 795.024C288.205 791.293 288.94 787.941 292.526 783.837C294.497 781.583 302.374 775.267 303.35 773.882Z" fill="#888789"/>
<path d="M296.088 776.258C294.006 779.842 290.51 783.76 288.467 787.702C287.864 788.865 286.566 791.701 285.676 792.292C287.339 785.976 290.325 779.817 296.088 776.258Z" fill="#F0EEEF"/>
<path d="M296.434 775.843C297.19 774.806 298.163 773.912 299.078 773.004L299.626 773.49C298.307 774.759 298.064 775.137 296.434 775.843Z" fill="#585859"/>
<path d="M324.97 776.484C326.619 776.63 326.934 776.724 328.386 775.938L328.93 776.253C325.309 780.007 318.799 781.996 315.644 785.025C311.036 789.45 304.161 796.073 300.008 800.786L299.484 800.721C299.573 798.191 304.162 795.178 305.973 792.734L305.57 792.314C302.324 792.594 302.136 794.708 298.464 796.842C295.954 799.766 293.41 802.657 290.832 805.516C293.904 799.972 301.609 790.303 307.02 787.174C307.642 786.372 308.155 786.253 309.106 785.736L315.058 780.663L315.413 781.804C317.832 780.216 322.217 777.166 324.97 776.484Z" fill="#353436"/>
<path d="M307.02 787.172C306.293 788.62 300.657 793.69 298.464 796.84C295.954 799.764 293.41 802.655 290.832 805.514C293.904 799.97 301.609 790.301 307.02 787.172Z" fill="#A6A7A8"/>
<path d="M315.053 780.66L315.408 781.801C313.798 783.025 310.953 785.496 309.102 785.734L315.053 780.66Z" fill="#D0D0D2"/>
<path d="M370.885 693.815C375.394 687.584 380.823 682.074 386.986 677.473L387.695 678.134C387.156 679.324 384.765 681.566 383.735 682.621C378.704 688.636 374.683 693.511 368.953 698.827C363.98 705.843 357.347 711.646 352.4 718.721C350.779 721.039 347.905 723.883 345.695 725.621C346.709 723.462 352.833 716.658 354.596 714.035C356.588 711.073 366.302 701.907 367.002 698.936L365.71 699.069C366.305 698.572 366.079 698.787 366.623 698.228L367.002 697.833C368.094 696.261 369.287 694.77 370.462 693.26L370.885 693.815Z" fill="#181819"/>
<path d="M382.931 682.277L383.74 682.626C378.709 688.641 374.688 693.516 368.958 698.832L368.43 698.498C372.611 694.606 378.453 686.965 382.931 682.277Z" fill="#A6A7A8"/>
<path d="M387.697 678.137C387.159 679.328 384.767 681.569 383.738 682.624L382.93 682.276C384.46 680.747 385.824 679.168 387.697 678.137Z" fill="#888789"/>
<path d="M370.463 693.262L370.886 693.817C369.41 695.797 369.08 696.325 367.004 697.835C368.095 696.263 369.288 694.772 370.463 693.262Z" fill="#585859"/>
<path d="M437.985 666.145C434.266 669.411 429.475 672.168 425.624 674.993C418.389 680.3 401.651 694.403 397.037 701.403L395.676 700.855C407.593 686.637 420.45 673.516 437.985 666.145Z" fill="#F0EEEF"/>
<path d="M470.15 1077.54C471.957 1077.64 477.406 1081.45 479.288 1082.65C474.715 1083.97 467.847 1084.65 463.069 1085.01C461.521 1084.99 455.568 1085.71 453.746 1085.88C459.115 1083.71 465.074 1080.34 470.15 1077.54Z" fill="#F0EEEF"/>
<path d="M471.712 1079.19L472.19 1079.25L472.023 1079.82C469.873 1081.2 467.037 1082.24 464.635 1083.22L464.348 1082.93C465.753 1081.89 469.93 1080.03 471.712 1079.19Z" fill="#585859"/>
<path d="M372.535 704.774C383.868 690.504 400.984 669.879 418.802 664.781C407.118 672.306 396.69 679.543 386.868 689.62C382.097 694.515 378.072 700.179 373.281 705.041L372.535 704.774Z" fill="#F0EEEF"/>
<path d="M441.056 679.418C432.98 695.795 428.979 701.825 417.206 715.374L416.316 714.813C422.823 706.614 426.551 700.223 431.993 691.351C433.88 688.274 438.719 682.387 441.056 679.418Z" fill="#FDFDFE"/>
<path d="M370.465 693.26C372.622 691.01 375.823 686.214 378.621 683.373C390.24 671.578 399.037 665.372 414.781 660.754C410.878 663.554 404.788 666.414 400.456 668.854C395.481 671.657 391.689 674.203 386.989 677.473C380.826 682.074 375.397 687.584 370.888 693.815L370.465 693.26Z" fill="#F0EEEF"/>
<path d="M315.059 780.661C322.871 773.268 337.086 766.045 347.577 764.883C342.602 768.019 330.718 773.536 324.971 776.482C322.217 777.163 317.832 780.213 315.413 781.802L315.059 780.661Z" fill="#F0EEEF"/>
<path d="M369.367 868.062L371.208 867.406C372.786 868.921 372.936 875.647 372.942 878.044L372.841 879.417L372.188 879.789C370.915 879.226 370.944 879.206 369.948 878.344L369.039 877.542C367.54 875.57 363.937 872.278 364.162 869.978L364.959 869.642C366.228 869.949 365.715 869.609 366.459 870.828L366.775 870.844C366.807 869.735 366.832 869.812 367.401 868.844L368.654 868.819L369.367 868.062Z" fill="#F0EEEF"/>
<path d="M369.363 868.062L371.204 867.406C372.782 868.921 372.932 875.647 372.938 878.044L372.837 879.417L372.184 879.789C370.911 879.226 370.94 879.206 369.944 878.344L370.281 876.185L370.974 873.663C370.787 871.69 370.653 869.196 369.363 868.062Z" fill="#F0EEEF"/>
<path d="M370.979 873.66L371.803 876.475L372.943 878.042L372.841 879.414L372.189 879.787C370.916 879.224 370.945 879.204 369.949 878.341L370.286 876.183L370.979 873.66Z" fill="#FDFDFE"/>
<path d="M369.363 868.062L371.204 867.406C370.453 870.528 372.534 872.926 371.798 876.477L370.974 873.663C370.787 871.69 370.653 869.196 369.363 868.062Z" fill="#585859"/>
<path d="M367.402 868.841L368.655 868.816C368.83 870.278 368.811 873.996 367.823 875.133C367.104 873.421 368.465 871.647 367.402 868.841Z" fill="#353436"/>
<path d="M369.039 877.544C369.563 875.888 369.241 874.803 369.974 872.762L369.837 873.669L370.287 874.005L370.285 876.187L369.949 878.346L369.039 877.544Z" fill="#A6A7A8"/>
<path d="M645.214 653.559C646.433 651.119 651.882 645.949 654.696 646.204C655.473 649.847 645.238 659.755 642.631 662.448C642.558 660.255 644.392 655.832 645.214 653.559Z" fill="#FDFDFE"/>
<path d="M409.773 707.824C415.674 701.28 421.438 694.615 427.062 687.832C427.846 688.366 428.7 688.995 429.523 689.44C425.49 693.036 422.944 696.715 419.375 700.682C416.957 703.37 414.039 706.189 411.461 708.737C410.109 708.483 410.639 708.803 409.773 707.824Z" fill="#FDFDFE"/>
<path d="M430.991 672.98C427.551 677.936 417.528 685.898 412.916 690.823C409.212 694.779 406.097 698.22 402.551 702.414C401.407 703.766 395.359 707.905 393.689 710.339L392.867 709.99C395.831 707.059 398.638 703.381 401.516 700.588C411.21 691.183 420.366 681.387 430.991 672.98Z" fill="#A6A7A8"/>
<path d="M399.639 660.387C398.522 661.865 385.018 669.464 381.202 672.675C369.661 682.388 364.389 689.775 355.339 701.327L355.246 701.052C359.679 691.998 374.692 675.625 383.078 669.737C387.103 666.911 394.99 662.843 399.639 660.387Z" fill="#D0D0D2"/>
<path d="M418.242 703.805L418.341 704.717C414.547 711.13 404.826 720.832 400.458 727.432C400.083 727.997 389.862 735.445 388.973 735.971L388.473 736.384L388.887 735.386C394.227 731.839 413.617 709.713 418.242 703.805Z" fill="#A6A7A8"/>
<path d="M359.637 749.289C347.098 758.385 324.891 759.042 311.779 765.437L311.172 764.791C319.059 761.828 326.433 758.918 334.97 758.307C336.059 758.229 336.526 757.905 337.466 757.34L337.846 756.689C335.518 757.58 327.845 759.114 325.357 759.125L325.192 758.563C327.211 757.453 342.535 755.504 345.276 754.728C349.891 753.422 355.135 751.109 359.637 749.289Z" fill="#888789"/>
<path d="M459.878 674.266C461.057 677.106 457.337 692.968 455.89 696.257C452.245 704.543 446.938 716.849 441.382 723.844L441.234 723.775C441.234 722.987 453.345 699.674 454.814 695.871C457.477 688.98 457.708 681.689 459.751 674.685C459.792 674.545 459.835 674.405 459.878 674.266Z" fill="#D0D0D2"/>
<path d="M631.359 1174.31C639.825 1166.95 647.197 1153.75 652.343 1143.91C653.173 1142.32 652.436 1139.7 653.574 1138.25C654.505 1140.63 652.189 1146.94 651.149 1149.29C646.57 1159.63 639.95 1166.94 632.072 1174.79L631.359 1174.31Z" fill="#D0D0D2"/>
<path d="M392.549 769.523L392.893 770.374C383.873 777.161 373.453 783.717 362.066 785.056C373.101 780.767 382.263 775.281 392.549 769.523Z" fill="#F0EEEF"/>
<path d="M399.287 756.84L399.611 756.927L399.677 757.312C390.548 764.495 380.602 771.323 369.005 773.312L368.714 773.317L368.691 772.97C378.557 769.365 390.067 762.214 399.287 756.84Z" fill="#F0EEEF"/>
<path d="M300.934 743.982C304.825 742.013 311.023 739.562 315.154 738.687C318.959 737.882 322.479 737.794 326.347 736.578L326.749 737.542C316.731 740.996 310.963 742.027 301.214 744.822L300.934 743.982Z" fill="#F0EEEF"/>
<path d="M400.229 808.352L401 808.408C399.834 811.437 359.363 819.378 354.89 823.047C353.896 823.861 351.753 825.298 350.639 826.197L350.023 826.384L349.805 825.962C350.229 825.051 350.422 824.995 351.241 824.416C353.143 823.051 355.181 821.889 357.322 820.941C360.514 819.556 376.299 814.207 379.059 814.729C379.854 814.879 380.677 815.005 381.478 814.79C383.437 814.26 385.51 813.15 387.457 812.466C391.673 810.98 395.965 809.688 400.229 808.352Z" fill="#585859"/>
<path d="M285.059 785.363L285.614 786.257C282.314 793.047 283.393 796.469 282.519 803.648C282.355 804.985 281.348 808.151 280.914 809.536C277.772 798.801 280.608 795.197 285.059 785.363Z" fill="#FDFDFE"/>
<path d="M433.506 781.102C433.533 790.161 413.413 801.186 405.724 802.259L405.117 801.745C412.625 797.615 422.845 795.278 429.277 787.854C428.5 787.632 428.274 787.783 427.464 787.892C429.417 785.575 431.432 783.311 433.506 781.102Z" fill="#707071"/>
<path d="M465.256 666.848C467.234 668.169 468.355 669.911 467.351 672.197C466.57 673.977 467.502 674.864 468.437 676.421C468.724 683.595 467.245 691.962 464.81 698.708L464.009 699.764C463.832 697.76 465.524 692.7 465.838 690.41C467.065 681.459 467.104 675.581 465.256 666.848Z" fill="#FDFDFE"/>
<path d="M418.955 725.734L419.199 726.233C416.171 731.526 397.581 746.387 392.03 750.018L391.844 749.891L391.868 749.425C395.951 745.455 402.001 741.106 406.415 737.122C410.329 733.589 415.005 728.829 418.955 725.734Z" fill="#F0EEEF"/>
<path d="M413.207 673.062C404.865 680.652 391.93 689.235 384.75 697.805L383.926 697.427C394.178 685.559 400.046 681.331 413.207 673.062Z" fill="#F0EEEF"/>
<path d="M301.383 763.76C310.255 758.363 322.249 756.05 332.468 754.793C323.543 758.054 307.959 760.192 301.958 765.619L301.383 763.76Z" fill="#F0EEEF"/>
<path d="M288.379 778.877C291.702 771.8 294.836 768.133 301.384 763.754L301.959 765.613C298.088 769.622 292.193 775.446 289.028 779.698L288.379 778.877Z" fill="#FDFDFE"/>
<path d="M442.266 689.566L442.654 690.02C441.387 696.495 422.656 720.924 417.055 725.834L416.824 725.581C422.599 718.415 428.662 711.448 433.771 703.76C436.782 699.23 439.034 694.032 442.266 689.566Z" fill="#A6A7A8"/>
<path d="M427.062 687.831C428.55 685.931 434.511 679.304 436.662 679.048L437.052 679.743C438.415 678.449 438.293 677.459 439.604 676.832L439.83 677.128C438.013 680.795 432.701 686.919 429.524 689.439C428.701 688.994 427.847 688.365 427.062 687.831Z" fill="#D0D0D2"/>
<path d="M346.73 736.273C346.838 736.395 346.947 736.517 347.055 736.639C336.954 743.511 329.77 745.394 318.247 747.859L317.629 747.756C318.785 746.875 320.582 746.399 322.02 745.992C330.71 743.532 338.44 739.647 346.73 736.273Z" fill="#F0EEEF"/>
<path d="M437.897 747.902C439.132 747.99 439.061 747.946 440.148 748.519L440.416 749.39C439.291 752.331 433.996 754.332 431.666 756.659C430.502 757.821 429.974 758.643 429.087 759.994C428.608 760.83 428.826 760.557 428.076 761.16C426.832 758.086 435.095 749.718 437.897 747.902Z" fill="#FDFDFE"/>
<path d="M642.558 1136.83C641.456 1137.26 640.736 1137.68 639.586 1137.52C640.837 1134.94 645.659 1134.46 648.294 1135.15C650.019 1135.83 650.031 1135.49 650.598 1136.71C650.104 1138.67 649.043 1139.65 647.367 1140.7L646.626 1140.68C646.517 1139.9 646.464 1139.43 646.436 1138.64C644.541 1138.62 642.432 1142.82 641.392 1144.49L641.493 1144.06C641.999 1141.91 643.331 1139.04 643.343 1137.41L642.558 1136.83Z" fill="#181819"/>
<path d="M642.558 1136.83C641.456 1137.26 640.736 1137.68 639.586 1137.52C640.837 1134.94 645.659 1134.46 648.294 1135.15C646.428 1135.58 644.205 1135.96 642.558 1136.83Z" fill="#D0D0D2"/>
<path d="M398.759 691.383L398.83 691.416C398.605 692.026 398.707 691.974 398.316 692.371C390.131 700.677 386.602 707.321 376.935 714.292L376.746 714.142C383.68 706.196 390.616 697.863 398.759 691.383Z" fill="#F0EEEF"/>
<path d="M351.47 829.816L351.932 830.144C352.523 831.456 352.509 830.837 352.286 832.035C350.124 834.052 340.676 837.118 337.39 838.304C336.945 838.332 337.231 838.344 336.555 838.106C339.051 834.157 346.508 832.841 351.47 829.816Z" fill="#FDFDFE"/>
<path d="M374.429 718.949C376.655 716.974 378.892 715.012 381.141 713.062C375.678 721.976 372.223 725.9 365.173 733.474L364.762 732.868C367.923 728.487 370.937 724.931 373.623 720.202L374.429 718.949Z" fill="#F0EEEF"/>
<path d="M392.249 745.609C391.917 746.511 391.954 746.389 391.155 746.947C382.348 753.101 375.833 758.015 365.707 762.003C367.146 760.504 370.005 759.522 371.486 758.251C377.617 752.988 385.994 749.95 392.249 745.609Z" fill="#D0D0D2"/>
<path d="M301.16 802.97C302.557 801.743 303.991 800.56 305.46 799.418C309.113 796.616 319.47 789.063 323.513 789.615L322.739 790.943C315.401 794.441 308.367 799.394 301.16 802.97Z" fill="#F0EEEF"/>
<path d="M446.806 780.676L448.243 781.702C449.385 784.182 448.144 788.79 446.134 790.334C445.877 788.462 447.506 786.212 447.919 784.448C448.218 783.171 448.433 781.468 448.612 780.148C443.789 786.218 444.339 791.499 437.752 796.472L437.393 796.334L437.991 795.488C439.165 794.071 440.69 792.429 441.455 790.808L441.084 790.518C438.361 792.129 435.563 797.456 432.624 798.27C432.379 797.217 438.774 792.017 439.957 790.957C443.383 787.888 444.806 784.668 446.806 780.676Z" fill="#353436"/>
<path d="M318.758 813.931C322.273 808.752 328.105 801.196 334.087 799.082L334.378 799.357C331.15 804.188 323.687 808.78 319.497 814.454L318.758 813.931Z" fill="#FDFDFE"/>
<path d="M437.785 754.105C438.046 755.784 430.153 764.991 428.686 766.764L427.84 762.323C431.558 758.746 433.489 756.983 437.785 754.105Z" fill="#FDFDFE"/>
<path d="M462.604 686.617L463.369 687.468C461.081 699.51 458.349 706.211 452.241 716.964L451.68 715.732C456.044 707.688 461.767 695.621 462.604 686.617Z" fill="#A6A7A8"/>
<path d="M375.004 794.888C382.492 791.256 389.005 786.777 395.279 783.738C388.814 790.453 384.701 792.668 375.848 795.52L375.004 794.888Z" fill="#F0EEEF"/>
<path d="M363.237 778.078L363.507 778.683C354.887 781.824 348.655 784.404 339.477 785.739C345.009 782.993 357.196 779.009 363.237 778.078Z" fill="#F0EEEF"/>
<path d="M379.09 691.878C383.562 686.535 399.516 669.958 405.816 669.008L405.888 669.313C393.482 677.575 389.792 681.3 379.869 692.213L379.09 691.878Z" fill="#A6A7A8"/>
<path d="M409.775 707.82C410.64 708.799 410.11 708.479 411.462 708.733C409.025 711.399 393.717 726.061 391.176 727.624C392.707 725.312 399.7 718.598 401.953 716.136C403.627 714.306 408.136 709.343 409.775 707.82Z" fill="#A6A7A8"/>
<path d="M150.947 1119.08L150.468 1119.85C148.083 1120.34 142.364 1121.75 140.424 1120.72C138.707 1118.82 138.787 1115.03 138.898 1112.51C138.915 1112.14 138.936 1111.77 138.962 1111.41C139.068 1113.01 138.961 1115.69 139.688 1116.88C140.735 1116.42 141.131 1114.99 141.537 1113.88C142.421 1116.13 142.377 1116.95 142.498 1119.29L144.073 1119.56C145.067 1118.66 147.941 1118.38 149.343 1118.33L148.818 1119.16L149.208 1119.63C150.264 1119.42 150.035 1119.55 150.947 1119.08Z" fill="#181819"/>
<path d="M144.075 1119.55C144.414 1119.93 144.244 1119.68 144.488 1120.34C142.73 1120.82 141.738 1120.49 140.313 1119.46C139.824 1118.54 139.773 1118.79 139.778 1117.9C141.075 1118.04 140.303 1118.39 142.5 1119.29L144.075 1119.55Z" fill="#585859"/>
<path d="M438.644 709.625L439.027 710.93C434.753 719.664 432.293 724.078 425.89 731.798L425.055 731.095C431.364 722.956 433.688 718.365 438.644 709.625Z" fill="#F0EEEF"/>
<path d="M355.289 706.333C354.752 705.656 354.908 705.944 354.715 705.083C356.087 702.439 356.659 700.906 359.036 699.066C359.73 699.337 359.608 699.267 360.336 699.601L359.47 700.894L360.589 700.917C357.161 705.818 354.052 710.887 349.855 715.139C351.874 711.39 352.968 709.768 355.289 706.333Z" fill="#A6A7A8"/>
<path d="M355.293 706.333C354.756 705.656 354.913 705.944 354.719 705.083C356.091 702.439 356.663 700.906 359.04 699.066C359.734 699.337 359.612 699.267 360.341 699.601L359.474 700.894C357.877 702.799 356.739 704.307 355.293 706.333Z" fill="#181819"/>
<path d="M362.629 710.855C362.429 715.339 348.478 730.616 343.57 731.974C345.119 730.02 346.747 729.399 347.844 728.195C350.627 725.14 357.025 719.337 358.93 715.991C358.356 715.496 358.454 715.691 358.114 715.062C359.754 713.712 361.117 712.336 362.629 710.855Z" fill="#353436"/>
<path d="M439.354 757.566C439.738 757.86 439.512 757.649 439.917 758.301C438.7 761.879 433.413 768.037 430.762 770.742C430.49 770.167 430.325 769.645 430.109 769.046C430.644 767.262 437.475 759.975 439.354 757.566Z" fill="#F0EEEF"/>
<path d="M425.497 684.352L425.756 684.622C425.195 686.787 414.26 699.198 411.875 701.012L411.613 700.801C412.021 698.843 423.272 686.471 425.497 684.352Z" fill="#F0EEEF"/>
<path d="M444.385 793.719C444.395 795.432 442.215 798.084 440.948 799.153C434.273 804.79 428.624 805.077 420.309 804.875C420.452 804.369 428.017 804.243 430.224 803.66C436.84 801.915 439.691 798.266 444.385 793.719Z" fill="#888789"/>
<path d="M440.855 779.348L442.034 779.706C442.89 783.312 436.94 789.257 434.35 791.407L433.852 791.073L433.844 790.418C436.539 787.27 438.888 783.014 440.855 779.348Z" fill="#353436"/>
<path d="M396.563 711.199L396.883 711.996C392.7 716.406 382.703 727.214 378.184 730.241C378.636 729.074 394.684 712.847 396.563 711.199Z" fill="#353436"/>
<path d="M418.532 753.688C417.589 759.027 405.04 769.262 400.452 772.562L400.375 772.352C401.576 770.513 408.231 764.893 410.328 762.78C413.452 759.633 415.642 757.114 418.532 753.688Z" fill="#A6A7A8"/>
<path d="M364.571 757.289L365.353 757.336L365.151 757.785C359.44 761.063 353.002 762.713 346.664 764.181L345.754 763.956C347.321 762.871 361.604 758.282 364.571 757.289Z" fill="#F0EEEF"/>
<path d="M368.572 752.52L369.278 752.571C367.769 754.401 355.627 758.754 352.778 759.708L352.293 759.601L352.584 758.929C356.601 756.401 363.952 753.632 368.572 752.52Z" fill="#F0EEEF"/>
<path d="M345.737 774.418L345.802 774.443L345.635 774.942C340.817 778.065 329.923 782.975 324.407 784.535L324.043 784.032C326.045 782.781 342.455 775.916 345.737 774.418Z" fill="#A6A7A8"/>
<path d="M401.334 773.422L401.886 773.889C399.762 778.054 390.19 783.77 386.043 786.051L385.738 786.183C385.886 785.953 400.831 773.741 401.334 773.422Z" fill="#F0EEEF"/>
<path d="M369.438 677.348C373.99 672.123 378.476 668.129 384.514 664.613C386.629 663.382 388.792 662.652 390.933 661.516L391.278 661.56C383.03 666.2 376.807 670.79 370.15 677.701L369.438 677.348Z" fill="#D0D0D2"/>
<path d="M368.43 795.078L368.713 795.285L368.56 795.88C359.446 799.071 355.362 799.897 346.261 802.286C345.995 802.035 346.135 802.217 346.027 801.634C348.261 800.476 350.787 800.488 353.27 799.727C358.32 798.172 363.373 796.613 368.43 795.078Z" fill="#585859"/>
<path d="M474.75 659.798C478.38 659.69 493.818 669.188 497.089 672.361C494.855 671.735 478.816 661.885 474.75 659.798Z" fill="#707071"/>
<path d="M405.198 659.398L405.344 659.723C401.558 662.577 396.351 664.669 392.983 667.28C389.033 670.342 386.876 673.087 382.405 676.318L382.133 676.178C382.562 675.175 390.677 668.418 392.114 667.138C395.482 664.139 401.068 661.216 405.198 659.398Z" fill="#888789"/>
<path d="M286.712 775.242L287.48 775.918C283.895 782.165 282.211 786.854 279.602 793.575C280.748 785.213 281.959 782.317 286.712 775.242Z" fill="#F0EEEF"/>
<path d="M412.214 745.875L412.697 746.038C411.403 747.951 396.997 754.985 392.95 757.439C392.801 757.464 392.914 757.471 392.535 757.236C395.116 754.152 407.88 748.305 412.214 745.875Z" fill="#A6A7A8"/>
<path d="M415.437 793.398L415.483 794.188C411.877 796.201 410.836 796.772 406.926 797.934L407.082 797.756C402.496 798.97 401.665 799.549 397.327 801.477L396.883 801.003C402.578 796.002 408.389 796.974 412.349 794.945L415.437 793.398Z" fill="#585859"/>
<path d="M365.169 733.473C361.401 738.114 351.18 744.347 345.598 746.367C346.186 745.265 351.836 742.158 353.378 741.363C358.076 738.943 361.069 736.615 364.758 732.867L365.169 733.473Z" fill="#585859"/>
<path d="M356.166 766.031C349.451 770.806 347.497 771.982 339.875 774.383L339.262 774.024C345.09 770.92 349.906 768.233 356.166 766.031Z" fill="#F0EEEF"/>
<path d="M308.564 828.008C308.444 820.395 314.341 811.555 319.478 806.355L319.814 807.036C314.467 813.086 310.267 820.091 308.906 828.137L308.564 828.008Z" fill="#A6A7A8"/>
<path d="M329.296 814.84C329.364 815.646 327.802 817.472 327.212 818.428C324.728 822.445 323.213 825.057 321.895 829.547C320.21 824.899 325.359 817.371 329.296 814.84Z" fill="#F0EEEF"/>
<path d="M394.9 789.562L395.148 790.536C389.238 794.459 385.503 796.362 378.598 797.893C383.744 795.075 389.628 792.242 394.9 789.562Z" fill="#F0EEEF"/>
<path d="M388.512 802.246L389.13 802.327L388.778 802.979L388.536 802.619L388.197 803.36C383.75 805.903 379.232 806.79 374.294 807.81L373.641 807.729C375.35 806.372 385.905 803.101 388.512 802.246Z" fill="#F0EEEF"/>
<path d="M368.431 732.992L368.64 733.229C368.214 736.578 359.614 742.012 356.905 743.562L356.675 743.419L356.66 743.006C360.215 739.617 364.56 736.641 368.431 732.992Z" fill="#F0EEEF"/>
<path d="M444.086 728.215C442.811 732.821 434.259 743.463 430.575 746.824C430.501 746.067 430.437 745.854 431.003 745.213C435.837 739.735 439.841 734.128 444.086 728.215Z" fill="#888789"/>
<path d="M429.051 705.086C428.465 707.369 416.185 723.657 414.103 726.506C413.947 724.111 426.971 707.484 429.051 705.086Z" fill="#353436"/>
<path d="M136.594 1098.77L137.411 1099.66C136.637 1102.04 135.931 1105.5 135.624 1107.99C135.285 1110.74 135.693 1112.61 134.759 1115.3L134.367 1115.32C133.088 1111.02 135.473 1103.11 136.594 1098.77Z" fill="#D0D0D2"/>
<path d="M436.18 726.828L446.594 710.223C447.181 712.317 438.061 725.625 436.257 727.755L436.18 726.828Z" fill="#A6A7A8"/>
<path d="M440.758 741.653C441.548 740.372 452.709 725.883 453.059 725.664C451.491 730.28 444.25 738.944 440.917 742.768L440.758 741.653Z" fill="#353436"/>
<path d="M336.9 723.281L337.131 723.826C331.505 728.724 325.923 732.257 318.775 734.596L318.438 734.31C319.313 733.129 323.371 732.059 324.855 731.198C329.448 728.532 332.87 726.713 336.9 723.281Z" fill="#707071"/>
<path d="M178.071 1059.73L178.25 1060.12C177.939 1062.75 172.251 1069.61 170.989 1072.89L170.438 1072.14C170.596 1069.45 176.077 1061.9 178.071 1059.73Z" fill="#181819"/>
<path d="M340.817 817.582L340.943 818.886C339.169 820.291 329.831 829.917 329.746 829.945C331.155 825.778 337.157 820.17 340.817 817.582Z" fill="#D0D0D2"/>
<path d="M610.296 1193.08L610.539 1194.31C606.474 1197.14 603.114 1202.27 598.207 1203.66C598.507 1202.92 608.996 1194.21 610.296 1193.08Z" fill="#D0D0D2"/>
<path d="M347.056 826.059L347.532 826.415C347.135 827.29 343.746 829.298 342.356 830.598C339.392 833.368 338.036 834.736 335.553 837.935L334.999 837.79L334.98 837.093C338.012 832.364 342.459 829.164 347.056 826.059Z" fill="#585859"/>
<path d="M311.17 764.789L311.777 765.436C309.054 766.713 306.604 768.333 304.061 769.933C301.924 771.328 301.445 771.707 299.622 773.49L299.074 773.004C303.937 767.988 304.359 767.449 311.17 764.789Z" fill="#F0EEEF"/>
<path d="M337.757 726.824L338.117 726.901L338.143 727.518C333.298 732.105 326.161 733.62 319.85 735.948L319.848 735.605C322.384 733.693 329.024 732.098 332.105 730.659C334.144 729.707 335.963 728.193 337.757 726.824Z" fill="#353436"/>
<path d="M433.229 793.754C433.495 793.989 433.342 793.811 433.499 794.398C429.87 797.872 422.509 801.82 417.647 803.088L417.301 802.877C423.085 800.302 427.927 797.155 433.229 793.754Z" fill="#353436"/>
<path d="M340.82 817.583C341.398 817.012 352.419 810.148 353.17 809.93L353.443 810.294C350.872 812.614 344.211 816.664 340.946 818.887L340.82 817.583Z" fill="#585859"/>
<path d="M406.789 787.707L406.971 787.805C405.852 790.999 396.979 795.972 393.93 797.365L393.648 797.086C393.93 796.6 404.953 789.102 406.789 787.707Z" fill="#353436"/>
<path d="M393.685 710.337C390.965 713.055 388.094 715.569 385.397 718.355C383.761 720.047 382.899 722.014 381.261 723.264L380.961 722.914C383.068 719.011 389.341 712.865 392.862 709.988L393.685 710.337Z" fill="#181819"/>
<path d="M172.167 1040.26C169.368 1043.64 163.089 1049.41 161.321 1052.52L160.809 1052.2C163.539 1046.93 167.028 1043.16 172.167 1040.26Z" fill="#D0D0D2"/>
<path d="M370.24 779.281L370.546 779.344C366.753 781.684 359.133 783.798 354.754 784.728L354.293 784.674L354.418 784.311C360.261 782.138 364.266 780.916 370.24 779.281Z" fill="#D0D0D2"/>
<path d="M400.022 686.812L400.397 687.27C398.069 689.872 390.163 695.862 386.267 699.753L386.117 699.324C389.395 695.068 395.652 690.109 400.022 686.812Z" fill="#707071"/>
<path d="M463.394 702.906C463.979 705.232 457.408 715.492 455.762 718.944C455.432 717.034 461.97 704.747 463.394 702.906Z" fill="#353436"/>
<path d="M419.801 766.984L419.974 767.171L419.925 767.815C417.278 771.368 414.994 774.139 411.379 776.742L411.109 776.305C413.046 773.386 417.168 769.494 419.801 766.984Z" fill="#D0D0D2"/>
<path d="M483.075 659.102C489.014 661.227 491.739 662.364 496.192 666.756L495.468 667.108C491.601 663.697 487.334 661.564 482.574 659.766L483.075 659.102Z" fill="#D0D0D2"/>
<path d="M496.19 666.758C500.805 671.232 502.355 673.31 505.853 678.494L505.829 679.124C505.736 679.086 496.546 668.252 495.465 667.111L496.19 666.758Z" fill="#353436"/>
<path d="M410.338 803.434L411.293 803.535L410.743 804.227C406.843 806.114 402.348 806.458 398.081 806.888L397.612 806.944L397.359 806.742C399.107 805.811 406.732 804.717 410.338 803.434Z" fill="#888789"/>
<path d="M433.299 653.496C434.193 653.663 433.838 653.614 434.732 653.713L435.353 653.779L435.582 654.337L435.836 653.837L436.079 653.893L435.836 654.365L436.375 654.149C435.552 654.584 425.673 655.829 422.95 656.613C421.783 657.116 421.486 657.14 420.268 657.398L420.121 657.105C425.158 654.752 430.594 654.704 433.299 653.496Z" fill="#353436"/>
<path d="M319.499 814.456C315.585 820.044 314.343 823.786 311.188 828.75C311.887 824.912 316.32 816.914 318.76 813.934L319.499 814.456Z" fill="#585859"/>
<path d="M436.973 703.48C434.847 709.45 431.772 713.594 428.36 718.865L427.59 718.585C430.552 713.942 434.018 707.732 436.973 703.48Z" fill="#A6A7A8"/>
<path d="M449.885 691.305L450.239 691.752C448.745 697.687 446.831 701.853 444.113 707.313C445.187 701.597 448.134 696.747 449.885 691.305Z" fill="#A6A7A8"/>
<path d="M349.581 709.914C349.867 712.521 343.14 720.453 341.118 722.452C341.035 721.463 348.469 711.386 349.581 709.914Z" fill="#707071"/>
<path d="M149.341 1118.33C152.419 1117.13 155.774 1113.47 157.835 1112.97C155.541 1116.57 153.727 1116.81 150.945 1119.08C150.033 1119.55 150.263 1119.42 149.206 1119.63L148.816 1119.16L149.341 1118.33Z" fill="#353436"/>
<path d="M389.676 709.28C391.241 706.694 393.398 702.791 395.675 700.855L397.036 701.404C395.068 704.356 392.298 706.923 389.676 709.28Z" fill="#707071"/>
<path d="M631.365 1174.31L632.077 1174.79C629.28 1177.81 625.968 1181.7 622.215 1183.25C622.632 1182.37 629.794 1175.94 631.365 1174.31Z" fill="#707071"/>
<path d="M355.186 825.621C355.703 827.723 357.594 829.792 356.533 831.331C355.241 831.59 354.605 831.776 353.266 831.724C352.967 830.25 352.947 830.254 353.058 828.772L353.587 828.65L355.094 830.424C355.823 828.686 354.102 828.642 355.186 825.621Z" fill="#A6A7A8"/>
<path d="M369.036 711.117C367.975 713.747 363.185 719.63 360.523 721.154C361.919 718.596 366.566 712.717 369.036 711.117Z" fill="#A6A7A8"/>
<path d="M482.574 659.768C480.915 659.329 470.768 656.851 470.301 655.934C473.857 656.178 479.504 658.026 483.075 659.104L482.574 659.768Z" fill="#707071"/>
<path d="M369.038 711.116C368.887 707.553 369.892 706.921 372.536 704.773L373.282 705.041C371.462 707.178 372.621 706.437 371.706 708.925C370.946 709.555 369.8 710.562 369.038 711.116Z" fill="#181819"/>
<path d="M426.584 774.066C426.359 776.839 421.429 781.334 419.316 783.069C419.165 780.512 424.466 777.143 426.584 774.066Z" fill="#A6A7A8"/>
<path d="M356.195 734.863L356.291 735.873C352.969 738.485 349.375 740.157 345.559 741.909C348.155 739.595 353.098 736.762 356.195 734.863Z" fill="#888789"/>
<path d="M427.02 657.828L427.554 658.485C423.041 659.814 419.897 661.307 414.879 662.576C419.587 659.897 421.725 659.277 427.02 657.828Z" fill="#D0D0D2"/>
<path d="M456.95 674.242L457.359 675.078C457.124 678.651 456.433 681.11 455.225 684.454L454.883 683.832C455.121 680.378 455.682 677.482 456.95 674.242Z" fill="#D0D0D2"/>
<path d="M320.084 786.023C321.053 786.41 320.707 786.064 321.217 787.001L320.983 787.666L320.205 787.95C318.748 787.489 316.201 788.689 314.864 789.344L314.305 789.621L313.305 789.886C314.043 788.386 318.48 786.682 320.084 786.023Z" fill="#585859"/>
<path d="M348.535 707.578C349.636 703.766 352.951 699.132 355.677 696.277C354.49 699.347 350.516 704.93 348.535 707.578Z" fill="#A6A7A8"/>
<path d="M377.46 798.645L377.806 798.721L377.884 799.183C375.826 800.746 371.966 801.564 369.452 802.111L369.125 801.912C370.69 800.463 375.346 799.24 377.46 798.645Z" fill="#F0EEEF"/>
<path d="M301.212 744.821C299.506 746.012 292.389 748.555 290.301 748.768C291.002 747.282 298.517 745.691 300.931 743.98L301.212 744.821Z" fill="#585859"/>
<path d="M403.369 761.262C400.2 765.249 396.993 767.361 392.891 770.377L392.547 769.526C396.386 766.932 399.689 763.9 403.369 761.262Z" fill="#A6A7A8"/>
<path d="M376.128 774.184C372.321 776.718 367.958 777.635 363.508 778.687L363.238 778.082C367.671 777.027 371.751 775.364 376.128 774.184Z" fill="#585859"/>
<path d="M351.728 797.049C352.163 797.021 351.913 796.993 352.458 797.244C351.446 798.074 343.805 800.479 341.929 801.143L341.559 801.188C342.556 799.463 349.603 797.641 351.728 797.049Z" fill="#353436"/>
<path d="M407.676 725.332L407.883 726.099C406.784 727.786 402.96 731.245 401.321 732.684L400.969 732.051C402.558 729.965 405.683 727.207 407.676 725.332Z" fill="#181819"/>
<path d="M476 654.531C479.353 654.841 484.982 655.772 487.565 658.007C483.885 657.167 479.421 656.07 476 654.531Z" fill="#A6A7A8"/>
<path d="M366.133 727.341C367.886 723.938 370.817 720.387 374.424 718.945L373.619 720.198C371.517 721.596 368.026 725.405 366.133 727.341Z" fill="#888789"/>
<path d="M610.297 1193.08C611.884 1191.45 613.475 1190.4 615.305 1189.07L615.515 1189.16C613.677 1192.16 613.03 1191.99 610.54 1194.31L610.297 1193.08Z" fill="#353436"/>
<path d="M444.718 731.785C444.894 733.986 440.984 738.488 439.535 740.335C439.392 738.485 443.386 733.579 444.718 731.785Z" fill="#353436"/>
<path d="M351.394 806.238L352.526 806.311L352.525 806.635C350.797 807.894 348.28 808.822 346.268 809.684L345.336 809.79L345.513 809.308C347.749 807.757 348.901 807.315 351.394 806.238Z" fill="#888789"/>
<path d="M389.914 754.027C390.24 754.377 390.088 754.237 390.066 754.989C388.455 757.055 386.166 758.447 383.947 759.821L383.641 759.526C383.905 758.709 388.28 755.712 389.914 754.027Z" fill="#181819"/>
<path d="M433.764 746.059C432.044 749.391 429.931 751.001 428.66 753.294L427.426 753.923C429.748 749.556 429.929 749.079 433.764 746.059Z" fill="#A6A7A8"/>
<path d="M443.209 751.535L443.583 751.973C443.217 753.881 441.724 755.706 440.444 757.119C440.13 756.61 440.144 756.499 439.953 755.924C440.763 753.879 441.702 753.129 443.209 751.535Z" fill="#F0EEEF"/>
<path d="M408.596 775.031C408.953 775.218 408.719 775.062 409.103 775.705C407.778 778.274 407.752 779.791 405.55 781.419L405.434 780.532C407.021 777.705 406.084 778.129 408.596 775.031Z" fill="#181819"/>
<path d="M345.759 789.938L345.958 790.211C343.051 791.292 341.257 791.635 338.195 792.269L338.05 792.157L338.012 791.749C340.165 790.437 343.28 790.134 345.759 789.938Z" fill="#A6A7A8"/>
<path d="M339.259 774.023L339.873 774.383C338.625 775.339 334.646 776.369 332.995 776.839L332.41 776.346L332.048 776.502L332.14 777.045L331.659 776.677L331.668 777.136L331.304 776.853L331.113 776.942C333.852 775.569 336.208 775.244 339.259 774.023Z" fill="#353436"/>
<path d="M390.359 724.461L390.638 724.782C389.923 726.392 385.779 730.222 384.254 731.513L384 731.384C385.059 729.475 388.67 726.108 390.359 724.461Z" fill="#353436"/>
<path d="M452.181 660.969L452.372 661.102C451.569 663.136 449.178 665.148 447.545 666.624L447.219 666.263C448.05 664.228 450.468 662.346 452.181 660.969Z" fill="#A6A7A8"/>
<path d="M603.81 1152.36L604.344 1152.96C603.793 1155.08 603.405 1157.94 602.915 1160.22L602.769 1160.36L602.445 1160.05C602.595 1157.6 602.474 1154.19 603.81 1152.36Z" fill="#585859"/>
<path d="M288.378 778.879L289.028 779.7C287.525 782.154 286.812 783.623 285.618 786.26L285.062 785.367C286.053 783.173 287.249 781.009 288.378 778.879Z" fill="#A6A7A8"/>
<path d="M350.917 794.703C351.919 794.598 352.198 794.59 353.16 794.885L352.905 794.59L353.455 794.732C352.455 795.27 350.77 795.631 349.619 795.946C348.199 796.177 347.957 796.177 346.507 796.153L346.309 795.809C348.134 794.841 348.881 794.906 350.917 794.703Z" fill="#707071"/>
<path d="M375.85 795.522C373.523 795.911 371.33 797.085 368.453 797.64L368.475 797.316C370.463 795.939 372.644 795.547 375.006 794.891L375.85 795.522Z" fill="#707071"/>
<path d="M284.804 811.098L284.915 811.839C284.219 813.633 283.882 813.94 282.606 815.41C282.158 813.948 282.16 814.033 282.46 812.535C283.525 811.256 283.057 811.665 284.804 811.098Z" fill="#F0EEEF"/>
<path d="M378.127 734.711L378.324 734.839C376.683 737.109 374.464 738.483 372.11 739.884L371.809 739.539C372.612 738.445 376.765 735.674 378.127 734.711Z" fill="#707071"/>
<path d="M452.241 716.963C451.904 718.744 450.889 720.113 449.684 721.403L449.38 721.3C449.31 718.804 451.686 719.434 451.022 715.973L451.68 715.73L452.241 716.963Z" fill="#353436"/>
<path d="M410.131 681.525C408.605 682.959 407.443 683.965 405.829 685.282C405.023 685.367 405.412 685.223 404.752 686.008L404.707 685.98L405.22 685.528C405.352 684.549 408.973 681.543 409.937 680.66L410.131 681.525Z" fill="#888789"/>
<path d="M308.566 828.008L308.908 828.137C308.907 830.79 309.533 831.466 308.978 834.438L308.642 834.758L308.672 834.823L308.96 833.977L308.372 833.475C308.114 831.264 308.198 830.174 308.566 828.008Z" fill="#353436"/>
<path d="M440.757 741.656L440.916 742.771C440.162 743.724 438.492 746.113 437.262 746.111C437.984 744.288 439.375 743.102 440.757 741.656Z" fill="#D0D0D2"/>
<path d="M423.036 740.766L423.149 740.823C422.801 742.364 420.298 744.206 419.006 745.194L418.746 744.931C419.123 743.245 421.591 741.756 423.036 740.766Z" fill="#707071"/>
<path d="M373.91 698.264C375.307 696.25 377.337 693.551 379.092 691.879L379.871 692.214C377.81 694.508 376.28 696.302 373.91 698.264Z" fill="#585859"/>
<path d="M446.096 678.691C445.844 680.859 444.179 683.227 442.876 684.911L442.727 684.033C443.547 681.886 444.727 680.535 446.096 678.691Z" fill="#888789"/>
<path d="M632.422 1140.78L632.669 1141.09C631.357 1143.07 629.661 1144.34 627.847 1145.88L627.535 1145.61C627.766 1144.58 631.337 1141.74 632.422 1140.78Z" fill="#353436"/>
<path d="M333.176 733.711C330.834 735.495 329.55 736.401 326.754 737.537L326.352 736.573L333.176 733.711Z" fill="#A6A7A8"/>
<path d="M334.082 804.602L334.694 804.885C333.807 805.982 331.49 807.039 330.15 807.76L329.752 807.768L329.695 807.303C331.208 805.926 332.283 805.492 334.082 804.602Z" fill="#353436"/>
<path d="M136.598 1098.77C137.557 1096.19 138.095 1094.45 139.649 1092.2L137.415 1099.66L136.598 1098.77Z" fill="#A6A7A8"/>
<path d="M445.21 683.789L445.808 684.461C445.77 685.981 445.093 686.551 444.129 687.852L443.512 687.184C443.624 685.763 444.379 684.985 445.21 683.789Z" fill="#F0EEEF"/>
<path d="M443.63 665.746C443.546 667.672 441.476 669.67 440.076 670.813C439.945 670.339 440.003 670.661 440.101 669.83C441.29 668.227 442.059 666.985 443.63 665.746Z" fill="#181819"/>
<path d="M460.746 660.309C462.997 662.09 462.601 663.627 462.642 666.296C461.704 665.554 461.225 662 460.746 660.309Z" fill="#353436"/>
<path d="M161.297 1054.8L161.734 1055.28C161.523 1056.59 160.299 1057.99 159.475 1059.13L158.906 1058.64C159.299 1057.05 160.26 1056.11 161.297 1054.8Z" fill="#353436"/>
<path d="M408.954 702.621L409.094 703.096C408.292 704.574 406.354 706.077 404.949 706.997L404.891 706.86C405.416 705.271 407.587 703.509 408.954 702.621Z" fill="#353436"/>
<path d="M401.087 786.43C399.051 788.255 397.483 789.123 395.15 790.539L394.902 789.565C397.276 788.146 398.542 787.537 401.087 786.43Z" fill="#888789"/>
<path d="M291.456 769.457C290.16 771.955 289.061 773.573 287.479 775.915L286.711 775.239C288.364 773.03 289.619 771.519 291.456 769.457Z" fill="#A6A7A8"/>
<path d="M427.023 657.825C428.65 657.446 430.407 656.85 431.986 657.146C430.998 658.026 428.996 658.211 427.557 658.482L427.023 657.825Z" fill="#353436"/>
<path d="M165.674 1074.34L165.799 1074.75C165.377 1075.86 163.231 1077.55 162.24 1078.44L162.129 1078.02C162.562 1076.46 164.353 1075.18 165.674 1074.34Z" fill="#181819"/>
<path d="M428.36 718.867C427.168 720.469 426.155 721.843 424.706 723.241L424.842 723.271L424.488 722.565C424.939 721.833 426.894 719.534 427.59 718.586L428.36 718.867Z" fill="#353436"/>
<path d="M444.588 655.238C445.491 655.287 445.188 655.201 446.003 655.683C445.21 656.392 443.328 656.651 442.181 656.905L441.633 657.27L441.195 657.036C442.149 655.98 443.233 655.747 444.588 655.238Z" fill="#353436"/>
<path d="M453.248 675.789C453.634 677.911 453.133 679.925 452.129 681.802L451.836 681.59C452.209 679.338 452.357 677.929 453.248 675.789Z" fill="#181819"/>
<path d="M441.898 704.234C440.926 706.811 440.279 708.491 439.024 710.93L438.641 709.626C439.772 707.465 440.537 706.257 441.898 704.234Z" fill="#888789"/>
<path d="M449.891 691.308C450.106 689.857 450.492 687.621 451.526 686.562C451.838 688.414 450.738 689.776 450.245 691.755L449.891 691.308Z" fill="#353436"/>
<path d="M356.195 734.861C358.151 733.412 358.81 733.075 360.936 732.027C359.078 733.866 358.525 734.474 356.291 735.871L356.195 734.861Z" fill="#353436"/>
<path d="M320.652 771.16C319.141 772.525 317.881 773.745 316.155 774.854L315.781 773.408C317.371 772.671 319.055 771.85 320.652 771.16Z" fill="#F0EEEF"/>
<path d="M441.346 699.504L441.835 700.315C441.364 701.25 440.422 703.427 439.379 703.626C439.591 702.018 440.474 700.914 441.346 699.504Z" fill="#707071"/>
<path d="M436.177 726.828L436.255 727.755C435.566 728.879 434.883 730.358 433.744 730.815L433.734 730.083C434.602 728.416 434.849 728.177 436.177 726.828Z" fill="#353436"/>
<path d="M403.175 779.566L403.341 779.744L403.288 780.372C401.906 781.79 400.965 782.195 399.257 783.159L399.055 783.024C399.809 781.808 401.93 780.47 403.175 779.566Z" fill="#A6A7A8"/>
<path d="M413.848 717.92L416.32 714.812L417.21 715.374L414.266 718.812L413.848 717.92Z" fill="#A6A7A8"/>
<path d="M420.083 669.121L420.439 669.327C419.095 670.63 417.842 671.079 416.154 671.888L415.695 671.616C416.678 670.444 418.62 669.777 420.083 669.121Z" fill="#181819"/>
<path d="M462.605 686.614C462.839 685.208 462.993 682.983 463.741 681.977C463.897 684.173 463.673 685.323 463.371 687.465L462.605 686.614Z" fill="#353436"/>
<path d="M374.346 711.887C374.365 712.139 374.251 712.703 374.207 712.983C372.901 714.554 372.638 714.799 370.965 715.971C371.166 714.333 373.113 712.922 374.346 711.887Z" fill="#181819"/>
<path d="M421.402 736.091C422.569 734.386 423.818 732.746 425.052 731.09L425.887 731.793C424.559 733.49 423.03 734.697 421.402 736.091Z" fill="#A6A7A8"/>
<path d="M413.845 717.918L414.264 718.81C412.478 720.878 411.805 721.453 409.68 723.172L413.845 717.918Z" fill="#707071"/>
<path d="M428.88 662.391L429.644 662.66C428.906 663.62 426.563 664.424 425.326 664.956L424.734 664.848C425.306 663.935 427.767 662.937 428.88 662.391Z" fill="#353436"/>
<path d="M383.103 702.156L383.477 702.294C383.233 703.479 381.979 704.563 381.062 705.612L380.461 705.129C380.8 703.968 382.078 703.107 383.103 702.156Z" fill="#181819"/>
<path d="M359.625 801.809C360.416 801.914 360.154 801.861 360.893 802.23C359.9 802.72 359.081 803.056 358.065 803.469L356.004 802.93L356.261 802.708C357.399 802.59 358.524 802.161 359.625 801.809Z" fill="#181819"/>
<path d="M426.423 666.305L426.306 666.882C425.182 668.071 423.791 668.461 422.246 669.104L422.246 668.679C423.315 667.634 425.036 666.965 426.423 666.305Z" fill="#353436"/>
<path d="M606.539 1151.81L606.887 1151.84C606.976 1152.59 605.83 1154.59 605.413 1155.46L605.114 1155.17C605.102 1153.91 605.369 1153.46 605.749 1152.23L606.539 1151.81Z" fill="#585859"/>
<path d="M323.513 789.616C324.842 789.341 325.254 788.97 326.092 789.496C324.764 790.553 324.446 790.526 322.738 790.945L323.513 789.616Z" fill="#585859"/>
<path d="M438.759 671.84L438.928 671.968C438.828 673.121 437.132 674.293 436.006 675.727L435.81 675.98L435.488 675.674C435.981 674.363 437.672 672.943 438.759 671.84Z" fill="#353436"/>
<path d="M601.586 1175.69L601.788 1175.8C600.707 1177.44 601.149 1177.07 599.007 1177.76L598.035 1177.85C598.675 1176.98 600.541 1176.22 601.586 1175.69Z" fill="#181819"/>
<path d="M446.363 745.465C446.63 747.348 445.19 748.357 443.788 749.2L443.734 748.945C444.645 747.519 445.272 746.775 446.363 745.465Z" fill="#585859"/>
<path d="M174.125 1073.52C175.531 1074.59 176.245 1076.22 177.094 1077.77C175.16 1076.96 174.744 1075.39 174.125 1073.52Z" fill="#353436"/>
<path d="M448.363 684.316L448.698 684.676C448.752 685.832 447.977 687.085 447.444 688.183L446.988 687.853C447.116 686.349 447.63 685.683 448.363 684.316Z" fill="#707071"/>
<path d="M434.357 777.098L434.702 777.622C434.695 778.999 434.067 779.68 433.318 780.862L432.989 780.583C432.827 779.373 433.671 778.375 434.357 777.098Z" fill="#353436"/>
<path d="M161.326 1052.53C160.594 1053.45 160.123 1053.96 159.294 1054.8L158.805 1054.71C159.199 1053.44 159.812 1053.09 160.813 1052.2L161.326 1052.53Z" fill="#353436"/>
<path d="M396.566 711.204C397.253 710.205 397.372 709.842 398.506 709.402L398.798 709.844C398.185 711.053 397.919 711.172 396.887 712.001L396.566 711.204Z" fill="#181819"/>
<path d="M368.037 690.059L368.288 690.29C367.381 691.639 365.916 693.002 364.752 694.185L364.488 693.91C364.829 692.772 366.994 691.053 368.037 690.059Z" fill="#353436"/>
<path d="M410.23 751.973L410.372 752.604C409.706 754.018 410.176 753.381 408.634 754.346L408.18 754.052C408.431 753.183 409.37 752.687 410.23 751.973Z" fill="#353436"/>
<path d="M441.346 699.503L441.07 698.813C441.697 697.947 441.851 697.832 442.648 697.102L443.06 697.212L441.835 700.314L441.346 699.503Z" fill="#353436"/>
<path d="M452.045 689.566C452.278 691.27 451.579 692.365 450.833 693.873C450.278 692.354 451.158 690.764 452.045 689.566Z" fill="#353436"/>
<path d="M453.059 725.669C453.537 723.822 453.962 722.552 455.591 721.414C455.074 722.693 454.049 724.73 453.059 725.669Z" fill="#353436"/>
<path d="M412.664 791.113L413.322 791.451C412.804 792.562 412.443 792.441 411.105 793.18L410.488 793.253C410.755 792.26 411.631 791.914 412.664 791.113Z" fill="#353436"/>
<path d="M360.339 699.601L361.977 698.5L362.229 698.813C361.669 699.614 361.304 700.263 360.591 700.917L359.473 700.894L360.339 699.601Z" fill="#585859"/>
<path d="M427.431 753.926L428.666 753.297C427.85 754.755 427.658 755.384 426.355 755.975L426.223 755.316C426.657 754.642 426.865 754.506 427.431 753.926Z" fill="#353436"/>
<path d="M355.68 696.274C355.717 694.928 356.739 694.033 357.763 693.277C357.188 694.782 357.173 694.888 356.144 696.09L355.68 696.274Z" fill="#353436"/>
<path d="M319.477 806.358C320.633 805.208 320.511 804.953 321.843 804.629C321.386 805.957 321.017 805.941 319.812 807.038L319.477 806.358Z" fill="#353436"/>
<path d="M380.766 701.051C381.924 699.528 382.584 698.79 383.929 697.426L384.753 697.804C383.827 698.745 381.874 700.18 380.766 701.051Z" fill="#707071"/>
<path d="M409.938 680.662C411.05 679.518 410.793 679.439 412.116 679.051C411.691 680.448 411.384 680.354 410.131 681.527L409.938 680.662Z" fill="#353436"/>
<path d="M369.441 677.348L370.154 677.702C369.099 678.899 368.989 679.029 367.68 679.909C367.652 679.01 368.65 678.264 369.441 677.348Z" fill="#888789"/>
<path d="M429.309 664.543L429.685 664.956C428.552 666.131 428.968 665.761 427.241 666.275L426.785 666.462C427.339 665.508 428.317 665.116 429.309 664.543Z" fill="#353436"/>
<path d="M153.21 1096.02L153.624 1095.9C154.131 1096.72 153.798 1097.5 153.668 1098.73C152.804 1097.93 153.137 1097.09 153.21 1096.02Z" fill="#181819"/>
<path d="M432.781 659.418L432.986 659.521C432.327 660.696 431.743 660.506 430.002 661.087L429.832 660.963C430.287 660.019 431.523 659.873 432.781 659.418Z" fill="#181819"/>
<path d="M446.043 694.367L446.324 694.61C446.711 695.753 446.404 695.778 445.89 697.229L445.633 697.116C445.214 696.202 445.665 695.647 446.043 694.367Z" fill="#353436"/>
<path d="M629.277 1148.33C629.593 1149.45 629.642 1150.11 629.184 1151.12L628.727 1150.71L629.277 1148.33Z" fill="#181819"/>
<path d="M347.924 702.036L348.881 702.807C348.248 704.606 347.035 705.867 345.827 707.376L345.501 707.936C344.411 707.955 335.124 713.81 331.745 714.486C314.303 717.975 283.669 719.314 273.621 701.48C283.92 713.865 294.397 714.915 309.917 715.51C305.483 714 296.748 711.144 293.59 707.674C294.163 707.493 296.504 709.05 297.186 709.456C314.712 719.891 332.35 714.804 347.924 702.036Z" fill="#353436"/>
<path d="M348.881 702.805C348.247 704.604 347.034 705.865 345.826 707.374C343.706 707.672 335.245 712.917 331.941 713.074C334.874 711.545 337.816 710.203 340.641 708.506C343.563 706.751 346.059 704.654 348.881 702.805Z" fill="#F0EEEF"/>
<path d="M425.489 975.23L425.659 975.336C423.801 977.867 413.596 986.05 410.904 988.197C389.068 1005.63 363.881 1020.22 336.805 1027.63C333.522 1028.52 327.353 1030.31 324.085 1030.32L323.238 1030.35C348.263 1025.8 376.977 1011.47 397.713 997.004C407.185 990.395 416.578 982.613 425.489 975.23Z" fill="#585859"/>
<path d="M469.738 968.379L470.147 969.152C466.033 976.024 462.705 983.285 458.362 990.072C444.318 1012.01 421.301 1037.08 399.059 1050.72C399.914 1049.68 404.208 1046.9 405.65 1045.72C410.677 1041.56 415.621 1037.3 420.479 1032.94C443.74 1011.79 455.196 995.376 469.738 968.379Z" fill="#585859"/>
<path d="M407.054 879.219L407.255 879.296C406.936 881.239 373.686 898.984 370.807 903.365C372.327 902.632 373.835 901.871 375.33 901.09C373.758 902.754 371.976 903.471 370.132 904.722C357.191 913.513 343.976 922.531 331.451 931.877C330.886 932.545 327.645 934.764 326.664 935.157C329.259 930.723 358.093 912.825 363.819 907.872C375.953 897.384 392.889 887.107 407.054 879.219Z" fill="#888789"/>
<path d="M297.703 741.806C295.543 741.413 287.994 742.538 285.76 743.204C274.01 746.706 265.143 754.941 259.215 765.359L259.098 765.249C262.63 752.705 279.455 741.896 291.941 739.855L291.842 740.559C293.239 741.024 296.293 740.289 297.816 739.978L299.624 740.969L299.521 741.449C298.961 741.568 298.256 741.746 297.703 741.806Z" fill="#181819"/>
<path d="M153.799 988.625L154.629 988.718C153.08 989.641 147.115 991.334 144.968 992.006C138.695 993.958 132.437 995.958 126.196 998.003C109.033 1003.71 96.4288 1008.56 80.3331 1016.35L80 1016.44C92.7518 1007.19 138.179 992.687 153.799 988.625Z" fill="#585859"/>
<path d="M224.094 850.566L224.36 850.809C201.537 858.665 169.777 866.448 145.473 868.631L144.836 868.793C147.531 867.618 156.037 866.655 159.353 865.995C180.952 861.714 203.172 857.527 224.094 850.566Z" fill="#707071"/>
<path d="M300.412 808.73C303.466 806.584 304.471 805.778 307.927 804.531L307.841 804.807C299.359 809.876 289.65 821.68 293.879 833.071C294.285 834.165 296.694 834.954 297.37 836.752L297.225 837.295C295.733 837.125 295.52 836.902 294.53 835.695C287.994 827.706 292.758 814.537 300.412 808.73Z" fill="#090809"/>
<path d="M387.401 910.426L387.583 910.535C383.54 916.172 342.251 939.545 334.044 943.465L333.891 943.392C336.164 941.282 351.713 933.042 355.502 930.823C366.371 924.4 377.011 917.597 387.401 910.426Z" fill="#888789"/>
<path d="M274.408 761.84C274.496 761.65 274.977 761.088 275.129 760.898C276.753 760.292 275.932 760.383 277.691 760.683C266.947 769.11 261.517 779.528 265.43 793.089C258.811 786.677 265.088 771.857 270.356 766.074L269.606 765.359L270.134 764.347C270.4 764.254 271.053 763.874 271.329 763.723L274.408 761.84Z" fill="#181819"/>
<path d="M271.329 763.728L274.407 761.844C273.105 763.627 271.956 764.599 270.356 766.078L269.605 765.363L270.133 764.352C270.4 764.258 271.052 763.878 271.329 763.728Z" fill="#D0D0D2"/>
<path d="M160.388 1001.21L160.527 1001.6C158.259 1002.71 153.667 1003.78 151.048 1004.58C145.3 1006.34 139.566 1008.14 133.846 1009.99C128.757 1011.66 115.788 1016.82 111.562 1017.76L111.32 1017.69C115.452 1016.17 119.976 1014 124.44 1012.34C136.22 1008.01 148.219 1004.29 160.388 1001.21Z" fill="#585859"/>
<path d="M344.992 924.957C345.026 925.127 345.06 925.297 345.095 925.467C334.021 934.983 317.371 947.65 304.923 955.247L304.754 955.149C305.542 954.092 309.035 951.845 310.349 950.922C317.338 945.982 324.239 940.92 331.048 935.732C335.729 932.129 340.165 928.383 344.992 924.957Z" fill="#888789"/>
<path d="M178.18 874.83C186.125 872.627 194.438 871.189 202.531 868.982C210.306 866.861 218.694 863.921 226.581 862.961L224.39 863.495C221.609 864.151 219.194 865.346 216.528 866.034C206.788 868.541 197.172 871.453 187.32 873.506C184.865 874.02 181.627 874.579 179.279 875.336L178.18 874.83Z" fill="#585859"/>
<path d="M389.36 893.391L389.456 893.439L389.507 893.978C388.283 895.124 386.677 896.075 385.325 897.355C373.883 908.187 365.477 913.796 351.491 921.068L351.371 920.995L351.401 920.493C359.365 916.177 364.653 913.14 371.893 907.6C375.828 904.591 385.983 895.01 389.36 893.391Z" fill="#A6A7A8"/>
<path d="M430.978 626.172C433.715 626.053 436.531 625.874 439.261 626.132C450.271 627.172 459.945 635.114 460.017 646.783L459.132 646.03C458.755 640.789 456.274 635.924 452.253 632.542C445.766 627.047 438.445 626.286 430.34 627.028L430.978 626.172Z" fill="#353436"/>
<path d="M520.998 824.004L521.63 824.652C520.334 828.029 519.508 834.087 518.221 837.671C515.804 844.421 512.739 851.511 509.824 858.059C510.763 852.253 514.678 845.356 516.614 839.703C518.391 834.516 519.634 829.309 520.998 824.004Z" fill="#585859"/>
<path d="M415.503 873.957L415.968 874.002C413.368 877.504 399.978 878.707 395.912 878.873C395.436 878.715 395.678 878.857 395.277 878.318C397.124 877.342 409.857 876.16 415.503 873.957Z" fill="#353436"/>
<path d="M433.876 1030.21L433.896 1030.64C431.871 1035.48 415.541 1049.68 410.957 1053.26C410.953 1051.96 415.883 1048.26 417.194 1047.04C422.949 1041.64 428.911 1036.37 433.876 1030.21Z" fill="#888789"/>
<path d="M502.596 799.506C503.827 797.724 504.495 796.623 506.119 795.137C506.111 796.169 505.163 797.384 504.556 798.417C507.689 797.915 510.078 797.542 513.232 797.344C510.021 798.348 508.05 798.866 504.754 799.506C507.341 802.365 510.645 805.438 511.054 809.285C509.576 807.107 506.256 800.729 503.649 799.984L503.094 800.441L501.965 800.798L500.147 801.065L499.382 800.976L498.965 800.239C499.714 799.895 500.953 799.879 501.864 799.672L502.596 799.506Z" fill="#888789"/>
<path d="M509.039 844.312C510.517 838.448 511.14 833.888 511.165 827.798C511.173 825.409 510.82 821.521 510.918 819.367C511.096 819.942 511.266 820.513 511.424 821.092C513.416 828.28 511.569 838.221 509.699 845.259L509.039 844.312Z" fill="#353436"/>
<path d="M427.918 827.629C428.965 828.783 429.368 831.395 429.54 832.962C430.301 839.866 428.073 847.609 423.859 853.031L423.434 852.711C429.311 844.037 429.127 837.55 427.918 827.629Z" fill="#353436"/>
<path d="M300.681 953.043C301.097 953.448 301.255 953.513 301.521 953.999C297.677 957.627 287.278 966.997 283.152 969.897L282.875 969.39C285.07 968.03 298.581 955.319 300.681 953.043Z" fill="#353436"/>
<path d="M490.59 801.913L491.319 801.164C492.566 806.975 498.096 818.771 497.991 821.707C496.076 818.346 491.201 805.687 490.59 801.913Z" fill="#353436"/>
<path d="M267.496 764.216L267.82 764.646L269.238 763.875C269.493 763.999 269.934 764.185 270.133 764.349L269.605 765.361C267.052 767.34 265.269 770.006 263.438 772.626C264.252 769.865 264.866 767.983 265.935 765.32L267.496 764.216Z" fill="#585859"/>
<path d="M253.572 777.634C254.388 776.803 254.438 776.646 255.431 776.023L256.263 776.769C254.987 780.355 254.303 780.816 255.387 784.609L255.079 784.727C252.913 783.129 253.18 780.013 253.572 777.634Z" fill="#707071"/>
<path d="M495.039 797.856L495.808 797.516C496.286 800.488 495.638 798.872 497.456 800.711L496.695 801.33C496.614 803.484 497.926 807.963 498.671 810.057L497.723 811.114C496.545 806.007 495.78 803.055 495.039 797.856Z" fill="#585859"/>
<path d="M419.91 815.09C424.085 815.835 427.649 821.204 427.494 825.416C426.919 824.881 426.961 825.055 426.735 824.359C425.353 820.075 423.207 817.904 419.91 815.09Z" fill="#181819"/>
<path d="M481.106 986.145L481.865 986.639C480.218 990.352 479.055 993.126 476.668 996.41C477.438 994.11 479.925 988.238 481.106 986.145Z" fill="#181819"/>
<path d="M277.227 802.251C275.961 804.672 275.306 808.114 271.755 809.054C271.053 809.24 270.724 809.422 270.141 809.054C270.692 808.26 271.473 808.066 272.448 807.778C275.023 807.013 275.63 803.457 276.809 801.02L277.227 802.251Z" fill="#353436"/>
<path d="M498.672 810.059C499.211 811.015 500.073 812.27 500.118 813.311C499.073 812.047 498.729 811.464 497.879 810.047C498.3 812.408 498.777 814.813 499.037 817.194L498.786 817.401C497.563 815.497 497.433 813.327 497.725 811.116L498.672 810.059Z" fill="#A6A7A8"/>
<path d="M515.464 833.711C515.974 836.266 513.946 843.385 513.091 845.985L512.938 845.73C513.132 842.968 514.674 836.44 515.464 833.711Z" fill="#A6A7A8"/>
<path d="M469.734 968.382C470.81 965.94 472.956 962.506 474.359 960.117C473.596 962.689 471.623 966.868 470.144 969.155L469.734 968.382Z" fill="#A6A7A8"/>
<path d="M513.879 854.142C514.207 852.061 516.672 847.477 517.729 845.363C517.227 848.044 515.62 850.615 515.429 852.737C514.741 853.527 514.745 853.58 513.879 854.142Z" fill="#888789"/>
<path d="M503.094 800.445C503.811 803.426 504.604 803.859 505.297 808.115C504.41 805.839 503.022 803.061 501.965 800.802L503.094 800.445Z" fill="#D0D0D2"/>
<path d="M257.245 740.502C255.197 742.144 253.205 744.233 250.973 745.481C252.57 743.04 254.132 741.751 256.423 740.07L257.245 740.502Z" fill="#585859"/>
<path d="M312.674 842.551C314.517 843.134 319.141 844.519 320.1 845.908C317.306 845.62 314.763 843.883 312.273 843.02L312.674 842.551Z" fill="#353436"/>
<path d="M459.133 646.027L460.018 646.781C459.97 648.15 459.572 652.203 460.189 653.007L459.809 653.398L458.742 652.694C459.317 651.334 459.137 647.719 459.133 646.027Z" fill="#585859"/>
<path d="M395.314 880.348L395.629 880.388L395.623 880.813C393.623 882.482 391.202 883.668 388.905 884.928L388.461 884.672C390.533 883.174 393.101 881.692 395.314 880.348Z" fill="#A6A7A8"/>
<path d="M499.383 800.977L500.148 801.066C501.253 803.641 501.569 805.706 501.982 808.476C501.225 806.986 499.954 802.738 499.383 800.977Z" fill="#D0D0D2"/>
<path d="M505.029 828.91C506.009 830.218 506.001 833.903 506.021 835.596L505.268 834.806C505.098 832.668 504.952 831.081 505.029 828.91Z" fill="#A6A7A8"/>
<path d="M430.336 627.032C429.529 627.31 426.712 627.875 426.016 627.399C427.566 626.458 429.143 626.429 430.975 626.176L430.336 627.032Z" fill="#A6A7A8"/>
<path d="M283.151 969.893C282.665 970.934 280.869 972.335 279.695 972.31C280.187 971.043 281.704 970.221 282.873 969.387L283.151 969.893Z" fill="#D0D0D2"/>
<path d="M509.038 844.312L509.698 845.26C509.155 846.851 508.771 848.123 507.993 849.621L507.852 848.791C508.459 847.896 508.799 845.495 509.038 844.312Z" fill="#888789"/>
<path d="M179.279 875.342C177.354 875.808 176.736 875.925 174.766 876.026C175.314 875.387 177.17 875.099 178.179 874.836L179.279 875.342Z" fill="#A6A7A8"/>
<path d="M521 823.997C521.364 822.839 521.263 822.478 522.024 821.762C522.097 823.236 522.057 823.203 521.632 824.645L521 823.997Z" fill="#A6A7A8"/>
<path d="M1026.58 226.067C1015.69 199.219 999.479 181.314 973.283 169.069C950.332 158.037 920.666 157.801 897.071 166.986C854.008 182.152 824.108 229.457 825.581 274.588C822.496 312.328 843.096 364.996 874.264 387.216C877.179 387.065 889.832 393.168 891.894 395.376L892.022 396.111C918.77 400.904 953.718 388.646 975.25 373.05C988.352 364.982 1001.96 351.723 1010.8 339.196C1015.01 335.443 1022.34 321.62 1024.75 316.169C1037.42 287.598 1038.08 255.133 1026.58 226.067Z" fill="#EE3038"/>
<path d="M897.071 166.984C854.008 182.149 824.108 229.454 825.581 274.586C827.344 271.564 828.103 261.942 828.584 257.776C832.348 225.215 850.806 198.043 876.495 178.436C882.304 174.004 891.239 171.901 897.071 166.984Z" fill="#861113"/>
<path d="M1026.58 226.071C1015.69 199.223 999.48 181.318 973.284 169.073C975.91 172.057 983.375 176.236 986.924 178.493C998.637 185.938 1006.01 194.108 1013.79 205.434C1016.38 209.195 1024.19 224.345 1026.58 226.071Z" fill="#861113"/>
<path d="M1010.8 339.194C1008.89 340.527 975.765 372.242 975.249 373.047C988.351 364.979 1001.96 351.72 1010.8 339.194Z" fill="#861113"/>
<path d="M931.057 189.094C924.975 183.405 916.92 184.329 911.179 190.144C907.495 193.864 907.565 196.001 907.642 201.085C915.732 208.774 931.439 203.048 931.057 189.094Z" fill="white"/>
<path d="M892.023 396.108L891.896 395.373C889.833 393.165 877.18 387.062 874.266 387.213C877.247 389.224 880.729 391.694 883.734 393.566C880.52 396.525 869.981 405.433 869.336 408.963L869.608 410.143C875.01 413.25 878.376 413.397 883.318 415.805L885.409 415.494L896.01 418.316C895.682 412.62 893.144 402.435 892.023 396.108Z" fill="#CB2E34"/>
<path d="M885.886 413.528L886.829 415.286C864.443 468.928 839.059 516.125 791.125 538.72C749.547 558.317 703.176 560.34 671.371 604.029C664.589 613.344 659.794 622.325 654.723 633.078C653.012 636.697 645.304 657.334 643.151 658.264C642.21 651.833 663.813 611.923 668.246 605.408C707.556 547.618 769.161 558.917 817.15 519.762C853.388 490.2 864.155 456.384 885.886 413.528Z" fill="#181719"/>
</svg>
