<svg width="1350" height="1350" viewBox="0 0 1350 1350" fill="none" xmlns="http://www.w3.org/2000/svg">
<path d="M165.36 749.967C170.277 752.411 169.053 748.639 173.408 747.885C188.696 745.243 203.652 748.633 217.622 754.563C222.968 756.832 226.24 760.398 230.786 763.519C240.166 769.965 251.235 782.123 251.567 793.897C251.254 793.902 250.937 793.906 250.625 793.911C250.434 792.762 250.18 791.623 249.853 790.502C246.376 778.139 238.134 769.685 226.709 763.404L226.088 764.146C239.926 776.093 245.961 785.315 248.574 804.197C249.033 807.515 247.724 813.205 248.901 816.546C254.467 832.306 264.604 834.704 266.484 853.253C270.459 850.601 272.07 850.185 276.977 850.835C281.284 835.591 289.868 831.343 300.454 820.491C315.703 804.86 323.168 790.076 318.569 768.864C319.013 768.209 319.399 767.627 319.809 766.953C319.99 767.728 320.068 767.581 319.926 768.292C323.769 779.733 321.806 791.622 316.083 802.139C312.817 808.154 308.779 813.758 304.067 818.822C293.989 829.449 282.524 836.101 278.999 850.687C300.429 865.669 290.424 873.223 293.383 893.796C294.921 898.376 297.397 902.877 299.545 907.224C308.061 924.453 318.002 940.679 316.845 960.394C315.517 983.066 298.164 981.896 280.454 977.348C278.837 976.938 270.649 974.312 269.643 974.816C268.022 975.972 267.045 976.747 265.249 977.605C262.314 979.792 262.91 979.657 259.653 978.444C259.628 978.524 267.851 1010.99 268.618 1014.18C276.938 1048.82 286.289 1083.21 296.074 1117.46C301.04 1134.84 302.827 1152.26 305.708 1169.76L305.8 1170.31C290.424 1180.36 266.743 1184.94 248.295 1184.82C246.494 1192.52 243.183 1203.54 242.211 1211.31C239.194 1235.5 235.415 1260.12 233.388 1284.4C233.042 1288.55 234.213 1293.21 235.576 1297.06C240.048 1299.97 240.546 1301.97 244.365 1304.85C251.123 1309.94 260.795 1313.22 266.967 1318.84C271.582 1323.04 271.469 1326.68 271.538 1332.11C258.671 1346.98 230.029 1338.43 215.009 1330.98C222.055 1344.49 211.469 1347.86 199.194 1349.42C181.76 1351.38 161.479 1343.77 146.831 1335.54C140.213 1331.82 143.968 1313.3 145.851 1307.4C146.262 1305.54 147.322 1302.26 147.137 1300.4C145.01 1279.05 137.905 1258.72 138.515 1236.96C138.854 1224.85 141.797 1214.34 143.527 1202.48C144.224 1197.7 143.799 1192.38 143.439 1187.55C133.008 1184.84 124.724 1181.31 114.835 1177.55C109.432 1176.24 102.692 1176.25 97.3335 1175.23C72.8994 1170.57 49.3799 1160.97 34.4834 1141.35C44.6997 1114.52 72.8393 1095.57 88.6943 1071.16C99.1113 1055.12 108.01 1038.89 116.896 1022.01C119.485 1017.1 121.727 1012.07 124.441 1007.25C123.554 1003.1 123.138 997.609 122.913 993.392C112.623 990.258 111.884 989.283 113.341 979.121C108.191 976.289 106.646 974.825 102.787 970.525C104.339 976.597 106.098 980.338 109.608 985.529C103.131 981.658 103.851 978.729 100.512 972.759C98.8877 970.189 95.6665 968.043 94.541 965.222C89.4512 952.47 91.4356 940.47 96.1319 928.184C87.376 937.9 85.7847 947.624 87.7993 959.961C89.856 962.293 91.8818 964.214 93.9761 966.709C91.6689 965.287 90.1475 964.088 88.0425 962.451C89.5874 967.302 91.584 968.836 93.5283 973.123L93.2397 973.463C87.3169 969.205 85.3364 963.757 83.3667 957.307L82.6265 957.241C81.3105 956.756 81.311 955.618 80.374 953.888C80.2378 964.349 83.9028 970.693 92.144 977.148C90.0713 978.547 86.9004 975.259 85.6621 973.943C77.9756 965.828 74.0938 955.063 74.9146 944.149L73.8335 943.716C73.2329 946.15 72.6753 947.787 72.8838 950.32L71.919 951.052C71.1817 964.536 73.7256 975.706 88.5547 981.201C87.5884 981.536 86.4824 981.173 85.52 980.795C64.8623 972.731 66.9888 953.51 73.417 937.545C70.3789 939.084 66.1992 941.048 63.5078 942.909C63.0728 943.091 61.7432 943.604 61.415 943.8C58.3574 946.37 57.4956 947.592 55.4604 951.071C56.8145 960.586 57.8857 964 65.6646 970.571C58.9063 971.154 53.7065 956.714 52.8193 951.402L51.8354 950.259C52.1216 948.977 51.9453 948.356 51.4883 947.214C50.0654 947.069 44.1323 949.219 42.2583 949.723C33.6919 952.032 21.105 951.416 15.3833 943.856L15.8355 943.436C18.0234 945.092 20.6909 947.19 23.2827 948.044C32.6836 951.127 42.9639 947.279 51.2866 943.361C49.8936 931.874 51.9883 923.455 56.3379 912.9C58.0215 909.468 59.1792 907.765 61.3853 904.566C63.6787 901.333 68.1084 896.646 70.8443 893.157C65.8506 895.993 60.8208 899.794 56.1441 903.171C47.8901 911.585 40.0312 920.069 40.3135 932.499C40.4155 936.995 43.3184 940.959 42.6484 943.403C40.4282 942.349 36.7715 930.418 36.6572 927.275L35.896 927.634C35.1182 932.028 36.0269 936.053 37.002 940.353C35.8555 937.89 34.4893 935.255 33.7896 932.671L32.8823 933.749C34.3628 938.301 35.1987 941.23 36.1631 945.894C26.9678 931.412 22.3462 909.794 36.4448 895.741C43.4063 888.801 50.4102 884.818 57.1763 876.773C63.5313 869.217 65.5952 868.811 69.5029 859.112C58.5957 871.735 47.7583 883.12 34.1309 893.157C26.9614 898.437 21.0239 902.061 15.6167 909.136L14.8584 908.577C20.2363 900.321 26.3242 897.686 33.6606 891.628C44.6206 882.579 56.9028 872.957 64.3032 861.01C60.6987 863.336 52.9531 868.569 49.2837 870.252C30.3955 878.918 6.5923 886.87 1.47414 909.155L0.152344 909.752C0.64502 907.317 1.36183 904.929 2.29445 902.616C8.68409 886.87 25.8921 878.107 41.0283 871.936L40.2891 870.817C26.2417 875.569 15.0083 875.989 1.39063 870.402L1.15966 869.842L0.197762 869.749L0.569844 869.646L0.594729 869.935C1.68604 869.511 8.36377 871.945 10.2803 872.309C31.4922 876.371 73.1372 862.093 70.065 836.689L69.4307 834.896L69.9668 834.428C69.1411 834.579 64.2651 838.715 62.936 839.639C59.6147 841.907 55.9878 843.735 52.1538 845.074C35.9116 850.708 19.2866 845.593 5.58108 857.105C4.30666 858.176 2.47805 860.195 1.05813 860.851C2.07766 858.959 4.01417 857.484 5.58644 856.025C17.4253 845.102 33.5615 848.232 48.1118 844.701C54.064 843.256 67.8774 836.212 70.3188 831.023C72.5068 819.525 76.6675 808.451 82.6328 798.249C95.2842 776.204 112.331 757.003 138.518 750.227C146.793 748.086 157.517 745.769 165.36 749.967Z" fill="#020101"/>
<path d="M70.3203 831.02C72.5083 819.523 76.6689 808.449 82.6343 798.246C95.2856 776.201 112.333 757 138.52 750.225C146.794 748.083 157.518 745.766 165.362 749.964C163.538 752.05 158.509 751.267 155.748 751.015C151.375 751.093 147.218 751.928 142.949 752.82L145.146 753.892L145.346 754.501C145.06 754.633 144.157 755.076 143.892 755.139C142.286 756.686 139.938 756.935 137.714 757.353C129.966 758.81 123.813 763.788 116.856 766.826C117.162 766.44 111.021 772.337 112.102 771.771C106.943 769.847 86.2481 793.883 84.9683 800.267L83.7964 800.812C82.9531 806.353 75.1724 825.243 72.0225 829.894C71.0933 830.952 71.6523 830.604 70.3203 831.02Z" fill="#161617"/>
<path d="M96.0586 780.801C107.622 761.077 141.867 743.582 165.444 750.432C162.045 750.681 159.273 750.63 155.749 751.018C151.376 751.096 147.218 751.931 142.95 752.823C125.219 757.559 109.095 768.611 96.0586 780.801Z" fill="#FBFBFB"/>
<path d="M83.794 800.812C82.9508 806.353 75.17 825.244 72.0201 829.894C71.9395 825.602 80.3126 803.1 83.794 800.812Z" fill="#FBFBFB"/>
<path d="M116.855 766.827C121.312 761.692 136.937 754.965 143.891 755.14C142.285 756.688 139.937 756.937 137.713 757.355C129.965 758.812 123.812 763.789 116.855 766.827Z" fill="#AFB0B0"/>
<path d="M52.9629 904.217C53.6978 903.391 53.5195 903.564 54.3916 902.906L56.1431 903.172C47.8892 911.586 40.0303 920.07 40.3125 932.5C40.4145 936.996 43.3174 940.96 42.6474 943.404C40.4272 942.35 36.7705 930.419 36.6562 927.276C38.1768 926.18 37.6938 926.567 38.3999 924.52C39.0098 912.939 43.9019 909.986 52.9629 904.217Z" fill="#161617"/>
<path d="M52.9653 904.215C52.2407 905.88 49.7163 908.413 48.4229 909.886C42.6509 916.467 40.2803 920.651 38.6919 929.046L38.4023 924.517C39.0122 912.937 43.9043 909.984 52.9653 904.215Z" fill="#FBFBFB"/>
<path d="M72.0727 898.453C70.6748 901.331 65.0464 910.575 62.9028 912.8C59.0796 916.764 55.6416 931.358 53.9555 933.345C53.4717 930.728 55.6689 923.807 56.4975 920.864C56.1147 917.301 57.6567 915.743 56.3374 912.898C58.021 909.465 59.1787 907.763 61.3848 904.563C63.5 906.331 62.9468 906.573 64.2744 908.383C66.6308 905.379 69.6147 901.079 72.0727 898.453Z" fill="#D3D4D4"/>
<path d="M61.3872 904.566C63.5025 906.334 62.9492 906.577 64.2769 908.386C60.4595 913.437 58.9531 915.196 56.5 920.867C56.1172 917.304 57.6592 915.746 56.3398 912.901C58.0234 909.468 59.1812 907.766 61.3872 904.566Z" fill="#161617"/>
<path d="M84.9682 800.269C86.248 793.886 106.943 769.85 112.101 771.773C103.777 778.567 97.3276 784.93 90.8632 793.482C88.9711 795.986 86.3915 802.373 84.9013 803.623C84.4042 802.129 84.6728 801.941 84.9682 800.269Z" fill="#FBFBFB"/>
<path d="M87.2898 935.105C84.1448 943.949 83.8094 947.843 83.3675 957.306L82.6272 957.241C81.3689 947.941 82.1375 943.179 87.2898 935.105Z" fill="#FBFBFB"/>
<path d="M226.091 764.146C224.553 760.763 211.047 754.673 207.121 752.017L207.648 751.867C212.023 753.133 224.636 759.704 226.711 763.405L226.091 764.146Z" fill="#9C9D9E"/>
<path d="M265.247 977.605C263.782 976.556 264.021 976.304 264.217 974.7C265.335 973.347 264.642 973.879 266.526 973.254C268.045 973.548 268.416 973.944 269.642 974.816C268.02 975.973 267.044 976.747 265.247 977.605Z" fill="#161617"/>
<path d="M51.4194 866.379C48.1289 868.96 44.918 870.318 41.0283 871.936L40.2891 870.817C44.0293 869.39 47.7651 868 51.4194 866.379Z" fill="#D3D4D4"/>
<path d="M73.8359 943.713C74.1382 941.596 74.1177 939.586 75.4023 937.953C75.938 939.072 75.2266 943.238 74.917 944.147L73.8359 943.713Z" fill="#AFB0B0"/>
<path d="M32.8815 933.749C32.1247 930.974 32.3122 929.817 32.4743 927.023L32.7506 927.084C33.0495 928.954 33.3957 930.82 33.7887 932.672L32.8815 933.749Z" fill="#9C9D9E"/>
<path d="M245.978 918.809C249.689 919.079 271.286 930.888 275.045 933.799C276.325 934.788 273.937 940.109 273.18 941.275C265.832 952.59 265.412 965.137 261.583 977.3L261.041 977.426C255.856 973.835 251.525 946.392 246.735 941.532C246.789 944.139 250.363 954.913 251.271 957.973C254.347 968.346 257.365 978.737 260.324 989.147C269.22 1021.4 276.544 1054.05 285.685 1086.22C293.161 1112.55 301.242 1142.12 303.668 1169.25C288.097 1178.33 264.245 1169.42 247.086 1171.7C215.802 1175.85 192.785 1190.94 159.674 1188.37C124.38 1185.63 103.755 1167.21 76.1797 1149.56C66.4126 1143.3 48.2578 1138.77 36.6133 1140.03C46.6011 1119.98 54.8701 1112.82 70.1992 1096.93C78.7886 1087.31 86.7427 1078.08 93.6675 1067.26C105.681 1048.48 115.617 1029.02 124.963 1008.94C127.136 1021.6 132.286 1035.25 148.667 1032.6C169.119 1029.3 183.623 1011.58 195.636 996.852C199.24 992.44 201.901 987.454 206.066 983.527C207.858 981.899 216.041 978.989 219.362 977.361C213.883 992.58 219.342 1004.2 222.453 1018.97C227.584 1043.34 219.713 1064.76 197.687 1078.67C187.36 1085.19 175.544 1090.2 168.487 1100.42C164.403 1106.34 160.54 1117.81 162.119 1124.8C165.43 1118.11 163.017 1109.65 169.944 1101.2C187.102 1080.29 209.245 1081.65 221.383 1054.5C234.738 1024.63 213.449 1006.79 220.382 978.494C221.579 972.189 228.468 971.988 231.525 968.234C234.259 964.875 230.084 964.894 233.375 959.073C233.488 956.797 232.287 955.715 231.53 953.518C234.313 946.718 230.226 948.449 230.744 942.637C231.051 939.167 230.397 939.153 228.107 936.364C232.604 927.796 238.209 924.881 245.978 918.809Z" fill="#FBFBFB"/>
<path d="M237.825 1061.8C236.678 1083.95 231.019 1105.93 224.28 1127.07C222.762 1131.83 222.342 1137.03 220.696 1142.25L220.008 1141.09C222.259 1135.59 222.303 1129.73 223.899 1124.47C228.748 1108.48 233.221 1092.44 235.418 1075.9C235.887 1072.36 236.849 1067.17 236.746 1063.69L237.825 1061.8Z" fill="#3D3C3E"/>
<path d="M271.527 1074.68L272.309 1074.36C275.819 1089.38 278.832 1123.85 277.562 1139.02L277.279 1138.8L277.45 1139.64V1139.08L277.191 1139.01C276.688 1133.48 276.684 1126.81 276.293 1121.03C275.341 1105.52 273.754 1090.06 271.527 1074.68Z" fill="#161617"/>
<path d="M127.468 1048.39L128.07 1049.2C123.808 1056.62 118.935 1065.67 114.374 1072.78C108.607 1081.77 102.515 1090.31 96.7329 1099.47L95.9961 1099.22C100.793 1090.42 107.217 1082.25 112.447 1073.81C117.575 1065.54 122.452 1056.79 127.468 1048.39Z" fill="#161617"/>
<path d="M125.162 1024.23L125.684 1024.72C122.488 1031.6 113.308 1044.16 108.384 1049.76C108.278 1049.58 108.172 1049.41 108.066 1049.24C114.98 1040.41 119.076 1033.44 125.162 1024.23Z" fill="#5C5B5C"/>
<path d="M138.845 1040.04C139.979 1042.63 127.923 1058.81 125.593 1061.85L125.492 1061.58C125.606 1060.67 137.38 1042.37 138.845 1040.04Z" fill="#D3D4D4"/>
<path d="M268.824 1053.89C271.827 1062.52 270.553 1066.45 272.31 1074.36L271.529 1074.68C270.47 1070.19 269.068 1058.55 268.824 1053.89Z" fill="#5C5B5C"/>
<path d="M219.424 1128.7C220.161 1131.74 213.091 1143.66 210.586 1146.07C210.674 1145.48 218.481 1130.58 219.424 1128.7Z" fill="#9C9D9E"/>
<path d="M220.699 1142.25C219.527 1146.14 218.492 1150.74 216.368 1154.12C216.133 1152.89 219.375 1143.14 220.01 1141.09L220.699 1142.25Z" fill="#5C5B5C"/>
<path d="M127.469 1048.4C129.413 1044.71 130.92 1042.23 133.213 1038.72C132.895 1040.72 129.208 1047.18 128.071 1049.2L127.469 1048.4Z" fill="#5C5B5C"/>
<path d="M236.75 1063.69C236.906 1061.87 237.131 1057.64 237.829 1056.2L238.342 1056.64C238.41 1058.39 238.088 1060.07 237.829 1061.8L236.75 1063.69Z" fill="#9C9D9E"/>
<path d="M95.9956 1099.22L96.7324 1099.47C95.9214 1100.99 94.271 1104.57 92.7578 1105.05C93.0493 1103.34 94.9776 1100.73 95.9956 1099.22Z" fill="#5C5B5C"/>
<path d="M194.803 766.953C195.594 766.214 195.291 766.472 196.438 766.087C199.9 767.747 201.775 768.726 204.983 770.769L205.716 769.99L199.056 765.555C209.227 769.277 215.75 771.9 224.539 778.552C227.317 780.654 230.672 783.633 233.289 785.553C233.919 786.169 233.592 786.07 234.104 786.152C238.797 791.402 244.3 801.946 245.457 808.904C247.205 819.422 249.397 824.106 255.965 832.504C258.499 835.989 262.044 841.405 263.05 845.572C264.686 851.377 263.929 855.043 264.881 858.797C258.626 865.253 262.811 864.837 259.954 871.536C252.215 889.67 233.689 896.363 216.268 902.272L217.034 903.349C214.188 912.034 219.383 915.387 219.715 920.355C217.137 927.584 208.44 927.379 201.624 927.015C192.376 926.525 181.862 921.619 175.73 914.944C187.302 902.431 175.246 896.134 164.99 890.589C164.713 889.413 164.886 889.777 164.264 888.742C163.106 889.39 160.328 891.228 159.311 891.563C148.553 895.085 138.37 888.033 134.586 879.012C137.817 877.422 141.375 875.463 144.864 874.68C144.772 873.36 144.744 873.859 145.202 872.557C146.697 872.161 145.904 872.161 147.628 873.042C149.511 871.368 151.856 867.627 153.032 865.422C154.118 862.436 154.926 856.189 155.931 852.571L156.725 852.148C156.97 852.408 157.608 853.05 157.789 853.311L158.048 851.816C157.95 850.759 158.173 846.934 158.207 845.702C157.765 841.914 158.287 841.161 159.698 837.626C160.593 835.85 161.197 831.21 162.176 829.753C164.64 826.087 168.877 821.955 172.032 818.721C181.14 809.387 185.906 799.897 189.416 787.63L190.643 787.144C187.313 803.633 180.143 812.822 169.929 826.004C168.713 827.573 163.709 834.079 163.267 835.375L163.002 835.393L162.774 835.791C166.129 833.165 177.188 819.429 180.222 815.668C190.027 803.514 195.501 782.812 193.348 767.649C193.211 766.705 193.099 767.357 193.582 766.264L194.803 766.953Z" fill="#FBFBFB"/>
<path d="M255.968 832.504C258.502 835.988 262.047 841.405 263.053 845.572C258.404 847.155 255.152 848.66 250.172 846.556C246.314 844.926 244.649 840.77 246.803 837.23C249.034 833.567 252.042 833.37 255.968 832.504Z" fill="#F59898"/>
<path d="M144.868 874.677C144.776 873.357 144.747 873.856 145.205 872.555C146.7 872.159 145.908 872.159 147.632 873.04L147.828 873.894C151.43 875.036 155.955 878.679 155.522 882.55C154.323 881.851 154.6 882.019 153.581 881.062C151.886 881.146 151.175 881.977 149.829 883.021C147.546 882.774 146.884 881.482 145.622 879.752C144.382 881.767 143.863 883.035 141.833 884.318L141.383 884.145C142.353 880.783 145.103 877.28 144.868 874.677Z" fill="#161617"/>
<path d="M148.04 875.461C150.055 875.862 151.167 875.867 152.015 877.784C151.739 879.491 150.778 880.06 149.448 881.277C148.887 881.496 148.768 881.296 147.914 881.09C145.79 878.497 146.597 878.087 148.04 875.461Z" fill="#FBFBFB"/>
<path d="M158.208 845.701C157.767 841.912 158.289 841.16 159.7 837.625C160.223 841.872 160.4 848.235 160.521 852.659C160.831 863.989 163.241 874.571 156.66 884.594C156.89 882.42 158.914 878.899 159.388 875.56C160.411 868.354 159.66 860.936 159.246 853.688C159.005 852.872 158.743 852.062 158.458 851.258L158.05 851.815C157.952 850.757 158.175 846.932 158.208 845.701Z" fill="#3D3C3E"/>
<path d="M158.207 845.699C159.113 849.136 159.126 850.125 159.244 853.686C159.004 852.87 158.741 852.06 158.457 851.257L158.048 851.813C157.95 850.756 158.174 846.931 158.207 845.699Z" fill="#AFB0B0"/>
<path d="M194.805 766.952C195.596 766.213 195.293 766.471 196.44 766.086C202.69 777.296 203.037 785.915 199.678 798.542C199.097 800.739 196.157 806.981 194.277 808.09C194.966 805.009 197.222 802.088 198.164 799.03C201.509 788.21 201.479 777.44 195.303 767.749L194.805 766.952Z" fill="#161617"/>
<path d="M205.717 769.988C213.974 775.324 230.902 787.726 237.23 794.541C233.969 792.72 230.224 789.606 227.24 787.284C219.618 781.352 213.266 775.858 204.984 770.767L205.717 769.988Z" fill="#161617"/>
<path d="M155.932 852.568L156.727 852.145C156.972 852.404 157.61 853.046 157.79 853.307C157.272 859.355 156.306 863.935 153.75 869.592L153.58 869.144L153.319 870.207L152.992 870.119C153.181 868.225 153.384 867.689 153.97 865.838L153.034 865.418C154.12 862.432 154.928 856.185 155.932 852.568Z" fill="#161617"/>
<path d="M155.934 852.57C156.404 855.426 155.104 863.436 153.972 865.84L153.035 865.421C154.121 862.435 154.929 856.188 155.934 852.57Z" fill="#7E7E81"/>
<path d="M207.871 904.406L216.27 902.27L217.036 903.347C213.662 904.061 211.318 904.173 207.871 904.406Z" fill="#161617"/>
<path d="M196.655 854.821C216.611 854.75 213.017 872.708 197.895 874.223C181.295 877.955 177.217 857.655 196.655 854.821Z" fill="#F59898"/>
<path d="M194.41 837.305C201.417 836.891 203.903 844.668 199.811 847.978C196.427 848.51 195.504 845.929 194.459 843.356C194.659 841.921 194.869 840.768 194.825 839.311C191.241 839.651 192.037 844.279 191.144 846.8L190.636 846.643C188.336 842.481 191.178 839.75 194.41 837.305Z" fill="#020101"/>
<path d="M241.475 820.194L242.511 821.583L242.96 822.169C245.098 824.985 246.685 828.118 242.672 830.343C236.392 830.882 234.932 819.041 241.182 818.934L241.475 820.194Z" fill="#020101"/>
<path d="M230.898 838.681C239.541 838.323 238.945 845.514 235.835 846.587C235.337 845.432 235.669 845.443 236.206 843.889C235.933 842.235 235.664 841.295 234.268 840.297C232.007 840.099 230.898 841.101 228.359 842.047L228.027 841.431C228.755 839.891 229.438 839.637 230.898 838.681Z" fill="#020101"/>
<path d="M189.627 819.902L190.516 820.481C187.302 824.361 185.68 823.71 181.164 830.331L180.538 830.506C180.06 826.386 186.266 821.79 189.627 819.902Z" fill="#161617"/>
<path d="M234.625 802.438C237.105 802.5 239.142 802.655 240.934 804.462L240.314 804.842L237.594 804.191C235.406 804.155 232.247 804.659 230.445 804.015C231.783 803.045 233.004 802.868 234.625 802.438Z" fill="#020101"/>
<path d="M239.078 864.184C239.386 864.292 240.152 864.742 240.47 864.918L240.67 865.777C239.645 867.246 238.072 867.825 236.422 868.664C235.377 868.473 235.807 868.725 235.152 867.89C235.924 866.259 237.56 865.309 239.078 864.184Z" fill="#020101"/>
<path d="M241.18 818.934C243.328 819.497 243.553 819.462 245.071 820.91L244.769 821.377C243.255 821.139 242.815 820.844 241.473 820.194L241.18 818.934Z" fill="#161617"/>
<path d="M246.005 1173.8C246.997 1173.64 247.006 1173.71 248.032 1173.76C248.876 1175.84 240.683 1207.23 239.794 1212.23C237.905 1222.9 237.441 1233.69 236.059 1244.41C234.365 1257.58 231.611 1271.11 231.528 1284.38C231.499 1288.83 232.114 1292.68 233.349 1296.96C224.775 1297.24 218.745 1302.52 211.831 1306.84C209.457 1305.74 207.548 1304.52 205.341 1303.18C204.819 1302.74 203.261 1301.41 203.266 1300.83C203.432 1278.74 197.451 1257.1 197.617 1234.98C197.695 1224.69 199.663 1215.56 200.756 1205.46C201.425 1199.29 200.742 1192.18 200.395 1186.01C215.566 1181.39 230.248 1175.57 246.005 1173.8Z" fill="#FBFBFB"/>
<path d="M229.423 1204.89C232.895 1206.78 233.647 1205.32 236.669 1206.11L236.908 1207.05L236.308 1207.53C232.577 1207.29 222.407 1207.23 220.688 1203.68C216.386 1194.76 232.06 1194.57 237.197 1196.86L237.206 1197.29C235.326 1196.85 235.2 1197.4 233.725 1198.47L232.822 1198.5L232.509 1198.97C232.763 1202.25 231.85 1202.66 229.423 1204.89Z" fill="#FEE6E5"/>
<path d="M229.425 1204.89C226.237 1204.09 222.433 1203.8 223.161 1199.68C225.807 1196.58 229.303 1197.49 232.511 1198.97C232.765 1202.25 231.852 1202.66 229.425 1204.89Z" fill="#FCC8C5"/>
<path d="M145.548 1187.88C163.231 1191.42 174.303 1191.05 192.051 1187.79C189.878 1197.36 187.003 1206.01 184.667 1214.97C183.718 1218.62 182.195 1235.36 181.86 1239.65C180.414 1258.15 176.128 1285.82 180.176 1303.45C169.093 1305.31 167.229 1310.09 157.491 1312.99C156.223 1313.37 154.319 1312.44 153.216 1311.63C147.951 1307.81 149.672 1300.38 148.489 1293.97C144.753 1273.72 139.984 1253.27 141.077 1232.62C141.909 1216.9 147.122 1203.63 145.548 1187.88Z" fill="#FBFBFB"/>
<path d="M167.984 1201.12C174.596 1200.58 188.309 1202.41 178.564 1211.01C169.593 1215.35 160.573 1207.64 167.984 1201.12Z" fill="#FCC8C5"/>
<path d="M217.984 912.129C225.865 913.481 236.671 915.711 244.21 917.861C236.207 924.116 231.402 926.746 226.51 935.389C213.38 934.125 202.97 940.743 196.588 951.508C194.327 955.323 192.218 961.829 188.874 964.819C183.187 969.902 175.184 973.228 168.44 977.622L167.007 977.78C166.169 979.478 157.788 983.932 155.554 985.215C144.502 982.99 125.277 981.549 114.367 985.275C116.898 968.368 122.866 957.347 132.107 943.243C143.472 925.897 154.635 922.297 173.458 914.648C182.117 926.49 203.165 932.529 217.164 926.503C219.278 925.594 220.802 923.985 221.51 921.886C222.73 918.267 219.889 915.114 217.984 912.129Z" fill="#FBFBFB"/>
<path d="M167.006 977.78C165.699 974.478 166.31 967.836 165.629 964.142C165.338 962.566 163.795 955.71 164.603 954.875C165.419 958.793 166.139 962.622 166.792 966.563C167.357 969.982 167.289 974.427 168.44 977.622L167.006 977.78Z" fill="#5C5B5C"/>
<path d="M157.258 929.617C163.02 931.086 169.858 948.427 169.641 953.688C168.295 952.438 166.411 944.435 164.922 941.105C162.781 936.324 158.338 932.038 157.258 929.617Z" fill="#161617"/>
<path d="M170.889 964.207C170.934 965.905 171.177 967.668 170.433 969.156C169.636 967.752 169.896 965.975 169.953 964.272L170.889 964.207Z" fill="#7E7E81"/>
<path d="M169.953 964.275C169.959 962.675 169.847 962.474 170.498 960.973C171.226 962.199 170.924 962.558 170.889 964.21L169.953 964.275Z" fill="#D3D4D4"/>
<path d="M153.182 986.301C148.239 989.612 147.258 990.116 143.536 994.523L143.463 995.176C146.895 993.451 150.995 989.691 154.72 987.453C165.437 980.676 178.556 974.701 188.643 967.276C194.044 963.298 197.14 952.794 202.384 946.544C206.993 941.05 226.593 930.589 229.161 941.461C227.657 944.492 221.984 942.552 218.321 943.727L218.17 944.222C221.559 944.66 231.476 944.711 230.489 950.835C228.414 952.337 224.918 950.262 221.92 950.943L221.827 951.61C225.846 952.766 231.451 953.788 231.637 958.68C229.869 960.504 227.335 960.051 224.83 960.033L224.581 960.434C227.013 962.16 233.893 963.466 229.376 968.409C227.731 969.081 226.876 968.964 225.099 968.992C222.716 970.368 221.442 973.848 219.171 975.485C214.83 978.614 208.39 979.165 204.532 982.873C200.48 986.772 197.491 991.879 194 996.212C181.927 1011.21 164.562 1031.72 142.811 1031.07C135.53 1030.37 132.756 1026.1 130.001 1020.24C125.872 1008.62 124.735 996.949 125.11 984.776C135.216 984.617 143.136 985.237 153.182 986.301Z" fill="#FBFBFB"/>
<path d="M130 1020.24C132.886 1018.61 134.527 1017.56 137.908 1018.48C144.703 1020.33 146.214 1025.74 142.811 1031.07C135.529 1030.37 132.756 1026.11 130 1020.24Z" fill="#FCC8C5"/>
<path d="M272.977 852.367C289.344 853.897 292.147 867.668 291.322 880.652C291.112 883.968 290.487 891.179 291.517 893.982C295.462 904.705 301.683 914.775 306.581 925.129C312.665 938.034 318.314 955.688 312.962 969.689C306.566 986.419 276.366 974.997 265.355 970.277C266.922 960.841 270.75 947.586 276.136 939.494C276.751 942.437 278.299 956.765 281.532 957.712C281.502 954.82 279.276 947.539 278.651 943.477C276.498 930.045 275.736 916.23 272.997 902.905C271.908 897.601 263.695 887.303 268.167 881.888C267.723 879.976 265.453 879.491 263.661 879.836L263.099 880.704C263.802 881.543 264.5 882.392 265.184 883.241L265.028 883.875L263.68 883.922C261.229 882.551 258.978 880.461 259.369 877.495C261.859 873.437 269.154 874.79 273.128 875.564L273.226 874.92C270.643 871.795 265.389 872.714 261.624 872.994C265.604 863.878 269.041 868.661 276.678 866.778L276.805 866.323C269.847 863.261 266.327 867.089 263.255 865.358C263.548 857.189 275.545 861.141 279.374 859.956C275.902 856.903 269.603 858.804 266.722 856.846L266.815 855.867C268.866 853.497 269.852 853.071 272.977 852.367Z" fill="#FBFBFB"/>
<path d="M296.925 967.08C299.728 966.861 308.6 966.012 307.189 972.318C306.783 974.123 302.965 975.545 301.129 976.082C297.472 976.175 291.583 976.529 291.051 971.982C292.232 969.198 294.151 968.531 296.925 967.08Z" fill="#FCC8C5"/>
<path d="M196.339 1186.38L198.136 1186.74C199.465 1189.15 199.401 1202.47 198.937 1205.62C197.492 1215.49 195.895 1224.15 195.69 1234.22C195.28 1253.99 200.197 1273.27 200.773 1292.93C200.905 1297.44 198.542 1302.75 197.843 1307.23C197.292 1310.61 197.038 1313.78 196.784 1317.19C195.041 1316.04 193.605 1314.84 191.994 1313.54C188.655 1309.52 184.987 1305.58 181.807 1301.49C178.235 1276.94 184.314 1246.34 185.841 1221.45C186.456 1211.44 192.165 1197.67 194.665 1187.65C194.665 1187.65 196.183 1186.5 196.339 1186.38Z" fill="#FBFBFB"/>
<path d="M37.1562 1141.55C69.1968 1139.85 87.2925 1160.79 112.38 1175.48C93.6733 1176.1 69.3613 1166.54 53.5068 1157.1C47.5273 1153.54 41.1304 1147.1 37.1562 1141.55Z" fill="#FBFBFB"/>
<path d="M265.542 892.797C273.276 903.375 273.618 918.043 275.093 931.037C271.226 928.957 267.329 926.928 263.403 924.946C258.198 922.274 252.939 919.694 247.637 917.209C257.017 908.538 259.785 903.888 265.542 892.797Z" fill="#FBFBFB"/>
<path d="M257.153 880.152C259.683 884.205 260.43 884.961 265.02 886.43C262.373 898.114 255.938 907.194 247.08 915.399L245.825 916.149C244.048 916.28 241.958 915.361 240.215 914.769C245.737 905.707 247.036 900.921 247.061 890.423C251.406 886.771 253.716 884.569 257.153 880.152Z" fill="#FBFBFB"/>
<path d="M250.932 1173.1C259.467 1172.79 267.851 1173.83 276.356 1174.35C282.45 1174.71 288.261 1174.66 294.359 1174.58C291.015 1175.97 288.1 1176.97 284.652 1178.13C276.493 1180.44 257.377 1182.87 248.52 1183.99L250.932 1173.1Z" fill="#FBFBFB"/>
<path d="M183.454 1313.13C188.648 1313.18 193.695 1318.45 197.348 1321.81C191.562 1325.16 188.908 1325.71 182.321 1326.13C176.175 1325.77 173.093 1324.56 168.016 1321.56C172.507 1317.48 177.47 1314.65 183.454 1313.13Z" fill="#FBFBFB"/>
<path d="M234.458 1306.17C242.822 1305.45 246.26 1308.51 252.285 1313.41C247.881 1315.88 246.519 1316.29 241.445 1316.85C236.709 1316.78 227.285 1315.89 224.199 1312.12C223.745 1308.33 231.328 1306.84 234.458 1306.17Z" fill="#FBFBFB"/>
<path d="M60.4775 927.378C66.6015 916.404 70.0683 904.669 78.4848 894.683C83.3779 888.876 87.9365 885.756 94.2041 881.512C87.8281 888.545 80.5615 896.339 74.9448 903.904L76.0527 904.711C76.0273 906.912 73.873 908.904 72.3486 910.457C72.2544 910.685 72.353 910.517 71.831 911.04L71.1596 909.067C65.519 916.735 62.2129 929.421 58.5874 938.203C58.2876 938.931 57.4687 939.565 56.8813 940.074L56.0342 939.84L54.7734 940.974L54.227 940.764C54.0224 938.147 57.6596 927.854 59.1401 925.732L59.2436 926.492L60.4775 927.378Z" fill="#FBFBFB"/>
<path d="M56.0342 939.839L54.7734 940.973L54.227 940.763C54.0224 938.146 57.6596 927.853 59.1401 925.73L59.2436 926.491L60.4775 927.377C59.2763 931.425 57.7983 936.001 56.8813 940.072L56.0342 939.839Z" fill="#FBFBFB"/>
<path d="M56.0352 939.841C56.1704 937.331 58.5122 929.165 59.2446 926.492L60.4785 927.378C59.2773 931.427 57.7993 936.002 56.8823 940.074L56.0352 939.841Z" fill="#161617"/>
<path d="M74.9453 903.902L76.0532 904.709C76.0278 906.911 73.8735 908.902 72.3491 910.455C72.2549 910.684 72.3535 910.516 71.8315 911.038L71.1602 909.065C72.2373 907.312 73.6763 905.553 74.9453 903.902Z" fill="#161617"/>
<path d="M76.0518 904.711C76.0264 906.912 73.8721 908.904 72.3477 910.457C72.6167 907.976 74.1045 906.241 76.0518 904.711Z" fill="#AFB0B0"/>
<path d="M145.31 774.828L146.053 775.859C143.701 778.141 142.177 779.495 140.328 782.173L141.271 783.065L142.472 782.121L143.418 782.929L146.704 780.456C144.668 784.75 143.574 784.798 140.033 787.684L141.309 788.245C141.64 790.14 138.366 794.048 137 795.474C136.364 795.597 135.713 795.636 135.23 795.93C133.354 795.216 133.917 796.289 131.874 795.171C129 798.86 127.016 801.432 124.512 805.349C121.317 810.347 117.204 821.397 113.043 824.966C119.454 811.152 133.812 785.111 145.31 774.828Z" fill="#D3D4D4"/>
<path d="M141.272 783.067L142.474 782.122L143.419 782.93L146.705 780.457C144.669 784.751 143.575 784.8 140.035 787.685L141.31 788.246C141.641 790.141 138.368 794.049 137.001 795.476C136.365 795.598 135.715 795.637 135.232 795.931C133.355 795.217 133.918 796.291 131.875 795.173C134.708 790.449 136.726 786.418 140.33 782.174L141.272 783.067Z" fill="#161617"/>
<path d="M141.274 783.067L142.476 782.122L143.421 782.93L146.707 780.457C144.671 784.751 143.577 784.8 140.037 787.685C139.087 789.058 134.974 793.409 133.641 794.882C135.729 791.333 137.254 789.146 140.329 786.149C141.587 784.923 141.49 784.597 141.274 783.067Z" fill="#5C5B5C"/>
<path d="M43.2435 890.926L43.6507 891.332C36.8245 898.635 35.3929 910.977 32.2498 920.085C31.2757 922.907 31.9935 929.232 30.4153 931.2C29.2801 928.061 28.7454 923.094 28.8851 919.75C29.4583 906.023 33.3382 899.993 43.2435 890.926Z" fill="#FBFBFB"/>
<path d="M136.112 768.295C137.673 767.493 138.81 766.677 140.539 766.696C135.676 771.451 129.015 774.704 123.924 779.17C113.646 788.188 107.671 801.009 100.461 812.21C99.0923 814.336 97.6426 816.503 95.8281 818.297C105.994 797.386 115.535 781.113 136.112 768.295Z" fill="#FBFBFB"/>
<path d="M133.556 779.125L134.283 779.947C121.498 791.196 111.038 805.462 104.336 820.844C102.161 825.835 99.5903 834.99 96.7383 839.145C97.6519 835.764 99.0547 832.937 99.8525 829.84C104.782 810.717 117.147 791.857 133.556 779.125Z" fill="#D3D4D4"/>
<path d="M175.014 777.957C177.173 787.898 154.368 826.759 146.926 835.239C146.408 832.199 152.427 825.595 154.045 822.454C158.463 813.88 163.678 805.54 168.1 796.991C171.121 791.148 172.052 783.948 175.014 777.957Z" fill="#FBFBFB"/>
<path d="M84.4702 879.278L83.7139 879.534L83.2617 879.324C84.9751 876.843 102.593 862.062 106.219 860.383C103.175 864.327 100.802 865.787 97.5713 869.255L99.1738 869.964C99.1323 873.065 89.936 878.835 87.1362 880.845C86.4746 880.36 85.9199 879.94 85.2857 879.427L84.4702 879.278Z" fill="#FBFBFB"/>
<path d="M84.4688 879.277C89.1318 876.306 93.5156 872.952 97.5698 869.254L99.1724 869.963C99.1308 873.064 89.9346 878.834 87.1347 880.844C86.4731 880.359 85.9184 879.939 85.2842 879.426L84.4688 879.277Z" fill="#161617"/>
<path d="M129.769 905.062C129.346 907.87 119.428 919.171 117.179 922.399C110.793 931.568 108.128 939.241 105.41 949.889C105.23 949.254 105.202 948.979 105.203 948.308C105.237 932.384 118.759 915.948 129.769 905.062Z" fill="#FBFBFB"/>
<path d="M129.398 823.639C131.393 819.485 133.488 815.357 135.419 811.189C139.926 801.462 142.823 789.936 151.936 783.189L152.545 782.733C152.668 782.643 152.792 782.554 152.916 782.465C147.084 791.64 142.446 800.238 137.553 809.846C135.228 814.411 131.859 819.795 129.817 824.328L129.398 823.639Z" fill="#D3D4D4"/>
<path d="M182.265 782.961L183.313 783.248C181.591 800.836 173.958 811.138 162.098 824.024C162.184 823.861 162.27 823.698 162.357 823.536L162.805 822.73C165.458 817.89 168.774 814.18 171.729 809.648C177.192 801.269 180.225 792.517 182.265 782.961Z" fill="#FBFBFB"/>
<path d="M93.7031 825.999C97.519 819.241 101.115 814.294 105.082 807.968C112.316 796.432 114.907 788.143 126.85 779.75L126.436 780.343C122.837 785.432 115.007 792.799 112.651 797.821C109.703 804.106 95.2104 822.006 94.4053 827.106L93.7031 825.999Z" fill="#AFB0B0"/>
<path d="M103.398 876.547C103.372 876.682 72.4865 914.773 69.525 918.621C69.422 918.267 69.3209 918.029 69.3483 917.651C69.5626 914.643 99.6095 879.317 103.398 876.547Z" fill="#9C9D9E"/>
<path d="M149.735 860.422L150.56 861.04C147.873 870.765 143.117 871.983 134.523 876.236C135.907 872.734 136.528 870.807 139.354 868.098C146.724 867.028 146.407 866.949 149.735 860.422Z" fill="#FBFBFB"/>
<path d="M135.232 795.932C135.715 795.638 136.365 795.599 137.001 795.477C134.547 799.705 122.369 820.883 119.668 822.52C121.407 816.008 130.853 801.071 135.232 795.932Z" fill="#FBFBFB"/>
<path d="M92.5547 804.078C93.3306 802.384 94.146 800.707 95 799.048C100 789.416 104.439 782.901 112.894 775.929C114.378 774.705 116.28 772.305 117.887 771.793C117.397 773.208 113.613 776.581 112.303 777.824C105.588 784.195 101.46 791.306 96.8838 799.137L93.4434 805.128L92.5547 804.078Z" fill="#D3D4D4"/>
<path d="M179.735 782.754L180.883 782.792C179.939 785.311 179.205 788.905 178.186 791.73C175.153 800.138 168.986 812.989 161.809 818.853C168.645 809.73 176.269 793.379 179.735 782.754Z" fill="#FBFBFB"/>
<path d="M62.4497 892.789C62.9048 897.239 48.7588 905.662 44.8662 908.222L44.8359 907.29C48.3311 902.308 56.749 895.354 62.4497 892.789Z" fill="#FBFBFB"/>
<path d="M244.285 891.777L244.861 892.519C245.608 898.027 242.991 912.141 237.449 914.757L236.531 913.838C236.619 912.43 239.72 907.519 240.667 905.62C242.449 902.043 242.664 893.899 244.285 891.777Z" fill="#FBFBFB"/>
<path d="M85.2769 903.082L85.6245 903.623C79.9185 911.757 74.8584 921.118 68.4365 928.8L68.1133 928.427C68.4609 923.87 81.1577 907.298 85.2769 903.082Z" fill="#FBFBFB"/>
<path d="M164.909 771.117C164.32 773.443 150.069 798.72 148.023 801.111L147.875 800.716C148.604 795.858 161.002 774.536 164.909 771.117Z" fill="#FBFBFB"/>
<path d="M100.267 822.27C101.151 825.792 89.2349 847.704 86.5234 851.412C87.1924 846.027 97.0586 827.52 100.267 822.27Z" fill="#FBFBFB"/>
<path d="M118.084 873.254L118.35 873.916C116.52 878.128 104.286 893.029 100.632 897.115L100.378 897.064L100.328 896.322C105.918 887.503 110.632 880.931 118.084 873.254Z" fill="#D3D4D4"/>
<path d="M116.622 938.332C115.355 945.799 112.234 947.348 111.718 957.091L112.053 960.239L111.996 961.522L111.464 961.988C110.571 960.011 110.418 958.397 110.05 956.279C109.853 955.878 109.655 954.4 109.565 953.873L108.707 953.649L106.81 954.824C105.908 953.406 105.79 952.585 106.737 951.317C108.894 950.925 108.186 951.028 110.585 952.096C112.217 946.224 113.457 943.64 116.622 938.332Z" fill="#FBFBFB"/>
<path d="M110.05 956.282C109.853 955.88 109.655 954.402 109.565 953.875L108.707 953.651L106.81 954.826C105.908 953.409 105.79 952.588 106.737 951.319C108.894 950.927 108.186 951.03 110.585 952.098C110.432 953.553 110.288 954.836 110.05 956.282Z" fill="#161617"/>
<path d="M211.797 766.23C218.003 769.361 234.072 778.496 234.106 786.151C233.594 786.069 233.921 786.168 233.291 785.552C228.599 777.947 218.252 772.175 211.797 766.23Z" fill="#FBFBFB"/>
<path d="M214.019 1340.02L214.644 1340.15L214.585 1340.72C205.142 1348.54 183.744 1345.79 172.562 1343.27C172.232 1342.84 172.354 1343.11 172.377 1342.39C184.183 1344.84 203.697 1347.3 214.019 1340.02Z" fill="#3D3C3E"/>
<path d="M115.631 812.629L115.896 813.223C111.562 821.297 103.677 836.028 98.2632 843.463L98.0469 843.421C98.2622 841.973 101.019 837.647 101.949 835.92C106.292 827.858 109.766 819.837 115.631 812.629Z" fill="#D3D4D4"/>
<path d="M121.493 884.924L120.065 884.327C120.03 881.584 124.262 876.444 126.715 878.468L125.977 880.399C125.44 883.408 117.626 891.546 115.102 894.042C116.838 890.255 118.697 888.076 121.493 884.924Z" fill="#161617"/>
<path d="M125.977 880.398C125.44 883.407 117.626 891.546 115.102 894.041C116.838 890.254 118.697 888.075 121.493 884.923C123.127 883.071 124.026 882.017 125.977 880.398Z" fill="#9C9D9E"/>
<path d="M130.576 834.995C131.76 833.894 131.942 833.296 133.223 833.164C132.989 836.239 128.733 839.701 126.125 841.291L124.654 841.316C124 842.575 123.99 842.528 122.958 843.551L122.566 843.17C123.492 839.771 124.486 838.914 127.124 836.427C127.333 835.086 128.48 833.811 129.896 833.509L130.576 834.995Z" fill="#161617"/>
<path d="M130.576 834.995C131.76 833.894 131.942 833.296 133.224 833.164C132.989 836.239 128.734 839.701 126.125 841.291C127.133 839.083 129.026 836.954 130.576 834.995Z" fill="#D3D4D4"/>
<path d="M124.654 841.315C124 842.574 123.99 842.526 122.958 843.55L122.566 843.169C123.492 839.77 124.486 838.913 127.124 836.426C126.312 838.11 125.543 839.668 124.654 841.315Z" fill="#7E7E81"/>
<path d="M104.27 961.328C105.266 963.725 106.246 966.127 107.208 968.539L107.929 966.878L108.711 966.981C109.788 968.427 111.282 971.878 110.666 973.557C110.818 973.968 112.78 976.608 113.139 977.102L112.797 977.685C112.361 977.433 111.923 977.2 111.57 976.85C104.665 969.989 104.878 969.989 104.27 961.328Z" fill="#FBFBFB"/>
<path d="M107.207 968.535L107.928 966.875L108.71 966.978C109.788 968.423 111.282 971.875 110.665 973.554C108.426 972.393 108.094 970.774 107.207 968.535Z" fill="#161617"/>
<path d="M137.864 799.961C138.331 802.693 124.995 827.699 122.336 830.312C122.373 829.312 136.216 802.271 137.864 799.961Z" fill="#9C9D9E"/>
<path d="M155.572 807.941L155.945 808.193C152.338 816.88 147.791 823.79 141.621 831.073C141.229 830.895 141.48 831.05 141.125 830.361C143.326 826.017 147.482 820.823 150.228 816.523C152.041 813.683 153.72 810.659 155.572 807.941Z" fill="#D3D4D4"/>
<path d="M163.79 780.762C164.76 784.328 153.477 803.011 151.004 807.113C151.117 803.982 161.641 784.393 163.79 780.762Z" fill="#D3D4D4"/>
<path d="M119.278 985.275C120.518 985.13 121.292 984.883 122.369 985.443C123.697 987.42 124.038 989.458 122.066 991.119L120.425 990.825C118.447 990.018 116.195 989.5 115.535 987.471C116.762 985.932 117.116 986.175 119.278 985.275Z" fill="#FBFBFB"/>
<path d="M107.298 907.331C111.666 903.232 117.936 896.189 122.074 892.91C120.08 896.613 110.479 908.931 106.242 909.426C106.423 908.852 106.987 907.905 107.298 907.331Z" fill="#D3D4D4"/>
<path d="M117.359 777.481C122.144 771.437 136.984 759.955 144.176 760.071L143.802 760.538C141.17 761.525 140.399 761.762 138.056 763.367C136.666 764.181 136.892 763.843 135.968 764.981C128.988 767.576 122.934 772.871 117.359 777.481Z" fill="#AFB0B0"/>
<path d="M185.349 765.711C186.135 766.242 185.885 766.087 186.443 766.923C187.2 774.791 187.026 789.38 183.381 796.381C183.252 794.886 185.23 786.764 185.531 783.909C186.126 778.26 184.779 770.607 185.349 765.711Z" fill="#9C9D9E"/>
<path d="M144.621 844.023L145.167 845.028C140.432 851.646 137.958 855.349 131.266 860.05C135.085 854.097 139.8 849.23 144.621 844.023Z" fill="#FBFBFB"/>
<path d="M73.0083 879.168C68.6181 885.045 65.7856 886.542 59.3232 890.203L59.2373 889.671L57.5938 888.659L58.1128 887.288C59.4043 886.323 59.3794 886.407 60.98 885.968L62.167 887.097C65.3525 884.695 69.6704 881.248 73.0083 879.168Z" fill="#D3D4D4"/>
<path d="M59.2373 889.672L57.5938 888.66L58.1128 887.289C59.4043 886.323 59.3794 886.407 60.98 885.969L62.167 887.097C61.5815 887.592 59.6098 889.196 59.2373 889.672Z" fill="#161617"/>
<path d="M113.688 917.516C113.433 919.157 101.904 936.065 100.172 938.634L99.9844 938.075C101.739 932.147 109.39 922.1 113.688 917.516Z" fill="#AFB0B0"/>
<path d="M111.132 841.156L112.132 841.271C112.259 844.263 101.193 854.434 98.3711 856.339C101.66 851.681 104.684 848.201 108.736 844.098L111.132 841.156Z" fill="#D3D4D4"/>
<path d="M127.306 892.27C127.226 895.553 114.979 911.229 112.259 913.594C112.25 913.552 112.231 913.505 112.23 913.458C112.228 911.537 124.98 895.52 127.306 892.27Z" fill="#7E7E81"/>
<path d="M100.676 834.663C103.378 824.676 107.462 816.464 113.474 807.988L114.292 808.402C106.849 819.014 106.043 824.695 100.676 834.663Z" fill="#5C5B5C"/>
<path d="M80.7495 844.656C81.5156 847.221 74.8462 860.036 72.9595 862.618C72.6694 859.839 78.6055 847.055 80.7495 844.656Z" fill="#FBFBFB"/>
<path d="M65.7319 925.41C66.5977 927.071 65.9927 929.071 65.7866 931.226C64.2456 933.255 62.5181 934.948 60.7432 936.786L60.46 936.874L60.1953 936.305C61.4331 932.616 63.5083 928.656 65.7319 925.41Z" fill="#FBFBFB"/>
<path d="M87.1226 826.219L87.9956 827.103C86.7339 829.689 82.1548 840.738 80.7671 842.036L80.5586 841.425C81.5796 837.549 83.2393 832.953 85.249 829.453L87.1226 826.219Z" fill="#FBFBFB"/>
<path d="M265.477 1333.17L265.862 1333.55C260.555 1337.71 246.941 1336.73 240.325 1335.52L239.969 1334.82C243.094 1334.52 245.814 1335.83 248.929 1335.56C256.771 1334.87 258.006 1336.38 265.477 1333.17Z" fill="#5C5B5C"/>
<path d="M96.8838 799.137L98.418 800.146C98.6807 802.569 94.6709 807.673 93.4536 810.818C93.2881 809.323 93.6782 808.367 93.1406 807.129L93.4434 805.128L96.8838 799.137Z" fill="#161617"/>
<path d="M125.852 842.961L126.074 843.077C125.652 845.397 114.736 855.836 112.299 857.93L111.953 857.251C113.902 854.491 123.014 845.386 125.852 842.961Z" fill="#D3D4D4"/>
<path d="M110.023 877.788C113.392 872.513 118.748 866.762 123.417 862.449C118.847 870.116 115.27 872.271 110.845 878.39L110.023 877.788Z" fill="#D3D4D4"/>
<path d="M149.608 801.387C149.901 804.307 143.377 816.505 141.312 819.224C141.055 817.051 147.608 803.434 149.608 801.387Z" fill="#D3D4D4"/>
<path d="M162.867 902.969C163.454 907.026 156.57 917.199 153.371 919.96C153.355 918.668 161.493 905.604 162.867 902.969Z" fill="#D3D4D4"/>
<path d="M102.925 881.551C102.589 884.237 91.3654 897.077 88.6584 899.358C88.4729 896.662 100.31 884.937 102.925 881.551Z" fill="#AFB0B0"/>
<path d="M135.123 921.781C134.944 922.7 123.31 940.232 121.812 942.723C121.908 938.059 131.722 925.401 135.123 921.781Z" fill="#9C9D9E"/>
<path d="M113.477 807.985C116.289 803.487 121.053 796.841 125.144 793.309C121.685 799.352 118.709 803.067 114.294 808.399L113.477 807.985Z" fill="#D3D4D4"/>
<path d="M80.1553 926.891L80.2769 927.59C77.3638 931.974 70.9937 935.64 66.4424 938.42L66.375 938.08C69.1797 935.221 76.8086 929.344 80.1553 926.891Z" fill="#D3D4D4"/>
<path d="M135.971 764.981C136.895 763.842 136.668 764.181 138.058 763.367L138.551 764.141C139.949 764.39 141.292 764.579 142.696 764.776C142.467 765.776 141.735 765.907 140.541 766.697C138.812 766.679 137.675 767.495 136.114 768.297L135 767.367C135.075 765.884 134.85 766.607 136.239 765.3L135.971 764.981Z" fill="#161617"/>
<path d="M102.553 915.199C102.864 915.507 102.691 915.274 102.743 916.034C99.8403 919.262 94.5205 923.744 91.0434 926.463L90.7227 926.216C91.3936 923.609 100.019 917.153 102.553 915.199Z" fill="#D3D4D4"/>
<path d="M153.896 895.465L154.473 896.351C154.025 901.43 152.338 906.341 149.548 910.688L149.148 910.39C150.926 905.474 152.06 900.162 153.896 895.465Z" fill="#D3D4D4"/>
<path d="M95.3203 955.168L96.1739 956.04C96.8189 959.566 99.2515 965.503 100.579 969.062C96.4722 967.63 95.5469 958.778 95.3203 955.168Z" fill="#FBFBFB"/>
<path d="M189.418 787.629C191.426 780.709 192.256 773.673 190.503 766.602L190.947 766.625C193.076 770.585 191.963 783.131 190.645 787.143L189.418 787.629Z" fill="#7E7E81"/>
<path d="M82.7207 871.219L83.6143 872.585C79.6714 875.025 77.2617 877.427 72.5117 880.122C75.459 876.205 78.5435 873.803 82.7207 871.219Z" fill="#FBFBFB"/>
<path d="M114.159 824.57C114.675 825.028 114.44 824.713 114.632 825.641C112.212 830.484 110.243 834.128 106.998 838.491L106.594 838.232C107.292 835.86 112.599 827.088 114.159 824.57Z" fill="#9C9D9E"/>
<path d="M199.965 750.499C200.449 750.373 200.097 750.44 201.025 750.516C198.212 751.633 189.492 751.935 185.665 752.314C184.55 752.253 185.045 752.418 184.164 751.865C186.51 749.836 196.474 750.461 199.965 750.499Z" fill="#D3D4D4"/>
<path d="M171.964 755.852C173.93 756.109 174.405 756.213 175.444 757.467C175.111 758.862 172.662 760.876 171.363 762.391C170.898 763.122 171.221 762.782 170.302 763.325C170.199 761.2 171.813 759.45 171.964 755.852Z" fill="#D3D4D4"/>
<path d="M149.814 843.879L150.077 844.27C149.126 847.642 143.771 853.438 141.111 855.892L140.773 855.625C141.379 853.92 148.216 845.844 149.814 843.879Z" fill="#AFB0B0"/>
<path d="M161.478 793.852C161.507 797.326 157.601 803.982 155.726 806.949C154.949 804.459 159.932 796.325 161.478 793.852Z" fill="#AFB0B0"/>
<path d="M129.845 901.339L128.789 901.409C129.113 899.109 134.409 892.314 136.662 890.887C135.65 893.443 133.879 895.555 132.21 897.78C131.42 898.848 130.335 900.154 129.845 901.339Z" fill="#9C9D9E"/>
<path d="M111.213 852.746L111.449 852.898C110.536 855.702 105.535 860.039 102.623 861.049L102.449 860.584L102.487 861.006C103.103 859.15 109.38 853.949 111.213 852.746Z" fill="#D3D4D4"/>
<path d="M156.976 768.293L157.048 768.772C156.479 770.201 149.496 777.045 147.961 778.612L147.797 778.172C148.521 775.467 154.454 769.851 156.976 768.293Z" fill="#AFB0B0"/>
<path d="M68.1094 888.773C72.5889 883.82 74.7403 882.08 80.5025 878.703C77.5059 882.21 73.7881 885.14 70.0362 887.873L68.1094 888.773Z" fill="#D3D4D4"/>
<path d="M132.209 897.777L133.756 898.416C134.658 900.926 133.5 902.166 131.181 903.048L130.444 902.763C130.286 902.255 130.198 901.751 129.844 901.336C130.334 900.151 131.419 898.845 132.209 897.777Z" fill="#161617"/>
<path d="M68.1064 888.771L70.0332 887.871L71.4932 888.725C71.2314 890.991 67.5937 892.848 65.4346 893.323L64.8633 892.89C66.7461 890.413 68.0503 892.465 67.6338 889.098L68.1064 888.771Z" fill="#161617"/>
<path d="M179.531 749.3C181.876 749.128 184.766 749.128 187.168 749.066C184.625 749.836 181.944 750.249 179.316 750.733C177.623 751.118 175.838 751.737 174.242 751.272L174.326 750.648C176.157 749.488 177.269 749.567 179.531 749.3Z" fill="#D3D4D4"/>
<path d="M119.745 828.941L119.834 829.441C118.165 833.425 116.655 836.985 112.792 839.419C112.648 837.293 117.711 831.955 119.438 829.401L119.745 828.941Z" fill="#D3D4D4"/>
<path d="M86.2661 812.145L86.5117 812.338C86.6738 814.35 82.0454 823.273 80.917 825.619L80.7109 825.614C82.0024 819.326 83.085 817.914 86.2661 812.145Z" fill="#AFB0B0"/>
<path d="M64.3736 871.801C65.439 872.682 66.8491 872.836 67.3232 873.503L66.856 872.995L67.29 873.466C65.5483 874.091 65.4809 874.268 64.1431 875.616L63.7827 875.989C62.707 876.871 63.1382 876.647 61.8408 877.16L61.4648 876.334C62.0127 873.923 62.5098 873.69 64.3736 871.801Z" fill="#161617"/>
<path d="M197.367 759.441C201.933 759.919 207.221 763.538 211.171 765.951C208.827 765.914 199.174 761.037 197.367 759.441Z" fill="#AFB0B0"/>
<path d="M114.576 961.98L115.377 963.594C114.56 966.346 114.871 969.597 113.699 972.055C111.585 969.21 113.531 964.951 114.576 961.98Z" fill="#FBFBFB"/>
<path d="M173.29 766.207L173.871 766.412C173.859 768.224 169.953 775.533 168.997 778.686L168.716 778.807L168.402 778.136C169.347 773.985 171.382 770.019 173.29 766.207Z" fill="#3D3C3E"/>
<path d="M53.4473 892.367L53.4829 893.011C50.9917 896.504 46.6133 901.248 43.4697 904.302L43.4141 903.342C45.2632 900.66 50.9448 894.956 53.4473 892.367Z" fill="#7E7E81"/>
<path d="M134.704 859.184C134.705 861.107 127.94 868.441 126.188 870.046C126.151 867.434 132.623 861.336 134.704 859.184Z" fill="#7E7E81"/>
<path d="M148.548 914.621L148.707 915.866C147.032 919.574 145.213 921.608 142.567 924.639L142.371 924.024C143.014 922.014 147.042 916.655 148.548 914.621Z" fill="#AFB0B0"/>
<path d="M131.211 909.066C131.22 911.874 124.866 918.133 122.637 920.288C123.544 917.756 129.174 911.231 131.211 909.066Z" fill="#3D3C3E"/>
<path d="M141.945 910.133C141.591 912.605 137.217 917.595 135.178 919.335L135.105 918.318C136.919 915.263 139.228 912.497 141.945 910.133Z" fill="#9C9D9E"/>
<path d="M96.3254 940.254C96.8801 942.25 95.3283 949.358 94.8752 951.872C93.0285 948.836 95.0769 943.36 96.3254 940.254Z" fill="#D3D4D4"/>
<path d="M93.4649 859.152L93.9331 859.886C91.5659 863.241 89.3984 865.101 86.3027 867.757L85.8281 867.398C87.5923 864.939 91.2085 861.408 93.4649 859.152Z" fill="#5C5B5C"/>
<path d="M115.061 845.109L115.577 845.656C115.198 848.33 111.36 851.208 109.122 852.742L108.855 852.292C110.858 849.82 112.946 847.494 115.061 845.109Z" fill="#AFB0B0"/>
<path d="M92.6128 796.906L93.3022 797.68C91.7422 800.873 89.1855 804.727 87.0195 807.583C88.3276 803.169 90.0132 800.678 92.6128 796.906Z" fill="#AFB0B0"/>
<path d="M106.246 909.424L105.357 909.125C103.3 909.438 103.244 911.41 100.91 912.096L100.758 911.485C102.243 909.027 104.128 906.564 107.301 907.329C106.99 907.903 106.427 908.85 106.246 909.424Z" fill="#3D3C3E"/>
<path d="M119.932 939.797C120.535 941.914 116.568 949.279 115.424 951.718C115.221 948.491 118.229 942.623 119.932 939.797Z" fill="#5C5B5C"/>
<path d="M107.213 893.242C107.291 895.626 103.735 899.012 101.98 901.022L101.727 900.168C102.093 897.617 105.269 895.047 107.213 893.242Z" fill="#D3D4D4"/>
<path d="M96.8862 908.141L97.3428 908.864C95.898 911.447 93.3726 913.108 90.9043 914.759L90.7109 914.554L90.7637 913.84C93.0195 911.326 94.2471 910.314 96.8862 908.141Z" fill="#D3D4D4"/>
<path d="M151.829 833.824C149.979 838.7 148.334 840.797 145.167 845.028L144.621 844.024C146.633 840.9 149.507 836.825 151.829 833.824Z" fill="#3D3C3E"/>
<path d="M97.6055 899.766L98.0029 900.339C97.2446 902.867 93.9971 905.493 91.9605 907.303L91.6406 906.734C93.2959 904.159 95.4878 902.028 97.6055 899.766Z" fill="#9C9D9E"/>
<path d="M108.736 844.099C107.676 843.571 107.913 843.833 107.18 843.029C107.72 841.079 108.153 839.941 110.087 838.922C110.381 839.854 110.593 840.331 111.132 841.157L108.736 844.099Z" fill="#161617"/>
<path d="M114.949 933.281C115.223 935.138 111.287 941.854 110.052 944.26C109.497 941.467 113.223 935.637 114.949 933.281Z" fill="#161617"/>
<path d="M146.847 908.594C147.029 911.462 143.038 916.705 141.096 918.687C140.664 917.129 145.775 910.203 146.847 908.594Z" fill="#5C5B5C"/>
<path d="M171.465 797.609C171.872 799.779 167.617 806.469 166.274 808.513C166.066 805.816 169.891 800.262 171.465 797.609Z" fill="#AFB0B0"/>
<path d="M165.012 766.027L165.307 766.49C164.433 768.333 160.61 771.218 158.845 772.486L158.512 772.17C159.85 769.648 162.603 767.582 165.012 766.027Z" fill="#AFB0B0"/>
<path d="M104.317 780.93C103.919 782.854 99.249 788.138 97.6396 789.809L97.5312 788.781C99.2129 785.89 101.738 783.131 104.317 780.93Z" fill="#5C5B5C"/>
<path d="M108.15 864.859L108.625 865.917C106.319 868.217 102.919 870.898 100.34 873.049C102.373 869.453 104.951 867.447 108.15 864.859Z" fill="#AFB0B0"/>
<path d="M114.578 961.979C115.965 958.037 116.886 955.458 119.655 952.109C118.056 955.911 116.375 959.6 115.378 963.592L114.578 961.979Z" fill="#9C9D9E"/>
<path d="M139.279 859.672L139.352 860.62C137.31 864.127 136.061 866.626 132.81 869.28C132.545 868.133 138.202 860.947 139.279 859.672Z" fill="#7E7E81"/>
<path d="M82.7227 871.217C84.7266 870.676 88.5933 867.211 91.1338 865.711C89.1997 867.976 86.4248 871.455 83.6162 872.584L82.7227 871.217Z" fill="#9C9D9E"/>
<path d="M81.23 934.188C81.9732 936.506 79.2266 940.601 77.9776 942.858C77.5889 939.929 79.4585 936.496 81.23 934.188Z" fill="#D3D4D4"/>
<path d="M149.738 860.42C152.326 858.419 152.986 853.963 154.575 850.57C153.95 853.476 152.945 858.96 152.083 861.614L151.185 860.541L150.562 861.038L149.738 860.42Z" fill="#5C5B5C"/>
<path d="M88.1895 922.672L88.1944 923.404C86.9824 925.764 84.4946 928.609 82.5503 930.466L82.5 929.463C83.8965 927.014 85.9497 924.463 88.1895 922.672Z" fill="#5C5B5C"/>
<path d="M205.113 756.71C208.878 756.302 213.482 758.495 216.617 760.341C214.166 760.07 207.457 757.779 205.113 756.71Z" fill="#9C9D9E"/>
<path d="M158.605 1317.57C160.74 1318.32 161.596 1320.26 162.604 1322.08C161.222 1322.33 161.318 1322.3 159.975 1321.87C158.795 1320.71 158.853 1319.25 158.605 1317.57Z" fill="#FBFBFB"/>
<path d="M214.094 1328.47C216.525 1328.68 223.088 1330.38 224.357 1332.26C221.003 1331.3 216.813 1330.46 214.094 1328.47Z" fill="#3D3C3E"/>
<path d="M100.853 941.215C101.134 943.234 99.2427 949.162 98.6245 951.359L98.2461 950.534C98.4575 946.537 99.1084 944.867 100.853 941.215Z" fill="#5C5B5C"/>
<path d="M124.458 773.434C124.477 774.887 119.417 779.196 118.083 780.464C118.021 777.664 122.293 775.082 124.458 773.434Z" fill="#5C5B5C"/>
<path d="M137.514 822.859L137.866 823.23C136.981 825.405 134.474 828.46 132.953 830.488L132.562 830.126C132.644 828.53 136.327 824.126 137.514 822.859Z" fill="#3D3C3E"/>
<path d="M193.117 755.199C195.739 756.319 201.135 757.765 202.502 759.329C197.858 758.319 196.389 758.447 193.117 755.199Z" fill="#9C9D9E"/>
<path d="M201.766 753.537C205.647 753.335 208.548 754.171 211.717 756.17C209.056 755.842 204.021 754.837 201.766 753.537Z" fill="#9C9D9E"/>
<path d="M134.285 773.703L134.928 773.983C134.194 775.686 129.935 778.473 128.183 779.696L127.75 779.712C127.91 778.617 132.982 774.787 134.285 773.703Z" fill="#5C5B5C"/>
<path d="M160.514 896.914L160.935 897.334C161.198 899.19 159.633 903.257 158.806 904.969L158.246 904.265C158.98 901.415 159.431 899.675 160.514 896.914Z" fill="#7E7E81"/>
<path d="M111.719 957.09L112.531 958.308C114.339 956.918 113.794 954.395 115.852 952.688L116.252 953.196C115.751 955.281 113.926 958.97 112.053 960.239L111.719 957.09Z" fill="#7E7E81"/>
<path d="M93.7002 826L94.4024 827.107C93.5684 829.069 92.876 830.372 91.8369 832.248L91.4697 831.584L91.0449 833.111L90.957 833.119C91.3901 830.393 92.4966 828.507 93.7002 826Z" fill="#9C9D9E"/>
<path d="M77.5039 950.461C78.5967 952.508 78.7393 957.172 78.9204 959.691C76.9488 957.13 77.208 953.521 77.5039 950.461Z" fill="#AFB0B0"/>
<path d="M210.562 761.789C213.653 762.092 217.14 763.64 219.508 765.55C216.266 765.277 213.326 763.377 210.562 761.789Z" fill="#AFB0B0"/>
<path d="M129.118 880.121L129.594 880.639C129.183 882.015 125.778 885.895 124.641 887.28C124.364 886.879 124.531 887.178 124.406 886.296C125.943 883.992 127.364 882.271 129.118 880.121Z" fill="#5C5B5C"/>
<path d="M151.7 754.39C152.845 754.36 152.384 754.19 153.142 754.715C151.377 755.792 149.788 756.038 147.757 756.547L146.438 756.364L146.242 755.905C147.897 755.003 149.815 754.767 151.7 754.39Z" fill="#D3D4D4"/>
<path d="M173.969 899.219L174.434 899.764C174.828 902.26 173.843 904.998 173.058 907.404L172.508 906.588C172.951 903.985 173.33 901.793 173.969 899.219Z" fill="#5C5B5C"/>
<path d="M125.078 946.883C125.517 948.385 121.362 953.823 120.285 955.339C120.448 952.96 123.502 948.767 125.078 946.883Z" fill="#3D3C3E"/>
<path d="M90.1712 908.707L90.263 909.346C89.3226 910.563 86.2313 912.928 84.889 914.024C84.4183 911.897 88.512 909.747 90.1712 908.707Z" fill="#7E7E81"/>
<path d="M95.6328 853.424C97.3369 852.039 98.416 851.155 100.26 849.969L100.724 850.116C99.1289 852.323 98.2954 852.842 96.1802 854.542L95.6328 853.424Z" fill="#5C5B5C"/>
<path d="M164.363 793.789C165.21 796.296 162.997 799.282 161.732 801.476C161.144 799.913 163.559 795.435 164.363 793.789Z" fill="#AFB0B0"/>
<path d="M152.522 850.828C152.806 852.834 150.418 856.44 149.098 857.959C148.982 855.728 151.081 852.522 152.522 850.828Z" fill="#5C5B5C"/>
<path d="M137.795 831.57C138.672 834.164 136.166 836.201 134.375 837.864C134.553 835.945 136.626 833.327 137.795 831.57Z" fill="#5C5B5C"/>
<path d="M74.6406 830.3C75.27 828.761 76.0361 826.331 77.2129 825.266C77.2871 827.008 76.0386 829.702 75.377 831.491L74.6406 830.3Z" fill="#5C5B5C"/>
<path d="M75.0262 837.191C75.6498 839.53 73.8602 842.602 72.7684 844.751C72.0316 842.514 73.9716 839.392 75.0262 837.191Z" fill="#AFB0B0"/>
<path d="M110.807 909.184C110.474 910.443 106.918 914.03 105.617 915.765C105.502 912.556 108.417 910.984 110.807 909.184Z" fill="#5C5B5C"/>
<path d="M84.7573 805.922C85.4692 808.21 83.455 811.292 82.224 813.207C81.935 810.911 83.6308 807.954 84.7573 805.922Z" fill="#7E7E81"/>
<path d="M144.396 837.695L144.436 838.731C142.963 841.284 142.132 842.017 140.097 844.086L139.996 843.059C141.585 840.873 142.606 839.678 144.396 837.695Z" fill="#3D3C3E"/>
<path d="M92.6133 796.905C93.5303 795.674 95.4985 792.48 96.7217 792.258L96.8296 791.66L97.0894 791.747L96.9292 792.141L96.6328 792.002L96.6655 792.682C95.5435 794.565 94.6021 795.897 93.3028 797.679L92.6133 796.905Z" fill="#5C5B5C"/>
<path d="M92.5527 804.078L93.4413 805.128L93.1386 807.129C92.3881 808.822 92.3759 808.844 91.2074 810.305C90.9902 808.866 92.1064 805.65 92.5527 804.078Z" fill="#7E7E81"/>
<path d="M137.897 837.773C137.795 839.423 134.621 842.609 133.294 844.268L133.125 843.613C133.519 841.792 136.448 839.161 137.897 837.773Z" fill="#3D3C3E"/>
<path d="M179 752.028C179.72 751.981 180.241 752.079 180.968 752.152C179.999 753.107 178.392 753.416 176.953 753.883C175.595 754.072 176.236 754.107 175.02 753.64C176.31 752.486 177.278 752.433 179 752.028Z" fill="#AFB0B0"/>
<path d="M171.545 900.609C172.221 902.923 170.477 905.978 169.338 907.927C168.974 905.74 170.578 903.016 171.545 900.609Z" fill="#5C5B5C"/>
<path d="M177.426 902.031C177.842 905.207 177.612 906.453 176.138 909.326C175.505 907.348 176.719 904.018 177.426 902.031Z" fill="#9C9D9E"/>
<path d="M90.106 812.965L90.6089 813.752C89.9336 816.01 88.8706 817.266 87.5229 819.223C87.2973 818.989 87.2549 818.64 87.1406 818.341C88.0947 816.532 89.083 814.74 90.106 812.965Z" fill="#7E7E81"/>
<path d="M131.275 871.285L131.658 871.691C131.509 873.123 129.632 875.357 128.691 876.667L128.148 875.991C128.57 874.256 130.087 872.736 131.275 871.285Z" fill="#5C5B5C"/>
<path d="M74.6416 830.301L75.3779 831.492C74.9102 832.54 73.8047 835.453 72.832 835.797C73.0425 833.36 73.6089 832.511 74.6416 830.301Z" fill="#AFB0B0"/>
<path d="M157.768 762.277L158.391 762.877L158.25 763.844C157.152 765.266 156.626 765.435 155.06 766.32C154.486 766.063 154.826 766.257 154.141 765.601C156.28 764.298 156.442 764.267 157.768 762.277Z" fill="#3D3C3E"/>
<path d="M163.88 760.285L164.241 760.933C163.458 762.498 161.624 763.913 160.259 765.148C159.819 764.744 160.01 765.017 159.867 764.237C161.367 762.554 162.163 761.763 163.88 760.285Z" fill="#7E7E81"/>
<path d="M101.362 856.867L101.76 857.487C100.831 859.201 99.2583 860.272 97.7095 861.574L97.3906 860.932C98.3828 859.278 99.8755 858.175 101.362 856.867Z" fill="#AFB0B0"/>
<path d="M118.38 861.441C118.947 861.962 118.76 861.625 118.787 862.518C117.653 864.187 117.259 864.83 115.789 866.177L115.39 866.58L114.824 866.74C115.915 864.81 117.09 863.245 118.38 861.441Z" fill="#161617"/>
<path d="M166.524 894.926L166.986 895.943C166.93 898.102 166.197 899.399 165.36 901.409C164.649 899.287 165.766 897.085 166.524 894.926Z" fill="#AFB0B0"/>
<path d="M119.83 807.348L120.035 808.114C119.593 809.897 118.228 811.518 117.131 813.072L116.945 811.992C117.776 809.738 118.279 809.305 119.83 807.348Z" fill="#5C5B5C"/>
<path d="M110.846 878.391C109.858 879.757 108.717 881.786 107.238 882.388C107.415 880.937 109.073 879.072 110.024 877.789L110.846 878.391Z" fill="#5C5B5C"/>
<path d="M79.4776 867.219C79.1753 868.772 75.9873 871.216 74.6567 872.373L74.6016 871.631C75.6138 869.658 77.5796 868.371 79.4776 867.219Z" fill="#5C5B5C"/>
<path d="M145.312 774.83C147.205 772.872 148.722 771.989 150.987 770.5C149.346 772.424 147.959 774.158 146.055 775.861L145.312 774.83Z" fill="#7E7E81"/>
<path d="M188.309 757.289C191.299 758.194 191.192 758.751 191.783 761.651L191.099 761.459C189.624 760.064 189.269 759.089 188.309 757.289Z" fill="#D3D4D4"/>
<path d="M146.662 897.387C146.976 899.318 145.147 901.636 144.044 903.431C143.52 901.305 145.376 899.084 146.662 897.387Z" fill="#5C5B5C"/>
<path d="M125.688 847.902L126.094 848.268C126.038 849.486 123.839 851.318 122.753 852.454L122.283 852.064C122.219 850.976 124.505 849.203 125.688 847.902Z" fill="#161617"/>
<path d="M237.207 903.5C237.144 905.734 235.303 907.609 233.887 909.33L233.672 908.654C234.434 906.695 235.859 905.184 237.207 903.5Z" fill="#5C5B5C"/>
<path d="M105.187 951.457C105.626 953.271 104.787 956.219 104.169 958.001C103.378 955.324 103.818 953.817 105.187 951.457Z" fill="#7E7E81"/>
<path d="M55.4311 882.441L55.9448 883.08C55.1133 884.648 53.7168 885.412 52.2197 886.476L51.8789 886.308C52.4229 884.923 54.2471 883.523 55.4311 882.441Z" fill="#9C9D9E"/>
<path d="M146.171 860.512C146.785 861.066 146.515 860.695 146.772 861.741C146.314 863.354 145.261 864.104 144.016 865.323L143.68 864.667C144.793 863.061 145.296 862.246 146.171 860.512Z" fill="#5C5B5C"/>
<path d="M85.9394 914.859L86.0171 914.967C85.9585 916.193 83.625 918.157 82.5078 919.332L82.2031 919.113L82.2861 918.208C83.687 916.389 84.0019 916.179 85.9394 914.859Z" fill="#3D3C3E"/>
<path d="M182.266 782.961C182.413 781.442 182.311 779.937 183.281 778.844C183.971 779.893 183.642 782.083 183.313 783.248L182.266 782.961Z" fill="#7E7E81"/>
<path d="M86.7593 853.57L87.1396 853.973C87.1543 855.387 85.5937 857.172 84.6997 858.448L84.2266 857.923C84.5732 856.451 85.8457 854.884 86.7593 853.57Z" fill="#5C5B5C"/>
<path d="M125.855 829.4L129.399 823.637L129.818 824.327C129.125 827.037 128.057 827.698 125.855 829.4Z" fill="#5C5B5C"/>
<path d="M105.96 789.73C106.014 791.761 104.792 792.863 103.475 794.45L103.266 793.508C103.567 791.711 104.594 791.051 105.96 789.73Z" fill="#3D3C3E"/>
<path d="M95.6352 853.426L96.1826 854.543C94.4956 856.098 92.5386 857.445 90.6719 858.813C92.5713 856.274 93.3227 855.574 95.6352 853.426Z" fill="#AFB0B0"/>
<path d="M112.995 860.855C111.302 863.21 110.82 863.853 108.624 865.917L108.148 864.86C109.883 863.294 111.118 862.26 112.995 860.855Z" fill="#7E7E81"/>
<path d="M123.082 931.941L123.406 932.254C123.264 933.723 121.966 935.383 121.103 936.717L120.777 936.349C121.049 934.451 121.919 933.592 123.082 931.941Z" fill="#3D3C3E"/>
<path d="M179.738 782.754C180.194 781.277 180.666 779.124 181.655 778.012C181.596 780.015 181.355 780.806 180.886 782.792L179.738 782.754Z" fill="#5C5B5C"/>
<path d="M133.559 779.127C135.354 777.724 137.025 776.425 138.898 775.105C137.367 776.903 136.172 778.488 134.285 779.949L133.559 779.127Z" fill="#7E7E81"/>
<path d="M109.308 898.855L109.763 899.42C109.503 900.996 109.163 900.875 107.827 902.321L107.148 901.845C107.433 900.46 108.162 900.105 109.308 898.855Z" fill="#161617"/>
<path d="M223.325 902.562C223.623 904.167 221.792 906.415 220.82 907.87C220.537 905.883 222.036 903.99 223.325 902.562Z" fill="#5C5B5C"/>
<path d="M87.125 826.219C88.4082 823.494 88.6753 822.948 90.6695 820.508L87.9981 827.103L87.125 826.219Z" fill="#5C5B5C"/>
<path d="M130.09 842.93C130.263 844.573 128.549 845.992 127.466 847.176L127.277 846.639C127.869 844.909 128.739 844.295 130.09 842.93Z" fill="#3D3C3E"/>
<path d="M79.877 828.355C79.9727 830.772 79.4917 831.672 78.7119 833.929C77.5825 832.015 78.9737 830.226 79.877 828.355Z" fill="#5C5B5C"/>
<path d="M113.274 896.465L113.614 896.796C113.385 898.386 112.995 898.34 111.729 899.828L111.199 899.184C111.506 897.687 111.899 897.775 113.274 896.465Z" fill="#3D3C3E"/>
<path d="M98.3477 956.451L98.6763 956.367C99.5752 956.95 100.102 958.55 100.666 959.683C98.7397 958.96 98.9038 958.182 98.3477 956.451Z" fill="#5C5B5C"/>
<path d="M338.125 681.877C343.746 667.164 340.381 652.006 334.268 637.644C333.428 635.671 331.309 632.679 329.092 631.904C327.784 632.842 327.242 633.334 325.689 633.907C324.4 633.634 324.107 633.507 323.013 632.857C319.322 630.665 317.73 634.455 314.424 631.22C313.594 626.084 321.885 622.809 321.49 618.022C319.82 615.577 315.152 615.509 312.427 614.252C264.478 592.132 234.414 532.169 245.206 482.46C254.981 437.416 304.795 404.623 352.369 414.893C373.555 419.371 391.958 431.815 403.418 449.413C417.139 470.523 423.687 504.784 417.5 529.004C409.454 560.486 384.351 591.564 355.635 608.381C350.909 611.208 345.87 613.532 340.611 615.309C339.966 615.522 332.051 617.622 332.232 617.453C329.112 620.381 336.836 628.32 336.578 631.214C336.495 632.086 334.834 633.843 334.722 633.977C335.445 637.095 338.101 642.281 339.2 645.633C343.248 657.962 345.166 670.645 339.634 682.712C349.195 694.253 348.423 707.363 340.65 719.618C349.351 738.175 338.721 760.232 319.927 768.291C320.069 767.58 319.991 767.727 319.81 766.952C319.4 767.626 319.014 768.208 318.57 768.863C312.456 769.868 306.778 770.743 301.275 767.142C297.163 764.45 295.479 758.802 298.697 754.891C300.03 753.274 302.012 752.262 304.161 752.101C312.076 751.508 317.071 760.706 319.727 766.583C336.7 759.014 346.997 738.06 339.273 721.086C333.418 727.193 328.702 731.031 319.414 731.561C314.419 731.846 308.067 730.828 304.258 727.597C302.041 725.731 300.704 723.094 300.547 720.278C300.337 716.716 302.022 713.558 304.59 711.065C308.306 707.474 313.399 705.495 318.682 705.591C327.994 705.726 334.707 710.74 339.712 717.732C346.319 706.164 347.081 695.414 338.76 684.303C335.943 688.067 334.961 688.758 331.661 691.951C324.825 698.56 305.64 698.828 303.936 687.601C303.584 685.235 304.312 682.837 305.938 681.02C309.141 677.377 315.484 675.779 320.337 675.466C327.134 675.028 333.164 677.575 338.125 681.877Z" fill="#020101"/>
<path d="M325.273 414.924C366.889 412.491 399.531 431.745 412.314 471.002C421.689 499.807 420.81 526.669 406.215 553.608C392.226 579.421 366.855 606.281 337.011 615.061C321.215 618.904 307.607 611.718 295.429 602.707C249.345 568.611 224.78 495.798 263.588 448.464C279.326 429.273 299.853 418.089 325.273 414.924Z" fill="#ED3439"/>
<path d="M372.088 448.372C383.846 447.462 390.14 460.951 380.325 467.443C369.852 468.09 361.629 454.66 372.088 448.372Z" fill="#FBFBFB"/>
<path d="M316.829 707.318C326.81 706.906 333.392 711.588 338.289 719.478C334.031 724.875 330.379 727.379 323.675 729.464C300.633 734.168 293.646 711.312 316.829 707.318Z" fill="#FBFBFB"/>
<path d="M319.786 677.048C327.222 676.805 331.69 678.708 337.247 683.176C333.302 689.318 330.25 692.132 322.945 694.487C305.367 698.495 296.929 680.409 319.786 677.048Z" fill="#FBFBFB"/>
<path d="M302.349 753.91C303.594 753.807 305.601 753.673 306.754 754.092C310.762 755.549 318.795 762.937 316.905 767.212L314.717 767.784C313.565 767.84 312.413 767.876 311.26 767.892C303.272 767.975 292.569 760.934 302.349 753.91Z" fill="#FBFBFB"/>
<path d="M322.768 620.852C324.403 621.361 326.542 621.683 328.266 621.998C331.547 622.731 334.35 628.432 334.452 631.513L333.964 632.201C331.728 632.027 331.073 631.05 329.462 629.424C328.983 627.613 328.344 624.789 327.562 623.175C326.562 626.281 328.632 629.885 326.405 632.313C324.628 632.489 324.179 632.058 322.919 630.743L322.631 630.611C320.346 630.446 317.279 630.983 314.945 631.286C317.333 626.906 319.403 624.571 322.768 620.852Z" fill="#ED3439"/>
<path d="M322.632 630.613C322.037 627.229 322.823 625.9 324.419 622.812C324.991 623.602 323.267 629.443 322.92 630.745L322.632 630.613Z" fill="#55090D"/>
<path d="M322.77 617.715C325.733 617.699 328.595 617.627 330.523 619.89C327.613 620.338 324.518 620.078 322.77 617.715Z" fill="#ED3439"/>
<path d="M133.407 1329.13C136.127 1328.97 138.44 1328.63 141.045 1329.31L140.918 1329.73C137.131 1330.52 123.022 1330.71 118.231 1331.09C103.722 1332.21 89.3858 1333.48 74.8267 1333.83C73.208 1333.87 67.7461 1334.24 66.8281 1333.17C71.9077 1332.3 82.4482 1332.77 88.4575 1332.26C103.523 1330.99 118.271 1329.73 133.407 1329.13Z" fill="#5C5B5C"/>
<path d="M113.646 1344.53C119.287 1344.33 157.269 1344.08 161.013 1345.32C158.291 1345.9 155.164 1345.74 152.333 1345.74C148.07 1345.73 106.315 1346.05 104.773 1345.27C107.355 1344.56 110.881 1344.62 113.646 1344.53Z" fill="#3D3C3E"/>
<path d="M92.7695 1338.46C95.1548 1338.11 109.181 1338.35 111.111 1338.7C117.139 1339.76 147.5 1338.12 150.074 1339.99C144.921 1340.12 139.767 1340.19 134.613 1340.19C124.197 1340.21 104.789 1339.68 93.501 1339.16C93.2573 1338.93 93.0132 1338.7 92.7695 1338.46Z" fill="#5C5B5C"/>
<path d="M70.0654 836.688C62.7808 848.462 47.9175 861.916 35.2695 867.909C35.4448 867.63 49.3941 857.363 51.1533 855.979C60.1279 848.92 63.7959 844.308 69.4312 834.895L70.0654 836.688Z" fill="#161617"/>
<path d="M268.648 1338.49C274.195 1337.85 309.645 1338.05 314.093 1339.01C307.784 1339.41 272.447 1340.26 268.648 1338.49Z" fill="#5C5B5C"/>
<path d="M293.675 1332.92C297.732 1332.74 315.384 1331.93 318.182 1333.1C315.301 1333.78 303.123 1333.83 299.158 1333.96C295.447 1334.04 278.191 1334.65 275.672 1334C279.466 1332.92 289.285 1333.02 293.675 1332.92Z" fill="#3D3C3E"/>
<path d="M278.009 1343.19C280.001 1343.11 284.444 1343.53 286.651 1343.67L286.456 1343.88C279.254 1344.72 266.895 1344.43 259.254 1344.43C256.334 1344.4 252.227 1344.5 249.493 1343.99L249.234 1343.56C253.336 1342.92 272.027 1343.42 278.009 1343.19Z" fill="#5C5B5C"/>
<path d="M134.152 1334.28C136.336 1334.21 140.134 1333.98 142.017 1334.79C134.308 1335.54 126.747 1335.26 119.02 1335.65C116.08 1335.98 112.634 1336.27 109.734 1335.79C116.147 1334.51 127.211 1334.53 134.152 1334.28Z" fill="#7E7E81"/>
<path d="M72.8828 950.32C74.3965 955.763 73.8711 960.605 77.0767 966.183C78.6294 968.888 82.0381 971.896 82.7949 973.892C81.0068 973.496 77.874 968.823 76.855 967.274C73.8911 962.773 72.1807 956.342 71.918 951.053L72.8828 950.32Z" fill="#5C5B5C"/>
<path d="M273.004 1327.76C276.583 1327.3 298.907 1327.87 301.69 1329.17C298.248 1329.52 275.689 1329.02 273.004 1327.76Z" fill="#5C5B5C"/>
<path d="M228.735 1342.69C231.284 1342.58 234.453 1342.44 236.87 1343.26C233.599 1343.95 229.595 1343.83 226.196 1343.85C225.156 1343.88 224.116 1343.89 223.076 1343.89C222.031 1343.88 219.971 1343.96 219.316 1343.34C222.407 1342.54 225.527 1342.7 228.735 1342.69Z" fill="#5C5B5C"/>
<path d="M64.8936 945.316C65.5669 946.953 63.7115 955.209 64.1924 958.828C64.7134 962.755 64.6055 962.769 65.8257 966.911C61.6524 960.461 62.4419 952.219 64.8936 945.316Z" fill="#3D3C3E"/>
<path d="M51.8354 950.258L52.8193 951.4C47.3154 953.784 44.7651 954.115 38.5742 954.04L38.8814 953.131C44.3599 952.926 46.9756 952.664 51.8354 950.258Z" fill="#161617"/>
<path d="M14.8592 908.574L15.6175 909.134C12.472 914.749 13.2791 915.943 11.5379 921.582C10.3362 917.03 12.1883 912.324 14.8592 908.574Z" fill="#3D3C3E"/>
<path d="M61.414 943.797C61.7421 943.601 63.0717 943.088 63.5068 942.906C62.4384 945.033 59.4038 954.79 59.0444 955.117C58.9721 949.366 61.6582 945.868 61.414 943.797Z" fill="#161617"/>
<path d="M219.727 1337.5C222.1 1337.1 228.667 1337.14 230.566 1338.55C227.471 1338.71 223.291 1338.89 220.259 1338.39L219.727 1337.5Z" fill="#3D3C3E"/>
<path d="M239.398 1342.75C241.933 1342.91 244.35 1342.97 246.806 1343.57C245.497 1344.29 241.034 1343.94 239.442 1343.64L239.398 1342.75Z" fill="#7E7E81"/>
<path d="M250.624 793.909C250.936 793.904 251.253 793.899 251.566 793.895C252.167 796.189 251.078 799.453 250.453 801.774C250.428 799.151 250.536 796.531 250.624 793.909Z" fill="#3D3C3E"/>
<path d="M38.5727 954.042C36.9751 953.739 34.6953 953.506 33.4766 952.605C35.0122 952.2 37.229 952.825 38.8799 953.133L38.5727 954.042Z" fill="#5C5B5C"/>
<path d="M1.47445 909.152C1.19955 910.957 1.21711 912.641 0.23518 914.045C-0.102223 912.1 -0.0270304 911.75 0.152657 909.749L1.47445 909.152Z" fill="#5C5B5C"/>
</svg>
