<svg width="1350" height="1350" viewBox="0 0 1350 1350" fill="none" xmlns="http://www.w3.org/2000/svg">
<path d="M270.54 742.121C274.593 744.81 278.082 746.89 283.018 747.422C299.363 746.241 322.624 748.116 323.369 768.797C323.435 770.627 323.379 772.321 322.371 773.878C332.541 788.954 331.15 798.541 336.893 814.741C337.39 816.144 340.847 817.725 342.241 817.764C355.797 818.215 348.851 827.591 349.094 828.069C356.266 842.283 355.513 867.235 340.057 875.808C330.544 881.487 316.953 883.263 311.184 893.59C317.734 892.672 323.024 891.948 329.436 889.699C334.507 887.928 340.167 884.967 345.256 883.402C346.182 883.118 349.97 884.822 351.093 885.312C358.154 882.595 364.442 878.943 371.204 875.703C385.078 869.055 396.228 858.973 408.702 850.066L430.678 834.55C437.92 829.461 446.403 824.774 450.094 816.339C453.445 808.668 455.171 801.803 456.506 793.675C456.707 792.445 457.38 791.904 458.26 791.186C462.93 793.402 461.811 801.157 461.466 805.455L461.967 804.759C466.014 799.109 470.879 787.712 476.173 784.389L477.631 784.417C478.087 788.213 474.998 794.855 473.534 798.296C476.262 794.722 479.885 789.483 483.815 787.473L484.617 787.801C485.201 791.459 480.347 800.606 478.872 805.071C482.123 801.191 486.743 795.139 491.681 793.675L492.516 794.087C493.083 799.537 484.583 807.665 481.455 813.249C485.246 812.615 492.694 810.521 495.544 812.036C498.611 817.453 485.263 818.611 483.854 819.997C476.195 827.54 469.409 832.44 459.863 837.144C456.835 838.636 449.927 848.958 446.799 851.391C436.067 863.137 425.028 874.834 413.049 885.334C407.967 889.782 400.898 892.655 395.393 896.407C383.019 904.836 368.277 912.48 356.361 921.343C355.296 925.847 354.782 929.599 354.137 934.198C348.571 937.828 325.134 944.302 324.911 949.697C324.413 961.772 326.964 975.774 327.082 988.055C328.505 1018.85 328.368 1049.45 335.318 1079.65C341.979 1109.34 355.521 1136.95 360.789 1167.05C361.557 1171.45 365.477 1184.22 360.812 1187.05C353.393 1190.8 344.359 1192.26 336.393 1194.99C339.058 1202.6 339.709 1210.32 341.83 1218.02C345.357 1230.82 349.845 1243.51 353.995 1256.13C358.118 1268.66 361.965 1281.84 367.595 1293.78C369.324 1297.44 371.929 1303.26 375.712 1305.08C389.832 1311.87 421.872 1289.93 427.066 1304.9C428.246 1308.31 427.277 1311.86 425.674 1314.96C418.933 1327.92 405.513 1332.94 393.022 1338.65C386.253 1341.8 379.504 1344.98 372.774 1348.2L370.416 1349.64C366.428 1349.95 363.443 1350.37 359.585 1349.03L357.526 1347.77C347.773 1336.78 353.106 1327.28 346.621 1314.89C336.806 1296.14 318.058 1275.33 310.182 1256.06C298.998 1228.71 311.317 1225.84 291.718 1200.3C277.595 1204.03 265.614 1205.8 252.148 1199.15C242.339 1194.31 231.101 1193.06 220.345 1194.67C207.016 1196.66 198.215 1194.23 185.913 1189.1C179.685 1197.59 172.137 1206.09 165.207 1214.02C162 1217.44 156.455 1222.16 151.709 1222.76C135.373 1224.83 120.321 1229.18 104.475 1233.2C88.2945 1236.79 72.7314 1239.82 57.1387 1245.67C43.0028 1250.97 43.0485 1251.6 36.2213 1264.45C30.0531 1276.06 30.7261 1286.54 25.1964 1297.87C22.195 1304.01 14.3876 1305.54 9.04884 1301.45C3.89879 1297.73 2.45042 1291.4 1.28537 1285.5C0.533904 1282.67 0.512186 1282.04 0.475447 1279.1C-0.596643 1271.42 0.262266 1266.45 1.87597 1258.96C4.6358 1248.89 0.265044 1240.5 2.87569 1230.24C5.999 1217.97 22.9337 1220.2 32.1778 1223C54.331 1216.94 69.4845 1202.57 89.9934 1193.3C97.8209 1190.28 108.596 1187.53 116.837 1186.79C135.166 1185.16 135.892 1185.16 144.599 1169.4C140.666 1167.22 134.057 1163.55 129.902 1162.2C116.535 1157.88 108.865 1143.98 97.3683 1137.4C87.8854 1131.97 67.1032 1129 63.6292 1115.58C65.7873 1105.38 111.162 1082.59 122.539 1072.72C153.993 1045.43 184.464 1012.33 207.497 977.784C192.119 986.157 181.508 993.272 164.764 999.897C150.549 1005.52 134.915 1008.9 121.627 1015.3C117.056 1017.49 105.411 1035.24 102.341 1037.38C100.074 1037.38 100.963 1037.77 99.4462 1036.53C98.0758 1032.52 100.735 1028.18 101.178 1023.45C94.7777 1017.91 74.6395 1029.87 72.1007 1023.01C73.9087 1019.83 82.5594 1017.6 86.2794 1015.4C82.1213 1015.87 67.028 1018.54 65.1265 1014.69C66.6133 1009.89 83.8547 1005.08 85.9967 1009.21C82.698 1010.92 72.6907 1009.24 66.6679 1013.99L66.7046 1014.8C71.7773 1017.58 84.8856 1011.67 88.3407 1015.23C86.2872 1018.76 75.1066 1020.2 74.1241 1023.08C77.1177 1025.78 95.1095 1018.19 101.299 1021.28C105.356 1023.3 99.4262 1030.41 101.329 1034.93L102.374 1034.95C106.829 1031.17 116.569 1016.28 120.31 1014.23C128.957 1009.48 144.492 1005.69 154.436 1002.23C172.508 995.95 185.798 988.662 202.216 979.209C208.052 975.852 219.112 971.265 223.812 966.744C218.781 958.282 213.112 950.209 206.855 942.61C200.285 947.721 189.293 956.879 182.695 961.143C176.765 964.979 164.424 969.533 156.984 973.486C142.487 980.885 129.022 991.14 113.707 996.785C106.969 999.268 76.9073 996.228 73.568 1001.42C77.1795 1002.69 83.4996 1001.55 86.9881 1002.9C84.1286 1006.43 70.0946 1003.77 67.6871 1007.78L68.099 1009.38C66.0812 1008.64 66.4875 1009.22 65.5702 1007.89C66.866 1004.42 72.3395 1005.4 73.4383 1003.53C72.4258 1002.39 72.3367 1002.37 71.6782 1001.02C76.241 994.552 104.37 997.592 111.675 995.671C126.993 991.657 142.697 978.758 157.36 971.699C164.343 968.336 174.183 964.439 179.968 961.188C185.245 958.226 195.662 949.491 200.846 945.377C199.234 941.725 198.572 939.771 198.067 935.84C199.928 930.323 209.629 927.216 216.255 921.454L214.611 920.324C214.366 919.3 214.626 917.941 214.508 916.433C213.188 917.535 211.878 918.648 210.58 919.779L209.083 921.282C207.545 921.271 208.304 921.46 206.894 920.163C204.052 922.429 200.993 925.936 197.598 923.28C196.715 919.55 197.3 919.177 199.52 916.054L199.673 915.715L198.329 913.265C195.787 915.631 193.363 918.108 190.916 920.569L189.996 920.508L188.883 918.153L187.556 915.33C186.104 918.927 185.826 920.029 187.591 923.364L187.832 923.815L187.152 924.138C183.199 922.429 183.99 918.81 183.762 915.648C181.834 915.904 179.629 917.997 177.68 919.272C175.502 919.138 176.435 919.484 174.715 918.392C173.892 916.689 174.493 915.152 174.999 913.287L175.283 912.268C173.796 911.712 171.601 913.554 168.363 913.861C166.495 912.992 167.258 913.621 166.096 911.778C168.429 903.717 173.408 903.923 179.59 900.711L180.048 900.466C179.287 900.104 177.702 899.692 176.828 899.43C172.097 901.947 169.92 901.485 164.752 905.476C163.945 906.874 161.955 909.624 160.461 910.27L158.298 910.309C157.745 913.432 158.368 914.2 158.331 917.19L157.649 917.129C152.94 912.697 155.814 908.249 155.239 902.888L154.328 902.559C153.39 904.875 153.889 905.142 151.167 905.248L150.736 907.497C150.681 909.451 150.862 910.626 149.811 912.252C148.31 912.942 148.98 912.964 147.629 912.775C144.81 911.316 143.495 910.787 141.779 908.171C141.462 902.197 143.315 898.779 147.389 894.475C150.088 891.252 152.633 889.727 156.112 887.55C153.517 886.308 154.941 888.535 152.514 885.067L151.888 885.228C142.319 891.408 142.875 892.249 135.361 898.773L134.509 899.564C132.843 899.67 133.682 899.831 132.043 898.412L130.792 896.207L130.365 896.096C129.328 893.245 131.849 887.21 133.538 884.744L132.557 883.313C129.006 886.169 123.446 896.307 121.909 896.374L121.979 893.707C121.561 893.869 121.144 894.036 120.726 894.203C120.124 892.855 120.272 892.989 120.3 891.503L118.562 892.766C116.667 886.832 129.587 877.935 133.578 875.107L131.568 874.773C127.717 876.978 124.924 879.121 121.353 881.777C120.434 883.157 119.918 884.198 118.538 885.106L117.498 885.134C117.168 884.093 117.204 883.87 116.53 883.013C115.443 884.471 115.558 884.46 113.991 885.329C114.785 881.643 124.431 873.197 127.718 870.809C129.499 869.512 130.93 869.406 133.077 867.636L132.29 866.929C129.705 867.936 124.34 870.258 121.765 870.275C112.647 874.779 106.732 881.175 102.396 890.278C101.59 892.41 101.364 895.054 100.225 896.602C98.7844 894.075 99.2726 888.101 100.042 885.412C103.475 873.426 111.805 867.023 121.842 861.217C110.178 861.517 97.3694 863.483 89.6087 873.114L88.4459 872.557C97.1646 858.027 121.876 860.738 135.613 854.569C141.613 851.875 143.545 850.043 148.338 845.651C149.753 844.504 149.213 845.267 149.503 842.973C155.133 839.621 160.514 829.712 163.692 824.1C165.109 822.252 164.673 822.903 165.036 820.342L165.239 819.897C166.408 818.7 171.028 810.56 170.697 809.313L169.056 808.222C170.932 805.895 173.434 803.056 174.818 800.489L174.185 800.411L172.558 801.836L171.625 801.269C180.595 792.472 187.704 780.787 197.304 770.829C199.258 770.331 198.933 770.097 200.557 770.615C200.823 770.106 201.744 769.079 202.157 768.583L201.066 766.545C210.15 761.097 216.974 759.486 225.279 752.776L227.234 751.134C231.287 748.999 234.71 748.462 239.154 747.501C243.415 746.381 259.119 744.408 263.369 744.326C265.784 744.326 267.439 744.266 269.841 744.038L270.54 742.121Z" fill="white"/>
<path d="M270.54 742.121C274.593 744.81 278.082 746.89 283.018 747.422C299.363 746.241 322.624 748.116 323.369 768.797C323.435 770.627 323.379 772.321 322.371 773.878C332.541 788.954 331.15 798.541 336.893 814.741C337.39 816.144 340.847 817.725 342.241 817.764C355.797 818.215 348.851 827.591 349.094 828.069C356.266 842.283 355.513 867.235 340.057 875.808C330.544 881.487 316.953 883.263 311.184 893.59C317.734 892.672 323.024 891.948 329.436 889.699C334.507 887.928 340.167 884.967 345.256 883.402C346.182 883.118 349.97 884.822 351.093 885.312C358.154 882.595 364.442 878.943 371.204 875.703C385.078 869.055 396.228 858.973 408.702 850.066L430.678 834.55C437.92 829.461 446.403 824.774 450.094 816.339C453.445 808.668 455.171 801.803 456.506 793.675C456.707 792.445 457.38 791.904 458.26 791.186C462.93 793.402 461.811 801.157 461.466 805.455L461.967 804.759C466.014 799.109 470.879 787.712 476.173 784.389L477.631 784.417C478.087 788.213 474.998 794.855 473.534 798.296C476.262 794.722 479.885 789.483 483.815 787.473L484.617 787.801C485.201 791.459 480.347 800.606 478.872 805.071C482.123 801.191 486.743 795.139 491.681 793.675L492.516 794.087C493.083 799.537 484.583 807.665 481.455 813.249C485.246 812.615 492.694 810.521 495.544 812.036C498.611 817.453 485.263 818.611 483.854 819.997C476.195 827.54 469.409 832.44 459.863 837.144C456.835 838.636 449.927 848.958 446.799 851.391C436.067 863.137 425.028 874.834 413.049 885.334C407.967 889.782 400.898 892.655 395.393 896.407C383.019 904.836 368.277 912.48 356.361 921.343C355.296 925.847 354.782 929.599 354.137 934.198C348.571 937.828 325.134 944.302 324.911 949.697C324.413 961.772 326.964 975.774 327.082 988.055C328.505 1018.85 328.368 1049.45 335.318 1079.65C341.979 1109.34 355.521 1136.95 360.789 1167.05C361.557 1171.45 365.477 1184.22 360.812 1187.05C353.393 1190.8 344.359 1192.26 336.393 1194.99C339.058 1202.6 339.709 1210.32 341.83 1218.02C345.357 1230.82 349.845 1243.51 353.995 1256.13C358.118 1268.66 361.965 1281.84 367.595 1293.78C369.324 1297.44 371.929 1303.26 375.712 1305.08C389.832 1311.87 421.872 1289.93 427.066 1304.9C428.246 1308.31 427.277 1311.86 425.674 1314.96C418.933 1327.92 405.513 1332.94 393.022 1338.65C386.253 1341.8 379.504 1344.98 372.774 1348.2L370.416 1349.64C366.428 1349.95 363.443 1350.37 359.585 1349.03L357.526 1347.77C347.773 1336.78 353.106 1327.28 346.621 1314.89C336.806 1296.14 318.058 1275.33 310.182 1256.06C298.998 1228.71 311.317 1225.84 291.718 1200.3C277.595 1204.03 265.614 1205.8 252.148 1199.15C242.339 1194.31 231.101 1193.06 220.345 1194.67C207.016 1196.66 198.215 1194.23 185.913 1189.1C179.685 1197.59 172.137 1206.09 165.207 1214.02C162 1217.44 156.455 1222.16 151.709 1222.76C135.373 1224.83 120.321 1229.18 104.475 1233.2C88.2945 1236.79 72.7314 1239.82 57.1387 1245.67C43.0028 1250.97 43.0485 1251.6 36.2213 1264.45C30.0531 1276.06 30.7261 1286.54 25.1964 1297.87C22.195 1304.01 14.3876 1305.54 9.04884 1301.45C3.89879 1297.73 2.45042 1291.4 1.28537 1285.5C0.533904 1282.67 0.512186 1282.04 0.475447 1279.1C-0.596643 1271.42 0.262266 1266.45 1.87597 1258.96C4.6358 1248.89 0.265044 1240.5 2.87569 1230.24C5.999 1217.97 22.9337 1220.2 32.1778 1223C54.331 1216.94 69.4845 1202.57 89.9934 1193.3C97.8209 1190.28 108.596 1187.53 116.837 1186.79C135.166 1185.16 135.892 1185.16 144.599 1169.4L145.337 1168.07C147.107 1164.59 151.318 1156.89 151.892 1153.22L151.745 1151.63C157.414 1152.21 162.48 1153.3 167.78 1155.5C172.167 1157.2 175.612 1159.17 179.466 1161.91C191.379 1169.39 196.324 1180.36 209.052 1187.42C222.885 1195.1 226.531 1190.58 240.06 1193.27C247.93 1194.83 257.823 1201.44 267.083 1201.72C305.516 1202.89 317.812 1176.29 361.575 1183.77C358.116 1149.11 344.474 1121.51 335.657 1088.94C325.693 1052.14 326.433 1010.24 324.243 972.094C323.7 962.218 322.983 952.353 322.09 942.504C321.633 937.416 320.655 931.325 320.619 926.426C322.669 933.513 323.232 939.793 323.899 947.047C331.929 940.305 342.553 938.59 352.37 933.808C354.654 916.661 357.544 906.412 349.924 888.78C349.448 887.678 347.808 884.939 346.693 885.033C339.748 885.607 330.677 891.191 323.591 892.822C319.04 893.874 314.03 893.679 310.876 895.45C307.27 900.41 310.451 902.047 314.03 905.582L313.478 906.456C311.29 903.923 310.049 903.166 307.377 901.267C312.721 933.814 269.468 898.445 262.57 902.62C262.853 904.931 265.757 905.95 267.571 908.293L267.293 909.251C264.828 906.623 260.394 902.988 256.476 903.238C243.393 904.068 227.289 917.941 215.925 924.388C212.567 926.292 203.21 931.949 201.155 933.402L201.286 934.721L200.696 936.018L200.209 935.885L198.067 935.84C199.928 930.323 209.629 927.216 216.255 921.454L214.611 920.324C214.366 919.3 214.626 917.941 214.508 916.433C213.188 917.535 211.878 918.648 210.58 919.779L209.083 921.282C207.545 921.271 208.304 921.46 206.894 920.163C204.052 922.429 200.993 925.936 197.598 923.28C196.715 919.55 197.3 919.177 199.52 916.054L199.673 915.715L198.329 913.265C195.787 915.631 193.363 918.108 190.916 920.569L189.996 920.508L188.883 918.153L187.556 915.33C186.104 918.927 185.826 920.029 187.591 923.364L187.832 923.815L187.152 924.138C183.199 922.429 183.99 918.81 183.762 915.648C181.834 915.904 179.629 917.997 177.68 919.272C175.502 919.138 176.435 919.484 174.715 918.392C173.892 916.689 174.493 915.152 174.999 913.287L175.283 912.268C173.796 911.712 171.601 913.554 168.363 913.861C166.495 912.992 167.258 913.621 166.096 911.778C168.429 903.717 173.408 903.923 179.59 900.711L180.048 900.466C179.287 900.104 177.702 899.692 176.828 899.43C172.097 901.947 169.92 901.485 164.752 905.476C163.945 906.874 161.955 909.624 160.461 910.27L158.298 910.309C157.745 913.432 158.368 914.2 158.331 917.19L157.649 917.129C152.94 912.697 155.814 908.249 155.239 902.888L154.328 902.559C153.39 904.875 153.889 905.142 151.167 905.248L150.736 907.497C150.681 909.451 150.862 910.626 149.811 912.252C148.31 912.942 148.98 912.964 147.629 912.775C144.81 911.316 143.495 910.787 141.779 908.171C141.462 902.197 143.315 898.779 147.389 894.475C150.088 891.252 152.633 889.727 156.112 887.55C153.517 886.308 154.941 888.535 152.514 885.067L151.888 885.228C142.319 891.408 142.875 892.249 135.361 898.773L134.509 899.564C132.843 899.67 133.682 899.831 132.043 898.412L130.792 896.207L130.365 896.096C129.328 893.245 131.849 887.21 133.538 884.744L132.557 883.313C129.006 886.169 123.446 896.307 121.909 896.374L121.979 893.707C121.561 893.869 121.144 894.036 120.726 894.203C120.124 892.855 120.272 892.989 120.3 891.503L118.562 892.766C116.667 886.832 129.587 877.935 133.578 875.107L131.568 874.773C127.717 876.978 124.924 879.121 121.353 881.777C120.434 883.157 119.918 884.198 118.538 885.106L117.498 885.134C117.168 884.093 117.204 883.87 116.53 883.013C115.443 884.471 115.558 884.46 113.991 885.329C114.785 881.643 124.431 873.197 127.718 870.809C129.499 869.512 130.93 869.406 133.077 867.636L132.29 866.929C129.705 867.936 124.34 870.258 121.765 870.275C112.647 874.779 106.732 881.175 102.396 890.278C101.59 892.41 101.364 895.054 100.225 896.602C98.7844 894.075 99.2726 888.101 100.042 885.412C103.475 873.426 111.805 867.023 121.842 861.217C110.178 861.517 97.3694 863.483 89.6087 873.114L88.4459 872.557C97.1646 858.027 121.876 860.738 135.613 854.569C141.613 851.875 143.545 850.043 148.338 845.651C149.753 844.504 149.213 845.267 149.503 842.973C155.133 839.621 160.514 829.712 163.692 824.1C165.109 822.252 164.673 822.903 165.036 820.342L165.239 819.897C166.408 818.7 171.028 810.56 170.697 809.313L169.056 808.222C170.932 805.895 173.434 803.056 174.818 800.489L174.185 800.411L172.558 801.836L171.625 801.269C180.595 792.472 187.704 780.787 197.304 770.829C199.258 770.331 198.933 770.097 200.557 770.615C200.823 770.106 201.744 769.079 202.157 768.583L201.066 766.545C210.15 761.097 216.974 759.486 225.279 752.776L227.234 751.134C231.287 748.999 234.71 748.462 239.154 747.501C243.415 746.381 259.119 744.408 263.369 744.326C265.784 744.326 267.439 744.266 269.841 744.038L270.54 742.121Z" fill="#070708"/>
<path d="M154.314 1153.31C158.928 1154.24 161.424 1154.86 165.877 1156.34L167.779 1155.51C172.166 1157.21 175.611 1159.18 179.464 1161.92L178.542 1162.97C184.333 1167.11 188.567 1171.52 193.463 1176.58C185.5 1186.23 164.777 1216 155.081 1219.7C148.599 1222.18 114.609 1227.79 103.919 1231.44C86.6616 1237.33 49.0043 1239.54 37.6026 1256.27C29.209 1249.08 19.7567 1248.55 26.3295 1235.44C27.8057 1232.49 29.3354 1228.63 30.8177 1225.53C46.8479 1220.71 59.7697 1212.86 73.7748 1204.14C87.6708 1195.5 99.3074 1190.27 115.774 1188.63C118.957 1188.32 131.359 1187.2 133.641 1185.9C143.239 1180.44 149.815 1163.02 154.314 1153.31Z" fill="white"/>
<path d="M167.781 1155.5C172.168 1157.21 175.613 1159.17 179.467 1161.92L178.545 1162.97C174.208 1160.05 170.688 1158.25 165.879 1156.33L167.781 1155.5Z" fill="#141415"/>
<path d="M283.017 747.425C299.363 746.245 322.624 748.12 323.369 768.801C323.435 770.63 323.378 772.325 322.371 773.882C319.926 771.7 317.414 767.041 316.8 763.808C314.531 763.694 307.33 756.894 305.761 755.031L298.75 750.449L295.675 750.685C294.13 750.923 294.215 750.997 292.797 750.386L291.958 748.27C289.832 747.578 283.123 748.263 280.16 747.884L283.017 747.425Z" fill="white"/>
<path d="M283.017 747.425C299.363 746.245 322.624 748.12 323.369 768.801C323.435 770.63 323.378 772.325 322.371 773.882C321.952 755.132 315.787 754.072 299.371 749.566L298.75 750.449L295.675 750.685C294.13 750.923 294.215 750.997 292.797 750.386L291.958 748.27C289.832 747.578 283.123 748.263 280.16 747.884L283.017 747.425Z" fill="#141415"/>
<path d="M295.673 750.687C294.96 750.296 294.311 749.89 293.617 749.467L294.087 749.066L299.37 749.568L298.748 750.451L295.673 750.687Z" fill="#6A6B6C"/>
<path d="M305.762 755.031C308.221 754.787 309.229 755.342 311.507 757.142C313.779 758.909 315.594 761.194 316.801 763.807C314.531 763.694 307.33 756.893 305.762 755.031Z" fill="#E8E8E9"/>
<path d="M137.463 866.624C138.61 865.839 139.946 865.744 141.346 865.488C140.881 866.028 139.423 867.632 139.101 868.122C137.286 870.638 134.106 872.915 131.565 874.774C127.715 876.979 124.922 879.122 121.35 881.778C120.431 883.159 119.915 884.2 118.536 885.107L117.495 885.135C117.166 884.094 117.201 883.871 116.527 883.014C115.441 884.473 115.555 884.461 113.988 885.33C114.783 881.644 124.428 873.199 127.716 870.811C129.497 869.513 130.928 869.408 133.075 867.637L132.287 866.93C134.12 865.722 135.463 866.179 137.463 866.624Z" fill="#E8E8E9"/>
<path d="M132.287 866.935C134.12 865.726 135.463 866.183 137.463 866.628C130.663 870.509 120.4 875.959 116.527 883.018C115.441 884.477 115.555 884.466 113.988 885.334C114.783 881.649 124.428 873.203 127.716 870.815C129.497 869.518 130.928 869.412 133.075 867.642L132.287 866.935Z" fill="#98999A"/>
<path d="M121.352 881.781C123.736 877.756 134.666 871.065 139.102 868.125C137.287 870.641 134.108 872.918 131.566 874.778C127.716 876.982 124.923 879.126 121.352 881.781Z" fill="#6A6B6C"/>
<path d="M155.227 880.848C158.791 880.319 165.081 876.383 168.074 874.273C168.469 878.209 168.283 877.781 165.361 880.681L165.44 881.277L167.34 882.006L172.228 880.654L172.391 881.99C168.277 883.176 159.479 886.984 156.111 887.557C153.516 886.315 154.94 888.542 152.513 885.074L151.887 885.235L150.734 884.278L150.48 883.883C152.513 882.719 153.09 881.427 155.227 880.848Z" fill="#141415"/>
<path d="M167.339 882.001L172.227 880.649L172.39 881.985C168.276 883.171 159.478 886.979 156.11 887.552C153.515 886.311 154.939 888.537 152.512 885.069C154.823 883.599 161.861 881.473 164.814 880.504L156.003 886.149C160.155 884.429 163.052 883.243 167.339 882.001Z" fill="#E8E8E9"/>
<path d="M244.791 826.078L245.358 826.88C240.357 832.492 236.582 835.459 231.124 840.347C217.191 852.84 206.614 862.833 189.369 870.605C186.113 872.503 181.592 874.947 178.775 877.23L175.891 878.032C185.848 870.917 195.465 866.741 204.763 860.311C218.254 850.98 232.44 837.213 244.791 826.078Z" fill="#B7B8B9"/>
<path d="M239.152 747.503C243.413 746.383 259.117 744.41 263.367 744.328L265.944 744.878C267.071 746.885 269.323 749.66 270.968 751.27L271.825 751.103L272.524 749.667L272.972 751.224C271.995 751.497 271.513 751.601 270.511 751.762C267.215 752.253 265.387 752.44 262.198 753.59C261.592 753.205 261.247 752.918 260.683 752.477L260.947 747.514L262.972 746.787L262.091 746.472L262.001 746.958L261.209 746.401C254.575 746.441 246.265 746.744 239.845 748.386L239.152 747.503Z" fill="#141415"/>
<path d="M262.543 749.526C265.562 748.984 266.862 749.049 269.633 750.167C266.65 750.543 265.35 750.451 262.543 749.526Z" fill="#6A6B6C"/>
<path d="M165.564 886.613L166.517 887.404L168.251 887.181C166.292 890.316 156.558 896.573 154.325 902.563C153.387 904.879 153.886 905.147 151.165 905.252L150.734 907.502L150.639 904.122L149.883 903.321C150.39 901.623 150.497 900.993 150.776 899.295C151.407 896.161 154.654 893.478 157.966 893.678L160.681 891.919L160.192 890.822C162.716 889.291 163.645 888.913 165.564 886.613Z" fill="#E8E8E9"/>
<path d="M150.776 899.296C151.407 896.161 154.654 893.478 157.966 893.679C153.867 897.72 152.837 898.622 150.639 904.123L149.883 903.321C150.39 901.623 150.497 900.994 150.776 899.296Z" fill="#424244"/>
<path d="M165.567 886.613L166.52 887.404C164.946 888.684 162.328 890.945 160.685 891.919L160.195 890.822C162.719 889.291 163.649 888.913 165.567 886.613Z" fill="#141415"/>
<path d="M150.477 883.879L150.731 884.274L151.884 885.232C142.315 891.411 142.871 892.252 135.357 898.777L134.504 899.567C132.839 899.673 133.678 899.835 132.039 898.415C138.019 891.823 142.066 886.958 150.477 883.879Z" fill="#E8E8E9"/>
<path d="M135.359 898.776C136.193 895.13 147.656 886.567 150.733 884.273L151.887 885.231C142.318 891.411 142.873 892.251 135.359 898.776Z" fill="#595859"/>
<path d="M170.167 898.023L172.686 899.46C174.585 898.981 174.988 898.725 176.827 899.432C172.096 901.948 169.92 901.486 164.751 905.478C163.944 906.875 161.955 909.626 160.46 910.271L158.297 910.31C160.417 903.24 163.989 901.163 170.167 898.023Z" fill="#E8E8E9"/>
<path d="M172.685 899.461C174.584 898.982 174.987 898.726 176.826 899.433C172.095 901.949 169.918 901.487 164.75 905.479C166.249 902.835 169.979 901.053 172.685 899.461Z" fill="#6A6B6C"/>
<path d="M134.988 881.527C138.726 878.281 143.025 875.793 148.126 876.11C149.653 876.21 149.606 876.444 151.061 875.938L151.362 876.522C149.31 879.462 141.63 881.516 138.087 882.351L139.869 881.31C137.623 881.315 137.21 881.382 135.195 883.036L134.988 881.527Z" fill="#424244"/>
<path d="M102.396 890.281C101.75 886.356 110.875 872.193 114.074 871.297L115.389 873.006C117.437 871.364 119.2 869.382 121.764 870.278C112.646 874.782 106.732 881.179 102.396 890.281Z" fill="#141415"/>
<path d="M204.957 910.551C204.426 912.36 204.156 912.388 202.783 913.663L203.156 914.225C204.679 913.234 205.293 911.937 207.07 911.497C204.449 915.478 201.745 918.707 198.747 922.376L197.597 923.283C196.714 919.553 197.299 919.18 199.519 916.057L199.672 915.717L198.328 913.268C200.658 913.201 199.76 913.629 201.299 912.416L204.957 910.551Z" fill="#E8E8E9"/>
<path d="M204.958 910.551C204.426 912.36 204.157 912.388 202.783 913.663L203.156 914.225L200.579 916.558L199.52 916.057L199.672 915.717L198.328 913.268C200.658 913.201 199.76 913.629 201.3 912.416L204.958 910.551Z" fill="#B7B8B9"/>
<path d="M199.672 915.715L202.783 913.66L203.156 914.222L200.579 916.555L199.52 916.054L199.672 915.715Z" fill="#7F8082"/>
<path d="M199.519 916.055L200.579 916.556C199.061 919.1 198.402 919.568 198.747 922.373L197.597 923.281C196.714 919.551 197.299 919.178 199.519 916.055Z" fill="#424244"/>
<path d="M147.391 894.477L147.886 894.9C148.505 895.412 148.82 895.635 149.475 896.074C147.54 899.248 144.497 903.941 143.503 907.348L141.781 908.172C141.464 902.198 143.316 898.78 147.391 894.477Z" fill="#141415"/>
<path d="M1.87597 1258.96C3.71789 1261.64 2.56008 1272.09 2.49439 1276.24C1.90268 1277.16 1.36942 1278.07 0.917424 1279.07L0.475447 1279.1C-0.596643 1271.42 0.262266 1266.45 1.87597 1258.96Z" fill="#424244"/>
<path d="M187.555 915.335C190.235 908.961 201.487 904.061 207.374 901.211C201.07 906.862 195.251 909.239 189.43 914.645C188.993 915.051 188.954 917.323 188.881 918.158L187.555 915.335Z" fill="#E8E8E9"/>
<path d="M239.847 748.388C246.267 746.745 254.577 746.442 261.211 746.402L262.003 746.96L262.093 746.474L262.974 746.788L260.949 747.516C255.975 747.815 245.327 748.724 240.641 749.653L237.496 748.948L239.847 748.388Z" fill="#E8E8E9"/>
<path d="M130.793 896.209C131.341 894.978 131.904 893.759 132.482 892.54C133.594 890.185 137.497 885.219 140.236 885.113L141.502 885.876C140.706 888.225 133.21 892.468 132.044 898.413L130.793 896.209Z" fill="#E8E8E9"/>
<path d="M176.353 890.896C178.45 890.99 183.197 889.782 186.963 889.727L185.631 890.556L185.426 892.159L183.605 893.49L178.793 893.713C176.765 893.624 175.951 893.857 174.652 892.41L176.353 890.896Z" fill="#141415"/>
<path d="M174.652 892.41C177.633 892.243 182.908 891.552 185.426 892.159L183.605 893.49L178.793 893.712C176.765 893.623 175.951 893.857 174.652 892.41Z" fill="#B7B8B9"/>
<path d="M141.347 865.487C143.055 865.375 144.677 865.025 146.126 865.593C142.232 868.51 137.261 872.056 133.576 875.107L131.566 874.773C134.107 872.913 137.287 870.636 139.102 868.12C139.425 867.63 140.882 866.027 141.347 865.487Z" fill="#E8E8E9"/>
<path d="M150.775 899.293C150.495 900.991 150.389 901.62 149.881 903.318L150.637 904.12L150.732 907.499C150.677 909.453 150.858 910.628 149.807 912.254C148.306 912.944 148.976 912.966 147.625 912.777L148.722 911.68C145.878 908.089 148.602 902.583 150.775 899.293Z" fill="#E8E8E9"/>
<path d="M148.725 911.682C149.93 910.469 149.754 905.608 149.885 903.32L150.641 904.122L150.736 907.501C150.68 909.455 150.862 910.63 149.81 912.256C148.31 912.946 148.979 912.968 147.629 912.779L148.725 911.682Z" fill="#6A6B6C"/>
<path d="M190.913 920.572C189.173 914.604 197.955 910.741 201.298 912.416C199.758 913.63 200.656 913.201 198.326 913.268C195.785 915.634 193.361 918.112 190.913 920.572Z" fill="#141415"/>
<path d="M178.793 893.719L183.604 893.496C182.317 894.81 182.398 895.022 181.875 896.758C180.91 897.716 180.998 897.761 179.711 898.117C179.381 898.045 178.482 897.605 178.13 897.449C177.066 896.981 176.292 896.592 175.263 896.046L175.125 895.278C176.693 894.743 177.33 894.431 178.793 893.719Z" fill="#141415"/>
<path d="M178.777 877.231C181.595 874.948 186.116 872.504 189.371 870.605C189.296 871.635 189.299 872.632 189.362 873.662C188.302 874.252 188.633 874.252 187.532 874.352C185.11 874.998 181.794 876.512 179.802 878.01L178.777 877.231Z" fill="#141415"/>
<path d="M2.44922 1284.88L2.69971 1283.85L3.52187 1283.38C4.3379 1286.97 8.97528 1298.08 9.02315 1299.29L9.17734 1299.06L8.31845 1298.63C4.31174 1292.98 4.10745 1291.57 2.44922 1284.88Z" fill="#B7B8B9"/>
<path d="M155.223 880.847C159.204 877.173 167.25 873.381 172.494 872.09L172.406 872.012L172.287 872.323C171.067 873.159 169.459 873.71 168.069 874.272C165.076 876.382 158.786 880.318 155.223 880.847Z" fill="#B7B8B9"/>
<path d="M178.124 897.449C178.476 897.605 179.374 898.045 179.704 898.117L181.683 897.794L182.28 898.295C181.55 899.771 181.504 899.643 180.044 900.472C179.283 900.11 177.698 899.698 176.824 899.437C174.985 898.73 174.582 898.986 172.683 899.465L170.164 898.028C172.538 898.067 175.697 897.677 178.124 897.449Z" fill="#B7B8B9"/>
<path d="M204.959 910.552L205.433 909.772C203.288 909.043 203.824 909.706 203.074 908.241C204.748 907.356 204.94 906.866 206.471 907.05L206.364 908.653L208.535 907.178L209.174 907.367C208.628 908.971 208.9 908.364 207.566 909.667L207.072 911.498C205.295 911.938 204.682 913.235 203.158 914.226L202.785 913.664C204.158 912.389 204.428 912.361 204.959 910.552Z" fill="#141415"/>
<path d="M0.472656 1279.1L0.914633 1279.07C1.36663 1278.07 1.89989 1277.16 2.4916 1276.24C2.87457 1278.61 3.21802 1281 3.52083 1283.38L2.69868 1283.86L2.44818 1284.89L1.28258 1285.51C0.531113 1282.68 0.509395 1282.05 0.472656 1279.1Z" fill="#595859"/>
<path d="M202.157 768.586C202.075 771.749 195.293 779.503 192.531 780.656C194.42 777.532 198.03 773.335 200.556 770.617C200.823 770.109 201.744 769.082 202.157 768.586Z" fill="#6A6B6C"/>
<path d="M240.641 749.651C236.577 749.975 231.346 752.879 226.643 754.177L226.617 753.78C229.201 751.638 234.237 749.887 237.496 748.945L240.641 749.651Z" fill="#7F8082"/>
<path d="M270.512 751.762L271.399 752.376C268.207 753.631 263.668 755.108 260.296 755.625L259.758 755.253C260.671 754.573 261.223 754.171 262.199 753.591C265.387 752.44 267.215 752.253 270.512 751.762Z" fill="#B7B8B9"/>
<path d="M176.348 890.895C179.027 888.874 185.089 887.644 188.144 888.824L186.958 889.726C183.192 889.782 178.445 890.99 176.348 890.895Z" fill="#98999A"/>
<path d="M214.605 920.327C217.609 918.874 219.27 917.132 222.452 915.879L222.543 916.296C220.068 918.846 219.081 919.503 216.249 921.457L214.605 920.327Z" fill="#E8E8E9"/>
<path d="M206.891 920.165C208.413 918.701 209.399 917.488 211.347 916.691L211.657 917.415L210.577 919.781L209.08 921.284C207.542 921.273 208.301 921.463 206.891 920.165Z" fill="#E8E8E9"/>
<path d="M244.793 826.078C247.523 823.912 249.929 819.809 252.095 818.484C250.786 821.903 248.23 824.653 245.36 826.88L244.793 826.078Z" fill="#595859"/>
<path d="M179.803 878.009C181.795 876.512 185.111 874.997 187.534 874.352C185.569 875.972 180.908 878.978 178.534 879.657L178.484 879.624L179.803 878.009Z" fill="#6A6B6C"/>
<path d="M160.192 890.822L158.477 891.457L158.316 891.095C160.433 888.862 162.714 887.688 165.564 886.613C163.646 888.913 162.716 889.291 160.192 890.822Z" fill="#6A6B6C"/>
<path d="M172.23 880.645L178.487 879.621C176.426 881.147 175.006 881.726 172.394 881.982L172.23 880.645Z" fill="#595859"/>
<path d="M134.988 881.531L135.195 883.04L133.539 884.749L132.559 883.318L134.988 881.531Z" fill="#B7B8B9"/>
<path d="M296.596 758.145C294.137 757.402 293.406 757.313 291.325 755.916C293.865 755.799 297.447 757.372 299.783 758.397C312.301 762.922 320.983 772.462 326.56 784.372C328.398 788.292 329.832 792.389 330.839 796.598C332.938 805.422 332.705 814.435 340.61 819.312C353.726 819.83 347.833 822.619 347.538 827.897C347.368 830.926 354.74 838.614 350.093 843.697L347.262 844.632L347.201 845.545C350.169 847.148 350.098 844.794 352.009 846.514C352.673 852.036 349.636 864.652 345.962 868.972C336.774 879.778 322.124 878.971 312.275 888.986C303.816 897.593 310.553 912.536 299.913 913.31C288.776 914.122 280.192 906.729 271.107 901.702C279.129 893.551 284.214 880.413 284.049 869.005L284.249 868.22L281.514 867.614C272.954 864.44 268.082 861.384 268.201 851.307C268.312 841.993 279.317 846.224 284.664 846.43C287.763 844.164 285.169 843.151 286.855 840.084L286.827 837.834C289.01 829.461 290.051 825.603 293.905 817.703L294.272 815.359C291.987 815.989 290.474 824.412 287.996 826.383C287.947 825.698 297.135 803.691 298.038 801.781C305.647 785.708 305.988 773.627 296.596 758.145Z" fill="white"/>
<path d="M296.596 758.145C294.138 757.402 293.406 757.313 291.325 755.916C293.865 755.799 297.447 757.372 299.783 758.397C299.827 758.633 299.871 758.868 299.915 759.104C300.922 762.15 305.301 766.891 305.903 770.077C308.649 784.6 302.621 801.519 295.528 814.034C295.021 814.931 295.073 814.714 294.272 815.359C291.987 815.989 290.474 824.412 287.996 826.383C287.947 825.698 297.135 803.691 298.038 801.781C305.647 785.708 305.989 773.627 296.596 758.145Z" fill="#B7B8B9"/>
<path d="M286.828 837.83C289.012 829.457 290.053 825.599 293.907 817.699C294.493 819.442 294.652 818.868 294.327 820.282C290.916 825.432 290.735 834.351 286.828 837.83Z" fill="#B7B8B9"/>
<path d="M294.327 820.285C292.744 826.042 291.117 836.497 286.856 840.082L286.828 837.833C290.735 834.354 290.916 825.435 294.327 820.285Z" fill="#6A6B6C"/>
<path d="M281.516 867.613L282.322 867.602C286.023 867.529 286.892 867.212 290.38 866.004C291.432 867.073 291.065 866.46 291.278 867.991C288.938 868.832 286.555 868.821 284.051 869.005L284.251 868.22L281.516 867.613Z" fill="#141415"/>
<path d="M322.186 831.576C333.203 831.248 339.377 844.275 328.656 850.243C316.417 850.349 311.678 840.027 322.186 831.576Z" fill="#F9B7B4"/>
<path d="M323.923 813.098C326.457 814.295 329.415 821.048 328.812 824.132C324.438 823.124 322.517 817.268 323.923 813.098Z" fill="#070708"/>
<path d="M274.974 849.085C277.51 848.846 279.555 849.124 281.687 850.471C281.831 851.34 281.976 852.208 282.12 853.077C281.26 855.771 285.326 859.769 285.136 861.244C283.401 860.643 283.395 860.064 281.988 858.388C281.63 857.297 281.265 856.211 280.895 855.126C280.14 852.86 279.637 850.61 277.239 849.814C275.158 850.945 272.711 852.42 270.262 851.729C271.769 850.577 273.278 849.926 274.974 849.085Z" fill="#141415"/>
<path d="M316.784 794.219L318.066 794.347L318.4 794.931C315.708 797.503 314.413 798.634 312.585 801.918L312.314 802.319L311.863 802.18C312.33 798.773 314.404 796.512 316.784 794.219Z" fill="#141415"/>
<path d="M328.593 1186.4L329.938 1186.27C335.401 1189.71 337.639 1211.25 339.607 1216.33C347.039 1235.53 360.955 1299.13 377.166 1308.46C373.464 1319.77 374.439 1332.08 353.434 1324.94C351.597 1324.31 351.197 1322.24 350.682 1320.38C340.966 1292.32 309.589 1268.82 306.843 1237.14C305.189 1218.05 304.034 1215.23 293.59 1199.43C306.35 1195.49 313.625 1190.28 328.593 1186.4Z" fill="white"/>
<path d="M476.05 785.367C477.987 788.618 470.612 798.523 471.497 802.531C472.805 801.635 482.184 789.687 485.235 786.698C482.413 795.717 478.95 798.305 476.529 809.624C481.433 805.064 485.391 798.022 491.152 794.787L491.514 795.049C490.417 799.909 483.019 807.113 480.626 813.198L481.155 814.217C485.524 814.651 490.451 812.118 494.302 812.708L494.653 813.521C492.616 816.766 485.118 818.169 481.505 820.413C477.108 823.141 475.844 825.719 471.892 828.775C469.048 830.974 462.062 833.591 459.735 835.706C451.669 843.055 443.32 854.184 435.555 861.644C429.125 867.824 416.25 881.987 409.031 886.635C400.135 892.353 389.543 898.516 380.339 904.328L356.165 919.749C356.518 904.996 356.068 901.194 350.863 887.465C361.231 882.098 372.542 877.193 382.468 871.158C390.032 866.56 397.519 859.723 404.906 854.551C417.965 845.399 430.879 835.935 443.798 826.598C450.244 821.938 452.638 813.755 454.825 806.528C456.145 802.158 456.145 797.543 458.527 793.568L459.34 793.729C461.221 796.613 460.375 801.868 460.114 805.326C464.834 811.773 462.24 815.38 464.511 818.91L464.929 818.498C465.619 813.66 464.622 810.147 462.151 805.866C467.751 799.074 469.944 791.452 476.05 785.367Z" fill="white"/>
<path d="M252.087 751.152C249.131 752.623 244.734 753.679 241.471 754.588C233.009 756.946 227.182 758.66 219.736 763.276L220.567 764.056C219.501 764.928 218.756 765.516 217.776 766.494L217.823 766.767L217.374 767.206C214.579 769.894 210.256 771.062 211.526 774.925C210.366 777.386 200.585 786.811 197.681 790.285L194.812 793.887L194.327 793.909L194.233 792.935L193.453 792.089C189.53 796.76 187.762 799.85 184.636 805.088L184.198 804.604L183.836 804.398C180.094 801.815 184.774 800.523 184.806 797.016C183.646 798.007 182.963 800.178 181.797 801.804L181.436 802.299L181.012 800.512C181.055 800.044 184.598 794.934 185.438 793.275L184.933 793.314C185.423 791.215 185.66 791.142 187.307 789.595C190.696 784.005 200.077 776.439 205.251 771.8C216.582 761.635 236.804 752.702 252.087 751.152Z" fill="#141415"/>
<path d="M252.085 751.152C249.129 752.623 244.732 753.679 241.469 754.588C233.007 756.946 227.18 758.66 219.734 763.276C211.487 768.441 204.047 774.719 196.743 781.133C194.975 782.686 188.711 788.988 187.305 789.595C190.694 784.005 200.075 776.439 205.249 771.8C216.58 761.635 236.802 752.702 252.085 751.152Z" fill="#98999A"/>
<path d="M184.195 804.6C189.307 793.231 198.307 780.605 209.323 774.336C201.608 781.612 199.539 782.943 193.451 792.084C189.527 796.755 187.759 799.845 184.633 805.084L184.195 804.6Z" fill="#B7B8B9"/>
<path d="M211.524 774.922C210.363 777.383 200.583 786.808 197.679 790.282L197.082 789.157C202.806 781.792 204.214 780.823 211.524 774.922Z" fill="#98999A"/>
<path d="M197.078 789.16L197.676 790.285L194.806 793.887L194.321 793.909L194.227 792.935L197.078 789.16Z" fill="#595859"/>
<path d="M194.53 1177.73C195.093 1178.06 199.105 1181.82 199.862 1182.49C207.475 1189.27 211.442 1190.41 220.913 1193.11L212.112 1193.87C202.235 1193.65 195.736 1191.12 186.395 1188.15L194.53 1177.73Z" fill="white"/>
<path d="M21.4399 1256.66C26.6395 1259.43 28.9334 1261.15 33.1878 1265.2L29.244 1275.19C28.0929 1276.88 28.8304 1276.36 27.1728 1277.08C18.3817 1273.88 20.6261 1263.84 21.4399 1256.66Z" fill="white"/>
<path d="M343.046 1184.36C348.883 1183.85 355.624 1184.76 361.509 1185.4C356.313 1187.62 352.14 1188.77 346.748 1190.33L335.631 1193.56L332.113 1185.55C335.754 1185.12 339.398 1184.72 343.046 1184.36Z" fill="white"/>
<path d="M290.574 778.322C290.577 776.719 290.469 774.13 290.762 772.641C293.602 777.509 289.139 794.211 287.461 799.45L286.38 799.027L286.072 798.915L285.514 798.72C283.159 800.78 275.553 819.687 270.866 822.66L270.32 822.303C272.828 817.46 284.009 800.251 285.053 796.171L283.456 795.809L284.209 794.517C284.631 792.324 287.846 779.742 288.952 778.795L290.574 778.322Z" fill="#424244"/>
<path d="M290.573 778.322C290.576 776.719 290.468 774.13 290.761 772.641C293.601 777.509 289.138 794.211 287.46 799.45L286.379 799.027C288.251 791.728 289.611 785.788 290.573 778.322Z" fill="#B7B8B9"/>
<path d="M284.211 794.519C284.633 792.325 287.849 779.743 288.955 778.797C287.63 782.076 288 791.329 284.211 794.519Z" fill="#98999A"/>
<path d="M397.094 1307.46C398.04 1307.34 397.667 1307.41 398.747 1307.84C400.322 1313.91 390.993 1319.1 386.289 1320.72L385.332 1320.74L384.77 1319.74C384.925 1316.09 386.306 1311.55 387.686 1308.18L397.094 1307.46Z" fill="white"/>
<path d="M250.577 760.016L250.985 760.418C243.883 766.085 237.496 768.49 231.74 772.672C223.015 779.013 210.612 796.823 203.699 806.187L203.324 806.321C203.925 803.687 208.786 797.675 210.325 795.025C221.52 775.762 232.545 771.134 250.577 760.016Z" fill="#98999A"/>
<path d="M182.781 903.115C183.578 901.149 185.42 897.547 187.697 897.297L188.021 899.429C189.387 898.126 189.506 897.508 190.939 897.419C189.405 900.782 185.051 907.268 182.853 910.447L180.389 910.675C179.55 911.733 179.921 911.438 178.644 912.005L178.787 909.456L179.101 909.333L179.34 908.086C179.235 908.693 179.281 908.888 178.786 909.394C178.059 910.135 177.07 910.564 176.031 910.586C176.492 907.696 180.7 905.998 182.781 903.115Z" fill="#141415"/>
<path d="M182.781 903.113C183.346 905.323 181.516 908.079 180.389 910.674C179.55 911.731 179.921 911.436 178.644 912.004L178.787 909.454L179.101 909.332L179.34 908.085C179.235 908.692 179.281 908.887 178.786 909.393C178.059 910.134 177.07 910.562 176.031 910.585C176.492 907.695 180.7 905.997 182.781 903.113Z" fill="#B7B8B9"/>
<path d="M188.02 899.432C189.386 898.129 189.505 897.511 190.938 897.422C189.403 900.784 185.05 907.27 182.852 910.449C183.01 907.293 186.362 902.265 188.02 899.432Z" fill="#98999A"/>
<path d="M229.039 807.816C228.393 811.368 210.984 834.25 207.305 838.392C204.43 841.626 200.55 844.872 197.016 847.5C197.67 846.258 200.992 843.085 202.173 841.888C212.855 831.043 218.513 819.552 229.039 807.816Z" fill="#B7B8B9"/>
<path d="M260.233 854.594L260.406 854.694C260.379 854.844 260.352 854.995 260.325 855.145C254.138 866.703 237.467 883.738 227.239 889.155L226.84 888.888C227.261 887.813 235.812 882.436 238.447 879.641C245.808 871.841 253.731 863.045 260.233 854.594Z" fill="#98999A"/>
<path d="M247.918 798.483C255.705 787.554 266.208 778.658 271.216 765.821C271.866 764.156 273.501 760.388 274.549 759.137C273.297 765.748 268.412 773.892 264.882 779.838C261.116 786.185 253.851 792.476 249.281 798.472L247.918 798.483Z" fill="#7F8082"/>
<path d="M257.961 815.043C256.924 821.523 240.71 839.884 235.121 845.34L234.879 844.555C235.306 842.445 241.81 835.998 243.674 833.61C248.474 827.469 253.036 821.067 257.961 815.043Z" fill="#E8E8E9"/>
<path d="M195.574 797.166L195.899 796.827C198.697 793.882 200.819 790.519 203.43 787.568C211.248 778.733 218.19 770.924 228.698 765.367C220.498 772.48 200.413 789.316 196.887 798.959L195.574 797.166Z" fill="#B7B8B9"/>
<path d="M274.209 797.27C271.168 804.546 261.007 820.691 256.601 828.552L255.629 828.134C260.533 817.384 266.812 806.478 274.209 797.27Z" fill="#B7B8B9"/>
<path d="M260.973 792.836L262.154 793.548C257.771 801.087 248.631 811.119 242.161 817.365L240.582 817.198C247.836 809.944 255.259 801.304 260.973 792.836Z" fill="#B7B8B9"/>
<path d="M177.754 813.328C177.89 816.897 157.757 842.929 154.026 846.336C153.672 844.945 157.678 840.385 158.873 839.105C165.95 831.5 170.869 820.866 177.754 813.328Z" fill="#98999A"/>
<path d="M241.249 774.777C240.8 775.729 234.984 781.464 233.757 782.627C227.622 788.451 223.11 797.809 217.062 803.276C217.408 801.823 217.012 802.992 217.871 801.606C223.315 792.843 232.001 780.022 241.249 774.777Z" fill="#98999A"/>
<path d="M222.339 788.871C221.797 791.198 220.418 792.857 219.326 794.989C214.568 804.259 209.924 808.796 202.434 815.616L202.266 815.093C202.841 813.194 208.519 808.184 210.4 805.862C214.312 801.035 218.073 792.807 222.339 788.871Z" fill="#98999A"/>
<path d="M194.947 797.328L195.153 799.182C188.099 808.168 182.893 815.823 176.273 824.558L176.004 824.452C179.624 816.986 188.91 803.318 194.947 797.328Z" fill="#98999A"/>
<path d="M220.568 764.052C227.428 760.17 233.252 758.455 240.88 757.047C237.155 759.526 230.107 764.314 225.938 765.145C226.438 763.946 231.207 761.854 232.734 761.111C224.066 761.524 223.365 764.341 217.824 766.763L217.777 766.49C218.757 765.512 219.502 764.925 220.568 764.052Z" fill="#7F8082"/>
<path d="M248.582 845.609L248.957 846.227C248.259 847.959 247.203 849.529 245.858 850.82C244.33 852.29 241.215 854.105 239.393 855.614C234.756 859.438 230.077 863.185 225.348 866.899C224.976 867.138 225.239 867.021 224.484 866.982C226.442 863.107 243.311 851.834 248.582 845.609Z" fill="#B7B8B9"/>
<path d="M248.998 782.152L249.36 782.381C248.963 783.728 248.9 783.656 249.184 785.014C249.802 784.719 250.421 784.429 251.04 784.14C250.614 788.293 244.976 791.7 242.444 795.419L241.151 796.41L240.531 796.132C242.534 791.745 245.819 785.727 248.998 782.152Z" fill="#424244"/>
<path d="M271.4 865.516C272.298 866.212 271.894 865.827 272.391 867.047C270.248 877.368 261.796 888.241 255.257 896.18L255.098 896.481C255.95 893.892 259.053 890.056 260.703 887.501C265.743 879.701 268.995 874.351 271.4 865.516Z" fill="#98999A"/>
<path d="M295.543 790.758C298.114 793.052 284.939 818.605 282.701 821.745L282.551 821.573C282.281 820.119 294.152 794.95 295.543 790.758Z" fill="#98999A"/>
<path d="M6.90653 1225.19L7.40305 1225.91C5.79436 1233.39 5.01227 1240.31 4.54748 1247.91C1.9513 1241.61 2.72949 1230.8 6.90653 1225.19Z" fill="#E8E8E9"/>
<path d="M214.458 780.488C214.555 781.702 208.714 788.639 207.623 789.658C201.398 795.492 198.381 805.541 193.635 811.537L193.582 810.874C198.778 799.239 204.935 789.246 214.458 780.488Z" fill="#6A6B6C"/>
<path d="M193.109 832.16L193.69 832.505C191.215 836.981 182.23 844.982 177.02 846.629L176.148 846.68C176.156 845.895 190.917 834.409 193.109 832.16Z" fill="#B7B8B9"/>
<path d="M240.186 799.473C239.302 803.926 226.263 822.911 223.18 827.214C224.541 822.972 236.552 803.08 240.186 799.473Z" fill="#98999A"/>
<path d="M280.809 767.799L281.614 767.766L281.716 766.827C282.547 766.623 283.365 766.457 284.224 766.316C284.194 767.366 284.096 767.417 284.524 768.382L284.876 768.16L285.884 767.767C285.479 771.007 285.871 771.776 283.797 774.416C281.72 775.068 282.678 775.151 280.814 774.299L279.738 772.662C280.073 770.963 280.387 769.477 280.809 767.799Z" fill="#141415"/>
<path d="M425.117 1310.39C421.437 1321.34 415.654 1325.38 405.79 1330.65L404.805 1330.07C414.78 1323.73 418.999 1320.44 425.117 1310.39Z" fill="#E8E8E9"/>
<path d="M275.988 783.479C276.87 779.231 278.626 773.347 279.055 769.174C279.436 765.473 279.134 761.291 279.512 757.155L280.064 757.07C281.385 759.342 280.955 765.065 280.811 767.798C280.39 769.477 280.076 770.963 279.741 772.661C278.736 777.272 277.85 779.159 275.988 783.479Z" fill="#98999A"/>
<path d="M277.645 817.762L278.3 818.636C274.328 824.403 268.461 832.949 263.332 837.509L262.32 836.969C266.338 832.715 274.081 822.633 277.645 817.762Z" fill="#B7B8B9"/>
<path d="M161.077 861.258L161.756 861.319L161.932 861.753C158.482 864.075 147.086 868.646 142.487 870.928L141.702 871.145L141.305 870.767C145.829 866.218 155.057 863.301 161.077 861.258Z" fill="#B7B8B9"/>
<path d="M215.858 846.715L216.185 847.066C214.639 850.952 198.817 860.21 194.886 862.325L194.551 862.131C194.757 861.206 194.957 860.85 195.862 860.332C202.963 856.235 209.622 852.137 215.858 846.715Z" fill="#6A6B6C"/>
<path d="M386.883 1338.29L387.44 1338.61C384.746 1342.07 367.467 1347.75 362.723 1348.84L361.648 1348.21C362.136 1346.99 370.869 1345.08 372.822 1344.36C377.691 1342.56 382.425 1341.06 386.883 1338.29Z" fill="#98999A"/>
<path d="M248.037 864.617C248.302 864.996 248.138 864.701 248.115 865.619C242.184 871.905 236.147 878.212 228.445 882.304L228.121 882.032C228.155 881.647 246.066 866.627 248.037 864.617Z" fill="#B7B8B9"/>
<path d="M267.484 839.414C266.956 844.597 252.966 857.207 248.648 860.714C248.637 860.675 248.627 860.636 248.617 860.603C248.661 860.297 248.704 859.991 248.747 859.69C251.533 856.929 256.907 851.361 259.41 848.667C262.716 845.104 264.805 842.504 267.484 839.414Z" fill="#98999A"/>
<path d="M220.734 840.137L220.99 840.604C219.028 842.781 200.428 856.126 197.574 857.818L197.414 857.718L197.34 857.056C204.09 851.188 213.395 845.331 220.734 840.137Z" fill="#6A6B6C"/>
<path d="M233.957 813.82C234.095 817.745 220.922 834.942 217.02 837.798C217.048 838.066 232.713 815.385 233.957 813.82Z" fill="#6A6B6C"/>
<path d="M260.526 843.305L260.942 843.377L261.051 844.012C257.389 847.207 244.302 860.764 241.045 861.393L240.699 861.877C242.058 859.038 257.085 846.289 260.526 843.305Z" fill="#6A6B6C"/>
<path d="M285.242 822.711C285.278 826.842 276.335 837.965 273.098 840.704C273.342 837.692 282.826 825.817 285.242 822.711Z" fill="#B7B8B9"/>
<path d="M232.926 844.566L233.049 844.628L233.164 845.357C227.493 852.305 222.072 856.208 215.103 861.858L214.539 861.524C215.972 859.643 230.163 847.088 232.926 844.566Z" fill="#98999A"/>
<path d="M292.141 763.406C297.367 765.768 296.785 785.057 295.042 789.661C294.134 788.821 294.688 786.093 294.904 784.528C295.984 776.745 294.853 770.767 292.141 763.406Z" fill="#424244"/>
<path d="M154.945 853.801C157.327 852.827 172.412 845.267 172.6 845.25C170.437 849.359 160.715 852.771 156.442 854.675L154.945 853.801Z" fill="#B7B8B9"/>
<path d="M212.247 787.176C212.29 789.091 200.611 804.69 198.494 807.719L198.266 806.427C200.679 800.971 208.314 792.064 212.247 787.176Z" fill="#6A6B6C"/>
<path d="M247.917 798.484L249.28 798.473C245.444 804.246 239.837 813.482 234.922 817.947L235.687 817.307L235.378 816.694C238.457 811.572 244.361 803.634 247.917 798.484Z" fill="#595859"/>
<path d="M271.926 781.652C274.103 774.353 274.795 762.638 277.222 758.051C277.715 760.037 274.176 778.005 273.475 780.822L271.926 781.652Z" fill="#6A6B6C"/>
<path d="M178.185 864.559L178.633 865.332C172.709 869.758 165.343 872.553 158.508 875.532C166.215 869.92 169.677 868.912 178.185 864.559Z" fill="#B7B8B9"/>
<path d="M262.46 876.816L262.774 877.618C259.666 883.931 255.829 891.575 250.369 896.19L250.008 895.539C253.47 890.729 259.923 881.938 262.46 876.816Z" fill="#B7B8B9"/>
<path d="M181.011 800.508L181.435 802.295C180.528 803.954 170.152 819.286 170.318 818.746L171.035 817.833L170.625 817.716C173.458 811.965 177.33 805.735 181.011 800.508Z" fill="#B7B8B9"/>
<path d="M272.39 871.25L272.772 871.506C271.69 878.922 267.118 886.9 261.991 892.294L261.641 891.654C268.012 882.396 268.267 881.661 272.39 871.25Z" fill="#7F8082"/>
<path d="M299.162 772.371L300.387 772.68C302.398 778.302 302.493 787.95 298.848 792.81C300.578 784.192 300.669 781.002 299.162 772.371Z" fill="#E8E8E9"/>
<path d="M247.559 792.664L247.742 793.243C247.048 796.467 238.2 808.865 235.833 812.333C235.408 809.472 245.418 795.804 247.559 792.664Z" fill="#595859"/>
<path d="M212.347 822.172C212 825.846 202.917 836.157 200.162 839.224C199.512 836.608 209.891 825.2 212.347 822.172Z" fill="#98999A"/>
<path d="M271.929 781.65L273.478 780.82C270.589 789.438 269.074 793.491 263.766 801.013C266.091 794.193 269.742 788.136 271.929 781.65Z" fill="#B7B8B9"/>
<path d="M170.013 829.512C169.367 833.938 161.037 845.59 156.344 847.733C156.3 846.57 160.136 843.474 161.317 841.893C164.4 837.757 166.697 833.453 170.013 829.512Z" fill="#98999A"/>
<path d="M240.581 817.199L242.16 817.366C238.849 820.545 230.611 828.913 227.332 831.329C228.119 828.055 237.649 819.944 240.581 817.199Z" fill="#7F8082"/>
<path d="M217.52 874.023L217.849 874.419C217.206 876.2 209.965 881.84 208.417 883.816C206.94 885.698 204.598 886.878 202.459 887.919L202.012 887.457C207.909 883.282 211.499 878.299 217.52 874.023Z" fill="#424244"/>
<path d="M286.07 798.918L286.379 799.029L287.46 799.452C284.478 807.675 283.22 811.489 278.304 818.637L277.648 817.763C281.948 811.439 284.15 806.417 286.07 798.918Z" fill="#595859"/>
<path d="M195.187 834.461L195.413 834.717L195.298 835.597C191.729 840.034 186.976 846.241 182.425 849.381L182.145 849.142C182.763 847.26 193.123 836.671 195.187 834.461Z" fill="#98999A"/>
<path d="M197.476 871.82L197.842 872.561C194.898 876.536 188.324 878.752 183.737 880.11L183.434 879.976L183.666 879.397C188.452 877.276 192.959 874.481 197.476 871.82Z" fill="#B7B8B9"/>
<path d="M168.131 853.387L168.491 853.47L168.681 853.999C166.133 856.376 157.492 859.06 153.791 860.351L153.27 860.357C155.037 857.801 164.784 854.6 168.131 853.387Z" fill="#B7B8B9"/>
<path d="M244.036 885.762L244.406 886.057C238.377 892.615 236.57 893.89 228.897 898.639L228.594 898.427L228.672 897.787C234.093 893.823 238.759 889.703 244.036 885.762Z" fill="#7F8082"/>
<path d="M226.504 873.513C224.221 875.69 214.859 883.54 212.133 883.902C213.612 881.981 223.989 874.037 226.56 872.016L226.504 873.513Z" fill="#6A6B6C"/>
<path d="M213.517 808.73L214.17 809.499C210.734 814.738 207.066 820.583 202.566 824.909C206.543 818.083 208.541 814.932 213.517 808.73Z" fill="#B7B8B9"/>
<path d="M226.37 898.539C225.331 901.779 216.082 906.857 212.988 908.543L213.102 907.58C216.204 904.886 222.681 900.298 226.37 898.539Z" fill="#B7B8B9"/>
<path d="M239.73 834.578L239.931 835.135C233.993 840.752 227.913 846.203 221.988 851.853L221.566 851.397C222.296 849.793 237.605 835.853 239.73 834.578Z" fill="#6A6B6C"/>
<path d="M273.705 753.82L274.392 753.992L274.125 754.762C268.958 756.602 263.556 758.655 258.595 760.975L258.137 760.903L258.129 760.167C260.819 757.746 269.865 755.067 273.705 753.82Z" fill="#6A6B6C"/>
<path d="M217.976 866.141L218.341 866.519C217.65 869.581 209.182 876.885 206.444 879.012L206.227 878.7C206.757 876.924 216.11 868.033 217.976 866.141Z" fill="#595859"/>
<path d="M273.035 756.559C272.778 759.117 263.628 769.197 261.42 771.746C260.729 769.571 270.977 758.361 273.035 756.559Z" fill="#6A6B6C"/>
<path d="M159.448 847.91L159.788 848.205L159.345 849.102C155.459 851.557 150.852 853.361 146.424 854.569L146.066 854.218C146.997 852.203 155.879 849.747 159.448 847.91Z" fill="#B7B8B9"/>
<path d="M243.547 843.203C247.527 839.885 252.857 832.503 255.631 828.133L256.603 828.55C253.581 833.862 249.013 839.557 244.378 843.549L243.547 843.203Z" fill="#595859"/>
<path d="M191.329 807.762L192.119 808.357C189.626 812.433 185.99 818.996 182.066 821.518C183.479 818.39 189.086 810.913 191.329 807.762Z" fill="#98999A"/>
<path d="M268.045 888.992L268.472 889.811C266.975 892.216 259.443 898.49 257.045 900.338L256.705 900.021C256.553 898.05 265.323 892.193 268.045 888.992Z" fill="#7F8082"/>
<path d="M174.522 888.926L175.224 889.226C174.819 890.145 165.769 896.558 163.874 898.106L163.41 897.978L163.427 897.188C166.517 893.714 170.487 891.158 174.522 888.926Z" fill="#B7B8B9"/>
<path d="M178.188 864.562C180.126 861.216 186.76 857.08 190.247 855.098C190.158 856.428 180.529 863.259 178.636 865.336L178.188 864.562Z" fill="#6A6B6C"/>
<path d="M202.095 898.441L202.595 898.586L202.737 899.199C200.946 901.036 196.693 903.313 194.291 904.732L193.592 904.666L193.152 904.103C194.337 901.654 199.499 899.661 202.095 898.441Z" fill="#E8E8E9"/>
<path d="M231.903 788.23C231.968 790.819 223.781 799.983 221.753 802.193C221.398 799.866 230.001 790.457 231.903 788.23Z" fill="#6A6B6C"/>
<path d="M278.291 869.91C279.532 873.301 275.814 882.197 273.659 884.936C273.177 883.333 277.411 872.788 278.291 869.91Z" fill="#98999A"/>
<path d="M174.469 833.998C177.14 828.826 178.349 827.356 182.217 822.98C181.467 826.338 177.052 831.593 175.357 834.516L174.469 833.998Z" fill="#B7B8B9"/>
<path d="M241.083 865.035L241.599 865.141C241.29 866.85 233.017 872.451 231.066 873.859L230.383 873.781C230.939 871.605 238.712 866.694 241.083 865.035Z" fill="#595859"/>
<path d="M249.059 774.957C248.261 778.32 242.33 784.844 239.844 787.734C239.905 784.677 246.756 777.279 249.059 774.957Z" fill="#595859"/>
<path d="M299.161 772.37L299.024 771.563C298.124 766.397 297.174 763.229 293.332 759.639L293.223 758.462L293.821 758.32C297.089 761.397 299.64 768.186 300.386 772.679L299.161 772.37Z" fill="#6A6B6C"/>
<path d="M187.351 848.484L187.608 849.019C185.544 852.342 182.575 854.898 179.384 857.097C178.977 856.679 179.192 856.974 178.957 856.095C181.352 853.189 184.43 850.878 187.351 848.484Z" fill="#B7B8B9"/>
<path d="M196.354 887.92C197.592 888.343 197.521 888.287 198.475 889.184L198.165 890.141C196.277 891.416 195.199 891.895 193.043 890.859C193.144 889.161 193.927 888.916 195.379 887.285L196.354 887.92Z" fill="#141415"/>
<path d="M253.94 879.293L254.999 879.744C252.235 883.496 249.773 885.333 246.466 888.529L245.484 888.05C248.261 885.005 251.035 882.216 253.94 879.293Z" fill="#B7B8B9"/>
<path d="M187.231 880.856C188.085 880.705 187.599 880.722 188.689 880.95C187.098 882.286 179.95 883.94 177.526 884.602C176.79 884.842 177.148 884.853 176.453 884.602C179.05 882.208 183.859 881.418 187.231 880.856Z" fill="#B7B8B9"/>
<path d="M226.874 908.098L226.654 909.094C224.335 911.883 221.823 912.167 218.365 912.947C218.304 912.574 218.471 912.195 218.546 911.828C220.954 909.979 223.971 909.15 226.874 908.098Z" fill="#E8E8E9"/>
<path d="M251.092 889.012C251.49 891.89 244.111 898.281 241.849 900.196L241.754 899.801C241.988 898.448 249.337 891.038 251.092 889.012Z" fill="#7F8082"/>
<path d="M252.268 754.816L252.789 754.914L253.101 755.374C251.193 756.924 245.774 759.11 243.256 760.226C242.723 760.444 243.027 760.409 242.34 760.174C243.795 758.032 249.832 755.751 252.268 754.816Z" fill="#B7B8B9"/>
<path d="M151.093 856.543L151.946 857.478C147.113 859.611 143.562 860.646 138.387 861.392C143.345 859.137 145.829 858.196 151.093 856.543Z" fill="#B7B8B9"/>
<path d="M271.003 809.277L271.467 809.561C271.52 811.666 267.733 818.669 266.515 820.874L266.094 820.696C266.047 818.714 269.8 811.454 271.003 809.277Z" fill="#424244"/>
<path d="M255.684 869.547C255.391 872.542 250.436 877.118 248.119 879.624L247.91 879C249.418 875.827 253.136 871.98 255.684 869.547Z" fill="#6A6B6C"/>
<path d="M221.715 886.254C221.923 886.376 221.788 886.254 222.076 886.889C219.67 889.143 216.048 891.209 213.19 892.99L212.77 892.651C213.722 890.39 219.471 887.507 221.715 886.254Z" fill="#98999A"/>
<path d="M277.362 888.973L277.808 889.541C277.386 892.764 275.184 895.548 273.281 898.125C273.09 897.797 272.899 897.468 272.707 897.145C273.792 894.334 275.734 891.556 277.362 888.973Z" fill="#E8E8E9"/>
<path d="M189.365 859.566L189.384 860.463C186.735 863.096 182.985 865.579 179.648 867.238L179.574 866.67C181.977 864.399 186.48 861.532 189.365 859.566Z" fill="#6A6B6C"/>
<path d="M284.055 753.695C286.034 754.063 292.204 760 292.546 762.011L291.818 762.168C289.133 759.434 286.544 756.609 284.055 753.695Z" fill="#6A6B6C"/>
<path d="M242.465 822.848L242.71 823.054C242.059 825.342 236.102 830.464 234.189 832.201L233.945 831.984C234.308 830.113 240.784 824.406 242.465 822.848Z" fill="#595859"/>
<path d="M242.504 769.414L242.759 770.167C240.538 772.668 237.318 774.693 234.542 776.664L234.121 776.408C234.904 774.476 240.578 770.737 242.504 769.414Z" fill="#6A6B6C"/>
<path d="M194.946 797.329L195.573 797.168L196.886 798.961C195.677 802.151 194.176 805.608 192.115 808.358L191.324 807.762C193.569 804.673 194.976 803.03 195.152 799.183L194.946 797.329Z" fill="#424244"/>
<path d="M208.532 868.5L208.777 868.778C207.92 870.938 203.408 874.195 201.418 875.648L201.16 875.453C201.845 873.421 206.719 869.769 208.532 868.5Z" fill="#7F8082"/>
<path d="M203.582 892.504L203.878 893.278C201.871 895.137 198.815 896.423 196.301 897.681L196.109 897.559L196.295 896.819C198.719 894.848 200.824 893.918 203.582 892.504Z" fill="#424244"/>
<path d="M267.214 784.109C265.653 787.361 264.241 790.617 262.15 793.551L260.969 792.839C263.058 789.727 264.834 787.015 267.214 784.109Z" fill="#595859"/>
<path d="M266.314 858.934L266.847 860.086C266.296 863.426 265.004 865.709 262.683 868.17L262.348 867.713C264.294 864.139 264.986 862.758 266.314 858.934Z" fill="#595859"/>
<path d="M131.169 864.008L131.621 864.709C129.017 866.368 126.407 867.242 123.53 868.367L123.406 868.311L123.391 867.704C125.061 866.346 129.019 864.904 131.169 864.008Z" fill="#595859"/>
<path d="M262.9 785.941L263.035 786.994C261.791 789.605 259.887 791.715 258.064 793.992L257.812 793.14C258.483 791.358 261.592 787.639 262.9 785.941Z" fill="#595859"/>
<path d="M229.838 900.746L230.012 901.464C229.426 903.435 225.397 905.434 223.553 906.453L223.543 905.651C225.608 903.975 227.706 902.338 229.838 900.746Z" fill="#595859"/>
<path d="M174.472 833.996L175.36 834.514C173.54 838.3 171.456 840.159 168.473 842.92L174.472 833.996Z" fill="#6A6B6C"/>
<path d="M235.583 904.582L236.024 905.317C234.336 907.516 232.671 908.574 230.475 910.249L230.105 909.537C231.845 907.254 233.327 906.313 235.583 904.582Z" fill="#98999A"/>
<path d="M195.379 887.283C198.634 884.143 199.795 883.319 203.86 880.953C200.94 884.071 199.699 885.29 196.354 887.918L195.379 887.283Z" fill="#7F8082"/>
<path d="M186.751 831.098L187.091 832.133C185.879 834.449 184.286 835.574 182.323 837.327L181.922 836.81C183.367 834.349 184.769 833.124 186.751 831.098Z" fill="#424244"/>
<path d="M11.6784 1224C14.5601 1223.66 16.4426 1223.78 19.3021 1223.9L19.4173 1223.58L20.1276 1223.86L19.2092 1223.8C17.08 1224.61 13.3188 1225.32 11.1445 1224.56L11.6784 1224Z" fill="#424244"/>
<path d="M166.848 861.258L167.146 861.815C166.004 863.552 163.831 865.116 162.182 866.474L161.594 865.756C162.936 863.785 164.873 862.672 166.848 861.258Z" fill="#7F8082"/>
<path d="M151.094 856.545C152.954 855.248 151.847 854.914 154.946 853.801L156.443 854.675C154.259 855.766 153.802 855.955 151.947 857.481L151.094 856.545Z" fill="#6A6B6C"/>
<path d="M200.143 820.398C200.333 820.732 200.522 821.061 200.711 821.395C199.849 823.772 199.214 824.218 197.466 826.161L196.965 825.737C197.218 824.073 199.089 821.868 200.143 820.398Z" fill="#424244"/>
<path d="M214.493 893.926L215.043 894.549C214.216 896.214 212.179 897.483 210.637 898.658L210.125 897.968C211.467 895.952 212.506 895.407 214.493 893.926Z" fill="#595859"/>
<path d="M259.315 775.98L259.498 776.843C258.328 779.349 257.36 780.217 255.546 782.266L255.473 781.225C256.416 778.725 257.489 777.896 259.315 775.98Z" fill="#424244"/>
<path d="M283.72 831.578L283.99 832.552C283.026 834.874 281.432 836.667 279.887 838.682L279.734 838.148C280.396 836.015 282.388 833.493 283.72 831.578Z" fill="#595859"/>
<path d="M405.791 1330.65C404.093 1331.67 401.538 1333.07 399.551 1332.87C400.38 1331.6 403.247 1330.71 404.806 1330.07L405.791 1330.65Z" fill="#7F8082"/>
<path d="M246.468 888.526C244.499 890.407 243.2 891.877 240.797 893.18C241.45 891.554 244.093 889.366 245.486 888.047L246.468 888.526Z" fill="#424244"/>
<path d="M284.878 768.156C284.799 766.267 284.105 762.225 284.468 761.066C285.805 763.756 286.126 764.712 285.886 767.763L284.878 768.156Z" fill="#98999A"/>
<path d="M253.938 879.292C254.97 877.794 256.294 875.44 257.81 874.66C257.749 876.414 256.126 878.357 254.996 879.743L253.938 879.292Z" fill="#6A6B6C"/>
<path d="M217.362 910.309L216.867 911.567C215.077 913.226 213.662 913.471 211.316 914.256L211.575 913.248L217.362 910.309Z" fill="#7F8082"/>
<path d="M227.554 797.57L228.168 798.005C227.597 799.792 225.98 801.423 224.728 802.909L224.316 802.503C224.59 800.838 226.354 799.101 227.554 797.57Z" fill="#424244"/>
<path d="M243.957 900.691L243.963 901.861C242.796 903.353 241.984 904.794 240.284 905.463L239.863 905.245C240.333 903.876 242.751 901.866 243.957 900.691Z" fill="#595859"/>
<path d="M268.645 895.809L268.922 896.232C268.518 897.818 266.981 899.093 265.792 900.357L264.977 899.55C265.476 898.047 267.316 896.872 268.645 895.809Z" fill="#B7B8B9"/>
<path d="M244.379 843.552C242.899 844.799 241.58 846.263 239.738 846.447L239.763 845.668C241.219 844.226 241.747 844.081 243.547 843.207L244.379 843.552Z" fill="#141415"/>
<path d="M183.838 804.395L184.2 804.601L184.638 805.085C183.743 806.66 182.78 808.731 181.406 809.772C181.406 808.047 182.895 806.003 183.838 804.395Z" fill="#424244"/>
<path d="M263.336 837.513C262.005 838.682 260.534 840.313 258.895 840.508C259.623 838.71 260.631 838.325 262.325 836.973L263.336 837.513Z" fill="#424244"/>
<path d="M226.561 872.017C227.735 870.836 228.412 869.912 229.981 869.395L230.447 869.734C229.214 871.527 228.231 872.134 226.504 873.514L226.561 872.017Z" fill="#424244"/>
<path d="M270.956 773.598C271.896 775.958 269.947 777.99 268.724 780.039C268.28 778.686 270.281 775.056 270.956 773.598Z" fill="#424244"/>
<path d="M266.17 760.48L266.258 761.136C265.352 762.811 263.836 763.691 262.282 764.866L262.266 764.115C263.346 762.132 264.223 761.797 266.17 760.48Z" fill="#6A6B6C"/>
<path d="M260.698 762.078L261.132 762.516C260.372 764.175 258.883 764.968 257.36 766.084L256.836 765.663C257.772 763.905 259.058 763.247 260.698 762.078Z" fill="#7F8082"/>
<path d="M289.104 813.801C289.354 816.323 288.009 818.01 286.57 819.864C286.057 817.971 288.092 815.454 289.104 813.801Z" fill="#595859"/>
<path d="M254.049 836.578L254.542 837.096C254.119 838.877 253.343 839.328 252.027 840.843L251.504 840.536C251.664 839 252.98 837.842 254.049 836.578Z" fill="#424244"/>
<path d="M27.2969 1251.85C29.5184 1253.08 30.1758 1254.4 31.6136 1256.51C28.8549 1255.54 28.6829 1254.49 27.2969 1251.85Z" fill="#141415"/>
<path d="M181.103 832.336L181.528 832.753L179.012 836.912L178.711 835.598C179.584 833.761 179.495 833.739 181.103 832.336Z" fill="#141415"/>
<path d="M257.812 874.656C258.694 872.006 258.963 870.798 261.295 869.105C260.311 872.012 259.88 872.368 257.812 874.656Z" fill="#424244"/>
<path d="M210.333 894.129C210.197 895.916 208.198 896.901 206.811 897.904L206.758 897.219C207.817 895.27 208.174 895.515 210.333 894.129Z" fill="#595859"/>
<path d="M279.661 876.152C280.157 878.285 279.452 878.992 278.284 880.634C278.047 879.587 277.952 879.025 277.793 877.973L279.661 876.152Z" fill="#141415"/>
<path d="M213.523 808.735C214.508 807.449 214.878 806.425 216.097 806.113C215.55 807.928 215.317 808.034 214.176 809.504L213.523 808.735Z" fill="#6A6B6C"/>
<path d="M173.928 853.93L174.202 854.364C173.943 855.889 173.675 855.605 172.009 856.869C171.537 855.984 171.693 856.474 171.933 855.232L173.928 853.93Z" fill="#141415"/>
<path d="M201.286 934.727C207.64 938.651 225.058 964.673 227.945 971.843L228.828 973.992C238.2 969.294 256.555 952.848 264.709 945.332L265.141 945.594C258.704 953.421 237.5 971.131 228.416 975.913C224.725 974.026 224.114 973.575 221.152 970.735C219.154 971.827 211.232 975.98 210.07 977.45C204.682 984.275 199.732 992.064 194.382 998.989C181.756 1015.47 168.147 1031.19 153.629 1046.04C143.885 1055.95 128.997 1070.6 117.737 1078.48C99.51 1091.24 81.1275 1098.7 64.9164 1114.73C89.1075 1116.81 95.2595 1138.94 114.825 1147.01C128.78 1152.77 139.008 1149.98 151.745 1151.63L151.892 1153.23C151.318 1156.89 147.107 1164.6 145.337 1168.08L144.599 1169.41C140.666 1167.23 134.056 1163.56 129.902 1162.21C116.534 1157.88 108.865 1143.99 97.368 1137.41C87.8851 1131.98 67.1029 1129 63.6289 1115.59C65.787 1105.38 111.162 1082.59 122.539 1072.72C153.993 1045.44 184.463 1012.33 207.497 977.789C192.118 986.162 181.508 993.277 164.764 999.902C150.548 1005.53 134.915 1008.91 121.627 1015.3C117.056 1017.49 105.41 1035.24 102.34 1037.39C100.074 1037.38 100.962 1037.78 99.446 1036.53C98.0755 1032.53 100.735 1028.18 101.178 1023.45C94.7774 1017.91 74.6393 1029.87 72.1004 1023.02C73.9084 1019.83 82.5591 1017.61 86.2792 1015.4C82.1211 1015.88 67.0278 1018.54 65.1263 1014.7C66.6131 1009.9 83.8544 1005.09 85.9964 1009.22C82.6977 1010.93 72.6905 1009.24 66.6676 1014L66.7043 1014.81C71.777 1017.58 84.8853 1011.67 88.3404 1015.23C86.287 1018.76 75.1063 1020.2 74.1238 1023.08C77.1174 1025.78 95.1092 1018.19 101.298 1021.28C105.355 1023.3 99.4259 1030.41 101.329 1034.94L102.373 1034.96C106.829 1031.18 116.568 1016.29 120.31 1014.24C128.957 1009.49 144.492 1005.69 154.435 1002.23C172.507 995.955 185.798 988.668 202.216 979.214C208.052 975.857 219.112 971.27 223.811 966.749C218.781 958.287 213.112 950.215 206.854 942.615C200.285 947.726 189.292 956.884 182.695 961.149C176.765 964.985 164.424 969.539 156.984 973.491C142.487 980.89 129.021 991.145 113.707 996.79C106.968 999.273 76.907 996.233 73.5677 1001.42C77.1792 1002.7 83.4993 1001.56 86.9878 1002.9C84.1283 1006.44 70.0943 1003.77 67.6868 1007.79L68.0987 1009.39C66.0809 1008.64 66.4873 1009.23 65.5699 1007.9C66.8658 1004.43 72.3392 1005.4 73.438 1003.54C72.4255 1002.4 72.3364 1002.37 71.6779 1001.03C76.2407 994.558 104.37 997.597 111.674 995.677C126.992 991.663 142.696 978.763 157.359 971.704C164.343 968.342 174.183 964.444 179.968 961.193C185.245 958.231 195.661 949.496 200.845 945.382C199.233 941.73 198.571 939.776 198.067 935.846L200.209 935.89L200.696 936.024L201.286 934.727Z" fill="#141415"/>
<path d="M112.848 1147.97C133.241 1154.79 131.804 1151.81 151.891 1153.23C151.317 1156.89 147.106 1164.6 145.337 1168.08C131.696 1160.81 123.31 1159.33 112.848 1147.97Z" fill="white"/>
<path d="M200.208 935.891L200.695 936.024C202.288 937.282 204.524 939.816 206 941.369L201.812 944.704C200.972 942.098 199.539 938.452 200.208 935.891Z" fill="#E8E8E9"/>
<path d="M64.5781 1116.09C76.1112 1117.02 88.2298 1125.89 95.3609 1134.59C82.075 1130.46 73.4732 1127.2 64.5781 1116.09Z" fill="white"/>
<path d="M223.619 967.363C225.743 968.343 226.312 971.533 226.93 973.61C224.102 972.151 222.96 970.459 223.619 967.363Z" fill="#E8E8E9"/>
<path d="M267.571 908.297C272.072 913.486 272.704 916.882 272.26 923.384C272.166 924.737 272.061 926.09 271.944 927.437C271.22 920.506 271.855 914.838 267.293 909.254L267.571 908.297Z" fill="#595859"/>
<path d="M314.029 905.586C316.251 908.386 316.647 910.48 318.032 913.859C315.552 910.702 315.401 909.622 313.477 906.46L314.029 905.586Z" fill="#B7B8B9"/>
<path d="M313.037 1069.3C312.273 1080.71 290.497 1125.62 283.887 1135.66C285.188 1130.76 296.348 1110.04 298.935 1104.17C304.082 1092.49 308.353 1081.16 313.037 1069.3Z" fill="#98999A"/>
<path d="M246.162 1119.08C246.138 1121.72 237.932 1129.6 235.721 1131.9L235.555 1130.73C237.307 1128 243.434 1122.12 246.162 1119.08Z" fill="#B7B8B9"/>
<path d="M285.211 1119.38L285.736 1120.01C285.198 1122.33 281.398 1127.78 279.904 1130.12L279.379 1129.3C280.643 1126.25 283.366 1122.28 285.211 1119.38Z" fill="#B7B8B9"/>
<path d="M230.182 1135.59L230.551 1135.96C229.771 1137.85 227.435 1139.79 225.859 1141.37C225.654 1141.16 225.796 1141.35 225.422 1140.5C226.985 1138.06 227.985 1137.42 230.182 1135.59Z" fill="#B7B8B9"/>
<path d="M75.2812 839.221C92.0946 820.02 115.527 835.58 137.204 824.551C156.231 814.87 159.131 804.526 172.633 789.3C180.968 779.897 190.42 772.826 201.063 766.551L202.154 768.589C201.741 769.086 200.82 770.112 200.553 770.621C198.93 770.103 199.254 770.338 197.3 770.835C187.7 780.793 180.592 792.479 171.621 801.275L172.555 801.843L174.182 800.417L174.814 800.495C173.43 803.062 170.929 805.901 169.053 808.228L170.694 809.319C171.025 810.567 166.405 818.706 165.236 819.903L164.761 818.839C158.768 819.997 151.337 825.854 145.773 825.899C137.926 828.415 130.753 830.419 122.459 831.221C118.452 831.316 116.118 831.076 112.111 830.648C94.0801 829.835 90.5009 829.417 75.2812 839.221Z" fill="#E8E8E9"/>
<path d="M75.2812 839.221C92.0946 820.02 115.527 835.58 137.204 824.551C156.231 814.87 159.131 804.526 172.633 789.3C180.968 779.897 190.42 772.826 201.063 766.551L202.154 768.589C201.741 769.086 200.82 770.112 200.553 770.621C198.93 770.103 199.254 770.338 197.3 770.835C189.212 773.355 173.283 789.578 167.946 796.326C163.359 802.127 158.538 809.358 153.273 814.703C148.205 819.847 141.218 823.377 135.238 827.302C151.176 822.698 157.084 818.043 169.053 808.228L170.694 809.319C171.025 810.567 166.405 818.706 165.236 819.903L164.761 818.839C158.768 819.997 151.337 825.854 145.773 825.899C137.926 828.415 130.753 830.419 122.459 831.221C118.452 831.316 116.118 831.076 112.111 830.648C94.0801 829.835 90.5009 829.417 75.2812 839.221Z" fill="#141415"/>
<path d="M170.694 809.316C171.025 810.563 166.405 818.703 165.236 819.9L164.762 818.836C158.768 819.994 151.337 825.851 145.773 825.896C150.258 822.054 157.94 819.265 163.028 816.097C165.324 814.666 168.339 811.321 170.694 809.316Z" fill="#E8E8E9"/>
<path d="M171.622 801.273L172.555 801.841C169.777 804.469 167.511 806.568 164.542 808.973L163.509 808.455L163.366 808.633L163.823 809.452L163.02 809.084L163.509 809.63L162.82 809.869L162.985 809.179L163.453 809.686L163.227 808.856L163.479 808.555L164.192 809.268L164.374 809.151L163.886 808.11C165.959 806.028 169.321 803.272 171.622 801.273Z" fill="#424244"/>
<path d="M185.227 761.198C199.709 746.387 225.826 736.24 246.475 737.045C253.655 737.047 264.29 738.3 270.543 742.124L269.844 744.042C267.441 744.269 265.786 744.329 263.371 744.329C259.121 744.411 243.417 746.384 239.157 747.504C234.713 748.465 231.29 749.002 227.236 751.138C223.563 751.305 219.846 752.256 216.287 753.174C206.331 755.743 196.674 759.324 186.89 762.456C186.48 762.587 186.029 761.903 185.955 761.805L185.227 761.198Z" fill="white"/>
<path d="M185.227 761.198C199.709 746.387 225.826 736.24 246.475 737.045L250.666 738.139C229.474 737.875 216.843 740.469 198.404 752.627C194.933 754.916 188.847 760.04 185.955 761.805L185.227 761.198Z" fill="#98999A"/>
<path d="M246.473 737.043C253.652 737.046 264.287 738.298 270.54 742.123L269.841 744.04C265.625 740.307 256.202 738.46 250.663 738.137L246.473 737.043Z" fill="#424244"/>
<path d="M227.231 751.137L225.276 752.778C215.807 752.195 193.831 761.695 184.012 764.593C182.802 764.95 173.402 771.197 171.678 772.487C164.266 778.033 141.084 787.692 132.211 784.836C134.319 783.74 143.329 783.255 146.398 782.47C160.208 778.946 174.655 770.522 185.221 761.197L185.95 761.804C186.024 761.902 186.474 762.586 186.885 762.455C196.668 759.323 206.325 755.742 216.281 753.173C219.84 752.255 223.557 751.304 227.231 751.137Z" fill="#595859"/>
<path d="M163.69 824.102L163.188 823.807C154.146 834.006 144.857 842.613 131.765 847.44C122.882 850.713 113.518 853.319 105.314 858.051C103.091 859.331 100.438 862.087 98.1523 862.783C107.905 851.459 129.111 849.555 141.477 841.444C146.799 837.947 151.404 834.924 155.919 830.203C158.675 827.314 162.08 822.582 165.034 820.344C164.672 822.905 165.107 822.253 163.69 824.102Z" fill="#6A6B6C"/>
<path d="M148.336 845.651C141.895 846.185 132.476 853.4 123.027 854.191C130.051 852.242 142.373 846.246 149.501 842.973C149.211 845.266 149.751 844.504 148.336 845.651Z" fill="#98999A"/>
<path d="M112.114 830.645C116.121 831.073 118.455 831.313 122.462 831.218C108.831 834.124 110.542 831.842 97.5625 839.842L97.6299 838.968C100.288 834.581 109.512 833.701 113.029 831.507L112.114 830.645Z" fill="#B7B8B9"/>
<path d="M153.703 763.762C161.327 765.259 166.777 766.909 175.014 765.866C176.6 765.665 176.562 765.643 178.139 765.913C177.698 766.035 177.254 766.151 176.809 766.26C169.442 768.05 160.334 767.732 153.703 763.762Z" fill="#98999A"/>
<path d="M84.6602 880.408C85.8475 877.463 86.6012 875.164 88.4431 872.559L89.6059 873.115C87.7456 876.322 87.0509 877.53 84.6602 880.408Z" fill="#141415"/>
<path d="M826.551 429.655C819.142 423.408 811.52 410.657 807.347 401.484C790.189 363.759 789.955 310.324 818.013 277.576C835.227 257.489 861.605 245.22 887.997 243.275C909.783 241.466 931.362 248.646 947.728 263.147C973.824 285.91 979.56 324.115 971.8 356.247C959.551 406.995 911.566 437.34 861.584 440.518C856.661 440.83 845.114 440.406 840.714 438.266L837.499 441.918L837.279 439.463C835.97 437.179 834.538 436.771 832.183 435.55L826.551 429.655Z" fill="#E73337"/>
<path d="M826.551 429.656C828.974 429.981 836.576 436.063 840.714 438.267L837.499 441.92L837.278 439.464C835.97 437.18 834.538 436.773 832.183 435.552L826.551 429.656Z" fill="#070708"/>
<path d="M928.951 281.308C932.222 279.943 935.981 281.469 937.379 284.729C938.783 287.989 937.296 291.767 934.053 293.2C931.919 294.141 929.454 293.864 927.581 292.478C925.715 291.091 924.73 288.806 925.013 286.495C925.295 284.185 926.803 282.204 928.951 281.308Z" fill="white"/>
<path d="M832.188 435.547C834.543 436.768 835.975 437.176 837.283 439.459L837.504 441.915L837.517 442.598C837.621 447.317 839.803 453.357 837.462 456.232C835.101 457.2 836.319 456.994 833.655 456.699L826.797 450.201C810.533 476.922 804.812 508.194 783.508 535.447C761.64 563.418 738.043 577.898 705.62 591.465C681.238 601.664 658.316 607.573 639.175 627.469C613.671 653.863 614.773 693.353 584.428 716.701C561.08 734.67 534.412 737.851 509.459 751.729C503.724 754.92 500.143 760.597 495.351 764.833L495 764.258C501.383 746.987 536.685 738.631 551.977 732.195C562.54 727.746 575.526 721.747 584.422 714.531C614.132 690.422 612.032 652.876 638.211 626.17C657.903 606.08 679.957 600.018 705.082 589.765C737.437 576.564 765.089 559.121 785.312 529.927C803.104 504.237 810.313 476.449 825.11 449.358L818.913 446.114C817.329 445.262 817.921 445.875 817.123 444.294C818.397 441.371 828.243 437.722 832.188 435.547Z" fill="#141415"/>
<path d="M832.186 435.547C834.541 436.768 835.974 437.176 837.282 439.459L837.502 441.915L837.516 442.598C837.619 447.317 839.802 453.357 837.461 456.232C835.099 457.2 836.318 456.994 833.653 456.699L835.223 455.52C828.95 451.312 829.46 449.53 821.356 445.941L818.911 446.114C817.328 445.262 817.92 445.875 817.121 444.294C818.395 441.371 828.241 437.722 832.186 435.547Z" fill="#E73337"/>
<path d="M832.186 435.547C834.541 436.768 835.974 437.176 837.282 439.459L837.502 441.915L837.516 442.598C837.619 447.317 839.802 453.357 837.461 456.232C835.099 457.2 836.318 456.994 833.653 456.699L835.223 455.52L836.6 454.115C836.951 451.015 835.712 448.033 834.789 444.957C832.889 443.154 830.954 441.089 829.116 439.204C825.886 440.566 821.156 441.447 819.827 444.324L821.356 445.941L818.911 446.114C817.328 445.262 817.92 445.875 817.121 444.294C818.395 441.371 828.241 437.722 832.186 435.547Z" fill="#67181A"/>
</svg>
