<svg width="1350" height="1350" viewBox="0 0 1350 1350" fill="none" xmlns="http://www.w3.org/2000/svg">
<g clip-path="url(#clip0_1835_9419)">
<path d="M637.018 1341.57V1350H621.129C623.934 1346.67 626.412 1345.28 630.052 1343.14C631.935 1342.58 635.006 1342.01 637.018 1341.57Z" fill="white"/>
<path d="M619.535 1350C622.394 1345.95 624.449 1344.59 628.77 1342.28L630.054 1343.14C626.414 1345.28 623.936 1346.67 621.131 1350H619.535Z" fill="#404041"/>
<path d="M637.019 1340.24V1341.57C635.008 1342.01 631.936 1342.58 630.053 1343.14L628.77 1342.28C632.16 1340.96 633.513 1340.78 637.019 1340.24Z" fill="#0F0F0F"/>
<path d="M368.012 229.702L368.283 229.364C373.603 222.791 381.113 216.475 387.982 211.559C427.92 182.98 476.028 186.417 513.76 217.314C521.255 223.103 536.037 241.896 538.019 251.105C544.636 269.281 549.873 285.93 549.891 305.654C549.893 307.929 549.809 313.782 549.266 315.859C547.767 355.782 521.632 391.136 493.338 417.031C478.323 430.772 458.684 440.187 438.832 444.072C441.717 448.066 446.571 460.824 442.444 464.497C440.414 464.395 439.17 463.249 437.788 461.784L437.253 461.481C435.995 460.921 435.51 460.587 434.404 459.841L433.173 460.13L432.24 459.898C429.831 459.129 428.412 460.661 425.067 459.025L423.686 458.823C421.499 459.548 421.591 458.928 419.82 457.951L420.075 458.337L419.323 457.331C419.764 454.394 428.131 446.229 428.613 443.611C395.639 434.462 362.76 393.654 351.196 362.621C340.843 334.837 333.37 295.486 346.141 267.625C351.085 252.886 358.076 241.53 368.012 229.702Z" fill="#EA353A"/>
<path d="M346.141 267.629L347.712 267.646C346.872 270.193 343.346 279.432 344.06 281.16C345.074 284.049 342.449 292.704 342.631 296.494C343.007 300.412 342.551 305.129 342.465 309.155C342.404 314.47 342.69 319.783 343.322 325.06C349.201 371.344 383.116 422.99 426.602 441.402C427.738 440.552 426.915 439.168 428.355 439.637C439.601 443.301 454.438 439.985 464.447 433.84C465.55 433.16 466.633 432.448 467.696 431.706C479.979 425.695 490.544 416.806 500.525 407.549C502.343 406.181 510.323 396.888 512.418 394.481C518.932 387.004 530.56 372.515 534.444 363.688C540.499 349.928 544.636 330.986 547.305 316.348C547.342 317.242 547.266 319.01 547.755 319.694L547.557 320.415L547.568 320.092L547.663 321.552C547.882 319.524 547.862 317.434 549.266 315.863C547.767 355.786 521.632 391.14 493.338 417.034C478.323 430.776 458.684 440.191 438.832 444.075C441.717 448.069 446.571 460.827 442.444 464.5C440.414 464.398 439.17 463.252 437.788 461.788L437.253 461.485C435.995 460.925 435.51 460.59 434.404 459.845L433.173 460.134L432.24 459.902C429.831 459.133 428.412 460.664 425.067 459.028L423.686 458.827C421.499 459.551 421.591 458.931 419.82 457.955L420.075 458.341L419.323 457.334C419.764 454.398 428.131 446.232 428.613 443.615C395.639 434.466 362.76 393.658 351.196 362.624C340.843 334.84 333.37 295.49 346.141 267.629Z" fill="#68232A"/>
<path d="M435.696 447.504L438.537 445C438.271 450.51 444.598 456.326 442.045 461.555C440.542 462.5 439.968 462.458 438.247 462.693C437.762 463.443 437.528 463.715 437.189 464.555C435.507 463.806 434.857 463.359 433.379 462.361L431.732 462.748L430.484 462.438C427.261 461.409 425.364 463.458 420.889 461.269L419.041 461C418.732 458.782 418.088 458.754 418.574 456.959C420.506 452.803 422.415 450.357 425.305 446.966C428.128 447.513 433.229 448.847 435.696 447.504Z" fill="#EA353A"/>
<path d="M435.698 447.504L438.539 445C438.273 450.51 444.6 456.326 442.048 461.555C440.545 462.5 439.971 462.458 438.249 462.693C437.764 463.443 437.53 463.715 437.191 464.555C435.509 463.806 434.859 463.359 433.381 462.361L431.734 462.748L430.486 462.438C427.263 461.409 425.366 463.458 420.891 461.269C426.73 456.224 435.64 463.216 438.83 457.522C438.967 454.205 437.031 450.724 435.698 447.504Z" fill="#64131B"/>
<path d="M425.305 446.965C428.128 447.512 433.229 448.846 435.696 447.503C437.029 450.724 438.965 454.204 438.827 457.521C435.638 463.216 426.727 456.223 420.889 461.268L419.041 460.999C418.732 458.781 418.088 458.753 418.574 456.958C419.331 457.349 434.406 458.303 434.861 458.153C435.883 456.995 435.767 455.218 435.901 453.554C433.899 449.34 429.013 451.354 425.305 446.965Z" fill="#AD3342"/>
<path d="M344.064 281.152C345.077 284.041 342.452 292.696 342.634 296.487C341.781 300.935 341.801 308.953 341.979 313.471L341.554 313.638C339.84 309.559 341.444 284.286 344.064 281.152Z" fill="#F7A5A9"/>
<path d="M438.539 445C442.355 446.555 447.117 464.304 442.509 466.19C440.933 465.311 439.508 463.862 437.907 464.96L437.191 464.555C437.53 463.715 437.764 463.443 438.249 462.693C439.971 462.458 440.545 462.5 442.048 461.555C444.6 456.326 438.273 450.51 438.539 445Z" fill="#E4CDD3"/>
<path d="M368.02 229.702L368.291 229.364C373.611 222.791 381.12 216.475 387.99 211.559C427.928 182.98 476.035 186.417 513.767 217.314C513.372 220.685 514.713 220.613 516.573 223.206L516.209 222.965C510.868 219.388 506.017 214.281 500.578 210.552C479.245 195.924 454.032 190.704 428.722 195.731C425.129 196.445 410.115 200.966 407.119 202.428C394.885 208.397 378.661 219.823 370.312 230.442L368.02 229.702Z" fill="#68232A"/>
<path d="M538.024 251.102C544.641 269.278 549.877 285.927 549.895 305.651C549.898 307.926 549.813 313.779 549.271 315.856C547.867 317.427 547.887 319.517 547.668 321.546L547.573 320.086L547.562 320.408L547.76 319.688C547.271 319.003 547.347 317.235 547.31 316.342C549.404 294.042 544.264 273.432 536.93 252.683L538.024 251.102Z" fill="#64131B"/>
<path d="M513.765 217.312C521.26 223.102 536.042 241.895 538.024 251.103L536.93 252.684L536.075 250.623C535.967 250.557 519.438 226.109 517.778 223.633C517.187 223.03 517.555 223.222 516.57 223.205C514.71 220.611 513.369 220.684 513.765 217.312Z" fill="#6E4B4E"/>
<path d="M517.777 223.641C525.346 229.372 532.515 241.985 536.074 250.631C535.967 250.565 519.437 226.116 517.777 223.641Z" fill="#E4CDD3"/>
<path d="M346.148 267.626C351.092 252.886 358.084 241.531 368.019 229.703L370.312 230.443C364.281 238.375 350.262 258.389 347.72 267.643L346.148 267.626Z" fill="#75191F"/>
<path d="M500.524 407.547C490.544 416.804 479.979 425.693 467.695 431.704C468.807 429.448 493.661 414.554 496.454 410.438C496.952 409.704 499.448 407.715 500.524 407.547Z" fill="#F7A5A9"/>
<path d="M492.485 235.066C499.411 234.896 506.396 240.824 509.681 246.577C513.64 253.51 517.247 263.223 508.807 268.178C499.979 268.651 493.612 258.865 490.136 251.792C487.015 245.442 484.736 238.65 492.485 235.066Z" fill="#F7A5A9"/>
<path d="M498.071 239.065C505.522 238.818 514.067 256.845 508.875 262.884C507.441 264.552 506.535 264.438 504.573 264.826C499.339 260.884 484.905 240.542 498.071 239.065Z" fill="#FCE3E4"/>
<path d="M516.695 289.28C515.8 290.834 515.293 291.348 513.596 291.397C510.347 289.066 509.825 283.939 513.923 282.148C517.116 282.543 517.152 284.787 517.084 287.474C517.319 288.1 517.167 288.806 516.695 289.28Z" fill="#FBA7A7"/>
<path d="M516.696 289.278C516.16 289.816 515.335 289.937 514.668 289.575C514 289.212 513.652 288.454 513.812 287.713C513.971 286.971 514.601 286.423 515.358 286.368C516.115 286.312 516.818 286.762 517.085 287.472C517.32 288.098 517.168 288.804 516.696 289.278Z" fill="#F7A5A9"/>
<path d="M430.139 458.5V462C429.072 476 432.353 452.2 430.139 468.257C420.894 534.653 413.96 601.322 406.915 667.971C404.192 693.728 397.838 719.505 396.892 745.53C396.688 751.12 392.135 777.203 392.901 779.066C397.207 780.253 397.402 775.888 402.171 780.445C402.981 783.451 402.443 784.389 401.252 787.427C402.373 788.563 405.996 791.696 406.336 792.609C408.79 799.182 405.568 802.424 409.423 808.499C412.399 813.19 395.951 827.549 392.893 831.283C393.385 850.16 396.653 868.872 402.594 886.804C411.777 914.157 425.98 940.731 428.08 970.094C428.722 979.079 428.59 989.086 426.626 998.021C421.165 1022.85 385.898 1007.5 399.398 1028.5C398.481 1027 401.267 1033.57 397.898 1027C387.898 1007.5 419.816 1022.81 425.112 995.8C432.631 957.439 411.48 919.882 399.784 884.654C396.135 873.728 393.24 856.548 391.623 844.786C388.788 857.927 387.566 870.116 383.83 883.46C378.574 902.223 370.227 917.718 361.075 934.707C363.316 939.04 363.956 941.771 364.787 946.641C358.404 957.681 348.629 963.667 342.601 977.35C346.025 991.167 355.033 1026.97 357.39 1038.83C361.401 1059.02 379.448 1165.83 374.125 1180.57L373.527 1180.42C372.976 1177.95 373.248 1176.88 373.598 1174.38C368.373 1170.39 368.735 1112.94 362.264 1103.72C362.015 1103.37 359.803 1087.59 360.159 1086.62C361.463 1087.16 364.6 1109.93 367.062 1112.58C366.379 1103.7 364.144 1091.15 362.774 1082.14C356.326 1039.41 346.515 997.242 333.433 956.054L334.208 954.765C336.084 959.443 337.637 963.457 339.188 968.243L340.716 973.387L341.714 973.84C342.001 973.342 343.518 970.624 343.744 970.362C348.936 962.385 356.273 954.841 362.604 947.585C353.617 937.885 339.377 912.453 337.116 899.313C325.102 914.042 320.217 922.115 302.329 928.906C320.699 943.711 287.788 963.24 259.003 939.493C251.715 943.469 244.651 946.105 237.22 950.636C228.424 957.158 207.275 978.582 199.085 987.216C201.354 988.429 203.194 990.05 204.765 992.073C213.804 1003.69 225.826 1011.28 236.298 1021.18C240.673 1015.38 245.733 1005.99 249.75 999.335C250.202 1001.9 243.204 1015.51 241.119 1018.35C239.559 1022.6 232.946 1022.48 231.099 1024.79C218.761 1040.22 209.432 1063.92 194.762 1077.23C172.261 1097.62 142.419 1113.28 125.415 1139.39C160.042 1138.52 172.547 1148.52 196.763 1170.11C218.238 1189.25 252.287 1197.65 280.872 1193.92L281.708 1194.64C281.483 1195.01 280.794 1196.07 280.685 1196.41C280.451 1198.82 280.262 1199.69 279.621 1202.03L279.135 1201.06C274.252 1203.42 270.195 1203.23 264.891 1203.14C254.546 1223.22 224.824 1275.71 227.266 1297.44C227.814 1299.9 227.408 1303.08 228.033 1306.56C230.872 1322.38 234.767 1353.55 207.629 1341.06C196.574 1335.97 194.987 1319.77 193.431 1308.78C191.968 1298.43 186.963 1290.51 193.857 1279.46C195.845 1275.8 199.442 1273.11 202.609 1270.42C205.806 1255.74 205.403 1240.03 209.275 1224.88C212.113 1213.77 220.359 1202.73 222.192 1192.87L217.866 1190.78C209.678 1188.15 203.332 1183.42 195.308 1180.92C191.324 1179.67 184.833 1179.71 180.466 1179.02C162.91 1176.28 149.03 1165.35 136.316 1153.68C131.497 1149.3 126.861 1145.72 122.903 1140.45C133.126 1122.33 153.383 1103.97 171.181 1093.16C202.058 1074.4 209.824 1049.91 230.376 1022.88C227.574 1021.98 225.443 1021 222.782 1019.81C210.597 1031.72 201.458 1040.75 187.005 1050.37C179.246 1055.54 168.017 1061.19 161.221 1066.54C159.853 1071.08 150.701 1088.85 146.359 1090.47L145.001 1089.82C141.555 1084.51 145.634 1082.15 145.05 1077.19C137.366 1072.41 123.415 1089.14 117.106 1083.26C116.943 1080.59 117.771 1081.32 119.086 1078.36C117.244 1077.43 116.033 1079.93 113.512 1075.94C112.918 1070.08 122.177 1065.64 122.727 1063.52C120.778 1063.52 119.982 1063.63 118.136 1062.85L118.012 1061.95C124.182 1054.08 142.554 1055.3 148.244 1050.04C166.142 1033.45 184.249 1013.5 201.419 996.234C199.697 993.579 198.579 991.071 197.233 988.225C201.672 981.358 203.034 979.328 208.931 973.706L207.857 972.627C207.83 972.653 174.931 997.497 176.896 996.693C175.96 999.272 175.464 1000.8 174.071 1003.16L172.214 1003.78C172.058 1006.07 172.33 1008.02 172.565 1010.3L171.649 1010.59L172.58 1010.19L171.228 1010.03C166.824 1002.26 172.204 993.541 176.43 987.05L176.756 985.225C178.751 983.343 179.78 982.373 181.44 980.209L180.58 980.145L177.961 978.709C171.74 979.405 163.512 982.768 154.094 983.981C151.689 984.855 135.407 987.937 133.525 987.835L134.033 987.759C136.571 987.357 138.126 986.776 140.549 985.927L136.234 985.608C134.059 986.048 123.982 987.676 122.801 988.352C124.585 988.665 125.987 988.882 127.802 989.067C123.604 989.392 122.012 989.552 117.881 988.288C112.719 990.126 115.126 999.284 115.979 1002.86L114.893 1002.93C103.683 987.669 104.798 982.883 109.122 965.11C107.005 968.888 105.122 972.379 103.897 976.482C99.8048 990.197 104.505 990.899 109.542 1000.64C101.849 997.325 99.9152 987.982 100.17 980.522C99.829 979.45 99.4804 978.377 99.1235 977.312L99.8833 975.876C99.7058 972.455 101.243 972.359 100.398 968.326L100.324 969.915L99.2448 968.192L99.7154 967.809L100.045 967.988C96.8294 968.741 95.2396 972.347 90.0985 971.466C84.3483 974.389 84.9414 980.209 87.8542 985.117L87.6652 985.812C83.8209 983.138 84.5066 978.25 84.6062 974.102C83.3375 973.291 74.9414 973.081 68.7558 970.234C66.018 968.479 64.2966 966.092 62.5938 963.406L64.1676 962.984L62.9047 962.608C63.63 962.544 67.157 964.988 68.176 965.607C72.6474 967.554 83.2641 971.083 87.1787 967.426C87.7144 966.367 88.4601 965.307 89.121 964.312C89.1765 961.357 87.6307 956.845 86.8671 953.597C84.0916 929.812 104.621 912.217 123.662 902.542L123.539 901.725C103.251 904.776 87.7546 906.614 76.7828 926.066L76.2893 925.357C78.0394 921.228 80.8845 916.888 83.2641 913.015L79.1931 915.599C78.667 916.206 75.8596 919.511 75.4561 919.818C73.7826 920.954 71.825 923.207 71.0926 925.006L68.7136 930.029L67.3792 928.854C73.7819 916.678 72.3096 910.858 83.3988 900.755C95.751 889.504 108.5 889.166 121.769 881.01C122.786 880.959 123.986 880.161 124.934 879.638C130.552 876.881 135.726 873.128 140.828 869.522C143.966 865.961 146.74 861.411 149.344 857.384L148.51 857.18C127.879 878.993 113.583 875.821 89.1369 863.619L89.9254 862.86C93.9741 865.023 98.6836 866.727 102.994 868.406L105.612 867.225C98.0438 864.321 92.1416 860.135 92.7099 851.27L93.4416 852.119C94.317 870.914 122.257 870.186 134.515 863.339C149.888 854.749 150.337 851.226 155.637 835.635C162.594 817.562 164.136 811.588 175.543 795.557C177.252 793.63 180.587 791.122 182.666 788.779C194.113 775.907 204.368 768.453 222.109 766.883C230.34 766.15 236.5 771.127 244.24 769.634L244.548 769.577C245.441 768.415 246.823 767.656 248.071 766.826C261.477 757.738 289.777 761.07 299.155 775.441C300.355 777.286 302.612 781.925 304.233 782.819C320.125 791.46 331.017 807.536 326.126 826.049C325.015 828.506 325.505 828.443 323.563 829.623C323.004 829.451 322.192 829.266 321.773 828.934C321.248 827.134 321.014 825.418 319.652 824.275C318.655 840.919 338.174 849.215 338.975 869.854C342.706 889.44 325.657 900.219 320.411 916.237C325.293 911.355 332.611 901.176 336.913 897.705C339.891 897.858 337.838 899.275 339.895 899.823C350.65 884.577 356.09 865.61 362.997 848.462C368.073 835.865 374.809 823.72 371.162 809.916C370.086 805.844 371.31 798.339 373.207 794.581C375.535 789.615 380.628 788.314 385.551 786.693C386.39 781.313 386.435 779.979 390.764 776.814C394.842 756.232 394.311 735.089 397.835 715.127C406.021 668.765 409.288 622.111 414.772 575.444L430.139 458.5Z" fill="#0F0F0F"/>
<path d="M244.417 810.951C244.524 809.362 246.991 796.962 247.443 795.156L245.957 792.884C246.781 791.078 248.529 790.382 250.334 789.317C250.294 787.74 250.186 787.287 250.684 785.826L251.732 785.5L252.24 787.402C253.697 784.447 252.742 782.801 251.707 779.699L252.742 779.757C253.314 781.078 253.906 782.392 254.519 783.694L255.948 783.292L255.238 782.131C256.011 780.874 256.063 780.548 257.351 780.025L258.256 780.969C260.698 782.571 261.338 782.992 263.282 785.137C265.52 783.784 265.401 783.35 267.567 783.471L268.145 784.23L275.633 786.981C277.123 785.749 276.153 784.99 277.732 784.358L278.479 785.628C281.686 786.515 283.929 787.026 286.921 788.583C289.462 787.951 290.895 786.994 292.851 787.689L294.409 789.668C297.419 791.072 299.321 792.571 301.657 794.971L303.639 796.247L303.984 795.833C305.981 797.179 307.288 797.983 309.01 799.687L310.065 799.834L313.71 805.456C313.738 805.635 319.826 816.248 320.487 817.326C321.054 817.473 321.905 817.735 322.456 817.805C322.968 822.164 322.971 824.659 321.781 828.935C321.256 827.135 321.022 825.419 319.66 824.276C318.663 840.92 338.182 849.217 338.983 869.855C338.565 868.866 338.134 867.877 337.693 866.894L336.793 866.881C337.887 897.444 317.362 915.837 289.272 923.648L286.426 923.922C284.568 923.98 283.376 924.541 281.577 924.599C275.284 924.797 269.019 924.439 262.737 924.107C253.83 920.623 246.48 920.24 237.561 914.522C235.423 917.298 234.366 917.598 231.106 919.047C225.274 919.512 221.16 918.594 215.598 917.081C215.331 916.647 212.869 914.235 212.347 913.705L211.294 913.303C209.101 908.249 214.931 902.735 217.978 898.899L217.971 897.719L219.106 896.902L220.394 894.381C221.213 890.762 223.124 886.257 224.178 881.681C224.598 880.494 225.04 879.313 225.504 878.139L225.314 878.688L226.326 878.72L226.443 879.09L225.054 879.364L226.526 879.249L226.476 878.739L227.022 879.007L226.478 878.413L227.281 878.554L227.947 877.278C227.79 874.999 228.218 869.402 228.18 866.492C228.177 863.767 228.128 862.076 228.587 859.396L228.47 855.618L226.931 854.45L225.042 855.215C224.814 854.494 224.615 854.054 224.317 853.365L222.887 853.792L222.527 853.352C225.074 846.932 232.441 833.256 237.09 828.463C238.981 824.844 242.773 815.004 244.417 810.951Z" fill="white"/>
<path d="M244.413 810.951C244.521 809.362 246.988 796.962 247.44 795.156L245.954 792.884C246.778 791.078 248.526 790.382 250.331 789.317C250.291 787.74 250.183 787.287 250.681 785.826L251.729 785.5L252.237 787.402C253.694 784.447 252.739 782.801 251.704 779.699L252.739 779.757C253.311 781.078 253.903 782.392 254.516 783.694L255.944 783.292L255.235 782.131C256.008 780.874 256.059 780.548 257.348 780.025L258.253 780.969C261.268 784.792 263.318 787.16 264.681 791.965C264.393 793.222 263.905 794.626 264.238 795.826C264.674 801.308 265.049 808.111 264.545 813.619L264.246 816.388C263.504 819.771 263.162 821.909 261.288 824.927C259.784 828.271 259.011 829.401 256.92 832.356C261.479 819.228 263.87 807.779 258.435 794.065C256.975 811.181 253.876 821.526 245.63 837.046C242.087 843.186 234.245 854.884 228.584 859.396L228.467 855.618L226.928 854.45L225.039 855.215C224.81 854.494 224.612 854.054 224.314 853.365L222.884 853.792L222.523 853.352C225.07 846.932 232.438 833.256 237.087 828.463C238.978 824.844 242.77 815.004 244.413 810.951Z" fill="#1B1B1B"/>
<path d="M244.411 810.949C244.906 813.464 243.537 816.355 243.146 818.888C241.366 830.401 237.053 843.656 227.191 850.848C229.432 843.88 235.003 836.591 237.085 828.461C238.976 824.843 242.768 815.002 244.411 810.949Z" fill="#E5E4E5"/>
<path d="M239.446 842.549C241.589 840.118 243.098 837.622 244.841 834.91L245.628 837.048C242.084 843.187 234.243 854.885 228.582 859.397L228.465 855.619C230.267 854.196 238.05 844.579 239.446 842.549Z" fill="#E5E4E5"/>
<path d="M252.866 802.477L254.729 801.902C253.279 812.713 251.101 817.531 246.022 827.353L245.52 827.021C249.037 817.448 250.389 812.509 252.866 802.477Z" fill="#E5E4E5"/>
<path d="M245.519 827.023L246.021 827.355L246.035 827.655C246.246 831.784 247.371 830.744 244.839 834.911C243.096 837.624 241.587 840.119 239.444 842.55C239.324 839.455 243.823 829.857 245.519 827.023Z" fill="#302F30"/>
<path d="M261.287 824.93C261.108 822.684 262.707 813.775 263.096 810.743L263.56 810.73L263.705 813.309L264.545 813.621L264.246 816.391C263.504 819.774 263.162 821.911 261.287 824.93Z" fill="#656566"/>
<path d="M254.743 790.734C256.092 794.034 256.48 798.686 254.73 801.903L252.867 802.477C254.136 796.721 254.546 796.708 254.743 790.734Z" fill="#404041"/>
<path d="M249.601 798.406C250.457 801.706 249.13 805.962 247.926 809.032C246.854 806.173 248.67 801.355 249.601 798.406Z" fill="#A2A2A3"/>
<path d="M275.629 786.982C277.118 785.751 276.148 784.991 277.728 784.359L278.474 785.629C281.681 786.516 283.924 787.027 286.916 788.584C289.458 787.952 290.89 786.995 292.846 787.691L294.405 789.669C297.415 791.073 299.317 792.573 301.652 794.972L303.634 796.249L303.98 795.834C305.976 797.18 307.284 797.985 309.005 799.688L310.06 799.835L313.706 805.458C313.733 805.636 319.822 816.249 320.483 817.328C321.049 817.475 321.9 817.736 322.452 817.807C322.964 822.165 322.966 824.661 321.777 828.936C321.251 827.137 321.017 825.42 319.655 824.278C318.658 840.922 338.177 849.218 338.979 869.857C338.56 868.868 338.13 867.878 337.689 866.896L336.788 866.883C336.454 866.111 336.174 863.941 336.016 862.99C334.314 857.457 330.838 851.528 327.257 847.01C313.173 829.836 316.956 811.578 296.921 798.163C291.029 794.219 282.359 790.831 275.629 786.982Z" fill="#1B1B1B"/>
<path d="M278.473 785.633C281.68 786.52 283.923 787.03 286.915 788.588L289.435 790.196L288.969 790.636C284.824 789.494 281.969 788.109 278.473 785.633Z" fill="#BBBBBC"/>
<path d="M294.406 789.668C297.416 791.072 299.318 792.572 301.654 794.971C297.899 793.797 296.564 792.948 294.406 789.668Z" fill="#BBBBBC"/>
<path d="M307.406 804.09C310.002 805.36 311.522 807.951 313.135 810.287C310.894 809.055 309.018 806.189 307.406 804.09Z" fill="#656566"/>
<path d="M327.258 847.008C330.839 851.526 334.315 857.455 336.017 862.988C321.181 876.817 303.963 858.948 319.597 849.095C320.138 848.75 325.256 847.952 327.258 847.008Z" fill="#FBA7A7"/>
<path d="M319.973 852.078C324.528 852.461 329.258 853.584 329.194 858.99C328.094 861.3 327.432 861.721 325.445 863.368C323.823 862.634 321.052 862.327 320.293 861.81C316.239 859.047 317.576 854.861 319.973 852.078Z" fill="#F7A5A9"/>
<path d="M227.947 877.277C230.455 884.942 228.209 895.076 225.145 902.345C227.265 904.745 230.325 908.191 227.1 911.318C225.605 911.969 222.796 911.809 221.655 910.622C223.767 910.393 225.752 910.463 227.25 909.046C227.351 906.966 226.296 905.67 224.601 904.426C219.182 907.604 219.578 909.684 212.818 913.105L212.347 913.705L211.294 913.303C209.101 908.248 214.931 902.734 217.978 898.899L217.971 897.718L219.106 896.901L220.394 894.381C221.213 890.762 223.124 886.257 224.178 881.681C224.598 880.494 225.04 879.313 225.504 878.139L225.314 878.688L226.326 878.72L226.443 879.09L225.054 879.364L226.526 879.249L226.476 878.739L227.022 879.007L226.478 878.413L227.281 878.554L227.947 877.277Z" fill="#656566"/>
<path d="M217.978 898.902C218.245 899.738 218.491 900.568 218.828 901.378L220.772 901.155L222.015 902.693C220.003 906.248 215.48 909.662 212.818 913.108L212.347 913.708L211.294 913.306C209.101 908.252 214.931 902.738 217.978 898.902Z" fill="#E5E4E5"/>
<path d="M227.572 879.621C227.782 884.944 227.696 895.416 224.653 899.896L223.31 900.547C221.819 899.89 221.712 899.66 220.88 898.237L219.475 898.218L219.102 896.903L220.39 894.382L223.504 890.253L224.083 890.387L223.36 893.636L223.744 893.674C225.573 889.456 226.557 884.171 227.572 879.621Z" fill="white"/>
<path d="M263.277 785.142C265.516 783.789 265.396 783.355 267.563 783.476L268.14 784.236C274.605 794.46 291.814 799.163 301.235 804.741L300.731 804.97C287.489 801.148 275.69 793.643 265.619 784.446C269.42 792.258 271.013 796.527 271.493 805.436C271.737 809.948 270.04 821.014 267.219 824.007C270.428 805.347 273.206 803.324 263.277 785.142Z" fill="#404041"/>
<path d="M264.68 791.969C269.041 803.609 267.828 815.499 264.449 827.235L264.706 827.082C263.859 830.196 262.542 831.364 260.414 833.725C262.404 828.601 265.17 821.874 265.697 816.488L264.244 816.392L264.544 813.622C265.047 808.115 264.672 801.312 264.237 795.83C263.903 794.63 264.392 793.226 264.68 791.969Z" fill="#656566"/>
<path d="M264.234 795.828C266.646 799.491 267.222 812.44 265.695 816.486L264.242 816.39L264.541 813.621C265.045 808.113 264.67 801.31 264.234 795.828Z" fill="#E5E4E5"/>
<path d="M263.422 874.221C267.063 874.029 271.899 873.397 274.975 875.65C283.381 881.815 275.083 893.398 268.1 896.685C265.488 897.91 263.409 898.242 260.606 898.72C241.207 896.391 242.912 877.437 263.422 874.221Z" fill="#FBA7A7"/>
<path d="M260.971 854.371C266.979 855.488 271.216 862.655 266.267 868.29C258.436 867.071 255.524 860.689 260.971 854.371Z" fill="#1B1B1B"/>
<path d="M303.099 859.896C301.195 859.156 296.236 862.493 292.098 859.5C290.812 856.545 291.587 853.329 294.16 851.363C297.373 851.536 296.99 853.75 300.579 854.056C303.874 855.85 306.347 858.466 304.581 862.48L303.897 862.857C303.24 861.523 303.263 861.396 303.099 859.896Z" fill="#FCE3E4"/>
<path d="M300.579 854.059C303.875 855.852 306.347 858.468 304.581 862.483L303.897 862.859C303.24 861.525 303.264 861.398 303.1 859.898C303.183 859.63 303.125 858.66 303.116 858.315C301.126 856.452 299.98 856.816 296.927 856.356L296.746 855.839L297.634 855.067L297.492 856.024L298.16 854.71L300.579 854.059Z" fill="#030303"/>
<path d="M307.306 834.105C313.533 836.416 317.703 842.459 311.779 847.858C305.548 845.101 301.527 839.983 307.306 834.105Z" fill="#1B1B1B"/>
<path d="M308.092 883.445L309.042 884.734C309.258 889.904 303.156 891.563 298.944 891.761C297.375 890.089 297.457 890.657 297.129 888.672C299.729 886.03 302.156 888.704 308.092 883.445Z" fill="#0F0F0F"/>
<path d="M253.215 837.879L254.047 838.262C254.393 840.342 249.075 843.533 246.876 849.283C246.189 849.315 246.359 849.213 245.562 848.754C245.607 844.407 249.89 840.183 253.215 837.879Z" fill="#0F0F0F"/>
<path d="M297.836 815.868C299.363 815.811 300.893 815.874 302.41 816.053C304.31 816.27 306.313 816.615 307.527 818.134L306.801 819.008C302.94 817.878 298.943 819.116 297.023 817.489L297.836 815.868Z" fill="#030303"/>
<path d="M235.801 1192.98C238.675 1193.62 241.579 1194.48 244.421 1195.27C248.532 1195.69 254.77 1196.83 258.425 1196.97C260.327 1197 263.472 1196.95 265.251 1197.15C261.194 1205.3 256.961 1213.36 252.556 1221.33C242.384 1239.92 232.63 1262.17 226.439 1282.56C225.678 1285.07 224.568 1294.48 223.891 1295.78L221.925 1293.89C215.08 1290.84 211.751 1291.93 204.7 1293.8C203.696 1289.69 203.32 1285.15 202.844 1280.92C202.649 1273.97 204.95 1268.64 205.987 1261.8C209.664 1237.56 209.408 1224.46 221.968 1202.72C226.025 1199.2 231.297 1196.19 235.801 1192.98Z" fill="white"/>
<path d="M258.422 1196.97C260.323 1197 263.469 1196.95 265.247 1197.15C261.19 1205.3 256.958 1213.36 252.552 1221.33C246.007 1219.5 239.618 1220.99 235.674 1217.59C233.323 1212.7 237.662 1211.97 238.198 1206.41C236.98 1203.86 237.518 1206.26 235.488 1204.81C236.733 1202.96 236.899 1203.39 239.459 1202.45L240.827 1203.3C245.329 1201.75 246.635 1199.63 250.603 1198.01C251.246 1198.77 251.977 1199.84 252.86 1200.15C255.815 1199.24 256.161 1199.07 258.422 1196.97Z" fill="#FCE3E4"/>
<path d="M240.832 1203.29C245.333 1201.74 246.639 1199.62 250.607 1198C251.251 1198.76 251.982 1199.83 252.864 1200.14L250.678 1201.02L250.649 1201.61L252.894 1201.83L252.579 1202.29L252.197 1201.65L252.057 1202.66C249.917 1203.81 247.358 1205.41 245.018 1205.67L245.006 1204.28C241.958 1203.68 240.037 1205.57 239.195 1204.67L240.832 1203.29Z" fill="#E4CDD3"/>
<path d="M222.376 862.449C223.482 863.592 223.944 864.166 224.872 865.461C225.579 864.613 225.68 864.517 226.23 863.502C226.802 864.549 226.836 864.664 227.182 865.812L228.178 866.495C228.215 869.405 227.788 875.002 227.945 877.281L227.279 878.557L226.475 878.417L227.02 879.01L226.474 878.742L226.523 879.253L225.052 879.367L226.44 879.093L226.324 878.723L225.312 878.691L225.502 878.142C225.038 879.316 224.596 880.497 224.176 881.684C223.121 886.26 221.211 890.765 220.392 894.384L219.103 896.905L217.969 897.722L217.976 898.902C214.929 902.738 209.099 908.252 211.292 913.306L212.344 913.708C212.867 914.238 215.329 916.65 215.596 917.084L215.49 918.207C218.028 919.554 219.68 920.186 219.859 923.383C217.852 926.299 216.156 924.838 213.24 923.46C211.945 924.991 210.716 926.906 208.923 927.416C207.675 926.714 208.054 927.212 207.628 925.974L207.515 926.465C206.906 926.555 206.652 926.574 206.128 926.919L206.568 924.111L205.525 923.836C204.307 924.953 200.78 928.884 200.176 929.229L197.332 931.245C193.827 929.841 194.246 928.118 191.293 926.912L190.729 927.333C190.845 929.324 191.262 929.28 189.856 930.665C187.729 932.752 186.032 935.119 182.83 934.015L181.77 935.202C182.353 936.504 182.226 936.127 183.562 937.072C182.671 938.068 182.74 938.112 181.483 938.393C179.655 939.095 177.829 939.733 176.088 940.627C172.131 943.556 166.117 946.345 161.548 948.406C159.677 949.229 154.076 951.335 153.47 953.237L150.452 952.005C147.864 952.35 147.098 952.803 144.724 953.933L143.141 952.918L141.564 953.524L141.247 953.218C140.685 952.893 139.498 951.903 138.926 951.45C133.911 952.165 132.73 953.997 127.302 954.507C126.214 953.307 125.684 953.18 124.317 953.837L124.547 956.281L123.527 956.785L122.589 955.362C118.352 953.805 115.149 960.564 111.046 961.763C110.862 961.821 110.297 961.068 108.794 961.431L108.551 961.183C111.676 954.214 117.544 948.866 123.915 944.877L124.58 945.305C125.901 946.664 127.123 947.896 128.505 949.197C129.899 947.404 130.132 946.938 132.316 946.23L133.441 946.823L142.792 941.744C144.776 940.231 147.117 938.699 149.19 937.27C150.733 935.936 151.393 935.521 152.175 933.575C152.576 933.128 153.244 930.703 153.516 930.492C156.395 928.265 159.24 925.929 162.334 924.015C163.725 924.155 163.334 924.085 164.793 923.383C169.157 917.812 178.008 912.489 183.27 904.435C183.32 904.001 186.427 898.947 187.037 898.609C189.629 897.422 191.682 894.492 194.026 892.342C196.982 887 201.739 882.865 204.195 876.164L204.658 875.73L205.263 874.919C203.764 874.772 214.443 874.23 213.221 874.428L215.775 870.867L216.304 869.31L216.936 869.399C217.305 871.007 217.434 872.398 218.497 873.592C220.354 870.114 221.409 866.24 222.376 862.449Z" fill="#1B1B1B"/>
<path d="M219.93 888.789C221.828 887.168 220.596 882.745 224.172 881.68C223.118 886.255 221.207 890.761 220.389 894.379L219.1 896.9L217.966 897.717L217.973 898.898C214.926 902.733 209.096 908.247 211.289 913.302C210.606 913.704 209.806 913.87 209.019 913.767C205.157 913.251 206.394 908.018 206.975 905.605L207.673 906.933C209.622 906.301 215.463 896.403 217.339 893.76C218.927 892.637 219.261 890.748 219.93 888.789Z" fill="#0F0F0F"/>
<path d="M204.197 876.161L204.659 875.727L205.772 877.188L207.764 876.946L207.971 877.635C206.599 879.753 199.898 890.328 198.098 890.941C197.685 890.22 197.566 890.194 197.397 889.422C196.348 891.26 195.887 891.541 194.027 892.338C196.983 886.997 201.74 882.861 204.197 876.161Z" fill="#302F30"/>
<path d="M162.331 924.008C161.428 925.667 160.212 927.358 160.293 929.139C156.876 931.966 153.509 934.857 150.191 937.799L149.188 937.263C150.731 935.929 151.39 935.514 152.173 933.568C152.574 933.121 153.242 930.696 153.514 930.485C156.392 928.258 159.237 925.922 162.331 924.008Z" fill="#302F30"/>
<path d="M207.68 906.932C208.12 902.982 213.467 893.058 216.761 890.844L217.498 891.176L217.345 893.76C215.47 896.402 209.628 906.301 207.68 906.932Z" fill="white"/>
<path d="M161.546 948.404C159.842 947.3 159.757 948.513 158.207 946.93C159.858 944.716 172.935 941.021 176.086 940.625C172.129 943.554 166.115 946.343 161.546 948.404Z" fill="#302F30"/>
<path d="M160.298 929.142C162.608 928.051 165.215 926.723 167.627 925.977C165.533 927.381 156.707 932.843 156.137 934.554L155.712 934.796C151.522 937.266 146.473 942.397 142.864 944.331L142.793 944.261L143.44 942.729L142.795 941.74C144.779 940.227 147.12 938.696 149.193 937.266L150.196 937.802C153.514 934.86 156.881 931.969 160.298 929.142Z" fill="#7F8081"/>
<path d="M183.267 904.435L184.547 904.391C183.931 907.314 168.99 922.113 164.789 923.383C169.154 917.812 178.004 912.489 183.267 904.435Z" fill="#A2A2A3"/>
<path d="M215.774 870.867C214.328 877.46 210.184 884.48 206.559 890.147L205.988 889.113C208.346 885.035 211.119 878.813 213.22 874.428L215.774 870.867Z" fill="#BBBBBC"/>
<path d="M205.991 889.109L206.562 890.143C205.506 892.128 205.084 892.958 203.678 894.745L203.402 894.138C203.437 892.383 204.931 890.673 205.991 889.109Z" fill="#656566"/>
<path d="M128.504 949.198C129.897 947.405 130.131 946.939 132.314 946.23L133.439 946.824C132.102 947.583 129.909 949.045 128.504 949.198Z" fill="#404041"/>
<path d="M163.805 935.837C164.39 934.95 180.338 924.165 182.908 922.441C178.074 929.142 172.963 932.359 165.126 935.856C164.815 935.996 164.205 935.996 163.805 935.837Z" fill="#E5E4E5"/>
<path d="M189.881 920.102C190.602 920.561 191.055 920.491 191.879 920.465C191.564 922.961 188.932 924.454 186.654 926.439C186.295 926.707 185.262 927.243 184.817 927.492C184.744 925.041 188.437 922.456 189.881 920.102Z" fill="#404041"/>
<path d="M203.791 905.867L203.778 906.786C200.697 911.126 198.145 913.621 193.934 916.742L193.84 916.078C195.781 913.385 201.182 908.401 203.791 905.867Z" fill="#A2A2A3"/>
<path d="M200.706 902.656C200.593 905.273 193.283 912.535 191.309 914.629C191.394 911.84 198.356 905.158 200.706 902.656Z" fill="#656566"/>
<path d="M99.7007 940.957L101.753 941.257C102.55 938.787 104.046 937.562 105.113 935.545C110.077 926.164 112.405 922.717 120.876 915.761C125.218 912.2 144.67 898.837 148.996 899.258L147.972 901.096C148.821 903.904 148.943 903.317 151.568 905.538C144.287 912.022 121.292 933.573 118.841 942.157C118.319 942.552 117.348 943.331 116.83 943.631C115.95 946.643 114.114 948.73 112.034 951.097C111.272 953.433 108.747 956.899 106.598 958.264L105.831 957.983L105.422 957.077L105.146 957.307C103.547 957.932 102.061 958.488 100.506 959.234C96.6602 965.674 92.5254 965.565 88.5719 969.796L88.1288 970.696L90.0985 971.468C84.3483 974.391 84.9414 980.211 87.8542 985.119L87.6652 985.815C83.8209 983.141 84.5066 978.252 84.6062 974.104C83.3375 973.294 74.9414 973.083 68.7558 970.237C66.018 968.482 64.2966 966.095 62.5938 963.408L64.1676 962.987L62.9047 962.61C63.63 962.546 67.157 964.991 68.176 965.61C72.6474 967.556 83.2641 971.085 87.1787 967.429C87.7144 966.369 88.4601 965.31 89.121 964.314C89.1765 961.359 87.6307 956.848 86.8671 953.599C84.0916 929.814 104.621 912.219 123.662 902.544L123.539 901.728C126.245 900.407 127.968 900.241 130.739 901.083C134.143 899.858 138.089 898.326 141.497 897.254C138.964 899.819 136.468 901.645 133.507 903.687C119.551 913.311 105.372 924.256 99.7007 940.957Z" fill="#1B1B1B"/>
<path d="M141.501 897.254C138.967 899.819 136.471 901.645 133.511 903.687C119.554 913.311 105.375 924.256 99.7042 940.957C98.6405 943.771 98.0084 945.513 96.5194 948.162L96.2091 948.155C96.7027 936.489 106.421 920.956 114.993 913.349C117.4 911.217 119.854 909.699 122.43 907.758C113.125 906.374 95.6536 935.577 95.0598 944.933C94.3486 956.139 98.9354 954.876 91.0227 963.919C88.2395 958.245 88.4662 954.461 88.5007 948.366C88.1597 949.808 87.7013 952.533 86.8706 953.599C84.0951 929.814 104.624 912.219 123.665 902.544L123.543 901.728C126.248 900.407 127.971 900.241 130.743 901.083C134.147 899.858 138.093 898.326 141.501 897.254Z" fill="white"/>
<path d="M123.543 901.725C126.248 900.404 127.971 900.238 130.743 901.08C108.274 911.055 92.3233 922.766 88.5007 948.363C88.1597 949.805 87.7013 952.53 86.8706 953.596C84.0951 929.811 104.624 912.216 123.665 902.542L123.543 901.725Z" fill="#302F30"/>
<path d="M100.508 959.232C104.21 949.161 110.307 941.56 116.873 933.309C112.909 940.054 109.231 949.608 105.423 957.075L105.147 957.304C103.548 957.93 102.062 958.485 100.508 959.232Z" fill="white"/>
<path d="M68.7558 970.237C66.018 968.482 64.2966 966.095 62.5938 963.408L64.1676 962.987L62.9047 962.611C63.63 962.547 67.157 964.991 68.176 965.61L67.9973 966.459C73.3056 969.637 75.9196 970.033 81.8396 971.028L75.3584 971.743C73.3899 971.035 71.4253 970.314 69.4658 969.586L68.7558 970.237Z" fill="#E5E4E5"/>
<path d="M68.7558 970.237C66.018 968.482 64.2966 966.095 62.5938 963.408L64.1676 962.987L62.9047 962.611C63.63 962.547 67.157 964.991 68.176 965.61L67.9973 966.459L65.9911 965.661C66.3698 967.116 68.215 968.641 69.4658 969.586L68.7558 970.237Z" fill="#656566"/>
<path d="M86.875 953.596C87.7057 952.531 88.1641 949.806 88.5051 948.363C88.4706 954.458 88.2439 958.242 91.0271 963.916C93.1558 963.239 95.3681 960.661 96.9912 959.046L97.3289 959.487C95.4531 962.767 90.8847 966.558 87.1866 967.426C87.7223 966.366 88.468 965.307 89.1289 964.311C89.1844 961.357 87.6386 956.845 86.875 953.596Z" fill="#656566"/>
<path d="M81.8446 971.028L85.1181 970.754C82.4626 972.311 78.3118 972.592 75.3633 971.743L81.8446 971.028Z" fill="#7F8081"/>
<path d="M112.039 951.1C113.065 947.813 114.006 945.694 116.835 943.633C115.955 946.645 114.119 948.732 112.039 951.1Z" fill="#BBBBBC"/>
<path d="M120.01 920.977L120.935 922.661C109.2 937.065 107.796 941.526 98.7881 955.79L98.3438 955.617C100.515 941.973 109.879 929.866 120.01 920.977Z" fill="white"/>
<path d="M143.159 907.039L143.568 907.448C143.393 908.322 128.176 923.268 126.093 925.629C125.294 922.7 140.412 909.305 143.159 907.039Z" fill="#656566"/>
<path d="M122.559 918.83C123.842 917.541 124.549 916.36 126.072 916.016C125.182 917.943 124.57 918.492 123.178 920.011L122.559 918.83Z" fill="#A2A2A3"/>
<path d="M122.555 918.832L123.175 920.013L120.934 922.661L120.008 920.976L122.555 918.832Z" fill="#E5E4E5"/>
<path d="M193.861 1279.46L197.651 1281.47C200.849 1279.75 197.056 1280.29 200.775 1279.44C201.368 1279.85 202.342 1280.46 202.846 1280.92C203.322 1285.15 203.698 1289.69 204.702 1293.8C211.753 1291.93 215.082 1290.84 221.927 1293.89L223.893 1295.77L227.27 1297.45C227.818 1299.9 227.412 1303.08 228.037 1306.56C230.876 1322.39 234.772 1353.56 207.634 1341.06C196.579 1335.97 194.992 1319.78 193.436 1308.78C191.972 1298.44 186.967 1290.52 193.861 1279.46Z" fill="#030303"/>
<path d="M209.177 1295.7L208.855 1295.54L207.963 1295.92L207.954 1297.69C206.505 1297.43 207.101 1297.77 206.125 1296.64C206.887 1295.74 207.457 1295.04 208.145 1294.09C211.156 1292.42 218.358 1293.53 221.929 1293.89L223.895 1295.77L223.167 1296.32C223.04 1297.29 223.139 1297.34 222.488 1298.05C220.065 1297.68 217.199 1295.93 214.962 1294.74L214.471 1295.56C211.962 1294.99 211.648 1294.98 209.177 1295.7Z" fill="#0A0A0A"/>
<path d="M209.176 1295.7C211.647 1294.99 211.961 1294.99 214.47 1295.57C214.848 1296.17 214.76 1296.25 214.904 1297.01L213.735 1297.42C211.416 1297.17 211.079 1297.15 209.176 1295.7Z" fill="#202021"/>
<path d="M206.593 1300.66C214.265 1299.88 216.795 1300.2 224.357 1301.88C224.89 1308.64 227.564 1316.21 220.189 1319.36C214.869 1319.22 213.657 1318.39 209.592 1314.93C206.171 1308.5 206.107 1307.95 206.593 1300.66Z" fill="white"/>
<path d="M209.589 1314.93C213.654 1318.38 214.866 1319.21 220.186 1319.36C218.998 1324.25 214.452 1324.24 213.999 1325.29L214.274 1326L213.885 1326.91C212.635 1325.7 213.069 1325.75 211.627 1325.5L210.796 1327.01C209.1 1326.54 208.721 1323.53 208.639 1321.98C208.453 1318.44 207.483 1318.55 205.578 1315.67L206.189 1315.02C207.564 1315.37 208.216 1315.25 209.589 1314.93Z" fill="#0F0F0F"/>
<path d="M194.092 1282.33C193.97 1287.55 193.875 1292.77 193.808 1297.99C192.17 1292.26 191.874 1287.88 194.092 1282.33Z" fill="#404041"/>
<path d="M226.704 1329.99C228.217 1334.08 225.23 1336.51 222.114 1338.37L221.988 1338.02C225.49 1333.86 225.012 1335.54 226.704 1329.99Z" fill="#656566"/>
<path d="M214.271 1326L216.262 1326.44L216.928 1327.85L216.089 1328.47C215.067 1327.85 214.801 1327.67 213.883 1326.91L214.271 1326Z" fill="#0C0C0D"/>
<path d="M125.676 1141.35C142.601 1139.61 166.578 1146.7 179.452 1157.75C189.144 1166.07 196.441 1172.59 207.179 1179.99C208.559 1182.59 209.575 1184.05 211.293 1186.46L211.013 1186.84C206.984 1185.03 199.484 1179.82 196.103 1179.38C189.858 1178.58 182.62 1178.05 176.576 1176.33L173.368 1175.4C164.791 1173.22 153.734 1166.22 147.122 1160.32C144.353 1158.65 138.46 1153.26 136.232 1150.79C133.108 1148.09 128.386 1144.24 125.676 1141.35Z" fill="white"/>
<path d="M173.368 1175.4L173.628 1174.46C170.485 1171.27 151.852 1151.57 151.32 1148.83C154.639 1149.22 156.504 1154.38 158.688 1156.84C164.541 1163.44 170.573 1169.86 176.576 1176.33L173.368 1175.4Z" fill="#BBBBBC"/>
<path d="M136.236 1150.79C135.621 1148.35 135.168 1147.81 133.513 1145.92L133.426 1145.12C136.708 1147.29 145.706 1156.7 147.126 1160.32C144.357 1158.65 138.463 1153.26 136.236 1150.79Z" fill="#E5E4E5"/>
<path d="M163.746 1156.66C165.937 1157.77 176.894 1170.95 178.302 1173.12C175.439 1171.24 164.009 1159.48 163.746 1156.66Z" fill="#A2A2A3"/>
<path d="M177.824 1163.38C180.601 1164.29 183.329 1168.55 185.134 1170.95C182.293 1169.86 179.646 1165.87 177.824 1163.38Z" fill="#A2A2A3"/>
<path d="M158.344 1163.9L158.899 1163.82C160.506 1164.81 162.613 1167.97 163.851 1169.61C161.414 1168.34 160.003 1166.1 158.344 1163.9Z" fill="#A2A2A3"/>
<path d="M158.867 1151.01C160.875 1151.91 162.651 1154.75 163.747 1156.66C160.76 1154.37 160.13 1154.35 158.867 1151.01Z" fill="#BBBBBC"/>
<path d="M170.312 1160.88C172.646 1161.86 173.94 1163.83 175.531 1165.81L175.253 1165.67C172.78 1164.46 172.013 1163.1 170.312 1160.88Z" fill="#A2A2A3"/>
<path d="M177.168 1169.15L177.444 1169.29C179.908 1170.53 180.65 1171.85 182.346 1174.08C180.098 1173 178.753 1171.07 177.168 1169.15Z" fill="#A2A2A3"/>
<path d="M290.793 925.04C292.473 924.497 293.712 924.689 295.678 924.127L297.202 924.714C297.652 926.482 297.442 927.235 297.231 929.022C297.869 931.268 298.167 933.062 299.754 934.772L302.103 935.206L302.516 934.791C300.642 933.221 300.424 933.553 299.892 931.581L300.474 930.7C304.416 930.93 305.697 935.902 305.037 938.939C301.719 954.217 270.962 948.448 263.873 940.892L263.469 939.763C264.566 939.284 264.99 939.022 265.812 938.148C266.673 935.499 266.795 934.919 267.008 932.143C266.035 928.486 265.049 927.044 262.734 924.108C269.016 924.44 275.281 924.797 281.574 924.599C283.373 924.542 284.566 923.98 286.424 923.923L289.269 923.648L290.793 925.04Z" fill="white"/>
<path d="M290.793 925.04C292.473 924.497 293.712 924.689 295.678 924.127L297.202 924.714C297.652 926.482 297.442 927.235 297.231 929.022L295.953 928.805L296.111 929.143L296.559 929.226C294.869 931.236 293.237 933.623 290.804 934.453L289.738 934.293L289.586 932.921L288.027 933.866C289.002 931.932 290.025 930.879 289.627 929.188C284.296 928.958 277.101 942.59 272.306 932.379C270.24 932.506 269.016 932.691 267.008 932.143C266.035 928.486 265.049 927.044 262.734 924.108C269.016 924.44 275.281 924.797 281.574 924.599C283.373 924.542 284.566 923.98 286.424 923.923L289.269 923.648L290.793 925.04Z" fill="#E5E4E5"/>
<path d="M286.427 923.923L289.273 923.648L290.797 925.04C289.121 925.895 282.928 927.446 280.969 927.286C281.7 926.137 284.964 924.701 286.427 923.923Z" fill="#7F8081"/>
<path d="M179.691 811.488C179.342 819.536 167.118 837.386 167.059 840.647L167.397 840.96C169.158 838.509 172.258 832.612 173.756 831.176C172.463 835.497 170.382 837.667 171.246 840.602C169.65 844.029 163.572 854.98 163.241 857.686C161.565 863.513 147.493 874.981 142.212 876.2C143.909 874.203 148.839 868.88 149.296 866.793C150.34 863.87 154.48 860.839 153.543 854.125C150.986 854.502 152.786 856.174 149.348 857.386L148.514 857.182C127.883 878.995 113.587 875.824 89.1406 863.621L89.9292 862.862C93.9778 865.026 98.6873 866.729 102.998 868.408L105.616 867.227C98.0475 864.323 92.1453 860.137 92.7136 851.273L93.4453 852.121C94.3207 870.916 122.26 870.188 134.519 863.341C149.892 854.751 150.34 851.228 155.64 835.637L156.546 837.258C154.908 841.304 153.665 844.674 152.931 848.982L153.437 848.86C154.57 846.627 156.106 842.555 158.141 841.54L160.168 842.319C160.848 840.43 161.661 839.045 162.622 837.29L163.174 838.305C164.753 831.361 174.896 817.155 179.691 811.488Z" fill="#404041"/>
<path d="M105.618 867.227C107.42 867.661 110.488 868.056 111.546 869.199C108.677 869.818 105.798 869.205 103 868.407L105.618 867.227Z" fill="#E5E4E5"/>
<path d="M160.172 842.318C160.852 840.429 161.665 839.044 162.625 837.289L163.178 838.304L159.942 844.903L159.465 845.043L160.172 842.318Z" fill="#656566"/>
<path d="M124.095 869.007C126.422 868.617 130.149 868.592 132.604 868.496C126.416 871.183 124.02 871.732 117.562 872.976C113.959 872.293 110.126 871.706 106.492 871.1C113.245 870.577 117.376 870.206 124.095 869.007Z" fill="white"/>
<path d="M248.074 766.831C261.48 757.743 289.78 761.074 299.158 775.446C300.358 777.29 302.615 781.93 304.236 782.824L303.683 784.24C304.633 785.3 304.67 785.325 306.038 785.797L306.487 786.959C306.618 788.395 307.607 788.299 307.551 790.29C306.156 790.061 294.734 777.208 284.082 775.038C282.164 774.259 281.85 772.632 279.435 772.632L278.856 773.806C273.854 773.161 269.794 772.204 264.868 771.062L257.391 771.54L255.693 772.734C256.075 773.71 256.397 774.54 256.711 775.542L256.677 776.289L257.772 776.92C255.868 779.097 252.594 778.439 249.869 778.248L248.179 778.58C243.692 776.991 244.917 775.491 242.852 773.915C243.181 772.849 244.234 772.14 245.118 771.374L244.551 769.581C245.444 768.42 246.826 767.66 248.074 766.831Z" fill="#302F30"/>
<path d="M249.348 768.549C250.967 767.023 253.188 766.028 255.256 765.243C273.986 758.146 292.403 765.747 302.518 782.084C292.694 775.575 282.902 768.58 270.924 766.979C266.451 766.379 257.389 765.524 253.325 767.821C251.686 768.351 250.605 769.078 249.348 768.549Z" fill="white"/>
<path d="M248.074 766.828L249.342 768.551C250.6 769.081 251.681 768.353 253.32 767.824C252.863 771.359 251.903 771.398 248.774 772.942L248.722 773.835C250.323 774.895 251.301 775.016 253.132 775.431L253.01 776.273C252.17 776.765 250.557 777.645 249.869 778.245L248.179 778.577C243.692 776.988 244.917 775.488 242.852 773.912C243.181 772.846 244.234 772.138 245.118 771.372L244.551 769.579C245.444 768.417 246.826 767.658 248.074 766.828Z" fill="#030303"/>
<path d="M267.789 770.137C271.693 770.769 275.905 771.075 278.856 773.806C273.853 773.162 269.794 772.204 264.867 771.062L267.789 770.137Z" fill="#E5E4E5"/>
<path d="M257.391 771.537C260.999 769.603 263.772 769.622 267.79 770.133L264.868 771.058L257.391 771.537Z" fill="#404041"/>
<path d="M175.551 795.56C177.259 793.633 180.594 791.125 182.674 788.783C194.121 775.911 204.375 768.457 222.117 766.887C230.347 766.153 236.507 771.131 244.247 769.637L244.555 769.58L245.122 771.373C244.239 772.139 243.186 772.847 242.856 773.913C240.779 774.737 238.706 775.7 236.5 775.943C233.795 774.788 234.537 774.979 232.757 771.948C228.734 772.599 218.183 775.573 215.099 775.732C216.167 781.137 204.63 782.529 200.867 785.298C199.726 786.134 193.412 790.142 192.952 790.283C194.728 788.655 200.775 783.665 201.147 781.954L200.452 781.278C199.468 781.814 196.575 783.658 195.76 783.792C189.799 784.877 181.127 792.778 177.342 797.36L175.551 795.56Z" fill="#404041"/>
<path d="M215.091 775.737C213.463 776.216 210.472 777.313 208.977 776.982C214.923 773.899 226.038 770.766 232.748 771.953C228.726 772.604 218.175 775.578 215.091 775.737Z" fill="#E5E4E5"/>
<path d="M220.399 768.185C227.63 767.496 231.466 768.14 238.276 770.367C216.591 771.133 216.921 770.789 196.111 781.434C192.965 782.71 187.543 786.201 184.426 788.096C195.193 775.55 204.269 770.355 220.399 768.185Z" fill="white"/>
<path d="M130.767 973.176C132.364 972.225 133.288 971.242 134.771 971.466C134.19 972.397 133.847 973.042 133.07 973.84L133.868 976.124C136.068 976.514 135.501 976.124 136.889 977.35C136.567 978.958 135.189 979.756 133.837 980.879L134.457 981.268C136.177 980.841 137.18 980.043 138.294 981.645L139.295 981.338C142.819 981.121 146.871 979.807 150.325 978.843C153.844 980.592 152.933 977.031 154.543 980.381L151.536 980.924C153.978 981.798 155.276 980.515 156.334 981.638C155.251 981.823 154.693 981.849 153.706 982.372C153.814 983.132 153.759 983.355 154.096 983.98C151.691 984.855 135.409 987.937 133.526 987.835L134.035 987.759C136.573 987.356 138.128 986.776 140.55 985.927L136.235 985.608C134.061 986.048 123.984 987.676 122.803 988.352C124.587 988.665 125.989 988.882 127.804 989.067C123.606 989.392 122.014 989.552 117.883 988.288L119.325 986.706L118.231 985.582C119.635 981.549 124.671 972.053 129.341 971.683L130.767 973.176Z" fill="#1B1B1B"/>
<path d="M130.053 983.175C132.376 983.079 134.818 983.621 136.235 985.612C134.061 986.053 123.984 987.68 122.803 988.357C124.587 988.669 125.989 988.886 127.804 989.071C123.606 989.397 122.014 989.556 117.883 988.293L119.325 986.71L120.116 985.517C123.062 985.185 127.505 984.572 130.053 983.175Z" fill="#404041"/>
<path d="M130.767 973.176C132.365 972.225 133.289 971.242 134.771 971.466C134.191 972.397 133.847 973.042 133.07 973.84C131.42 975.652 129.742 977.631 127.109 977.362C127.598 975.378 128.955 974.778 130.767 973.176Z" fill="white"/>
<path d="M120.121 985.515C120.937 984.462 121.837 983.709 122.814 982.809C124.977 981.909 127.683 982.719 130.058 983.172C127.51 984.57 123.067 985.183 120.121 985.515Z" fill="#E5E4E5"/>
<path d="M304.24 782.816C320.132 791.457 331.024 807.533 326.134 826.047C325.023 828.504 325.513 828.44 323.571 829.621C323.011 829.448 322.199 829.263 321.781 828.932C322.97 824.656 322.968 822.16 322.456 817.802C320.994 809.154 313.407 792.376 306.492 786.952L306.043 785.79C304.675 785.318 304.638 785.293 303.688 784.233L304.24 782.816Z" fill="white"/>
<path d="M304.24 782.816C320.132 791.457 331.024 807.533 326.134 826.047C328.146 811.318 321.007 791.177 306.043 785.79C304.675 785.318 304.638 785.293 303.688 784.233L304.24 782.816Z" fill="#656566"/>
<path d="M284.086 775.035C294.738 777.205 306.16 790.058 307.555 790.288C307.611 788.297 306.622 788.392 306.491 786.956C313.406 792.381 320.993 809.159 322.455 817.806C321.904 817.736 321.052 817.474 320.486 817.328C319.825 816.249 313.737 805.636 313.709 805.457L310.063 799.835C308.707 798.061 305.414 794.87 303.741 793.147L304.391 792.209C299.284 787.563 296.165 784.978 290.244 781.474L290.479 780.74C287.791 779.132 287.416 777.313 284.086 775.035Z" fill="#101010"/>
<path d="M304.388 792.211C308.125 795.612 313.461 800.201 313.706 805.46L310.061 799.837C308.704 798.063 305.411 794.872 303.738 793.149L304.388 792.211Z" fill="#7F8081"/>
<path d="M373.599 1174.38C368.374 1170.39 368.736 1112.94 362.265 1103.72C362.016 1103.37 359.804 1087.59 360.16 1086.62C361.464 1087.16 364.601 1109.93 367.063 1112.58C368.233 1117.14 368.731 1123.81 369.542 1128.61C372.263 1144.71 373.241 1158.15 373.599 1174.38Z" fill="#E5E4E5"/>
<path d="M123.914 944.874C124.642 943.923 138.426 929.43 139.506 928.581C148.597 921.427 160.036 912.639 169.794 906.48C157.817 918.989 145.222 930.393 130.891 940.1C129.004 941.376 126.358 943.808 124.579 945.301L123.914 944.874Z" fill="#BBBBBC"/>
<path d="M203.718 973.864C205.51 971.956 205.864 971.994 207.999 971.758L207.858 972.626C207.832 972.651 174.932 997.496 176.897 996.692C175.961 999.27 175.465 1000.8 174.072 1003.16L172.215 1003.78C173.552 995.364 176.027 993.411 181.914 987.464C185.004 983.903 187.77 982.352 191.767 980.144C195.716 977.986 199.7 975.893 203.718 973.864Z" fill="#E5E4E5"/>
<path d="M203.721 973.864C205.514 971.956 205.867 971.994 208.003 971.758L207.862 972.626C207.835 972.651 174.936 997.496 176.901 996.692C178.912 990.425 198.091 979.097 203.721 973.864Z" fill="#302F30"/>
<path d="M180.141 952.47C184.058 947.786 187.382 951.053 192.967 946.273L193.348 946.835C191.853 950.217 185.13 953.057 183.71 956.644L184.261 957.939C187.744 957.423 189.601 952.247 193.618 953.396L194.325 954.11C189.337 956.561 184.22 961.443 180.091 965.183C177.275 967.117 173.473 969.912 170.471 971.309L169.438 970.997C172.074 969.044 173.953 967.684 176.344 965.387C176.855 964.602 178.368 963.677 179.218 963.07L179.263 962.151C180.3 960.85 181.167 960.052 181.456 958.437C177.71 959.184 178.81 959.522 175.967 957.99C178.108 955.776 178.558 955.138 180.141 952.47Z" fill="#404041"/>
<path d="M159.771 900.242C155.786 905.737 152.223 907.269 148.212 911.449C138.657 921.398 128.524 932.407 118.844 942.152C121.295 933.568 144.291 912.017 151.571 905.533C154.56 902.929 156.32 902.099 159.771 900.242Z" fill="#E5E4E5"/>
<path d="M162.621 837.285C170.039 819.588 179.236 804.323 194.595 792.555C190.324 799.007 184.685 805.523 179.691 811.483C174.895 817.15 164.752 831.356 163.173 838.3L162.621 837.285Z" fill="#E5E4E5"/>
<path d="M171.251 840.603C177.558 830.443 187.982 811.783 196.68 804.629C195.886 807.156 187.095 817.603 184.845 821.088C177.873 831.886 170.857 847.738 163.246 857.687C163.577 854.982 169.655 844.03 171.251 840.603Z" fill="#E5E4E5"/>
<path d="M142.651 873.867C144.744 871.595 146.927 868.684 149.297 866.789C148.84 868.876 143.91 874.198 142.212 876.196C134.391 881.933 101.358 895.584 93.4165 896.152L93.043 895.469C96.7366 892.904 102.434 891.608 106.822 890.127C121.303 885.233 130.495 883.299 142.651 873.867Z" fill="#BBBBBC"/>
<path d="M177.337 797.357C181.122 792.775 189.794 784.874 195.755 783.789C184.561 793.011 175.303 801.792 168.036 814.479C167.401 815.59 166.275 817.44 165.52 818.411L165.105 817.587C170.205 809.47 169.847 807.076 177.337 797.357Z" fill="#E5E4E5"/>
<path d="M204.578 791.141C194.652 801.888 184.148 812.998 177.227 826.062L176.469 825.098C184.682 809.425 189.415 801.154 204.578 791.141Z" fill="#E5E4E5"/>
<path d="M280.693 1196.41C280.458 1198.82 280.269 1199.69 279.628 1202.03L279.142 1201.06C275.067 1201.41 276.375 1202.16 270.594 1201.93C267.739 1201.95 267.799 1202.45 266.125 1201.01L266.164 1199.64C268.574 1196.27 269.725 1196.78 273.653 1196.98C275.767 1196.5 278.479 1196.5 280.693 1196.41Z" fill="white"/>
<path d="M225.456 1189.44C228.601 1190.79 232.5 1191.92 235.806 1192.98C231.302 1196.19 226.03 1199.2 221.973 1202.72C223.761 1197.52 224.405 1194.85 225.456 1189.44Z" fill="#E5E4E5"/>
<path d="M222.885 853.787L224.316 853.359C224.614 854.049 224.812 854.489 225.041 855.21L226.93 854.444L228.469 855.612L228.586 859.39C228.126 862.071 228.175 863.762 228.178 866.487L227.182 865.804C226.836 864.655 226.803 864.54 226.231 863.494C225.681 864.508 225.58 864.604 224.872 865.453C223.945 864.157 223.482 863.583 222.377 862.441L222.46 858.21L219.41 857.106L219.078 856.289L219.872 855.446L220.255 856.646L220.971 856.799L222.885 853.787Z" fill="#030303"/>
<path d="M150.027 970.836C153.934 968.219 157.258 966.662 161.758 965.226C169.133 962.865 173.553 956.381 180.14 952.469C178.556 955.136 178.107 955.775 175.965 957.989C168.513 964.652 167.681 965.328 158.379 968.819C154.914 970.044 153.775 970.51 150.027 970.836Z" fill="#E5E4E5"/>
<path d="M133.871 976.129C137.792 972.855 143.627 969.377 148.046 966.422L148.796 966.658C147.521 968.962 148.422 968.93 146.271 970.749C144.517 972.236 139.956 974.074 138.936 975.656C139.711 976.358 139.648 976.358 140.627 976.703C140.564 977.699 140.557 977.845 140.299 978.809L140.771 979.562C140.318 980.06 139.57 980.781 139.298 981.343L138.297 981.649C137.184 980.047 136.18 980.845 134.46 981.272L133.84 980.883C135.192 979.76 136.571 978.962 136.892 977.354C135.504 976.129 136.071 976.518 133.871 976.129Z" fill="#302F30"/>
<path d="M207.18 1179.99C210.784 1182.08 221.972 1187.17 222.88 1189.77L222.196 1192.87L217.87 1190.78C216.494 1189.73 213.095 1188.2 211.013 1186.84L211.293 1186.46C209.576 1184.05 208.559 1182.59 207.18 1179.99Z" fill="#E5E4E5"/>
<path d="M141.242 953.215L141.559 953.521C139.327 955.614 135.232 957.803 132.062 960.835C126.364 966.291 122.922 971.55 117.777 977.383C122.652 967.708 129.63 955.066 141.242 953.215Z" fill="#E5E4E5"/>
<path d="M175.965 957.996C178.809 959.528 177.708 959.189 181.455 958.443C181.166 960.057 180.299 960.855 179.262 962.157C174.093 962.751 167.428 967.677 162.433 969.413L158.379 968.826C167.681 965.335 168.513 964.659 175.965 957.996Z" fill="#1B1B1B"/>
<path d="M187.035 898.605C189.894 893.825 200.01 878.994 204.194 876.16C201.737 882.861 196.98 886.996 194.025 892.338C191.681 894.489 189.627 897.418 187.035 898.605Z" fill="#E5E4E5"/>
<path d="M140.773 979.561C142.268 979.12 144.164 978.718 145.711 978.418C157.146 976.21 166.212 971.003 176.347 965.387C173.956 967.684 172.077 969.044 169.441 970.996C164.881 973.077 153.777 976.721 150.331 978.846C146.877 979.81 142.825 981.124 139.301 981.341C139.573 980.78 140.32 980.059 140.773 979.561Z" fill="#BBBBBC"/>
<path d="M176.087 940.624C177.828 939.731 179.653 939.093 181.481 938.391C176.925 941.626 158.379 953.745 153.469 953.235C154.074 951.333 159.675 949.227 161.547 948.404C166.116 946.342 172.13 943.554 176.087 940.624Z" fill="#E5E4E5"/>
<path d="M181.921 987.467C179.276 983.759 186.089 977.237 191.528 978.245L191.773 980.147C187.776 982.355 185.011 983.906 181.921 987.467Z" fill="#1B1B1B"/>
<path d="M197.329 931.247L200.173 929.23C196.307 935.115 187.194 945.459 180.527 947.802C183.334 944.189 193.04 935.899 197.329 931.247Z" fill="#E5E4E5"/>
<path d="M100.509 959.236C102.063 958.489 103.549 957.934 105.148 957.309C100.75 964.067 96.8688 968.1 88.5742 969.798C92.5277 965.567 96.6626 965.675 100.509 959.236Z" fill="#E5E4E5"/>
<path d="M165.11 817.59L165.525 818.413C165.387 818.962 165.167 819.562 165.374 820.143C166.594 823.557 163.506 829.466 161.96 832.434L161.933 832.147L160.001 831.502L159.958 831.687L161.65 832.587L161.263 833.193L159.762 832.874L160.135 834.195L159.818 833.889C159.326 831.853 163.959 820.111 165.11 817.59Z" fill="#404041"/>
<path d="M140.548 881.445C135.751 885.645 127.894 891.682 121.996 893.877L120.488 892.703C128.471 889.257 131.277 885.172 140.548 881.445Z" fill="#E5E4E5"/>
<path d="M158.382 968.82L162.437 969.407C159.647 971.431 154.989 973.383 151.588 973.862L151.112 973.026L147.594 972.643C148.377 971.609 148.859 971.469 150.031 970.837C153.779 970.512 154.917 970.046 158.382 968.82Z" fill="#302F30"/>
<path d="M144.725 953.931C147.098 952.802 147.864 952.349 150.452 952.004C146.633 955.418 135.346 962.662 130.883 965.272C135.286 960.211 139.211 957.709 144.725 953.931Z" fill="#E5E4E5"/>
<path d="M180.09 965.182C184.218 961.442 189.336 956.56 194.324 954.109C190.278 959.508 187.46 963.057 181.088 965.807L180.09 965.182Z" fill="white"/>
<path d="M113.797 892.281C112.926 894.323 107.225 897.31 105.118 898.542C101.739 899.85 98.2789 901.107 95.0469 902.741L93.957 902.128C98.5292 899.084 108.49 894.674 113.797 892.281Z" fill="#E5E4E5"/>
<path d="M152.172 933.57C151.389 935.517 150.73 935.932 149.186 937.265C147.114 938.695 144.773 940.227 142.789 941.739L133.438 946.819L132.312 946.226C138.505 943.411 146.273 937.533 152.172 933.57Z" fill="#E5E4E5"/>
<path d="M79.1953 915.605C79.5727 910.914 89.9404 904.29 93.9507 902.133L95.0406 902.746C90.3912 905.305 87.0366 907.302 83.6092 911.54L84.4992 911.757C84.2643 912.006 83.491 912.88 83.2663 913.02L79.1953 915.605Z" fill="#7F8081"/>
<path d="M303.743 793.149C299.54 789.377 293.726 785.989 289.117 781.796L290.245 781.477C296.167 784.98 299.286 787.565 304.393 792.211L303.743 793.149Z" fill="#E5E4E5"/>
<path d="M113.8 892.28L115.602 892.223C116.282 892.925 116.565 893.314 117.386 893.844C115.389 894.782 111.717 896.269 110.311 897.749C108.298 898.668 107.327 898.528 105.121 898.541C107.227 897.309 112.929 894.322 113.8 892.28Z" fill="#302F30"/>
<path d="M99.8926 975.877L100.469 976.043C101.701 970.586 102.917 967.344 107.1 963.234C104.697 968.142 101.218 975.111 100.179 980.523C99.8383 979.451 99.4897 978.379 99.1328 977.313L99.8926 975.877Z" fill="#E5E4E5"/>
<path d="M117.38 893.843L120.487 892.707L121.994 893.881C119.613 895.222 113.048 897.283 110.305 897.749C111.711 896.268 115.383 894.781 117.38 893.843Z" fill="#A2A2A3"/>
<path d="M206.122 926.918C205.517 930.836 200.438 935.648 197.43 938.016C199.007 935.029 203.417 928.915 206.122 926.918Z" fill="#E5E4E5"/>
<path d="M180.089 965.184L181.087 965.809C178.32 967.902 174.005 971.291 170.469 971.31C173.471 969.913 177.272 967.117 180.089 965.184Z" fill="#7F8081"/>
<path d="M208.004 971.759C210.775 969.978 213.727 968.013 216.519 966.309C214.298 968.523 211.256 971.746 208.937 973.705L207.863 972.627L208.004 971.759Z" fill="#E5E4E5"/>
<path d="M256.71 775.543C259.332 774.943 259.948 774.771 262.609 774.892L263.142 775.422C261.42 776.443 259.743 776.583 257.771 776.921L256.676 776.29L256.71 775.543Z" fill="#BBBBBC"/>
<path d="M147.589 972.645L151.107 973.028L151.583 973.863C149.585 974.31 147.578 974.725 145.563 975.102L145.398 974.438L147.589 972.645Z" fill="#A2A2A3"/>
<path d="M173.762 831.176C173.824 829.274 175.474 826.638 176.477 825.094L177.235 826.057C176.444 827.455 174.993 830.461 173.762 831.176Z" fill="#404041"/>
<path d="M342.36 899.74C352.187 883.798 356.191 872.113 362.85 854.639C366.263 845.679 372.315 833.445 373.917 823.994C375.27 816.01 370.599 805.25 374.566 796.539C377.186 790.789 382.096 790.546 387.734 788.281C389.036 787.764 389.811 788.191 390.81 788.715C390.692 794.452 384.337 794.369 382.496 798.237L382.89 799.347C383.552 799.385 384.193 799.404 384.852 799.475C385.5 802.493 386.13 805.167 386.346 808.275C386.515 810.7 385.429 815.831 386.237 817.593L388.006 814.919L388.739 814.976C395.362 834.09 382.157 889.42 372.589 907.87C369.418 913.984 364.673 924.271 360.896 930.028C359.921 931.923 358.592 934.776 357.281 936.314C353.06 932.612 342.839 910.301 341.422 904.194C340.797 901.507 341.126 901.724 342.36 899.74Z" fill="white"/>
<path d="M342.36 899.742C345.22 904.337 358.764 927.605 360.896 930.03C359.921 931.926 358.592 934.779 357.281 936.317C353.06 932.615 342.839 910.304 341.422 904.197C340.797 901.51 341.126 901.727 342.36 899.742Z" fill="#E5E4E5"/>
<path d="M361.986 880.59C367.196 881.777 366.08 885.281 364.914 889.256C362.77 887.955 362.125 887.725 361.061 885.44C360.762 883.104 361.032 882.702 361.986 880.59Z" fill="#FCE3E4"/>
<path d="M226.201 784.284C230.354 782.293 227.078 778.878 234.73 779.88C239.439 780.493 237.653 776.842 241.174 780.021C241.953 782.248 241.993 781.431 241.428 783.345C239.977 784.201 239.789 784.265 238.11 784.207L237.545 785.081C237.968 786.441 238.628 787.532 237.91 788.579C235.018 792.772 230.295 795.426 231.661 801.164L232.036 801.521C232.961 799.479 236.197 795.248 238.352 794.514C239.086 795.637 239.168 795.745 239.565 797.015C241.202 794.673 240.462 794.967 242.749 794.437L243.329 794.852L243.127 795.835C242.794 803.333 239.6 809.677 236.999 816.659C236.054 822.256 222.7 845.99 218.796 851.631C216.66 854.72 213.594 857.79 210.671 860.189L210.482 860.145C209.302 861.076 208.09 862.123 206.772 862.819L205.254 861.363L204.766 862.468L204.393 862.55C203.293 862.799 203.292 862.653 202.489 863.316C201.82 867.835 194.664 872.749 190.959 875.665C189.587 878.218 182.019 885.059 179.477 886.865C180.201 885.276 180.482 884.964 180.435 883.279L178.684 881.868C179.906 877.592 186.005 870.611 189.576 867.937L191.07 868.313L191.87 867.745L190.24 866.616C191.723 864.152 197.183 856.354 197.792 854.42L199.471 853.68C201.586 851.912 204.86 843.762 205.735 840.929C198.665 843.297 202.463 847.024 200.278 850.329C198.813 851.421 198.514 851.765 196.718 851.772L195.806 850.725C195.478 847.106 200.141 846.858 197.896 840.482L197.684 839.895C194.874 844.847 191.643 850.693 188.16 855.128L187.467 856.615C185.424 857.183 186.296 857.164 183.988 856.335C181.469 860.712 178.753 866.22 175.348 869.756C177.685 865.461 184.872 853.495 185.044 849.283C187.425 847.955 192.568 837.298 193.884 834.509L191.812 836.111C190.644 835.638 191.123 836.034 190.523 834.681C191.255 833.015 191.805 832.128 191.622 830.284C190.406 830.788 189.892 831.828 189.099 832.945C188.933 831.796 190.875 828.357 191.528 827.004C190.865 825.517 190.586 824.259 190.173 822.702H189.871L189.614 821.624L190.977 820.564C195.579 810.743 204.475 801.349 213.42 795.28L213.35 794.156L215.038 792.752C217.564 789.083 221.897 785.669 226.201 784.284Z" fill="#1B1B1B"/>
<path d="M206.268 844.337C207.626 849.519 205.328 847.949 205.901 850.668C207.257 848.192 208.59 844.318 210.497 842.895L211.231 842.793C213.728 845.097 211.19 848.269 209.863 851.428C210.757 849.941 211.444 848.352 212.903 847.586L214.021 847.847C212.715 851.249 209.541 856.316 208.952 858.454C207.762 858.639 207.656 858.709 206.52 859.169L205.262 861.358L204.774 862.462L204.401 862.545C203.301 862.794 203.3 862.647 202.497 863.311C201.828 867.829 194.672 872.743 190.966 875.659C189.595 878.212 182.027 885.054 179.484 886.86C180.209 885.27 180.489 884.958 180.443 883.273L178.691 881.863C179.913 877.587 186.013 870.605 189.584 867.931L191.077 868.308L191.878 867.74L190.247 866.61C191.731 864.147 197.191 856.348 197.8 854.414L199.479 853.674L199.961 856.023C201.139 853.342 204.718 847.248 206.268 844.337Z" fill="#030303"/>
<path d="M190.966 875.661C189.595 878.214 182.027 885.055 179.484 886.861C180.209 885.272 180.489 884.96 180.443 883.275L178.691 881.864C179.913 877.588 186.013 870.607 189.584 867.933L191.077 868.309L191.878 867.741L190.247 866.612C191.731 864.148 197.191 856.35 197.8 854.416L199.479 853.676L199.961 856.024C197.45 859.432 190.911 867.135 193.409 871.762C192.072 873.108 190.488 874.117 190.468 875.572L190.966 875.661Z" fill="#1B1B1B"/>
<path d="M202.489 863.316C201.82 867.835 194.665 872.749 190.959 875.665L190.461 875.576C190.481 874.121 192.064 873.113 193.401 871.766C196.455 868.728 199.105 866.003 202.489 863.316Z" fill="#E5E4E5"/>
<path d="M206.262 844.343C206.905 840.016 221.631 814.348 224.763 811.789C228.012 817.807 212.082 836.129 213.763 840.131C214.99 840.673 214.399 840.654 215.566 840.392C218.45 838.369 218.851 834.821 220.282 833.966L220.429 834.4C220.17 837.47 215.757 844.719 214.015 847.853L212.896 847.591C211.438 848.357 210.75 849.946 209.856 851.433C211.184 848.274 213.722 845.102 211.224 842.798L210.49 842.901C208.583 844.324 207.25 848.197 205.895 850.674C205.321 847.955 207.619 849.525 206.262 844.343Z" fill="#404041"/>
<path d="M216.467 800.305C212.193 808.958 203.981 821.346 198.815 830.05C193.645 838.762 189.027 847.868 183.988 856.331C181.469 860.709 178.753 866.216 175.348 869.752C177.685 865.457 184.872 853.491 185.044 849.279C187.425 847.951 192.568 837.294 193.884 834.505C198.424 822.788 207.884 809.431 216.467 800.305Z" fill="#A2A2A3"/>
<path d="M205.74 840.923C209.504 835.314 223.799 801.975 228.618 802.122C228.318 805.134 224.542 807.929 224.768 811.784C221.636 814.343 206.91 840.011 206.266 844.337C204.716 847.248 201.137 853.342 199.959 856.023L199.477 853.674C201.591 851.906 204.865 843.757 205.74 840.923Z" fill="#A2A2A3"/>
<path d="M188.16 855.124C191.883 843.618 211.881 811.236 220.392 802.289C213.869 813.802 202.969 829.559 197.684 839.891C194.874 844.843 191.643 850.689 188.16 855.124Z" fill="#E5E4E5"/>
<path d="M213.419 795.277C213.043 797.243 193.338 818.845 190.977 820.562C195.579 810.741 204.474 801.346 213.419 795.277Z" fill="white"/>
<path d="M230.945 811.02L231.789 812.277C229.351 818.486 227.211 825.5 224.496 831.461L221.434 832.896C224.816 825.972 226.949 818.742 230.945 811.02Z" fill="#E5E4E5"/>
<path d="M224.491 831.461C222.439 835.679 211.762 857.193 208.941 858.456C209.529 856.318 212.704 851.251 214.01 847.85C215.752 844.716 220.165 837.466 220.425 834.397L221.428 832.897L224.491 831.461Z" fill="#7F8081"/>
<path d="M236.998 816.656C236.519 813.108 240.771 798.098 243.127 795.832C242.793 803.331 239.599 809.674 236.998 816.656Z" fill="#E5E4E5"/>
<path d="M215.039 792.746C217.565 789.076 221.898 785.662 226.202 784.277C223.378 786.6 218.04 791.285 215.039 792.746Z" fill="#BBBBBC"/>
<path d="M230.945 811.021C231.502 809.425 232.621 805.443 234.029 804.754C233.93 807.275 232.72 809.891 231.789 812.278L230.945 811.021Z" fill="#656566"/>
<path d="M227.41 797.973C227.449 798.604 227.332 799.236 227.07 799.811C226.074 801.942 219.419 811.285 217.646 814.336C213.768 821.024 210.372 827.725 206.582 834.381C205.841 828.593 222.899 802.331 227.41 797.973Z" fill="#E5E4E5"/>
<path d="M201.831 814.449C202.483 816.606 194.405 829.274 192.865 831.916C192.331 827.985 199.406 817.761 201.831 814.449Z" fill="#E5E4E5"/>
<path d="M128.027 1058.29C132.339 1057.13 143.981 1054.24 147.251 1052.22C158.004 1045.39 165.484 1034.49 174.469 1025.77C184.912 1015.64 194.747 1005.78 204.615 995.055C206.686 997.422 207.793 998.775 209.528 1001.39C215.576 1006.19 218.897 1010.33 225.577 1014.79L221.996 1017.71C209.827 1030.12 201.134 1038.68 186.457 1048.43C179.358 1053.14 165.354 1060.72 159.946 1065.82C158.566 1070.29 149.099 1087.04 146.574 1088.41C143.252 1084.73 148.958 1079.58 145.37 1074.65C139.057 1071.34 123.825 1084.5 119.054 1082.86C118.648 1079.05 129.946 1073.68 132.065 1070.39C128.1 1071.98 119.175 1077.42 116.307 1076.61C117.828 1072.57 130.328 1067.58 130.383 1065.43C126.737 1065.66 116.8 1073.33 113.309 1075.78C118.181 1069.24 128.189 1062.39 129.451 1060.25L128.027 1058.29Z" fill="white"/>
<path d="M209.527 1001.39C215.576 1006.19 218.897 1010.33 225.576 1014.79L221.996 1017.71L221.298 1016.08L218.893 1016.86C216.196 1015.9 210.37 1004.31 209.527 1001.39Z" fill="#E5E4E5"/>
<path d="M203.856 998.062C206.412 1001.04 216.193 1016.24 217.686 1019.74C213.342 1015.73 207.108 1007.41 204.176 1002.11C203.007 1000.01 203.213 999.881 203.856 998.062Z" fill="#BBBBBC"/>
<path d="M224.39 937.809C221.471 944.382 219.698 947.592 214.924 952.902C214.744 955.123 214.816 956.616 213.575 958.46L214.339 959.118C216.921 958.077 218.142 953.872 220.731 953.151C220.424 955.997 216.249 958.09 216.599 960.151L220.648 956.361L221.353 956.552C220.55 960.049 202.196 973.017 200.034 971.919C193.366 968.524 196.576 971.46 188.332 973.726C189.548 967.937 193.441 968.856 196.95 965.736C197.049 965.646 198.65 960.368 201.139 959.96C204.156 958.901 207.111 956.482 209.858 955.391C213.008 953.476 220.464 942.021 224.39 937.809Z" fill="#302F30"/>
<path d="M224.394 937.809C221.475 944.382 219.702 947.592 214.927 952.902C206.858 960.994 202.707 965.129 193.293 971.881C196.155 967.612 205.637 959.475 209.862 955.391C213.012 953.476 220.468 942.021 224.394 937.809Z" fill="#E5E4E5"/>
<path d="M152.816 882.83C162.889 871.241 171.702 858.35 180.674 845.918C181.09 847.373 180.135 848.432 179.301 850.162L180.864 851.004C182.507 850.168 182.832 849.536 183.962 848.101C184.81 848.726 184.609 848.407 185.043 849.281C184.872 853.493 177.685 865.459 175.347 869.754C174.423 871.515 172.863 872.696 171.369 874.03C163.978 875.696 166.707 872.186 160.353 879.378L159.651 879.18C160.888 877.08 162.684 876.206 162.823 874.215L162.404 873.296C158.544 877.661 157.505 879.295 152.816 882.83Z" fill="#302F30"/>
<path d="M152.816 882.83C162.889 871.241 171.702 858.35 180.674 845.918C181.09 847.373 180.135 848.432 179.301 850.162C173.811 857.973 168.178 865.689 162.404 873.296C158.544 877.661 157.505 879.295 152.816 882.83Z" fill="#E5E4E5"/>
<path d="M389.531 808.81C391.781 804.566 398.122 798.504 403.279 798.893C408.045 801.956 404.133 804.688 406.92 809.085C406.91 811.771 405.167 813.846 403.866 816.468C400.218 816.941 398.074 817.477 394.572 816.181L393.775 815.167C395.154 811.076 402.369 809.487 404.598 805.798C399.183 808.415 394.17 813.322 389.531 808.81Z" fill="white"/>
<path d="M109.805 984.559C112.613 969.115 118.213 958.623 134.125 953.684C122.881 962.057 114.547 975.095 111.264 988.682C110.799 987.814 110.146 985.599 109.805 984.559Z" fill="white"/>
<path d="M399.561 789.691C401.765 789.749 404.256 791.063 404.673 793.399C403.017 797.343 396.713 799.641 392.528 801.887L389.898 802.921L388.385 801.919C387.591 796.399 395.296 791.631 399.561 789.691Z" fill="white"/>
<path d="M216.628 935.672C218.056 942.692 197.151 961.888 191.086 964.301C193.339 959.125 203.602 952.877 207.249 949.176C210.059 946.317 214.215 939.31 216.628 935.672Z" fill="#404041"/>
<path d="M392.192 827.48C392.018 824.997 391.297 819.956 392.647 818.162C398.84 818.373 397.83 820.505 403.865 816.465C402.783 818.922 394.666 827.461 392.452 828.31L392.192 827.48Z" fill="white"/>
<path d="M396.153 779.816C398.239 779.963 398.459 780.155 400.089 781.495C401.727 785.809 398.734 787.551 395.406 789.421L393.748 790.136L392.725 789.287C391.273 784.922 393.292 782.688 396.153 779.816Z" fill="white"/>
<path d="M111.263 988.679C110.916 989.898 110.732 992.431 110.585 993.804C104.351 981.525 108.944 965.609 120.368 958.008C116.171 963.579 105.365 977.179 109.804 984.556C110.146 985.596 110.798 987.811 111.263 988.679Z" fill="#E5E4E5"/>
<path d="M184.761 865.625L185.158 865.887C184.332 868.388 180.897 871.675 179.078 873.66C171.934 881.471 165.191 887.03 155.175 890.463L154.927 890.323L154.781 889.767C156.619 888.427 158.185 887.553 160.265 886.64C169.962 882.384 178.083 873.468 184.761 865.625Z" fill="#BBBBBC"/>
<path d="M96.4472 896.914L96.988 897.354C86.3495 903.838 82.6923 905.606 75.1773 915.581L74.874 915.734L74.4922 915.192C77.5065 906.212 87.9387 899.69 96.4472 896.914Z" fill="#E5E4E5"/>
<path d="M268.45 779.907L267.327 780.366L267.012 779.792L268.062 777.335C270.941 776.244 274.967 777.463 276.696 779.964L276.262 781.872C277.478 782.472 278.21 782.53 278.598 783.532C275.615 783.232 270.732 781.949 268.45 779.907Z" fill="#1B1B1B"/>
<path d="M268.449 779.91C271.817 780.408 273.034 780.759 276.261 781.876C277.477 782.476 278.208 782.533 278.597 783.535C275.614 783.235 270.731 781.952 268.449 779.91Z" fill="#656566"/>
<path d="M120.215 898.412C121.208 898.189 120.689 898.189 121.771 898.757C119.127 900.021 103.045 902.797 97.0395 904.813L95.7031 905.145L95.7932 904.641C102.296 901.444 112.941 898.968 120.215 898.412Z" fill="#A2A2A3"/>
<path d="M184.033 940.777C178.768 945.73 174.42 949.699 168.102 953.292L166.883 952.507C172.626 948.199 177.673 944.192 184.033 940.777Z" fill="#E5E4E5"/>
<path d="M246.713 922.324C249.139 922.471 251.321 922.324 252.188 924.915C250.797 926.121 249.785 925.955 247.906 926.077L245.862 927.851C245.296 927.889 244.857 928.004 244.412 927.825C244.092 925.598 245.413 924.207 246.713 922.324Z" fill="#1B1B1B"/>
<path d="M184.837 897.184C183.805 901.077 173.132 908.965 169.571 911.836C169.17 909.794 182.543 898.926 184.837 897.184Z" fill="#404041"/>
<path d="M141.952 888.004L142.541 888.38C136.571 893.103 130.678 895.369 123.341 896.715L123.143 896.664C122.651 897.321 140.754 888.617 141.952 888.004Z" fill="#E5E4E5"/>
<path d="M151.378 887.281L151.956 887.492L151.614 888.417C147.366 892.087 143.206 893.523 137.951 895.182L137.324 895.316C138.34 893.657 149.016 888.468 151.378 887.281Z" fill="#A2A2A3"/>
<path d="M168.102 953.289C165.783 954.552 151.742 962.568 150.262 962.549C151.58 961.183 165.213 953.212 166.883 952.504L168.102 953.289Z" fill="#656566"/>
<path d="M226.348 1015.83C228.143 1016.41 232.097 1019.71 233.337 1021.14C230.431 1020.73 226.653 1020.83 225.406 1017.95L226.348 1015.83Z" fill="#E5E4E5"/>
<path d="M168.672 955.633L169.01 955.684L169.124 956.207C165.816 958.939 161.159 961.517 156.967 962.551L156.176 962.378C157.775 960.847 166.189 956.877 168.672 955.633Z" fill="#E5E4E5"/>
<path d="M213.371 932.02C213.65 932.173 214.316 932.779 214.597 933.015C213.614 935.498 210.75 938.854 209.031 941.069L208.654 941.171L208.219 940.724C208.821 938.433 211.932 934.183 213.371 932.02Z" fill="#302F30"/>
<path d="M390.127 778.621C390.739 779.298 390.663 779.451 390.941 780.376C390.51 783.063 390.008 783.778 388.663 786.171C385.977 783.937 388.518 780.919 390.127 778.621Z" fill="white"/>
<path d="M164.335 903.297L164.74 903.571C163.822 905.403 157.7 909.972 155.707 911.561L155.375 911.287C156.078 909.104 162.306 904.72 164.335 903.297Z" fill="#404041"/>
<path d="M320.223 910.207C320.395 911.93 316.996 917.604 315.993 919.301C315.043 915.791 318.144 912.632 320.223 910.207Z" fill="#BBBBBC"/>
<path d="M118.359 1062.65C121.747 1060.79 124.465 1059.72 128.025 1058.29L129.449 1060.25C127.216 1060.4 120.852 1062.05 118.359 1062.65Z" fill="#E5E4E5"/>
<path d="M234.567 932.721L236.01 930.934C236.713 932.669 233.774 937.137 232.713 938.745L232.129 937.641L234.567 932.721Z" fill="#7F8081"/>
<path d="M232 940.806C230.627 943.02 229.766 944.278 228.145 946.314C228.371 944.571 231.179 939.504 232.129 937.641L232.713 938.745L232 940.806Z" fill="#404041"/>
<path d="M187.397 966.473L187.163 967.621C185.787 969.159 183.68 971.814 181.922 972.58L181.156 972.006C183.503 969.587 184.72 968.528 187.397 966.473Z" fill="#404041"/>
<path d="M255.088 933.863C255.125 936.301 251.858 939.371 250.152 941.324L250.109 939.964C251.889 936.978 252.58 936.327 255.088 933.863Z" fill="#656566"/>
<path d="M181.157 890.461L181.568 891.048C179.724 893.952 178.894 894.686 176.371 897.079L175.691 896.364C177.461 894.182 179.2 892.446 181.157 890.461Z" fill="#302F30"/>
<path d="M222.729 779.352L224.63 779.632L224.474 780.162L219.039 781.981L217.27 781.892C218.425 780.647 220.994 779.971 222.729 779.352Z" fill="#656566"/>
<path d="M164.522 893.648C164.063 895.844 162.232 896.418 159.938 897.924L159.952 896.744C161.03 895.123 162.765 894.497 164.522 893.648Z" fill="#1B1B1B"/>
<path d="M162.203 978.461L163.084 978.838C162.221 980.171 159.955 980.714 158.312 981.333L157.426 980.975C158.178 979.878 160.729 979.086 162.203 978.461Z" fill="#656566"/>
<path d="M157.133 954.766L158.003 955.027L157.79 955.819L153.96 957.548L152.949 957.376C153.365 956.329 155.826 955.429 157.133 954.766Z" fill="#656566"/>
<path d="M280.874 1193.93C296.168 1191.1 308.068 1184.6 324.352 1182.33C339.864 1180.17 348.334 1183.9 362.652 1182.8L363.47 1182.1C363.774 1183.04 363.999 1183.7 364.385 1184.62C367.344 1183.44 370.86 1181.92 373.842 1180.95C365.021 1187.47 349.067 1193.36 338.113 1195.36C334.293 1196.05 328.269 1196.12 325.13 1196.79L323.8 1197.63C315.435 1213.68 311.379 1229.32 305.453 1246.72C300.399 1260.96 293.437 1274.95 290.235 1289.75C287.038 1304.53 301.899 1355.45 269.101 1341.35C257.615 1336.41 257.522 1300.97 255.779 1289.76C254.922 1284.25 263.469 1276.16 267.72 1272.83C269.852 1259.95 268.804 1245.86 271.302 1232.38C273.144 1222.44 278.207 1211.15 279.624 1202.03C280.264 1199.7 280.454 1198.82 280.688 1196.42C280.796 1196.08 281.485 1195.01 281.711 1194.64L280.874 1193.93Z" fill="#030303"/>
<path d="M362.653 1182.8L363.471 1182.1C363.774 1183.04 364 1183.7 364.386 1184.62C367.345 1183.44 370.86 1181.92 373.843 1180.95C365.022 1187.47 349.068 1193.36 338.114 1195.36C334.294 1196.05 328.27 1196.12 325.131 1196.79L323.801 1197.63C324.826 1194.06 327.872 1187.16 329.387 1183.47C336.094 1183.42 340.912 1184.12 346.98 1184.19L348.695 1184.53C354.89 1185.27 357.067 1185.48 362.653 1182.8Z" fill="#E5E4E5"/>
<path d="M362.655 1182.8L363.473 1182.1C363.777 1183.04 364.002 1183.7 364.388 1184.62C367.347 1183.44 370.863 1181.92 373.845 1180.95C365.024 1187.47 349.07 1193.36 338.116 1195.36C334.296 1196.05 328.272 1196.12 325.133 1196.79C328.305 1193.77 332.306 1194.02 336.504 1193.79L339.542 1193.23C339.517 1192.89 339.492 1192.55 339.468 1192.2C343.064 1189.7 345.963 1187.85 348.697 1184.53C354.892 1185.27 357.069 1185.48 362.655 1182.8Z" fill="#0F0F0F"/>
<path d="M362.653 1182.8L363.471 1182.09C363.774 1183.04 363.999 1183.7 364.385 1184.61C358.134 1187.28 345.852 1192.23 339.54 1193.22C339.515 1192.89 339.49 1192.55 339.465 1192.2C343.061 1189.69 345.96 1187.84 348.695 1184.53C354.889 1185.27 357.066 1185.48 362.653 1182.8Z" fill="#E5E4E5"/>
<path d="M346.987 1184.19L348.702 1184.53C345.967 1187.84 343.068 1189.69 339.472 1192.2C339.497 1192.55 339.521 1192.89 339.546 1193.22L336.508 1193.79C339.062 1190.61 346.476 1187.44 346.987 1184.19Z" fill="#A2A2A3"/>
<path d="M311.539 1186.98C314.415 1186.24 323.883 1183.77 326.283 1184.48C324.66 1190.95 316.855 1206.95 314.259 1214.17C310.461 1224.73 306.691 1235.6 303.349 1246.34C298.462 1262.04 287.371 1280.98 287.22 1297.15L284.237 1295.49C278.138 1293.47 274.961 1294 268.897 1295.06C267.289 1281.15 268.458 1278.77 270.646 1265.03C272.488 1253.47 271.388 1240.27 274.699 1228.54C277.848 1217.39 282.254 1207.01 283.389 1195.48C290.222 1194.23 299.572 1190.97 306.213 1188.61C307.356 1188.15 310.227 1187.37 311.539 1186.98Z" fill="white"/>
<path d="M306.21 1188.61C307.354 1188.14 310.224 1187.37 311.537 1186.97C304.994 1194.55 303.701 1195.85 296.275 1202.49L296.043 1202.28C297.981 1199.89 306.16 1191.18 306.581 1189.91L306.21 1188.61Z" fill="#E5E4E5"/>
<path d="M315.498 1187.89L315.583 1188.79C312.713 1193.35 310.231 1196.03 306.284 1199.58L306.184 1198.74C309.324 1195.15 312.429 1191.54 315.498 1187.89Z" fill="#A2A2A3"/>
<path d="M292.997 1198L293.128 1199.43C290.645 1202.61 288.879 1203.76 285.692 1206.14C285.496 1204.14 291.144 1199.79 292.997 1198Z" fill="#BBBBBC"/>
<path d="M321.195 1186.57L321.337 1187.56C320.004 1189.92 318.116 1191.67 316.223 1193.61C316.364 1191.61 319.69 1188.32 321.195 1186.57Z" fill="#A2A2A3"/>
<path d="M270.227 1301.49C277.723 1301.14 279.849 1301.33 287.111 1303.19C287.253 1308.64 288.165 1315.36 285.347 1319.75C282.896 1321.71 279.308 1322 276.926 1319.7C271.775 1314.74 270.781 1308.27 270.227 1301.49Z" fill="white"/>
<path d="M284.237 1295.49L287.221 1297.15C286.661 1298.87 287.062 1298.26 285.716 1299.45C283.431 1299.32 279.821 1299.53 278.469 1297.58C279.895 1296.08 282.072 1295.94 284.237 1295.49Z" fill="#0F0F0F"/>
<path d="M281.913 1324.73C283.73 1328.06 284.202 1328.74 283.388 1332.59L282.576 1333.07L281.986 1330.93L281.834 1330.9L280.613 1333.36L279.957 1333.08C280.291 1329.93 280.956 1327.74 281.913 1324.73Z" fill="#0F0F0F"/>
<path d="M263.974 1325.31L264.065 1325.63C265.55 1330.89 269.105 1334.4 269.284 1336.59C265.837 1333.16 265.051 1331.57 263.117 1327.08L263.974 1325.31Z" fill="#7F8081"/>
<path d="M258.653 1285.37C259.157 1289.42 258.96 1294.24 258.914 1298.38C257.165 1293.95 257.365 1289.86 258.653 1285.37Z" fill="#656566"/>
<path d="M260.287 1303.07C262.151 1305.9 261.62 1310.5 261.495 1313.88C259.969 1310.76 260.265 1306.55 260.287 1303.07Z" fill="#302F30"/>
<path d="M263.117 1327.08C262.795 1324.79 262.193 1322.08 262.86 1319.93L263.485 1320.07C264.061 1321.56 264.106 1323.73 263.974 1325.31L263.117 1327.08Z" fill="#302F30"/>
<path d="M450.32 1106.7C450.452 1109.21 447.028 1121.49 446.138 1124.85C436.196 1162.33 420.029 1197.78 397.537 1229.46C397.005 1227.82 400.389 1223.36 401.534 1221.69C425.645 1186.47 439.1 1147.43 450.32 1106.7Z" fill="#7F8081"/>
<path d="M115.574 1228.09L115.716 1229.02C113.47 1232.26 106.334 1238.85 103.11 1241.88C77.6932 1265.88 48.6376 1285.71 17.0207 1300.62L16.793 1300.04C51.4443 1283.84 88.8546 1255.2 115.574 1228.09Z" fill="#656566"/>
<path d="M319.03 1051.54L319.537 1052.26C316.086 1090.2 296.305 1125.89 274.237 1156.02C274.016 1153.81 279.274 1146.91 280.855 1144.64C286.774 1136.2 292.213 1127.45 297.146 1118.41C305.012 1103.67 311.31 1086.02 315.49 1069.85C316.872 1064.49 317.864 1057.13 319.03 1051.54Z" fill="#656566"/>
<path d="M98.0229 1273.96C98.4214 1274.33 98.2713 1274.28 98.466 1274.95C72.9585 1297.01 44.3285 1315.19 13.504 1328.88L12.9102 1328.25C14.3086 1327.18 15.7139 1326.57 17.3538 1325.96C24.9679 1323.14 31.9715 1319.01 38.9906 1314.96C59.8401 1303.07 79.5949 1289.35 98.0229 1273.96Z" fill="#A2A2A3"/>
<path d="M233.713 1053.14C234.542 1061.75 195.251 1091.49 188.65 1099.56C188.14 1099.62 187.709 1099.68 187.355 1099.72C188.336 1096.41 191.075 1095.04 193.69 1093.3C198.535 1088.06 204.307 1083.68 209.107 1078.14C210.892 1076.08 219.302 1064.52 220.142 1064.14L220.127 1064.13C219.396 1066.44 214.444 1073.76 212.869 1076.21C221.941 1067.62 226.772 1063.29 233.713 1053.14Z" fill="#BBBBBC"/>
<path d="M75.0868 1065.94L75.4916 1066.32C75.4469 1066.42 75.2611 1066.96 75.1883 1067.02C57.6089 1082.13 36.1913 1095.4 14.2976 1102.89C7.19428 1105.31 4.85671 1105.52 0.139254 1106.66L0 1106.43C24.2766 1101.67 56.1531 1081.35 75.0868 1065.94Z" fill="#656566"/>
<path d="M350.948 1075.95L352.275 1081.09C352.361 1097.99 352.336 1133.79 346.716 1149.65L346.203 1149.4C346.351 1144.87 347.811 1141.92 348.431 1137.13C349.681 1126.72 350.556 1116.26 351.054 1105.79C350.684 1100.1 350.949 1089.71 351.044 1083.84L350.948 1075.95Z" fill="#656566"/>
<path d="M351.044 1083.85C351.867 1089.03 351.987 1100.63 351.054 1105.79C350.684 1100.11 350.949 1089.72 351.044 1083.85Z" fill="#A2A2A3"/>
<path d="M470.112 1121.38C471.935 1132.49 451.931 1180 444.601 1191.08C444.378 1190.02 455.423 1167.45 456.739 1164.15C462.336 1150.13 466.163 1135.9 470.112 1121.38Z" fill="#7F8081"/>
<path d="M121.777 881.018C103.124 878.714 87.3085 875.772 70.8828 887.719C64.4641 892.39 68.0198 893.718 63.8613 896.5L63.7617 895.785C69.6511 881.573 87.8071 877.163 101.911 877.821C109.611 878.184 116.616 880.112 124.539 879.665L124.942 879.646C123.994 880.169 122.794 880.967 121.777 881.018Z" fill="#656566"/>
<path d="M177.966 978.711L180.585 980.147C176.563 983.268 172.245 985.999 167.694 988.284C162.168 991.053 138.607 1000.61 134.898 992.802C148.593 997.818 167.88 987.977 177.966 978.711Z" fill="#1B1B1B"/>
<path d="M57.3107 1102.41C57.4659 1102.55 57.4684 1102.93 57.5195 1103.23C39.1911 1115.56 21.9981 1126.89 0.617061 1133.46L0.03125 1133.16C21.4736 1125.38 38.1707 1114.42 57.3107 1102.41Z" fill="#7F8081"/>
<path d="M319.986 1088.2C320.808 1096.15 301.692 1132.82 297.223 1140.84C296.69 1138.27 299.927 1133.81 301.255 1131.46C308.985 1117.81 314.37 1102.8 319.986 1088.2Z" fill="#BBBBBC"/>
<path d="M339.194 968.241C340.687 965.573 337.685 951.527 339.118 946.402C339.927 954.852 340.683 966.358 342.093 974.457C342.276 970.813 342.738 954.431 343.55 952.235C343.893 956.62 343.441 968.426 343.751 970.36C343.525 970.621 342.008 973.34 341.721 973.838L340.723 973.385L339.194 968.241Z" fill="#A2A2A3"/>
<path d="M243.435 1022.81L244.194 1023.37C241.616 1025.86 230.475 1049.77 226.733 1053.03L226.048 1052.08L225.09 1052.34L225.104 1051.44C227.017 1049.29 229.068 1047.14 230.641 1044.74C233.292 1040.7 240.645 1025.47 243.435 1022.81Z" fill="#BBBBBC"/>
<path d="M144.777 998.89C159.395 995.616 164.178 993.319 176.764 985.227L176.437 987.052C167.291 993.127 156.042 999.298 144.777 998.89Z" fill="#656566"/>
<path d="M156.475 820.43C156.959 820.64 156.745 820.564 157.08 821.272C150.154 830.921 145.49 845.402 142.41 856.819C141.528 848.025 151.583 827.469 156.475 820.43Z" fill="#A2A2A3"/>
<path d="M116.657 1256.67L117.595 1257.18C116.834 1260.41 103.462 1271.07 100.26 1273.36L99.4961 1273.27C99.9232 1272.21 114.326 1259.21 116.657 1256.67Z" fill="#E5E4E5"/>
<path d="M252.217 1078.11C252.947 1081.33 235.242 1095.16 232.086 1097.73C232.113 1097.35 232.145 1096.89 232.182 1096.38C238.604 1091 246.684 1083.9 252.217 1078.11Z" fill="#7F8081"/>
<path d="M71.095 925.009C71.8273 923.209 73.7849 920.956 75.4584 919.82C72.1057 928.149 69.8161 932.086 71.782 940.823L70.996 940.6C68.0481 933.382 71.2999 930.855 71.095 925.009Z" fill="#656566"/>
<path d="M92.3772 1050.7C92.5189 1050.88 92.6983 1051.88 92.7641 1052.17C91.3205 1054.51 82.7348 1061.2 80.0735 1063.6C79.5021 1063.19 79.7517 1063.37 79.4102 1062.57C83.1696 1058.16 88.2143 1055.46 92.3772 1050.7Z" fill="#E5E4E5"/>
<path d="M350.946 1075.95C349.926 1074.07 349.581 1061.35 349.445 1058.41C350.522 1061.58 352.417 1077.48 352.273 1081.09L350.946 1075.95Z" fill="#BBBBBC"/>
<path d="M132.746 1209C133.225 1209.49 133.005 1209.39 133.059 1210.44C129.979 1214.06 126.973 1217.21 123.682 1220.64C123.438 1220.41 123.261 1219.9 123.098 1219.55C125.226 1216.42 129.819 1211.34 132.746 1209Z" fill="#E5E4E5"/>
<path d="M265.077 1060.92C265.219 1064 256.097 1074.95 253.831 1077.62L253.562 1076.54C256.722 1071.75 261.57 1065.68 265.077 1060.92Z" fill="#BBBBBC"/>
<path d="M256.105 997.789C255.989 1001.12 250.947 1006.37 248.685 1009.12C247.533 1005.91 253.908 1000.06 256.105 997.789Z" fill="#404041"/>
<path d="M68.7241 930.034C67.267 934.495 67.4011 937.028 66.7926 941.649L66.4332 941.419C65.7213 935.637 65.3726 934.456 67.3896 928.859L68.7241 930.034Z" fill="#302F30"/>
<path d="M72.0273 860.976C79.8992 859.329 82.4845 860.216 89.9312 862.865L89.1426 863.624C81.8377 861.135 79.6796 861.097 72.0273 860.976Z" fill="#A2A2A3"/>
<path d="M390.527 1237.51L391.089 1238.35C389.456 1241.39 384.46 1247.47 382.13 1250.45C381.637 1248.12 388.841 1239.79 390.527 1237.51Z" fill="#BBBBBC"/>
<path d="M252.132 972.027C254.47 975.123 253.433 981.064 253.206 985.25C251.452 983.853 252.126 974.695 252.132 972.027Z" fill="#E5E4E5"/>
<path d="M245.022 1033.99L245.288 1034.99C244.255 1037.89 241.962 1041.4 240.337 1044.12L239.684 1043.84C240.053 1041.95 243.855 1035.95 245.022 1033.99Z" fill="#BBBBBC"/>
<path d="M13.623 1300.83L14.6303 1300.71L14.9845 1301.35C12.8218 1302.97 9.5491 1304.04 6.96706 1305.03C6.54272 1305.22 6.3785 1305.12 5.82812 1305.1C6.45678 1303.92 11.9481 1301.64 13.623 1300.83Z" fill="#E5E4E5"/>
<path d="M320.453 922.64L321.253 922.602C322.585 925.805 323.477 929.571 324.384 932.953C322.146 931.102 321.072 925.512 320.453 922.64Z" fill="#E5E4E5"/>
<path d="M76.7883 926.068C75.752 929.023 74.6736 931.958 73.5525 934.881L73.207 934.792C73.5097 931.065 74.3486 928.544 76.2948 925.359L76.7883 926.068Z" fill="#A2A2A3"/>
<path d="M333.436 956.055C332.522 953.522 331.102 950.344 331.253 947.746C332.659 949.022 333.601 952.839 334.211 954.766L333.436 956.055Z" fill="#A2A2A3"/>
<path d="M198.999 1125.16L199.513 1125.65C199.56 1127.21 197.591 1129.62 196.612 1131.07L196.012 1130.62C196.127 1128.77 197.859 1126.77 198.999 1125.16Z" fill="#E5E4E5"/>
<path d="M87.857 985.125C89.457 985.725 90.589 986.165 92.2778 986.567L92.6041 987.027L92.1412 986.937C90.4875 987.748 88.9794 987.033 87.668 985.821L87.857 985.125Z" fill="#A2A2A3"/>
<path d="M246.57 1029.94C247.369 1029.9 247.34 1029.85 248.037 1030.23L246.988 1033.32C246.617 1033.35 245.974 1033.2 245.566 1033.13C245.241 1031.41 245.467 1031.74 246.57 1029.94Z" fill="#E5E4E5"/>
<path d="M250.096 1024.27L250.765 1024.04L251.268 1024.43L250.146 1027.56L248.759 1027.43L248.57 1026.46L250.096 1024.27Z" fill="#E5E4E5"/>
</g>
<defs>
<clipPath id="clip0_1835_9419">
<rect width="1350" height="1350" fill="white"/>
</clipPath>
</defs>
</svg>
